<svg height="661" viewBox="0 -28 496 496" width="661" xmlns="http://www.w3.org/2000/svg"><path d="M232.008 160.04c0-13.255-10.746-24-24-24-13.258 0-24 10.745-24 24 0 13.257 10.742 24 24 24 13.254 0 24-10.743 24-24zm-32 0a8 8 0 1 1 16 0 8 8 0 0 1-16 0zm-80-24c-13.258 0-24 10.745-24 24 0 13.257 10.742 24 24 24 13.254 0 24-10.743 24-24 0-13.255-10.746-24-24-24zm0 32a8 8 0 1 1 0-16.002 8 8 0 0 1 0 16.001zm176 16c13.254 0 24-10.743 24-24 0-13.255-10.746-24-24-24-13.258 0-24 10.745-24 24 0 13.257 10.742 24 24 24zm0-32a8 8 0 1 1-.001 16 8 8 0 0 1 0-16zm0 0"/><path d="M450.238 338.617c29.977-22.097 45.77-49.84 45.77-80.578 0-42.879-30.602-81.789-80.153-102.656C412.63 69.313 320.672.039 208.008.039c-114.692 0-208 71.777-208 160 0 42.938 22.527 84.152 62.054 114L.848 396.441a7.994 7.994 0 0 0 2.203 9.864 7.997 7.997 0 0 0 10.11-.168l116.359-97.914a259.435 259.435 0 0 0 73.878 11.648c28.61 34.715 79.711 56.168 134.61 56.168a221.436 221.436 0 0 0 60.246-7.094l84.687 69.285a8.004 8.004 0 0 0 10.125.13 8.007 8.007 0 0 0 2.141-9.895zm-327.625-45.496l-90.136 75.871 46.921-93.855a8.003 8.003 0 0 0-2.558-10.13C38.176 237.93 16.008 199.673 16.008 160.04c0-79.398 86.133-144 192-144 105.863 0 192 64.602 192 144 0 79.402-86.137 144-192 144a243.617 243.617 0 0 1-77.692-12.383 8.057 8.057 0 0 0-7.703 1.465zm282.457 60.727a7.998 7.998 0 0 0-7.543-1.414 196.408 196.408 0 0 1-59.52 7.605c-44.745 0-86.495-15.246-113.183-40.566 101.453-6.282 182.551-68.801 190.477-146.871 40.168 18.757 64.707 50.742 64.707 85.437 0 27.473-14.961 51.48-44.473 71.367a8 8 0 0 0-2.687 10.211l31.277 62.551zm0 0"/></svg>