<svg width="17" height="17" viewBox="0 0 17 17" fill="none" xmlns="http://www.w3.org/2000/svg"><path d="M13.33 17c-3.278 0-6.628-1.539-9.176-4.103l-.073-.074C1.386 10.113-.07 6.668.003 3.371v-.22l.145-.22c.219-.293.437-.586.728-.806C1.75 1.245 2.77.586 3.935.073 4.081 0 4.226 0 4.445 0c.364 0 1.31.22 1.53.806.363 1.1.873 2.565 1.237 3.957.073.366 0 1.319-.583 1.685l-1.238.806s0 .22.146.44c.51.66 1.092 1.392 1.748 2.052.655.66 1.31 1.245 1.966 1.685.146.073.291.147.437.147l.437-.66.437-.66c.364-.586 1.238-.586 1.383-.586h.292c1.675.367 2.694.733 4.005 1.32.583.292.947 1.318.655 1.978a7.852 7.852 0 0 1-2.039 3.077c-.218.22-.51.513-.8.733l-.22.22h-.509zM1.46 3.664c0 2.858 1.383 5.862 3.64 8.207l.073.073c2.33 2.345 5.243 3.664 8.083 3.664.146-.147.364-.293.51-.44a7.438 7.438 0 0 0 1.675-2.565s-.073-.073-.073-.146c-1.092-.513-2.039-.806-3.568-1.173h-.146l-.728 1.173c-.437.733-1.675.88-2.549.22-.728-.513-1.456-1.173-2.184-1.832-.729-.733-1.311-1.466-1.894-2.198-.291-.587-.437-1.173-.364-1.686.073-.44.291-.733.655-.952l1.166-.733v-.22A24.85 24.85 0 0 0 4.59 1.539c0-.073-.072-.073-.145-.073A7.384 7.384 0 0 0 1.896 3.15a3.181 3.181 0 0 0-.437.513z" fill="#AFAFAF"/></svg>