<svg xmlns="http://www.w3.org/2000/svg" xmlns:xlink="http://www.w3.org/1999/xlink"><symbol id="001-instagram-logo"><path d="M122.406 0H46.654C20.929 0 0 20.93 0 46.655v75.752c0 25.726 20.929 46.655 46.654 46.655h75.752c25.727 0 46.656-20.93 46.656-46.655V46.655C169.063 20.93 148.133 0 122.406 0zm31.657 122.407c0 17.455-14.201 31.655-31.656 31.655H46.654C29.2 154.063 15 139.862 15 122.407V46.655C15 29.201 29.2 15 46.654 15h75.752c17.455 0 31.656 14.201 31.656 31.655v75.752z"/><path d="M84.531 40.97c-24.021 0-43.563 19.542-43.563 43.563 0 24.02 19.542 43.561 43.563 43.561s43.563-19.541 43.563-43.561c0-24.021-19.542-43.563-43.563-43.563zm0 72.123c-15.749 0-28.563-12.812-28.563-28.561 0-15.75 12.813-28.563 28.563-28.563s28.563 12.813 28.563 28.563c0 15.749-12.814 28.561-28.563 28.561zM129.921 28.251c-2.89 0-5.729 1.17-7.77 3.22a11.053 11.053 0 0 0-3.23 7.78c0 2.891 1.18 5.73 3.23 7.78 2.04 2.04 4.88 3.22 7.77 3.22 2.9 0 5.73-1.18 7.78-3.22 2.05-2.05 3.22-4.89 3.22-7.78 0-2.9-1.17-5.74-3.22-7.78-2.04-2.05-4.88-3.22-7.78-3.22z"/></symbol><symbol id="003-vk" viewBox="0 0 511.962 511.962"><path d="M507.399 370.471c-1.376-2.304-9.888-20.8-50.848-58.816-42.88-39.808-37.12-33.344 14.528-102.176 31.456-41.92 44.032-67.52 40.096-78.464-3.744-10.432-26.88-7.68-26.88-7.68l-76.928.448s-5.696-.768-9.952 1.76c-4.128 2.496-6.784 8.256-6.784 8.256s-12.192 32.448-28.448 60.032c-34.272 58.208-48 61.28-53.6 57.664-13.024-8.416-9.76-33.856-9.76-51.904 0-56.416 8.544-79.936-16.672-86.016-8.384-2.016-14.528-3.36-35.936-3.584-27.456-.288-50.72.096-63.872 6.528-8.768 4.288-15.52 13.856-11.392 14.4 5.088.672 16.608 3.104 22.72 11.424 7.904 10.72 7.616 34.848 7.616 34.848s4.544 66.4-10.592 74.656c-10.4 5.664-24.64-5.888-55.2-58.72-15.648-27.04-27.488-56.96-27.488-56.96s-2.272-5.568-6.336-8.544c-4.928-3.616-11.84-4.768-11.84-4.768l-73.152.448s-10.976.32-15.008 5.088c-3.584 4.256-.288 13.024-.288 13.024s57.28 133.984 122.112 201.536c59.488 61.92 127.008 57.856 127.008 57.856h30.592s9.248-1.024 13.952-6.112c4.352-4.672 4.192-13.44 4.192-13.44s-.608-41.056 18.464-47.104c18.784-5.952 42.912 39.68 68.48 57.248 19.328 13.28 34.016 10.368 34.016 10.368l68.384-.96s35.776-2.208 18.816-30.336z"/></symbol><symbol id="chat" viewBox="0 -28 496.08 496"><path d="M232.008 160.04c0-13.255-10.746-24-24-24-13.258 0-24 10.745-24 24 0 13.257 10.742 24 24 24 13.254 0 24-10.743 24-24zm-32 0a8 8 0 1 1 16 0 8 8 0 0 1-16 0zm0 0M120.008 136.04c-13.258 0-24 10.745-24 24 0 13.257 10.742 24 24 24 13.254 0 24-10.743 24-24 0-13.255-10.746-24-24-24zm0 32a8 8 0 1 1 0-16.002 8 8 0 0 1 0 16.001zm0 0M296.008 184.04c13.254 0 24-10.743 24-24 0-13.255-10.746-24-24-24-13.258 0-24 10.745-24 24 0 13.257 10.742 24 24 24zm0-32a8 8 0 1 1-.001 16 8 8 0 0 1 0-16zm0 0"/><path d="M450.238 338.617c29.977-22.097 45.77-49.84 45.77-80.578 0-42.879-30.602-81.789-80.153-102.656C412.63 69.313 320.672.039 208.008.039c-114.692 0-208 71.777-208 160 0 42.938 22.527 84.152 62.054 114L.848 396.441a7.994 7.994 0 0 0 2.203 9.864 7.997 7.997 0 0 0 10.11-.168l116.359-97.914a259.435 259.435 0 0 0 73.878 11.648c28.61 34.715 79.711 56.168 134.61 56.168a221.436 221.436 0 0 0 60.246-7.094l84.687 69.285a8.004 8.004 0 0 0 10.125.13 8.007 8.007 0 0 0 2.141-9.895zm-327.625-45.496l-90.136 75.871 46.921-93.855a8.003 8.003 0 0 0-2.558-10.13C38.176 237.93 16.008 199.673 16.008 160.04c0-79.398 86.133-144 192-144 105.863 0 192 64.602 192 144 0 79.402-86.137 144-192 144a243.617 243.617 0 0 1-77.692-12.383 8.057 8.057 0 0 0-7.703 1.465zm282.457 60.727a7.998 7.998 0 0 0-7.543-1.414 196.408 196.408 0 0 1-59.52 7.605c-44.745 0-86.495-15.246-113.183-40.566 101.453-6.282 182.551-68.801 190.477-146.871 40.168 18.757 64.707 50.742 64.707 85.437 0 27.473-14.961 51.48-44.473 71.367a8 8 0 0 0-2.687 10.211l31.277 62.551zm0 0"/></symbol><symbol id="close" viewBox="0 0 612 612"><path d="M341.5 306L612 576l-35.5 35.4-270.5-270-270.5 270L0 576l270.5-270L0 36 35.5.6l270.5 270L576.5.6 612 36 341.5 306z"/></symbol><symbol id="email" viewBox="0 0 512 512"><path d="M467 61H45c-6.927 0-13.412 1.703-19.279 4.51L255 294.789l51.389-49.387.005-.007.005-.004L486.286 65.514C480.418 62.705 473.929 61 467 61zM507.496 86.728L338.213 256.002 507.49 425.279c2.807-5.867 4.51-12.352 4.51-19.279V106c0-6.923-1.699-13.407-4.504-19.272zM4.51 86.721C1.703 92.588 0 99.073 0 106v300c0 6.923 1.701 13.409 4.506 19.274L173.789 256 4.51 86.721z"/><path d="M317.002 277.213l-51.396 49.393c-2.93 2.93-6.768 4.395-10.605 4.395s-7.676-1.465-10.605-4.395L195 277.211 25.714 446.486C31.582 449.295 38.071 451 45 451h422c6.927 0 13.412-1.703 19.279-4.51L317.002 277.213z"/></symbol><symbol id="icon-facebook" viewBox="0 0 32 32"><path d="M18 32V18h6l1-6h-7V9c0-2 1.002-3 3-3h3V0h-5c-5 0-7 3-7 8v4H6v6h6v14h6z" fill="#3B5998"/></symbol><symbol id="icon-phone"><path d="M19.552 15.783l-3.09-3.089c-.614-.613-1.633-.594-2.27.043l-1.556 1.556-.307-.171c-.982-.545-2.327-1.29-3.743-2.707-1.42-1.42-2.166-2.766-2.712-3.75-.058-.104-.113-.204-.168-.3l1.045-1.043.513-.514c.638-.637.655-1.656.042-2.27L4.216.448c-.613-.613-1.632-.595-2.27.043l-.87.875.024.024a5.034 5.034 0 0 0-.718 1.265c-.167.441-.271.862-.319 1.284-.408 3.38 1.137 6.47 5.33 10.664 5.797 5.796 10.468 5.358 10.669 5.336a5.22 5.22 0 0 0 1.287-.323c.46-.18.888-.423 1.26-.714l.02.017.881-.864c.637-.637.655-1.656.042-2.272z"/></symbol></svg>