<svg xmlns="http://www.w3.org/2000/svg" xmlns:xlink="http://www.w3.org/1999/xlink"><defs><clipPath id="clip0"><path fill="#fff" d="M0 0h16.224v16.224H0z"/></clipPath><clipPath id="clip0"><path fill="#fff" transform="translate(.405 .254)" d="M0 0h18.66v18.66H0z"/></clipPath></defs><symbol id="icon-astronaut"><mask id="a" maskUnits="userSpaceOnUse" x="0" y="0" width="93" height="71" fill="#000"><path fill="#fff" d="M0 0h93v71H0z"/><path d="M50.863 51.07V36.716a2.61 2.61 0 0 0 .897-.331c.474-.29 1.052-.872 1.123-2.008.108-1.72-1.303-3.36-2.021-4.076v-8.952c5.834-.846 8.828.306 11.984 1.529 2.48.96 5.016 1.943 8.951 1.943 2.273-.001 5.016-.328 8.482-1.177l.457-.112V3.439l-.742.182c-9.106 2.229-12.803.796-16.715-.72C60.027 1.64 56.66.34 50.166 1.377l-.504.08v26.059a16.809 16.809 0 0 0-2.848-4c-.994-3.48-4.209-5.615-5.753-6.466.688-.771 1.113-1.864 1.113-3.432 0-4.237-3.139-7.685-6.996-7.685-3.857 0-6.993 3.447-6.993 7.685 0 1.567.424 2.66 1.112 3.432-1.543.85-4.759 2.984-5.752 6.466-.581.589-3 3.21-3.787 6.533-.539.495-2.405 2.36-2.282 4.328.07 1.136.649 1.719 1.122 2.008.467.286 1.004.39 1.473.39.371 0 .699-.063.916-.158.725-.32.944-1.232 1.005-1.61l1.251-2.26c2.002-1.02 3.696-2.672 4.771-3.89-.096 1.705-.105 3.528.167 4.602-.208.957-1.25 6.093-.828 10.95-.048.609-.408 5.716.418 9.249A64.31 64.31 0 0 0 1 69.713l.849.849A63.175 63.175 0 0 1 25.195 55.77c-.295.4-.491.853-.462 1.362l.032.566h8.833l.103-.472c.296-1.354.062-2.423-.088-2.906.142-.31.264-.643.377-.984a62.76 62.76 0 0 1 2.252-.406c.143.492.309.963.507 1.393-.15.482-.385 1.553-.088 2.906l.104.47h8.833l.031-.565c.092-1.665-2.046-2.77-3.1-3.21.138-.536.244-1.116.328-1.715a63.12 63.12 0 0 1 6.808-.017v6.592h1.2v-6.508c15.052 1.063 29.341 7.49 40.136 18.285l.849-.85A64.237 64.237 0 0 0 50.863 51.07zm.825-16.768c-.033.505-.213.852-.552 1.059-.085.052-.179.08-.272.112v-3.327c.471.655.869 1.435.824 2.156zm-.825-31.817c5.842-.847 8.828.312 11.984 1.535 3.811 1.476 7.746 3 16.691.942v17.626c-8.772 2.068-12.41.66-16.258-.83-2.422-.938-4.907-1.901-8.703-1.901-1.114 0-2.342.083-3.715.274V9.894l.001-7.41zm-1.199 32.727a1.95 1.95 0 0 1-.12-.465l-1.218-2.28 1.336-1.02v3.765h.002zM35.179 7.132c3.196 0 5.796 2.91 5.796 6.486 0 2.9-1.571 3.979-5.796 3.979-4.225 0-5.795-1.078-5.795-3.98 0-3.575 2.6-6.484 5.795-6.484zm-14.292 27.39l-.071.223c-.039.332-.197.722-.312.772-.166.073-.808.133-1.281-.155-.339-.208-.519-.554-.55-1.06-.072-1.147.97-2.448 1.655-3.135l1.7 1.296-1.141 2.059zm13.453 17.53c.697-3.127.546-6.78.511-7.438.127-.506.232-1.018.329-1.527.097.512.202 1.02.329 1.527-.034.638-.176 4.089.449 7.146-.541.09-1.079.189-1.618.292zm9.897 4.446h-6.485c-.14-1.168.191-1.965.194-1.971l.115-.26-.128-.254c-1.587-3.148-1.224-9.357-1.221-9.421l.006-.095-.023-.091c-.602-2.354-.833-4.873-.915-6.794.011-.274.02-.538.026-.786l-.053-.001-.001-.028-.573.014-.573-.014-.001.028h-.053c.006.25.015.514.026.789-.082 1.92-.313 4.438-.915 6.792l-.023.092.006.094c.003.063.366 6.27-1.221 9.42l-.124.255.109.256c.004.009.335.807.195 1.975h-6.486c.504-.727 1.88-1.39 2.631-1.645l.555-.19-.176-.56c-1.076-3.406-.583-9.588-.578-9.65l.004-.051-.004-.051c-.453-5.09.818-10.721.832-10.776l.036-.155-.046-.153c-.507-1.665-.021-6.606.208-8.37l-1.189-.154c-.012.092-.116.907-.22 2.02-.455.613-2.604 3.386-5.305 4.833l-1.908-1.455c.849-3.266 3.509-5.851 3.537-5.878l.122-.117.043-.163c.915-3.488 4.582-5.567 5.652-6.108 1.324.76 3.104.923 4.866.923 1.762 0 3.542-.163 4.867-.923 1.071.542 4.738 2.62 5.653 6.108l.043.164.122.117c.028.026 2.686 2.602 3.535 5.877l-1.906 1.455c-2.701-1.447-4.851-4.22-5.305-4.833a62.168 62.168 0 0 0-.22-2.02l-1.189.154c.229 1.764.715 6.705.208 8.37l-.046.153.036.155c.004.017.121.539.27 1.388-.967.27-1.983.054-2.636-.596-.66-.658-.781-1.62-.331-2.638.887-2.007.175-3.644-.408-4.522h1.604v-7.66h-8.59v7.66h5.989c.388.437 1.619 2.058.673 4.199-.583 1.318-.396 2.637.498 3.527.62.618 1.482.942 2.383.942.314 0 .632-.053.947-.134.333 2.113.711 5.462.432 8.61l-.004.05.004.052c.005.063.499 6.24-.578 9.65l-.176.56.555.188c.749.258 2.124.92 2.628 1.647zM31.685 26.405v-6.058h6.99v6.059l-6.99-.001zM42.996 51c.27-3.017.048-6.126.011-6.594.422-4.857-.621-9.993-.828-10.95.273-1.073.263-2.896.167-4.601 1.075 1.217 2.769 2.869 4.771 3.89l1.25 2.26c.062.377.281 1.29 1.008 1.61.078.033.184.059.287.083v14.287a64.457 64.457 0 0 0-6.666.015z"/></mask><path d="M50.863 51.07V36.716a2.61 2.61 0 0 0 .897-.331c.474-.29 1.052-.872 1.123-2.008.108-1.72-1.303-3.36-2.021-4.076v-8.952c5.834-.846 8.828.306 11.984 1.529 2.48.96 5.016 1.943 8.951 1.943 2.273-.001 5.016-.328 8.482-1.177l.457-.112V3.439l-.742.182c-9.106 2.229-12.803.796-16.715-.72C60.027 1.64 56.66.34 50.166 1.377l-.504.08v26.059a16.809 16.809 0 0 0-2.848-4c-.994-3.48-4.209-5.615-5.753-6.466.688-.771 1.113-1.864 1.113-3.432 0-4.237-3.139-7.685-6.996-7.685-3.857 0-6.993 3.447-6.993 7.685 0 1.567.424 2.66 1.112 3.432-1.543.85-4.759 2.984-5.752 6.466-.581.589-3 3.21-3.787 6.533-.539.495-2.405 2.36-2.282 4.328.07 1.136.649 1.719 1.122 2.008.467.286 1.004.39 1.473.39.371 0 .699-.063.916-.158.725-.32.944-1.232 1.005-1.61l1.251-2.26c2.002-1.02 3.696-2.672 4.771-3.89-.096 1.705-.105 3.528.167 4.602-.208.957-1.25 6.093-.828 10.95-.048.609-.408 5.716.418 9.249A64.31 64.31 0 0 0 1 69.713l.849.849A63.175 63.175 0 0 1 25.195 55.77c-.295.4-.491.853-.462 1.362l.032.566h8.833l.103-.472c.296-1.354.062-2.423-.088-2.906.142-.31.264-.643.377-.984a62.76 62.76 0 0 1 2.252-.406c.143.492.309.963.507 1.393-.15.482-.385 1.553-.088 2.906l.104.47h8.833l.031-.565c.092-1.665-2.046-2.77-3.1-3.21.138-.536.244-1.116.328-1.715a63.12 63.12 0 0 1 6.808-.017v6.592h1.2v-6.508c15.052 1.063 29.341 7.49 40.136 18.285l.849-.85A64.237 64.237 0 0 0 50.863 51.07zm.825-16.768c-.033.505-.213.852-.552 1.059-.085.052-.179.08-.272.112v-3.327c.471.655.869 1.435.824 2.156zm-.825-31.817c5.842-.847 8.828.312 11.984 1.535 3.811 1.476 7.746 3 16.691.942v17.626c-8.772 2.068-12.41.66-16.258-.83-2.422-.938-4.907-1.901-8.703-1.901-1.114 0-2.342.083-3.715.274V9.894l.001-7.41zm-1.199 32.727a1.95 1.95 0 0 1-.12-.465l-1.218-2.28 1.336-1.02v3.765h.002zM35.179 7.132c3.196 0 5.796 2.91 5.796 6.486 0 2.9-1.571 3.979-5.796 3.979-4.225 0-5.795-1.078-5.795-3.98 0-3.575 2.6-6.484 5.795-6.484zm-14.292 27.39l-.071.223c-.039.332-.197.722-.312.772-.166.073-.808.133-1.281-.155-.339-.208-.519-.554-.55-1.06-.072-1.147.97-2.448 1.655-3.135l1.7 1.296-1.141 2.059zm13.453 17.53c.697-3.127.546-6.78.511-7.438.127-.506.232-1.018.329-1.527.097.512.202 1.02.329 1.527-.034.638-.176 4.089.449 7.146-.541.09-1.079.189-1.618.292zm9.897 4.446h-6.485c-.14-1.168.191-1.965.194-1.971l.115-.26-.128-.254c-1.587-3.148-1.224-9.357-1.221-9.421l.006-.095-.023-.091c-.602-2.354-.833-4.873-.915-6.794.011-.274.02-.538.026-.786l-.053-.001-.001-.028-.573.014-.573-.014-.001.028h-.053c.006.25.015.514.026.789-.082 1.92-.313 4.438-.915 6.792l-.023.092.006.094c.003.063.366 6.27-1.221 9.42l-.124.255.109.256c.004.009.335.807.195 1.975h-6.486c.504-.727 1.88-1.39 2.631-1.645l.555-.19-.176-.56c-1.076-3.406-.583-9.588-.578-9.65l.004-.051-.004-.051c-.453-5.09.818-10.721.832-10.776l.036-.155-.046-.153c-.507-1.665-.021-6.606.208-8.37l-1.189-.154c-.012.092-.116.907-.22 2.02-.455.613-2.604 3.386-5.305 4.833l-1.908-1.455c.849-3.266 3.509-5.851 3.537-5.878l.122-.117.043-.163c.915-3.488 4.582-5.567 5.652-6.108 1.324.76 3.104.923 4.866.923 1.762 0 3.542-.163 4.867-.923 1.071.542 4.738 2.62 5.653 6.108l.043.164.122.117c.028.026 2.686 2.602 3.535 5.877l-1.906 1.455c-2.701-1.447-4.851-4.22-5.305-4.833a62.168 62.168 0 0 0-.22-2.02l-1.189.154c.229 1.764.715 6.705.208 8.37l-.046.153.036.155c.004.017.121.539.27 1.388-.967.27-1.983.054-2.636-.596-.66-.658-.781-1.62-.331-2.638.887-2.007.175-3.644-.408-4.522h1.604v-7.66h-8.59v7.66h5.989c.388.437 1.619 2.058.673 4.199-.583 1.318-.396 2.637.498 3.527.62.618 1.482.942 2.383.942.314 0 .632-.053.947-.134.333 2.113.711 5.462.432 8.61l-.004.05.004.052c.005.063.499 6.24-.578 9.65l-.176.56.555.188c.749.258 2.124.92 2.628 1.647zM31.685 26.405v-6.058h6.99v6.059l-6.99-.001zM42.996 51c.27-3.017.048-6.126.011-6.594.422-4.857-.621-9.993-.828-10.95.273-1.073.263-2.896.167-4.601 1.075 1.217 2.769 2.869 4.771 3.89l1.25 2.26c.062.377.281 1.29 1.008 1.61.078.033.184.059.287.083v14.287a64.457 64.457 0 0 0-6.666.015z" fill="#333"/><path d="M50.863 51.07V36.716a2.61 2.61 0 0 0 .897-.331c.474-.29 1.052-.872 1.123-2.008.108-1.72-1.303-3.36-2.021-4.076v-8.952c5.834-.846 8.828.306 11.984 1.529 2.48.96 5.016 1.943 8.951 1.943 2.273-.001 5.016-.328 8.482-1.177l.457-.112V3.439l-.742.182c-9.106 2.229-12.803.796-16.715-.72C60.027 1.64 56.66.34 50.166 1.377l-.504.08v26.059a16.809 16.809 0 0 0-2.848-4c-.994-3.48-4.209-5.615-5.753-6.466.688-.771 1.113-1.864 1.113-3.432 0-4.237-3.139-7.685-6.996-7.685-3.857 0-6.993 3.447-6.993 7.685 0 1.567.424 2.66 1.112 3.432-1.543.85-4.759 2.984-5.752 6.466-.581.589-3 3.21-3.787 6.533-.539.495-2.405 2.36-2.282 4.328.07 1.136.649 1.719 1.122 2.008.467.286 1.004.39 1.473.39.371 0 .699-.063.916-.158.725-.32.944-1.232 1.005-1.61l1.251-2.26c2.002-1.02 3.696-2.672 4.771-3.89-.096 1.705-.105 3.528.167 4.602-.208.957-1.25 6.093-.828 10.95-.048.609-.408 5.716.418 9.249A64.31 64.31 0 0 0 1 69.713l.849.849A63.175 63.175 0 0 1 25.195 55.77c-.295.4-.491.853-.462 1.362l.032.566h8.833l.103-.472c.296-1.354.062-2.423-.088-2.906.142-.31.264-.643.377-.984a62.76 62.76 0 0 1 2.252-.406c.143.492.309.963.507 1.393-.15.482-.385 1.553-.088 2.906l.104.47h8.833l.031-.565c.092-1.665-2.046-2.77-3.1-3.21.138-.536.244-1.116.328-1.715a63.12 63.12 0 0 1 6.808-.017v6.592h1.2v-6.508c15.052 1.063 29.341 7.49 40.136 18.285l.849-.85A64.237 64.237 0 0 0 50.863 51.07zm.825-16.768c-.033.505-.213.852-.552 1.059-.085.052-.179.08-.272.112v-3.327c.471.655.869 1.435.824 2.156zm-.825-31.817c5.842-.847 8.828.312 11.984 1.535 3.811 1.476 7.746 3 16.691.942v17.626c-8.772 2.068-12.41.66-16.258-.83-2.422-.938-4.907-1.901-8.703-1.901-1.114 0-2.342.083-3.715.274V9.894l.001-7.41zm-1.199 32.727a1.95 1.95 0 0 1-.12-.465l-1.218-2.28 1.336-1.02v3.765h.002zM35.179 7.132c3.196 0 5.796 2.91 5.796 6.486 0 2.9-1.571 3.979-5.796 3.979-4.225 0-5.795-1.078-5.795-3.98 0-3.575 2.6-6.484 5.795-6.484zm-14.292 27.39l-.071.223c-.039.332-.197.722-.312.772-.166.073-.808.133-1.281-.155-.339-.208-.519-.554-.55-1.06-.072-1.147.97-2.448 1.655-3.135l1.7 1.296-1.141 2.059zm13.453 17.53c.697-3.127.546-6.78.511-7.438.127-.506.232-1.018.329-1.527.097.512.202 1.02.329 1.527-.034.638-.176 4.089.449 7.146-.541.09-1.079.189-1.618.292zm9.897 4.446h-6.485c-.14-1.168.191-1.965.194-1.971l.115-.26-.128-.254c-1.587-3.148-1.224-9.357-1.221-9.421l.006-.095-.023-.091c-.602-2.354-.833-4.873-.915-6.794.011-.274.02-.538.026-.786l-.053-.001-.001-.028-.573.014-.573-.014-.001.028h-.053c.006.25.015.514.026.789-.082 1.92-.313 4.438-.915 6.792l-.023.092.006.094c.003.063.366 6.27-1.221 9.42l-.124.255.109.256c.004.009.335.807.195 1.975h-6.486c.504-.727 1.88-1.39 2.631-1.645l.555-.19-.176-.56c-1.076-3.406-.583-9.588-.578-9.65l.004-.051-.004-.051c-.453-5.09.818-10.721.832-10.776l.036-.155-.046-.153c-.507-1.665-.021-6.606.208-8.37l-1.189-.154c-.012.092-.116.907-.22 2.02-.455.613-2.604 3.386-5.305 4.833l-1.908-1.455c.849-3.266 3.509-5.851 3.537-5.878l.122-.117.043-.163c.915-3.488 4.582-5.567 5.652-6.108 1.324.76 3.104.923 4.866.923 1.762 0 3.542-.163 4.867-.923 1.071.542 4.738 2.62 5.653 6.108l.043.164.122.117c.028.026 2.686 2.602 3.535 5.877l-1.906 1.455c-2.701-1.447-4.851-4.22-5.305-4.833a62.168 62.168 0 0 0-.22-2.02l-1.189.154c.229 1.764.715 6.705.208 8.37l-.046.153.036.155c.004.017.121.539.27 1.388-.967.27-1.983.054-2.636-.596-.66-.658-.781-1.62-.331-2.638.887-2.007.175-3.644-.408-4.522h1.604v-7.66h-8.59v7.66h5.989c.388.437 1.619 2.058.673 4.199-.583 1.318-.396 2.637.498 3.527.62.618 1.482.942 2.383.942.314 0 .632-.053.947-.134.333 2.113.711 5.462.432 8.61l-.004.05.004.052c.005.063.499 6.24-.578 9.65l-.176.56.555.188c.749.258 2.124.92 2.628 1.647zM31.685 26.405v-6.058h6.99v6.059l-6.99-.001zM42.996 51c.27-3.017.048-6.126.011-6.594.422-4.857-.621-9.993-.828-10.95.273-1.073.263-2.896.167-4.601 1.075 1.217 2.769 2.869 4.771 3.89l1.25 2.26c.062.377.281 1.29 1.008 1.61.078.033.184.059.287.083v14.287a64.457 64.457 0 0 0-6.666.015z" stroke="#333" stroke-width=".6" mask="url(#a)"/></symbol><symbol id="icon-astronaut2"><mask id="a" maskUnits="userSpaceOnUse" x="0" y="0" width="40" height="31" fill="#000"><path fill="#fff" d="M0 0h40v31H0z"/><path d="M1 12.445c.134.163 3.337 3.987 7.34 4.016h.047c2.007 0 3.848-.968 5.474-2.878 1.677-1.971 3.6-3.056 5.716-3.224 3.08-.245 5.706 1.539 6.448 2.099l-.688.688c-.704.704-.892 1.171-.633 1.667-1.113.253-2.894.856-4.085 2.255-.234.198-2.448 2.093-3.378 3.74-.58.02-2.596.183-3.128 1.49l-.091.224 4.093 1.854.116-.19c.568-.93.816-1.216.888-1.29 1.778-.607 3.861-2.94 4.142-3.262.547-.306 1.2-.361 1.834-.414.27-.023.533-.044.782-.085-.581.666-1.217 1.474-1.738 2.335-.294.261-2.451 2.217-3.105 3.972-.207.088-.642.323-1.462.942l-.17.129 2.084 3.953.223-.117c1.219-.642 1.36-2.401 1.375-2.943 1.654-.915 3.568-3.107 3.77-3.339 1.465-1.217 2.684-2.802 3.306-3.68.254.236.478.395.757.425a.712.712 0 0 0 .085.004c.355 0 .726-.223 1.251-.75l.188-.187c.042.5.128 1.015.285 1.503l-.382 1.306c-.1.137-.362.547-.222.906.093.243.436.64.909.757.079.02.17.033.271.033.237 0 .526-.077.824-.337.758-.662.753-2.025.739-2.375.95-1.506 1.02-3.376 1.023-3.77.346-.615.482-1.303.503-1.972l1.287-1.286c1.044-1.044.863-1.515.258-2.157.042-.037.083-.073.125-.114 1.532-1.518 1.656-3.885.278-5.277-.672-.678-1.588-1.032-2.595-.98-.992.045-1.946.474-2.684 1.205-.051.05-.093.101-.139.152-.645-.61-1.114-.795-2.163.253l-.341.34c-.598-.286-1.017-.392-1.183-.426-.058-.546-.306-2.357-1.147-3.8l.096-1.359c.07-.156.24-.61.026-.933-.143-.218-.563-.532-1.049-.547-.271-.012-.668.077-1.005.529-.6.808-.307 2.14-.219 2.48-.669 1.838-.206 3.881-.184 3.969.17 1.42.836 2.528 1.464 3.286l-.832.833c-.727-.563-3.491-2.498-6.845-2.241-2.255.178-4.297 1.322-6.065 3.4-1.525 1.793-3.238 2.702-5.09 2.702h-.043c-3.77-.029-6.924-3.795-6.955-3.834l-.386.32zM27.71 2.301l-.026.096-.09 1.262-1.2.09c-.09-.41-.242-1.37.167-1.92.168-.225.356-.343.584-.325.31.01.586.233.642.32.059.088-.005.337-.076.477zm4.896 5.566a2.59 2.59 0 0 0-.095.155c-.268.377-.37.758-.35 1.136-.465-.36-.895-.637-1.274-.85l.228-.227c.777-.778.952-.74 1.49-.214zm4.472 4.621c-.996.537-1.921-.048-3.02-1.157-1.1-1.113-1.675-2.047-1.121-3.04.065-.09.139-.179.228-.267.37-.366.769-.548 1.208-.548.147 0 .298.02.454.06.569.147 1.186.556 1.838 1.213 1.39 1.405 1.622 2.585.692 3.508-.092.09-.185.165-.279.231zm1.335-1.452c-.003-.81-.465-1.71-1.388-2.641-.717-.724-1.413-1.177-2.072-1.346a2.328 2.328 0 0 0-.547-.075 3.456 3.456 0 0 1 1.511-.36c.798 0 1.525.293 2.06.835.921.927 1.048 2.37.436 3.587zm-1.093 3.25l-.945.945a8.68 8.68 0 0 0-.416-2.015c.123.025.245.04.368.04.341 0 .685-.103 1.027-.341.061-.035.123-.073.184-.115.522.534.557.71-.218 1.486zm-4.55 8.675l.045-.088.355-1.213 1.191.166c.002.419-.052 1.39-.568 1.839-.212.185-.42.25-.641.195-.302-.075-.523-.351-.56-.447-.037-.098.078-.329.177-.452zm-2.318-2.995l.12-.182c.527-.305 1.261-1.056 1.884-1.76-.03.331-.051.734-.046 1.17l-.513.514c-.43.43-.73.615-.928.6-.15-.015-.314-.146-.517-.342zm-5.725-4.633c.308.776.963 1.306 1.696 1.34l.076.002c.64 0 1.171-.384 1.429-1.041.415-1.06 1.335-1.257 1.726-1.296l2.27 2.293 2.875-2.847-3.185-3.216-2.876 2.846.625.632c-.526.11-1.349.446-1.75 1.465-.212.542-.657.85-1.175.826-.494-.023-1.08-.368-1.38-1.077.42-.086.694-.113.704-.114l.134-.012.065-.12c.52-.965 3.135-2.962 3.162-2.982l-.306-.402c-.021.016-.13.099-.294.229-.56-.466-2.02-1.863-2.274-3.968-.01-.046-.443-1.955.134-3.634l1.309-.097c.887 1.577 1.053 3.655 1.055 3.677l.01.148.328.14c.014.002 1.409.232 3.302 1.871.28.59.777 1.165 1.306 1.698.517.523 1.075 1.015 1.65 1.303.2.516 1.078 3.013.074 4.71l-.036.062.001.072c0 .02.02 1.977-.9 3.495l-1.3-.182c-.457-1.507-.205-3.356-.13-3.82.357-.426.606-.745.635-.782l-.398-.31c-.02.027-2.044 2.621-3.013 3.132l-.06.031-.036.058c-.016.025-1.623 2.544-3.666 4.232l-.03.03c-.021.024-2.117 2.46-3.766 3.306l-.14.074.003.157c0 .02.03 1.78-.893 2.505l-1.64-3.107c.925-.682 1.23-.771 1.244-.775l.13-.035.051-.13c.585-1.744 3.005-3.875 3.029-3.896l.05-.061c.746-1.24 1.747-2.381 2.457-3.12l-.182-.174-.173-.184c-.348.328-.929.376-1.602.432-.67.056-1.428.119-2.082.502l-.064.053c-.022.026-2.249 2.596-3.994 3.162l-.058.027c-.076.047-.313.268-.937 1.271l-3.221-1.46c.549-.798 2.085-.96 2.692-.963l.154.002.072-.136c.864-1.642 3.32-3.714 3.344-3.735l.03-.03c1.059-1.252 2.684-1.825 3.739-2.076zm4.725-1.917l2.159-2.136 2.475 2.5-2.16 2.136-2.474-2.5zm-3.76.087l1.86-1.86c.217.226.413.405.568.537-.803.653-2.07 1.742-2.534 2.476-.085.01-.212.027-.364.054-.207-.257-.248-.489.47-1.207z"/></mask><path d="M1 12.445c.134.163 3.337 3.987 7.34 4.016h.047c2.007 0 3.848-.968 5.474-2.878 1.677-1.971 3.6-3.056 5.716-3.224 3.08-.245 5.706 1.539 6.448 2.099l-.688.688c-.704.704-.892 1.171-.633 1.667-1.113.253-2.894.856-4.085 2.255-.234.198-2.448 2.093-3.378 3.74-.58.02-2.596.183-3.128 1.49l-.091.224 4.093 1.854.116-.19c.568-.93.816-1.216.888-1.29 1.778-.607 3.861-2.94 4.142-3.262.547-.306 1.2-.361 1.834-.414.27-.023.533-.044.782-.085-.581.666-1.217 1.474-1.738 2.335-.294.261-2.451 2.217-3.105 3.972-.207.088-.642.323-1.462.942l-.17.129 2.084 3.953.223-.117c1.219-.642 1.36-2.401 1.375-2.943 1.654-.915 3.568-3.107 3.77-3.339 1.465-1.217 2.684-2.802 3.306-3.68.254.236.478.395.757.425a.712.712 0 0 0 .085.004c.355 0 .726-.223 1.251-.75l.188-.187c.042.5.128 1.015.285 1.503l-.382 1.306c-.1.137-.362.547-.222.906.093.243.436.64.909.757.079.02.17.033.271.033.237 0 .526-.077.824-.337.758-.662.753-2.025.739-2.375.95-1.506 1.02-3.376 1.023-3.77.346-.615.482-1.303.503-1.972l1.287-1.286c1.044-1.044.863-1.515.258-2.157.042-.037.083-.073.125-.114 1.532-1.518 1.656-3.885.278-5.277-.672-.678-1.588-1.032-2.595-.98-.992.045-1.946.474-2.684 1.205-.051.05-.093.101-.139.152-.645-.61-1.114-.795-2.163.253l-.341.34c-.598-.286-1.017-.392-1.183-.426-.058-.546-.306-2.357-1.147-3.8l.096-1.359c.07-.156.24-.61.026-.933-.143-.218-.563-.532-1.049-.547-.271-.012-.668.077-1.005.529-.6.808-.307 2.14-.219 2.48-.669 1.838-.206 3.881-.184 3.969.17 1.42.836 2.528 1.464 3.286l-.832.833c-.727-.563-3.491-2.498-6.845-2.241-2.255.178-4.297 1.322-6.065 3.4-1.525 1.793-3.238 2.702-5.09 2.702h-.043c-3.77-.029-6.924-3.795-6.955-3.834l-.386.32zM27.71 2.301l-.026.096-.09 1.262-1.2.09c-.09-.41-.242-1.37.167-1.92.168-.225.356-.343.584-.325.31.01.586.233.642.32.059.088-.005.337-.076.477zm4.896 5.566a2.59 2.59 0 0 0-.095.155c-.268.377-.37.758-.35 1.136-.465-.36-.895-.637-1.274-.85l.228-.227c.777-.778.952-.74 1.49-.214zm4.472 4.621c-.996.537-1.921-.048-3.02-1.157-1.1-1.113-1.675-2.047-1.121-3.04.065-.09.139-.179.228-.267.37-.366.769-.548 1.208-.548.147 0 .298.02.454.06.569.147 1.186.556 1.838 1.213 1.39 1.405 1.622 2.585.692 3.508-.092.09-.185.165-.279.231zm1.335-1.452c-.003-.81-.465-1.71-1.388-2.641-.717-.724-1.413-1.177-2.072-1.346a2.328 2.328 0 0 0-.547-.075 3.456 3.456 0 0 1 1.511-.36c.798 0 1.525.293 2.06.835.921.927 1.048 2.37.436 3.587zm-1.093 3.25l-.945.945a8.68 8.68 0 0 0-.416-2.015c.123.025.245.04.368.04.341 0 .685-.103 1.027-.341.061-.035.123-.073.184-.115.522.534.557.71-.218 1.486zm-4.55 8.675l.045-.088.355-1.213 1.191.166c.002.419-.052 1.39-.568 1.839-.212.185-.42.25-.641.195-.302-.075-.523-.351-.56-.447-.037-.098.078-.329.177-.452zm-2.318-2.995l.12-.182c.527-.305 1.261-1.056 1.884-1.76-.03.331-.051.734-.046 1.17l-.513.514c-.43.43-.73.615-.928.6-.15-.015-.314-.146-.517-.342zm-5.725-4.633c.308.776.963 1.306 1.696 1.34l.076.002c.64 0 1.171-.384 1.429-1.041.415-1.06 1.335-1.257 1.726-1.296l2.27 2.293 2.875-2.847-3.185-3.216-2.876 2.846.625.632c-.526.11-1.349.446-1.75 1.465-.212.542-.657.85-1.175.826-.494-.023-1.08-.368-1.38-1.077.42-.086.694-.113.704-.114l.134-.012.065-.12c.52-.965 3.135-2.962 3.162-2.982l-.306-.402c-.021.016-.13.099-.294.229-.56-.466-2.02-1.863-2.274-3.968-.01-.046-.443-1.955.134-3.634l1.309-.097c.887 1.577 1.053 3.655 1.055 3.677l.01.148.328.14c.014.002 1.409.232 3.302 1.871.28.59.777 1.165 1.306 1.698.517.523 1.075 1.015 1.65 1.303.2.516 1.078 3.013.074 4.71l-.036.062.001.072c0 .02.02 1.977-.9 3.495l-1.3-.182c-.457-1.507-.205-3.356-.13-3.82.357-.426.606-.745.635-.782l-.398-.31c-.02.027-2.044 2.621-3.013 3.132l-.06.031-.036.058c-.016.025-1.623 2.544-3.666 4.232l-.03.03c-.021.024-2.117 2.46-3.766 3.306l-.14.074.003.157c0 .02.03 1.78-.893 2.505l-1.64-3.107c.925-.682 1.23-.771 1.244-.775l.13-.035.051-.13c.585-1.744 3.005-3.875 3.029-3.896l.05-.061c.746-1.24 1.747-2.381 2.457-3.12l-.182-.174-.173-.184c-.348.328-.929.376-1.602.432-.67.056-1.428.119-2.082.502l-.064.053c-.022.026-2.249 2.596-3.994 3.162l-.058.027c-.076.047-.313.268-.937 1.271l-3.221-1.46c.549-.798 2.085-.96 2.692-.963l.154.002.072-.136c.864-1.642 3.32-3.714 3.344-3.735l.03-.03c1.059-1.252 2.684-1.825 3.739-2.076zm4.725-1.917l2.159-2.136 2.475 2.5-2.16 2.136-2.474-2.5zm-3.76.087l1.86-1.86c.217.226.413.405.568.537-.803.653-2.07 1.742-2.534 2.476-.085.01-.212.027-.364.054-.207-.257-.248-.489.47-1.207z" fill="#fff"/><path d="M1 12.445c.134.163 3.337 3.987 7.34 4.016h.047c2.007 0 3.848-.968 5.474-2.878 1.677-1.971 3.6-3.056 5.716-3.224 3.08-.245 5.706 1.539 6.448 2.099l-.688.688c-.704.704-.892 1.171-.633 1.667-1.113.253-2.894.856-4.085 2.255-.234.198-2.448 2.093-3.378 3.74-.58.02-2.596.183-3.128 1.49l-.091.224 4.093 1.854.116-.19c.568-.93.816-1.216.888-1.29 1.778-.607 3.861-2.94 4.142-3.262.547-.306 1.2-.361 1.834-.414.27-.023.533-.044.782-.085-.581.666-1.217 1.474-1.738 2.335-.294.261-2.451 2.217-3.105 3.972-.207.088-.642.323-1.462.942l-.17.129 2.084 3.953.223-.117c1.219-.642 1.36-2.401 1.375-2.943 1.654-.915 3.568-3.107 3.77-3.339 1.465-1.217 2.684-2.802 3.306-3.68.254.236.478.395.757.425a.712.712 0 0 0 .085.004c.355 0 .726-.223 1.251-.75l.188-.187c.042.5.128 1.015.285 1.503l-.382 1.306c-.1.137-.362.547-.222.906.093.243.436.64.909.757.079.02.17.033.271.033.237 0 .526-.077.824-.337.758-.662.753-2.025.739-2.375.95-1.506 1.02-3.376 1.023-3.77.346-.615.482-1.303.503-1.972l1.287-1.286c1.044-1.044.863-1.515.258-2.157.042-.037.083-.073.125-.114 1.532-1.518 1.656-3.885.278-5.277-.672-.678-1.588-1.032-2.595-.98-.992.045-1.946.474-2.684 1.205-.051.05-.093.101-.139.152-.645-.61-1.114-.795-2.163.253l-.341.34c-.598-.286-1.017-.392-1.183-.426-.058-.546-.306-2.357-1.147-3.8l.096-1.359c.07-.156.24-.61.026-.933-.143-.218-.563-.532-1.049-.547-.271-.012-.668.077-1.005.529-.6.808-.307 2.14-.219 2.48-.669 1.838-.206 3.881-.184 3.969.17 1.42.836 2.528 1.464 3.286l-.832.833c-.727-.563-3.491-2.498-6.845-2.241-2.255.178-4.297 1.322-6.065 3.4-1.525 1.793-3.238 2.702-5.09 2.702h-.043c-3.77-.029-6.924-3.795-6.955-3.834l-.386.32zM27.71 2.301l-.026.096-.09 1.262-1.2.09c-.09-.41-.242-1.37.167-1.92.168-.225.356-.343.584-.325.31.01.586.233.642.32.059.088-.005.337-.076.477zm4.896 5.566a2.59 2.59 0 0 0-.095.155c-.268.377-.37.758-.35 1.136-.465-.36-.895-.637-1.274-.85l.228-.227c.777-.778.952-.74 1.49-.214zm4.472 4.621c-.996.537-1.921-.048-3.02-1.157-1.1-1.113-1.675-2.047-1.121-3.04.065-.09.139-.179.228-.267.37-.366.769-.548 1.208-.548.147 0 .298.02.454.06.569.147 1.186.556 1.838 1.213 1.39 1.405 1.622 2.585.692 3.508-.092.09-.185.165-.279.231zm1.335-1.452c-.003-.81-.465-1.71-1.388-2.641-.717-.724-1.413-1.177-2.072-1.346a2.328 2.328 0 0 0-.547-.075 3.456 3.456 0 0 1 1.511-.36c.798 0 1.525.293 2.06.835.921.927 1.048 2.37.436 3.587zm-1.093 3.25l-.945.945a8.68 8.68 0 0 0-.416-2.015c.123.025.245.04.368.04.341 0 .685-.103 1.027-.341.061-.035.123-.073.184-.115.522.534.557.71-.218 1.486zm-4.55 8.675l.045-.088.355-1.213 1.191.166c.002.419-.052 1.39-.568 1.839-.212.185-.42.25-.641.195-.302-.075-.523-.351-.56-.447-.037-.098.078-.329.177-.452zm-2.318-2.995l.12-.182c.527-.305 1.261-1.056 1.884-1.76-.03.331-.051.734-.046 1.17l-.513.514c-.43.43-.73.615-.928.6-.15-.015-.314-.146-.517-.342zm-5.725-4.633c.308.776.963 1.306 1.696 1.34l.076.002c.64 0 1.171-.384 1.429-1.041.415-1.06 1.335-1.257 1.726-1.296l2.27 2.293 2.875-2.847-3.185-3.216-2.876 2.846.625.632c-.526.11-1.349.446-1.75 1.465-.212.542-.657.85-1.175.826-.494-.023-1.08-.368-1.38-1.077.42-.086.694-.113.704-.114l.134-.012.065-.12c.52-.965 3.135-2.962 3.162-2.982l-.306-.402c-.021.016-.13.099-.294.229-.56-.466-2.02-1.863-2.274-3.968-.01-.046-.443-1.955.134-3.634l1.309-.097c.887 1.577 1.053 3.655 1.055 3.677l.01.148.328.14c.014.002 1.409.232 3.302 1.871.28.59.777 1.165 1.306 1.698.517.523 1.075 1.015 1.65 1.303.2.516 1.078 3.013.074 4.71l-.036.062.001.072c0 .02.02 1.977-.9 3.495l-1.3-.182c-.457-1.507-.205-3.356-.13-3.82.357-.426.606-.745.635-.782l-.398-.31c-.02.027-2.044 2.621-3.013 3.132l-.06.031-.036.058c-.016.025-1.623 2.544-3.666 4.232l-.03.03c-.021.024-2.117 2.46-3.766 3.306l-.14.074.003.157c0 .02.03 1.78-.893 2.505l-1.64-3.107c.925-.682 1.23-.771 1.244-.775l.13-.035.051-.13c.585-1.744 3.005-3.875 3.029-3.896l.05-.061c.746-1.24 1.747-2.381 2.457-3.12l-.182-.174-.173-.184c-.348.328-.929.376-1.602.432-.67.056-1.428.119-2.082.502l-.064.053c-.022.026-2.249 2.596-3.994 3.162l-.058.027c-.076.047-.313.268-.937 1.271l-3.221-1.46c.549-.798 2.085-.96 2.692-.963l.154.002.072-.136c.864-1.642 3.32-3.714 3.344-3.735l.03-.03c1.059-1.252 2.684-1.825 3.739-2.076zm4.725-1.917l2.159-2.136 2.475 2.5-2.16 2.136-2.474-2.5zm-3.76.087l1.86-1.86c.217.226.413.405.568.537-.803.653-2.07 1.742-2.534 2.476-.085.01-.212.027-.364.054-.207-.257-.248-.489.47-1.207z" stroke="#999" stroke-width=".4" mask="url(#a)"/></symbol><symbol id="icon-atom"><path d="M21.932 12.851h-1.316v2.244h1.316V12.85zM19.749 15.327l-1.122-1.943-1.14.658 1.123 1.943 1.139-.658zM17.975 16.62L16.032 15.5l-.658 1.14 1.943 1.121.658-1.14zM17.083 18.628h-2.244v1.316h2.244v-1.316zM17.315 20.814l-1.943 1.121.658 1.14 1.943-1.121-.658-1.14zM17.488 24.529l1.14.658 1.121-1.943-1.14-.658-1.121 1.943zM21.932 23.477h-1.316v2.244h1.316v-2.244zM22.8 23.244l1.121 1.942 1.14-.658-1.122-1.942-1.14.658zM24.576 21.952l1.943 1.122.658-1.14-1.943-1.121-.658 1.139zM27.709 18.628h-2.244v1.316h2.244v-1.316zM25.233 17.76l1.943-1.12-.658-1.14-1.942 1.122.657 1.139zM25.061 14.044l-1.14-.658-1.121 1.942 1.14.658 1.121-1.942z" fill="#555"/><path d="M.073 22.989c0 1.088.886 1.974 1.974 1.974.294 0 .566-.066.811-.18.549.482 1.154.943 1.83 1.368-.772 3.452-.281 6.356 1.543 8.176 1.272 1.272 3.07 1.903 5.22 1.903 2.811 0 6.22-1.083 9.825-3.193 4.6 2.694 11.393 4.936 15.04 1.29 1.815-1.816 2.31-4.702 1.552-8.14 2.938-1.87 4.68-4.26 4.68-6.9 0-2.64-1.742-5.03-4.68-6.9.759-3.442.263-6.328-1.553-8.144-1.741-1.741-4.43-2.298-7.798-1.623a1.964 1.964 0 0 0-1.671-.938 1.977 1.977 0 0 0-1.974 1.973c0 .027.009.053.009.084a28.15 28.15 0 0 0-3.605 1.798C16.727 2.872 9.899.575 6.23 4.243 4.416 6.06 3.92 8.95 4.68 12.388 1.2 14.603-1.098 17.965.539 21.735a1.955 1.955 0 0 0-.466 1.254zm7.088 10.408c-1.408-1.408-1.816-3.732-1.276-6.54 2.943 1.575 6.759 2.658 10.97 3.11a37.085 37.085 0 0 0 3.144 2.28c-5.496 3.05-10.465 3.519-12.838 1.15zM32.657 15.77c1.082-1.646-.654-3.666-2.42-2.895a48.958 48.958 0 0 0-1.246-1.303 43.89 43.89 0 0 0-1.47-1.399c3.456.553 6.492 1.54 8.825 2.833-.439 1.575-1.14 3.26-2.11 5.005a36.495 36.495 0 0 0-1.579-2.241zm3.693 9.798c-2.337 1.294-5.373 2.285-8.829 2.833 2.716-2.475 4.953-5.114 6.715-7.837.97 1.745 1.671 3.43 2.114 5.004zm-8.29-13.066c.417.417.82.838 1.207 1.263-.85 1.49.696 3.388 2.346 2.798.685.9 1.307 1.812 1.873 2.724-2.043 3.294-4.862 6.554-8.32 9.413a40.751 40.751 0 0 1-7.785-.005c-3.171-2.607-6.126-5.869-8.316-9.408 2.177-3.515 5.109-6.77 8.32-9.412a41.188 41.188 0 0 1 7.78 0 41.286 41.286 0 0 1 2.896 2.627zM8.31 18.006c-.965-1.74-1.67-3.425-2.11-4.995 2.334-1.294 5.374-2.285 8.825-2.838-2.526 2.303-4.855 4.962-6.715 7.833zm6.711 10.387c-3.404-.544-6.443-1.527-8.812-2.856.439-1.566 1.14-3.241 2.101-4.973 1.767 2.721 4.011 5.37 6.711 7.829zm4.237 1.754c1.354.062 2.479.076 4.026.004-.662.478-1.333.926-2.008 1.347-.68-.421-1.351-.873-2.018-1.351zm16.127 3.25c-3.016 3.017-9.036.96-12.833-1.145a37.882 37.882 0 0 0 3.131-2.28c4.303-.448 8.088-1.544 10.983-3.084.53 2.794.123 5.105-1.28 6.509zm5.847-14.11c0 2.07-1.377 3.992-3.706 5.562-.531-1.755-1.373-3.632-2.505-5.562 1.132-1.93 1.97-3.807 2.5-5.561 2.334 1.57 3.71 3.49 3.71 5.561zm-15.86-14.33a1.97 1.97 0 0 0 1.474.672 1.966 1.966 0 0 0 1.947-1.724c2.136-.425 4.847-.478 6.592 1.268 1.404 1.403 1.812 3.72 1.281 6.513-2.895-1.54-6.68-2.636-10.978-3.083a36.685 36.685 0 0 0-3.136-2.281c.947-.526 1.89-.982 2.82-1.364zm-2.088 3.466a41.983 41.983 0 0 0-4.022 0c.667-.483 1.338-.93 2.014-1.347.675.417 1.346.869 2.008 1.347zM7.161 5.173C10.18 2.155 16.197 4.213 20 6.326a37.005 37.005 0 0 0-3.131 2.277c-4.303.447-8.093 1.544-10.983 3.088-.535-2.799-.127-5.115 1.276-6.518zm-2.136 8.553c.53 1.758 1.373 3.631 2.505 5.561-1.128 1.917-1.965 3.78-2.496 5.527-.443-.303-.85-.619-1.228-.948.136-.267.215-.561.215-.877a1.974 1.974 0 0 0-1.974-1.974c-.127 0-.254.013-.377.04-1.176-2.95.733-5.562 3.355-7.33z" fill="#555"/><path d="M21.275 16.147a3.143 3.143 0 0 0-3.14 3.14 3.143 3.143 0 0 0 3.14 3.14 3.143 3.143 0 0 0 3.14-3.14 3.143 3.143 0 0 0-3.14-3.14zM39.118 17.405a5.75 5.75 0 0 0-.564-.764l-.662.575c.186.215.346.432.477.646l.749-.457zM38.82 19.287h.877c0-.328-.056-.663-.164-.998l-.834.272c.08.246.12.49.12.726zM8.795 31.615l-.653.586a3.11 3.11 0 0 0 .8.63l.425-.767a2.247 2.247 0 0 1-.572-.45zM9.858 33.191c.289.076.604.129.938.158l.075-.874a4.743 4.743 0 0 1-.79-.132l-.223.848zM11.695 32.494l.03.877c.295-.01.602-.035.914-.074l-.11-.87a9.189 9.189 0 0 1-.834.067zM8.16 30.251l-.859.176c.069.336.168.648.295.927l.799-.361c-.1-.22-.179-.47-.234-.742zM8.414 7.537l-.794-.374c-.131.28-.234.59-.307.926l.858.185c.058-.27.14-.518.243-.737zM14.467 5.645a14.244 14.244 0 0 0-.88-.212l-.178.859c.27.056.546.122.826.199l.232-.846zM8.867 6.879c.152-.152.333-.285.538-.394l-.412-.774c-.282.15-.533.334-.745.546l-.064.067.638.601.045-.046zM10.918 6.092l-.068-.875c-.334.026-.65.076-.938.148l.213.851c.24-.06.508-.102.793-.124zM12.691 5.28c-.313-.04-.62-.067-.914-.078l-.034.876c.267.01.548.035.834.072l.114-.87zM23.262 36.208h-.877v.877h.877v-.877zM19.754 36.208h-.878v.877h.878v-.877zM21.508 36.208h-.877v.877h.877v-.877zM10.733 37.959h-.877v.877h.877v-.877zM8.98 37.959h-.878v.877h.877v-.877zM7.225 37.959h-.877v.877h.877v-.877zM27.486 36.398v.862h-.863v.877h.863V39h.877v-.863h.863v-.877h-.863v-.862h-.877zM21.176 2.603V1.74h.863V.863h-.863V0H20.3v.863h-.863v.877h.863v.863h.877zM40.342 9.483V8.62h.863v-.877h-.863V6.88h-.877v.863h-.863v.877h.863v.863h.877zM2.742 33.547v.863h-.863v.877h.863v.863h.877v-.863h.862v-.877H3.62v-.863h-.877zM4.795.584h-.877v.877h.877V.584zM6.55.584h-.878v.877h.878V.584zM3.04.584h-.876v.877h.877V.584zM31.804.584h-.877v.877h.877V.584zM33.558.584h-.877v.877h.877V.584zM30.05.584h-.877v.877h.877V.584zM40.938 35.794h-.878v.877h.878v-.877zM37.429 35.794h-.877v.877h.877v-.877zM39.183 35.794h-.877v.877h.877v-.877z" fill="#555"/></symbol><symbol id="icon-be"><path d="M11.303 7.51c.53-.266.931-.563 1.206-.884.488-.579.73-1.345.73-2.295 0-.925-.242-1.715-.724-2.378C11.71.873 10.348.321 8.422.293H.792v15.574h7.115c.801 0 1.544-.07 2.23-.21.687-.142 1.281-.402 1.784-.782.447-.33.82-.741 1.118-1.225.47-.731.704-1.56.704-2.483 0-.894-.206-1.656-.615-2.282-.413-.626-1.02-1.084-1.825-1.375zM3.94 2.998h3.437c.755 0 1.378.081 1.866.242.565.235.848.712.848 1.44 0 .654-.215 1.11-.642 1.367-.43.258-.987.387-1.67.387H3.94V2.998zm5.434 9.892c-.38.184-.915.275-1.6.275H3.94V9.01h3.887c.677.005 1.204.094 1.58.262.671.304 1.005.86 1.005 1.672 0 .958-.345 1.603-1.038 1.945zM23.885 1.019h-6.766v1.939h6.766V1.019zM26.235 8.67c-.14-.903-.45-1.696-.932-2.381-.529-.776-1.2-1.345-2.015-1.704-.813-.361-1.728-.541-2.747-.54-1.71 0-3.1.535-4.174 1.597-1.071 1.065-1.608 2.596-1.608 4.593 0 2.128.592 3.666 1.784 4.61 1.186.945 2.556 1.416 4.112 1.416 1.882 0 3.346-.56 4.392-1.678.67-.706 1.048-1.4 1.131-2.083h-3.117c-.18.337-.39.6-.63.793-.434.35-.999.526-1.692.526-.66 0-1.218-.145-1.684-.434-.77-.463-1.172-1.274-1.224-2.429h8.507c.012-.995-.02-1.76-.103-2.286zm-8.327.298c.112-.749.383-1.343.814-1.782.431-.437 1.041-.658 1.822-.66.72 0 1.323.207 1.813.62.484.417.757 1.022.813 1.822h-5.262z" fill="#fff"/></symbol><symbol id="icon-clip"><path d="M28.35 1.672C27.25.56 25.925-.018 24.513 0c-1.32.018-2.617.579-3.65 1.581l-.01.01L7.448 15.219c-1.34 1.356-1.341 3.323 0 4.68.65.656 1.48 1.018 2.335 1.018.867 0 1.702-.362 2.355-1.023l9.266-9.465-1.675-1.64-9.261 9.462c-.206.208-.45.323-.685.323-.231 0-.457-.11-.669-.324-.617-.624-.205-1.174.003-1.385l13.387-13.61c1.28-1.235 2.92-1.21 4.18.065 1.496 1.513 1.078 3.288 0 4.377L11.447 23.435c-1.047 1.058-2.372 1.64-3.731 1.64-1.36 0-2.648-.577-3.728-1.669-2.528-2.555-1.822-5.557 0-7.398L15.535 4.46l-1.657-1.657-11.55 11.549-.005.004C.874 15.821.05 17.667.003 19.554c-.052 2.013.75 3.915 2.318 5.5 1.508 1.525 3.423 2.365 5.394 2.365 1.992 0 3.91-.832 5.402-2.34L28.356 9.34c2.194-2.222 2.192-5.446-.006-7.668z" fill="#fff"/></symbol><symbol id="icon-dollar"><path d="M26.651 11.527c-1.498-1.642-3.068-2.766-4.71-3.372-1.605-.607-3.532-.91-5.78-.91v17.822c2.07.429 3.925.892 5.566 1.392 1.677.464 3.105 1.07 4.282 1.82 1.178.75 2.07 1.677 2.676 2.783.643 1.106.964 2.48.964 4.121 0 3.104-1.196 5.477-3.586 7.118-2.355 1.642-5.62 2.462-9.795 2.462h-.107v4.71h-1.07V44.71c-2.783-.107-5.263-.625-7.44-1.552-2.176-.964-4.228-2.39-6.155-4.282l.803-.696c1.82 1.856 3.747 3.23 5.78 4.121 2.07.892 4.407 1.41 7.012 1.552V25.817a70.397 70.397 0 0 1-5.299-1.231c-1.498-.464-2.783-1.035-3.853-1.713-1.035-.713-1.82-1.57-2.355-2.569-.535-1.035-.803-2.32-.803-3.853 0-3.176 1.106-5.62 3.318-7.333 2.212-1.748 5.21-2.694 8.992-2.837V.876h1.07v5.352c2.39.036 4.478.41 6.262 1.124 1.784.678 3.426 1.82 4.924 3.425l-.696.75zm1.927 23.817c0-1.392-.25-2.587-.75-3.586-.499-1-1.266-1.838-2.3-2.516-1-.713-2.284-1.32-3.854-1.82-1.534-.5-3.372-.963-5.513-1.391v17.822h.16c3.783 0 6.762-.695 8.939-2.087 2.212-1.427 3.318-3.568 3.318-6.422zm-24.727-19c0 1.32.214 2.426.643 3.318.428.892 1.088 1.659 1.98 2.301.928.607 2.087 1.124 3.479 1.552 1.427.428 3.14.857 5.138 1.285V7.298c-1.998.072-3.711.34-5.138.803-1.392.464-2.551 1.088-3.48 1.873a7.257 7.257 0 0 0-1.98 2.784c-.428 1.07-.642 2.265-.642 3.585z" fill="#777"/><path d="M26.651 11.527l-.637.582.632.692.638-.687-.633-.587zm-4.71-3.372l-.304.807.005.002.3-.81zm-5.78-.91v-.863h-.863v.863h.863zm0 17.822h-.863v.703l.688.143.175-.846zm5.566 1.392l-.25.826.01.003.01.003.23-.832zm4.282 1.82l.464-.729-.464.729zm2.676 2.783l-.757.415.005.01.006.008.746-.433zm-2.622 11.24l-.489-.712-.005.003.494.708zm-9.902 2.461V43.9h-.863v.863h.863zm0 4.71v.864h.863v-.864h-.863zm-1.07 0h-.863v.864h.863v-.864zm0-4.763h.863v-.83l-.83-.033-.033.863zm-7.44-1.552l-.35.79.012.004.338-.794zm-6.155-4.282l-.565-.652-.707.613.668.655.604-.616zm.803-.696l.617-.604-.569-.58-.613.532.565.652zm5.78 4.121l-.346.79.005.003.342-.793zm7.012 1.552l-.047.862.91.05v-.912h-.863zm0-18.036h.863v-.71l-.697-.137-.166.847zm-5.299-1.231l-.255.824.012.004.011.003.232-.831zM5.94 22.873l-.49.71.014.01.014.01.462-.73zm-2.355-2.569l-.767.397.006.01.76-.407zM6.099 9.118l.529.683.007-.006-.536-.677zm8.992-2.837l.032.863.831-.031V6.28h-.863zm0-5.405V.013h-.863v.863h.863zm1.07 0h.863V.013h-.863v.863zm0 5.352h-.863v.85l.85.013.013-.863zm6.262 1.124l-.32.801.007.003.007.003.306-.807zm4.924 3.425l.633.588.547-.59-.549-.587-.63.59zm.482 20.98l-.772.387.772-.386zm-2.302-2.515l-.501.703.014.01.014.01.474-.723zm-3.853-1.82l-.267.821.005.002.262-.823zm-5.513-1.391l.17-.847-1.033-.206v1.053h.863zm0 17.822h-.863v.864h.863v-.864zm9.099-2.087l.465.727.003-.002-.468-.725zM6.474 21.963l-.505.7.016.012.016.01.473-.722zm3.479 1.552l-.254.825.006.002.248-.827zM15.09 24.8l-.181.844 1.044.224V24.8h-.863zm0-17.502h.863v-.894l-.894.032.03.862zm-5.138.803l-.267-.82-.006.001.273.82zm-3.48 1.873l-.557-.659-.006.006-.006.005.57.648zm-1.98 2.784l-.8-.321.8.32zm22.796-1.813c-1.567-1.717-3.247-2.934-5.048-3.6l-.599 1.62c1.482.547 2.942 1.577 4.372 3.144l1.275-1.165zm-5.042-3.598c-1.729-.653-3.764-.965-6.086-.965v1.726c2.174 0 3.992.294 5.476.854l.61-1.615zm-6.949-.102v17.822h1.726V7.245h-1.726zm.688 18.668c2.05.424 3.879.881 5.49 1.372l.503-1.652c-1.672-.508-3.553-.979-5.643-1.41l-.35 1.69zm5.511 1.378c1.614.446 2.959 1.022 4.049 1.716l.927-1.457c-1.265-.805-2.775-1.442-4.515-1.923l-.46 1.664zm4.049 1.716c1.068.68 1.853 1.504 2.382 2.47l1.514-.83c-.683-1.247-1.683-2.278-2.97-3.096l-.926 1.456zm2.393 2.488c.547.942.846 2.157.846 3.688h1.727c0-1.751-.343-3.285-1.08-4.555l-1.493.867zm.846 3.688c0 2.843-1.074 4.94-3.21 6.407l.976 1.423c2.644-1.815 3.96-4.465 3.96-7.83h-1.726zm-3.216 6.41c-2.158 1.504-5.226 2.307-9.3 2.307v1.727c4.274 0 7.735-.839 10.287-2.617l-.987-1.417zm-9.3 2.307h-.108v1.727h.107V43.9zm-.971.863v4.71h1.726v-4.71h-1.726zm.863 3.847h-1.07v1.727h1.07V48.61zm-.207.863V44.71h-1.726v4.763h1.726zm-.83-5.626c-2.696-.104-5.07-.604-7.134-1.483l-.677 1.588c2.289.975 4.875 1.51 7.745 1.62l.066-1.725zm-7.123-1.479c-2.07-.916-4.037-2.28-5.9-4.108l-1.21 1.232c1.992 1.954 4.128 3.445 6.411 4.455l.699-1.579zm-5.94-2.84l.804-.695-1.131-1.305-.803.696 1.13 1.304zm-.378-.743c1.884 1.92 3.9 3.364 6.05 4.307l.693-1.581c-1.917-.841-3.755-2.145-5.51-3.935l-1.233 1.209zm6.055 4.31c2.176.937 4.615 1.473 7.306 1.62l.094-1.724c-2.519-.138-4.754-.636-6.717-1.482l-.683 1.585zm8.216.758V25.817h-1.726v18.036h1.726zm-.697-18.883a69.522 69.522 0 0 1-5.233-1.216l-.464 1.663c1.561.436 3.35.851 5.364 1.247l.333-1.694zm-5.21-1.209c-1.442-.446-2.654-.988-3.646-1.617l-.924 1.458c1.148.727 2.505 1.327 4.06 1.808l.51-1.649zM6.43 22.163c-.934-.645-1.62-1.401-2.084-2.267l-1.522.816c.607 1.133 1.49 2.089 2.626 2.872l.98-1.421zM4.35 19.907c-.454-.88-.706-2.018-.706-3.456H1.918c0 1.63.283 3.06.899 4.25l1.533-.794zm-.706-3.456c0-2.95 1.013-5.125 2.984-6.65L5.57 8.436c-2.454 1.9-3.653 4.613-3.653 8.015h1.726zm2.99-6.656c2.027-1.601 4.828-2.513 8.49-2.65l-.066-1.726c-3.903.147-7.096 1.127-9.494 3.022l1.07 1.354zm9.32-3.514V.876h-1.726V6.28h1.726zm-.863-4.542h1.07V.013h-1.07v1.726zm.207-.863v5.352h1.726V.876h-1.726zm.85 6.215c2.31.035 4.29.396 5.955 1.062l.64-1.603c-1.902-.76-4.098-1.148-6.569-1.185l-.026 1.726zm5.969 1.068c1.643.624 3.177 1.684 4.6 3.207l1.261-1.178c-1.575-1.687-3.323-2.912-5.248-3.643l-.613 1.614zm4.598 2.03l-.696.75 1.265 1.175.696-.75-1.265-1.174zm2.727 25.155c0-1.494-.269-2.828-.841-3.972l-1.544.772c.427.853.658 1.91.658 3.2h1.727zm-.841-3.972c-.575-1.15-1.452-2.1-2.6-2.852l-.947 1.444c.922.604 1.579 1.331 2.003 2.18l1.544-.772zm-2.572-2.832c-1.092-.78-2.465-1.422-4.093-1.94l-.524 1.645c1.512.481 2.708 1.053 3.614 1.7l1.003-1.405zm-4.088-1.938c-1.575-.513-3.447-.985-5.61-1.418l-.339 1.693c2.118.424 3.921.88 5.415 1.366l.534-1.641zm-6.643-.571v17.822h1.726V26.031h-1.726zm.863 18.686h.16V42.99h-.16v1.727zm.16 0c3.876 0 7.038-.711 9.404-2.224l-.93-1.454c-1.988 1.27-4.784 1.951-8.473 1.951v1.727zm9.407-2.225c2.482-1.602 3.713-4.03 3.713-7.148h-1.726c0 2.59-.981 4.444-2.923 5.697l.936 1.45zM2.988 16.344c0 1.408.228 2.65.727 3.691l1.557-.747c-.357-.743-.557-1.712-.557-2.945H2.988zm.727 3.691c.498 1.037 1.259 1.912 2.255 2.629l1.008-1.401c-.788-.568-1.347-1.227-1.706-1.975l-1.557.747zm2.286 2.65c1.013.663 2.252 1.21 3.698 1.655l.508-1.65c-1.337-.411-2.418-.898-3.26-1.45L6 22.687zm3.704 1.657c1.456.437 3.192.87 5.205 1.302l.362-1.688c-1.983-.425-3.672-.848-5.071-1.267l-.496 1.653zm6.25.458V7.298h-1.727V24.8h1.726zM15.06 6.436c-2.053.073-3.85.349-5.374.844l.534 1.642c1.33-.432 2.959-.692 4.902-.76l-.062-1.726zm-5.38.846c-1.475.492-2.737 1.165-3.764 2.033l1.115 1.318c.829-.7 1.886-1.277 3.195-1.713L9.68 7.282zM5.904 9.326a8.12 8.12 0 0 0-2.212 3.111l1.603.641a6.394 6.394 0 0 1 1.75-2.455L5.903 9.325zm-2.212 3.111c-.474 1.186-.704 2.492-.704 3.906h1.727c0-1.226.198-2.31.58-3.265l-1.603-.641z" fill="#777"/></symbol><symbol id="icon-facebook"><g clip-path="url(#clip0)"><path d="M9.126 5.577V3.549c0-.56.454-1.014 1.014-1.014h1.013V0H9.127a3.042 3.042 0 0 0-3.042 3.042v2.535H4.056v2.535h2.028v8.112h3.042V8.112h2.027l1.014-2.535H9.127z" fill="#fff"/></g></symbol><symbol id="icon-fb"><path d="M7.919 7.895V5.024c0-.792.643-1.435 1.435-1.435h1.436V0H7.919a4.306 4.306 0 0 0-4.306 4.306v3.589H.742v3.588h2.87v11.484H7.92V11.483h2.87l1.436-3.588H7.919z" fill="#fff"/></symbol><symbol id="icon-ig"><path d="M13.944.509H6.677A6.056 6.056 0 0 0 .623 6.564v7.267a6.056 6.056 0 0 0 6.056 6.056h7.266A6.056 6.056 0 0 0 20 13.83V6.564A6.056 6.056 0 0 0 13.944.51zm4.24 13.322a4.244 4.244 0 0 1-4.24 4.239H6.677a4.244 4.244 0 0 1-4.238-4.239V6.564a4.244 4.244 0 0 1 4.239-4.239h7.266a4.244 4.244 0 0 1 4.24 4.24v7.266z" fill="#fff"/></symbol><symbol id="icon-in"><g clip-path="url(#clip0)" fill="#fff"><path d="M4.578 6.086H.405v12.829h4.173V6.085zM15.944 6.236c-.044-.014-.086-.029-.133-.042a2.7 2.7 0 0 0-.169-.032 3.74 3.74 0 0 0-.749-.076c-2.433 0-3.976 1.769-4.484 2.452V6.086H6.236v12.829h4.173v-6.998s3.154-4.392 4.484-1.166v8.164h4.172v-8.657c0-1.939-1.328-3.554-3.12-4.022zM2.446 4.336a2.041 2.041 0 1 0 0-4.082 2.041 2.041 0 0 0 0 4.082z"/></g></symbol><symbol id="icon-inyan"><path d="M25.627 39.714c0 .926-.754 1.68-1.675 1.68v.93A1.68 1.68 0 0 1 25.627 44h.931c0-.922.754-1.675 1.68-1.675v-.931c-.926 0-1.68-.754-1.68-1.68h-.93zM9.887 0h-.93v.93h.93V0zM29.793 4.636l.302-.885c-1-.335-2.038-.595-3.08-.763l-.15.917c.992.163 1.978.41 2.928.73zM1.086 31.113h-.93v.93h.93v-.93zM13.61 0h-.93v.93h.93V0zM41.488 9.08h-.93v.931h.93v-.93zM15.593 40.807h-.93v.931h.93v-.93zM41.298 35.911v-.93a1.681 1.681 0 0 1-1.676-1.68h-.93c0 .925-.754 1.68-1.68 1.68v.93c.926 0 1.68.754 1.68 1.676h.93a1.68 1.68 0 0 1 1.676-1.676zM11.749 0h-.931v.93h.93V0zM37.244 40.22h-.931v.932h.93v-.931zM33.52 40.22h-.93v.932h.93v-.931zM17.85 38.364l.126-.922a18.09 18.09 0 0 1-1.722-.32l-.219.902c.6.144 1.21.256 1.815.34zM11.87 40.807h-.931v.931h.93v-.93zM2.948 31.113h-.931v.93h.93v-.93zM15.346 36.88a17.293 17.293 0 0 1-6.092-3.226l-.59.717a18.098 18.098 0 0 0 6.417 3.397l.265-.889zM4.81 31.113h-.931v.93h.93v-.93zM20.378 38.536v-.93c-.466 0-.94-.02-1.406-.057l-.07.931c.489.038.982.056 1.476.056zM14.369 6.432a17.833 17.833 0 0 1 7.526-2.644l-.107-.926a18.816 18.816 0 0 0-7.917 2.783l.498.787zM39.627 9.08h-.931v.931h.93v-.93zM9.878 32.895c2.918 2.402 6.65 3.728 10.5 3.728 5.082 0 10.24-2.382 13.031-6.66 2.336-3.588 1.666-8.308-1.531-10.737-2.347-1.788-5.15-.725-7.14 1.527-2.531 2.871-5.226 4.472-8.005 4.76-3.495.364-6.33-.52-8.396-2.62-3.956-4.011-3.9-11.197-3.9-11.272a.462.462 0 0 0-.395-.465.468.468 0 0 0-.517.326c-2.462 8.102-.088 16.108 6.353 21.413z" fill="#555"/><path d="M34.452 8.861c-2.923-2.401-6.651-3.727-10.5-3.727-5.537 0-10.48 2.731-13.032 6.66-2.34 3.588-1.666 8.302 1.531 10.737 2.346 1.787 5.15.728 7.135-1.532 2.537-2.866 5.227-4.467 8.005-4.756 3.496-.363 6.33.521 8.401 2.62 3.956 4.012 3.9 11.198 3.9 11.272a.466.466 0 0 0 .391.466c.023.005.047.005.075.005.2 0 .381-.13.442-.331 2.466-8.103.088-16.108-6.348-21.414zM5.87 2.146c0 .921-.749 1.675-1.675 1.675v.93c.926 0 1.676.755 1.676 1.681h.93c0-.926.754-1.68 1.68-1.68v-.93c-.926 0-1.68-.755-1.68-1.676h-.93zM43.35 9.08h-.93v.931h.93v-.93zM13.731 40.807h-.93v.931h.93v-.93zM5.61 37.652a1.678 1.678 0 0 1-1.676-1.68h-.93c0 .926-.754 1.68-1.68 1.68v.93c.926 0 1.68.75 1.68 1.676h.93c0-.926.75-1.675 1.676-1.675v-.931zM23.123 3.69c.82-.037 1.662-.018 2.485.057l.084-.927c-.865-.079-1.75-.097-2.615-.06l.046.93zM41.298 4.752v-.93a1.68 1.68 0 0 1-1.676-1.676h-.93c0 .921-.754 1.675-1.68 1.675v.93c.926 0 1.68.755 1.68 1.681h.93c0-.926.754-1.68 1.676-1.68zM35.383 40.22h-.931v.932h.93v-.931z" fill="#555"/></symbol><symbol id="icon-mail"><path d="M29.745 15.334l.034-.008.028-.008.033-.011.028-.01.03-.014.028-.014.027-.016.028-.017.028-.02.024-.018a.677.677 0 0 0 .04-.037l.008-.007.007-.008a.663.663 0 0 0 .037-.04l.018-.025.02-.026.018-.03.015-.026.015-.03.012-.028.012-.03.01-.03.008-.032.008-.03.005-.038.004-.026a.651.651 0 0 0 .003-.066V.657A.656.656 0 0 0 29.617 0H8.919a.663.663 0 0 0-.39.142.764.764 0 0 0-.072.067L8.445.22 8.438.23a.644.644 0 0 0-.023.03L8.398.28a.68.68 0 0 0-.02.03l-.015.025-.015.03c-.005.01-.01.019-.013.028l-.012.03-.011.03-.009.03-.008.032-.005.03a.759.759 0 0 0-.006.034L8.282.61a.645.645 0 0 0-.002.037v4.06a.656.656 0 1 0 1.313 0V2.113l5.837 5.168a.66.66 0 0 0-.087.073l-5.75 5.75V8.79a.656.656 0 1 0-1.313 0v.803H4.887a.656.656 0 1 0 0 1.313H8.28v3.784c0 .363.293.656.656.656h20.68a.666.666 0 0 0 .066-.003c.01 0 .02-.003.03-.004l.033-.005zm-.785-2.23l-5.75-5.75-.011-.01 4.323-3.667a.656.656 0 1 0-.85-1.001l-7.386 6.267-8.618-7.63H28.96v11.792zm-12.689-4.82a.656.656 0 0 0 .115-.155l2.455 2.174a.656.656 0 0 0 .86.01l2.503-2.124a.664.664 0 0 0 .078.094l5.75 5.75h-17.51l5.75-5.75z" fill="#fff"/><path d="M.657 7.477h11.088a.656.656 0 1 0 0-1.313H.657a.656.656 0 1 0 0 1.313zM1.805 3.86h4.98a.656.656 0 1 0 0-1.314h-4.98a.656.656 0 1 0 0 1.313zM5.471 12.364H.657a.656.656 0 1 0 0 1.314H5.47a.656.656 0 1 0 0-1.314z" fill="#fff"/></symbol><symbol id="icon-phone"><path d="M16.619 38.854l.028-1.99-7.23-7.98-1.981-.166-3.076 2.788 9.184 10.136 3.075-2.788zm-9.716-6.872l-.632-.698 1.764-1.599.632.698-1.764 1.6zm6.334 4.731l-.033.448-.453-.01c-.075-.004-1.92-.065-3.023-1.282-1.1-1.217-.986-3.057-.977-3.137l.029-.448.453.01c.08.004 1.924.07 3.023 1.283 1.104 1.216.986 3.056.981 3.136zm1.849.75l.632.698-1.769 1.604-.632-.703 1.769-1.599z" fill="#555"/><path d="M11.992 45.363a1.93 1.93 0 0 0 2.73.137l5.524-5.004.042-2.646 10.768-9.754 2.632.217 7.532-6.82a1.938 1.938 0 0 0 .137-2.736L29.867 6.079a1.926 1.926 0 0 0-1.433-.637c-.481 0-.944.175-1.297.5l-7.533 6.825-.042 2.646-10.768 9.754-2.637-.217-5.523 5a1.946 1.946 0 0 0-.632 1.339c-.023.519.151 1.014.5 1.396l11.49 12.678zm7.386-9.588l-1.82-2.01 2.009-1.82 1.816 2.009-2.005 1.82zm2.052-8.68l-2.005 1.817-1.82-2.005 2.009-1.82 1.816 2.009zm-.387-3.305l2.01-1.821 1.815 2.01-2.005 1.82-1.82-2.01zm-3.052 6.419l-2.004 1.82-1.821-2.009 2.01-1.82 1.815 2.009zm4.825 2.448l-1.82-2.01 2.009-1.815 1.82 2.004-2.009 1.82zm3.439-3.113l-1.82-2.01 2.008-1.82 1.821 2.01-2.01 1.82zM22.76 14.196l5.589-5.06 9.815 10.833-5.584 5.061-2.35-.193-7.503-8.287.033-2.354zm-3.104 4.033l1.82 2.004-2.008 1.82-1.816-2.008 2.004-1.816zm-3.438 3.113l1.82 2.009-2.009 1.816-1.816-2.005 2.005-1.82zm-3.439 3.117l1.821 2.005-2.01 1.82-1.815-2.009 2.004-1.816zm-5.674 3.288l2.76.226 7.73 8.533-.043 2.773-4.075 3.693L3.03 31.44l4.075-3.693z" fill="#555"/><path d="M29.443 12.913l-.868-.962-.702.632.872.967.698-.637zM30.23 15.187l.698-.632-.872-.963-.698.632.872.963zM31.715 16.823l.698-.632-.871-.963-.699.632.872.963zM33.197 18.465l.703-.637-.872-.962-.698.636.867.963zM34.683 20.101l.699-.632-.868-.962-.703.632.872.962zM27.684 14.51l-.872-.961-.698.632.873.962.697-.632zM27.6 15.819l.867.962.703-.632-.873-.963-.698.633zM30.65 17.785l-.867-.962-.703.637.873.962.698-.637zM32.136 19.428l-.872-.962-.698.633.873.962.697-.633zM32.051 20.733l.873.967.698-.637-.873-.962-.698.632zM25.052 15.144l-.703.632.873.962.702-.632-.872-.962zM26.533 16.78l-.698.637.872.963.699-.637-.873-.962zM28.02 18.422l-.698.632.871.963.698-.632-.871-.963zM29.504 20.059l-.698.632.873.967.698-.637-.873-.962zM30.287 22.332l.873.962.703-.632-.873-.962-.703.632zM33.933 9.159l1.212-1.057-3.377-3.726-1.212 1.061.014.014 3.363 3.708zM36.968 5.374l-2.316-2.556-1.679 1.48L35.29 6.86l1.68-1.486zM39.727 2.26c.255-.23.406-.55.425-.895a1.34 1.34 0 0 0-.359-.958c-.462-.504-1.316-.547-1.825-.09l-2.363 2.147 1.755 1.938 2.367-2.141zM25.628 44.894a11.39 11.39 0 0 0 3.592-.393l-.25-.91c-1.07.294-2.179.416-3.295.36l-.047.943zM29.994 43.252l.343.879a11.534 11.534 0 0 0 6.444-6.316l-.872-.36a10.587 10.587 0 0 1-5.915 5.797zM37.246 36.447a11.49 11.49 0 0 0 .382-2.425l-.942-.047a10.526 10.526 0 0 1-.35 2.227l.91.245zM25.771 41.996a8.468 8.468 0 0 0 2.015-.139l-.176-.926a7.596 7.596 0 0 1-1.793.123l-.046.942zM28.654 40.654l.306.892a8.514 8.514 0 0 0 5.77-7.667l-.942-.046a7.575 7.575 0 0 1-5.134 6.821zM25.914 39.098a5.627 5.627 0 0 0 5.182-2.84l-.819-.47a4.69 4.69 0 0 1-4.316 2.368l-.047.942zM30.573 35.171l.878.345c.223-.568.35-1.166.381-1.78l-.942-.046a4.677 4.677 0 0 1-.317 1.481zM28.934 33.593l-.942-.046a1.79 1.79 0 0 1-.59 1.247 1.774 1.774 0 0 1-1.299.464l-.046.942a2.725 2.725 0 0 0 1.979-.708 2.728 2.728 0 0 0 .898-1.899zM3.936 15.96l-.88-.338a11.414 11.414 0 0 0-.745 3.536l.942.046c.055-1.117.285-2.209.683-3.243zM10.725 9.659l-.272-.903c-2.983.899-5.505 3.01-6.92 5.792l.842.427a10.584 10.584 0 0 1 6.35-5.316zM14.265 9.228l.046-.942c-.822-.04-1.647.007-2.451.142l.155.93a10.495 10.495 0 0 1 2.25-.13zM5.209 19.301l.942.047c.03-.602.13-1.198.3-1.772l-.906-.266a8.568 8.568 0 0 0-.336 1.991zM14.168 11.184a8.523 8.523 0 0 0-8.197 4.988l.857.393a7.577 7.577 0 0 1 7.294-4.439l.046-.942zM11.444 14.567a5.629 5.629 0 0 0-3.337 4.877l.942.046a4.69 4.69 0 0 1 2.78-4.063l-.385-.86zM14.025 14.082a5.6 5.6 0 0 0-1.808.204l.256.908a4.696 4.696 0 0 1 1.506-.17l.046-.942zM13.836 17.922l.046-.942a2.754 2.754 0 0 0-2.877 2.607l.942.046a1.796 1.796 0 0 1 1.889-1.711zM24.924 6.396l-.618-.713-.712.618.618.713.712-.618zM22.076 8.87l-.618-.711-.712.622.617.708.713-.618zM23.5 7.636l-.618-.712-.712.618.617.712.713-.618zM11.227 3.588h-.943v.944h.943v-.944zM7.454 3.588h-.943v.944h.943v-.944zM5.568 3.588h-.944v.944h.944v-.944zM9.341 3.588h-.943v.944h.943v-.944zM37.287 28.68h-.944v.944h.944v-.943zM39.174 28.68h-.944v.944h.944v-.943zM41.06 28.68h-.943v.944h.943v-.943zM42.947 28.68h-.944v.944h.944v-.943zM1.837 43.378H.894v.943h.943v-.943zM3.724 43.378H2.78v.943h.944v-.943zM5.61 43.378h-.943v.943h.943v-.943zM40.08 8.107h-.944v.943h.943v-.943zM41.966 8.107h-.944v.943h.944v-.943zM38.192 8.107h-.943v.943h.943v-.943z" fill="#555"/></symbol><symbol id="icon-phone2"><path d="M10.637 26.04S13 26.04 13 23.673V2.367C13 0 10.637 0 10.637 0H2.364S0 0 0 2.367v21.306c0 2.367 2.364 2.367 2.364 2.367h8.273zM6.5 25.055a1.182 1.182 0 1 1 .001-2.365 1.182 1.182 0 0 1 0 2.364zM4.728 1.443c0-.147.07-.261.157-.261h3.23c.087 0 .158.117.158.261v.07c0 .146-.071.26-.157.26H4.885c-.087 0-.157-.116-.157-.26v-.07zM1.182 2.955h10.636v18.909H1.182V2.954z" fill="#fff"/></symbol><symbol id="icon-robot"><mask id="a" maskUnits="userSpaceOnUse" x=".222" y="-.188" width="62" height="47" fill="#000"><path fill="#fff" d="M.222-.188h62v47h-62z"/><path d="M58.944 44.995l-6.3-17.984a.436.436 0 0 0-.227-.252l-5.782-2.684v.002a.427.427 0 0 0-.183-.044H42.09l3.484-3.483a.428.428 0 0 0 .073-.11l.004-.005c.03-.06.05-.125.05-.194v-8.267a.443.443 0 0 0-.045-.185c-.008-.019-.022-.033-.033-.05-.016-.025-.028-.053-.05-.073l-6.208-6.21a.435.435 0 0 0-.308-.127h-5.162V1.25a.436.436 0 0 0-.437-.437H29.45a.436.436 0 0 0-.436.436V5.33H23.85a.434.434 0 0 0-.308.128l-6.209 6.209c-.02.02-.033.048-.049.073-.011.017-.025.031-.033.05a.43.43 0 0 0-.045.185V20.242c0 .069.02.133.05.193l.004.006c.02.04.042.078.073.11l3.484 3.483h-4.413a.426.426 0 0 0-.183.043v-.002l-5.784 2.685a.433.433 0 0 0-.228.252L3.908 44.995H1.222v.873h5.99v-.873h-2.38l2.027-5.787h4.69a.432.432 0 0 0 .136-.022l4.787-1.58h4.553v2.25c0 .24.195.436.436.436h5.947l-1.564 3.532a.438.438 0 0 0 .398.613H36.64a.437.437 0 0 0 .4-.613l-1.565-3.532h6.018a.436.436 0 0 0 .436-.436v-2.25h4.45l4.786 1.58c.044.015.09.022.137.022h4.69l2.028 5.787h-2.38v.873h5.989v-.873h-2.685zM51.616 27.35l-4.73 8.192V25.154l4.73 2.196zm-24.969 9.385V24.906h9.558v11.828h-9.558v.001zm.465-20.83l-9.036 3.679v-6.985l9.036 3.306zm1.055-1.452l-3.649-8.25h4.448l-.8 8.25zm-.659.669L18.431 11.8l5.276-5.276 3.801 8.598zm-.482 1.76l-5.205 6.925-3.415-3.415 8.62-3.51zm2.817-10.68h3.217l1.73 17.831h-6.676l1.73-17.831zm5.948 9.704l9.037-3.307v6.985l-9.037-3.678zm8.707 4.485l-3.415 3.415-5.205-6.924 8.62 3.509zm-9.103-5.27l3.802-8.597 5.275 5.276-9.077 3.322zm-.658-.669l-.8-8.25h4.449l-3.65 8.25zm.929 9.582L35 17.17l5.161 6.865h-4.495zM33.02 1.685V5.33h-3.136V1.685h3.136zm-5.116 15.482l-.666 6.866h-4.496l5.162-6.866zM15.965 35.543l-4.73-8.193 4.73-2.196v10.389zm-4.486 2.793H7.165l3.551-10.14 5.04 8.728-4.277 1.412zm5.359-13.43h8.937v11.828h-8.937V24.906zM35.97 43.564h-9.058l1.448-3.272h6.16l1.45 3.272zm5.086-4.144h-19.16v-1.813h19.16v1.813zm4.957-2.685h-8.937V24.906h8.936v11.829h.001zm5.359 1.6l-4.277-1.41 5.038-8.729 3.552 10.14h-4.313z"/></mask><path d="M58.944 44.995l-6.3-17.984a.436.436 0 0 0-.227-.252l-5.782-2.684v.002a.427.427 0 0 0-.183-.044H42.09l3.484-3.483a.428.428 0 0 0 .073-.11l.004-.005c.03-.06.05-.125.05-.194v-8.267a.443.443 0 0 0-.045-.185c-.008-.019-.022-.033-.033-.05-.016-.025-.028-.053-.05-.073l-6.208-6.21a.435.435 0 0 0-.308-.127h-5.162V1.25a.436.436 0 0 0-.437-.437H29.45a.436.436 0 0 0-.436.436V5.33H23.85a.434.434 0 0 0-.308.128l-6.209 6.209c-.02.02-.033.048-.049.073-.011.017-.025.031-.033.05a.43.43 0 0 0-.045.185V20.242c0 .069.02.133.05.193l.004.006c.02.04.042.078.073.11l3.484 3.483h-4.413a.426.426 0 0 0-.183.043v-.002l-5.784 2.685a.433.433 0 0 0-.228.252L3.908 44.995H1.222v.873h5.99v-.873h-2.38l2.027-5.787h4.69a.432.432 0 0 0 .136-.022l4.787-1.58h4.553v2.25c0 .24.195.436.436.436h5.947l-1.564 3.532a.438.438 0 0 0 .398.613H36.64a.437.437 0 0 0 .4-.613l-1.565-3.532h6.018a.436.436 0 0 0 .436-.436v-2.25h4.45l4.786 1.58c.044.015.09.022.137.022h4.69l2.028 5.787h-2.38v.873h5.989v-.873h-2.685zM51.616 27.35l-4.73 8.192V25.154l4.73 2.196zm-24.969 9.385V24.906h9.558v11.828h-9.558v.001zm.465-20.83l-9.036 3.679v-6.985l9.036 3.306zm1.055-1.452l-3.649-8.25h4.448l-.8 8.25zm-.659.669L18.431 11.8l5.276-5.276 3.801 8.598zm-.482 1.76l-5.205 6.925-3.415-3.415 8.62-3.51zm2.817-10.68h3.217l1.73 17.831h-6.676l1.73-17.831zm5.948 9.704l9.037-3.307v6.985l-9.037-3.678zm8.707 4.485l-3.415 3.415-5.205-6.924 8.62 3.509zm-9.103-5.27l3.802-8.597 5.275 5.276-9.077 3.322zm-.658-.669l-.8-8.25h4.449l-3.65 8.25zm.929 9.582L35 17.17l5.161 6.865h-4.495zM33.02 1.685V5.33h-3.136V1.685h3.136zm-5.116 15.482l-.666 6.866h-4.496l5.162-6.866zM15.965 35.543l-4.73-8.193 4.73-2.196v10.389zm-4.486 2.793H7.165l3.551-10.14 5.04 8.728-4.277 1.412zm5.359-13.43h8.937v11.828h-8.937V24.906zM35.97 43.564h-9.058l1.448-3.272h6.16l1.45 3.272zm5.086-4.144h-19.16v-1.813h19.16v1.813zm4.957-2.685h-8.937V24.906h8.936v11.829h.001zm5.359 1.6l-4.277-1.41 5.038-8.729 3.552 10.14h-4.313z" fill="#777"/><path d="M58.944 44.995l-6.3-17.984a.436.436 0 0 0-.227-.252l-5.782-2.684v.002a.427.427 0 0 0-.183-.044H42.09l3.484-3.483a.428.428 0 0 0 .073-.11l.004-.005c.03-.06.05-.125.05-.194v-8.267a.443.443 0 0 0-.045-.185c-.008-.019-.022-.033-.033-.05-.016-.025-.028-.053-.05-.073l-6.208-6.21a.435.435 0 0 0-.308-.127h-5.162V1.25a.436.436 0 0 0-.437-.437H29.45a.436.436 0 0 0-.436.436V5.33H23.85a.434.434 0 0 0-.308.128l-6.209 6.209c-.02.02-.033.048-.049.073-.011.017-.025.031-.033.05a.43.43 0 0 0-.045.185V20.242c0 .069.02.133.05.193l.004.006c.02.04.042.078.073.11l3.484 3.483h-4.413a.426.426 0 0 0-.183.043v-.002l-5.784 2.685a.433.433 0 0 0-.228.252L3.908 44.995H1.222v.873h5.99v-.873h-2.38l2.027-5.787h4.69a.432.432 0 0 0 .136-.022l4.787-1.58h4.553v2.25c0 .24.195.436.436.436h5.947l-1.564 3.532a.438.438 0 0 0 .398.613H36.64a.437.437 0 0 0 .4-.613l-1.565-3.532h6.018a.436.436 0 0 0 .436-.436v-2.25h4.45l4.786 1.58c.044.015.09.022.137.022h4.69l2.028 5.787h-2.38v.873h5.989v-.873h-2.685zM51.616 27.35l-4.73 8.192V25.154l4.73 2.196zm-24.969 9.385V24.906h9.558v11.828h-9.558v.001zm.465-20.83l-9.036 3.679v-6.985l9.036 3.306zm1.055-1.452l-3.649-8.25h4.448l-.8 8.25zm-.659.669L18.431 11.8l5.276-5.276 3.801 8.598zm-.482 1.76l-5.205 6.925-3.415-3.415 8.62-3.51zm2.817-10.68h3.217l1.73 17.831h-6.676l1.73-17.831zm5.948 9.704l9.037-3.307v6.985l-9.037-3.678zm8.707 4.485l-3.415 3.415-5.205-6.924 8.62 3.509zm-9.103-5.27l3.802-8.597 5.275 5.276-9.077 3.322zm-.658-.669l-.8-8.25h4.449l-3.65 8.25zm.929 9.582L35 17.17l5.161 6.865h-4.495zM33.02 1.685V5.33h-3.136V1.685h3.136zm-5.116 15.482l-.666 6.866h-4.496l5.162-6.866zM15.965 35.543l-4.73-8.193 4.73-2.196v10.389zm-4.486 2.793H7.165l3.551-10.14 5.04 8.728-4.277 1.412zm5.359-13.43h8.937v11.828h-8.937V24.906zM35.97 43.564h-9.058l1.448-3.272h6.16l1.45 3.272zm5.086-4.144h-19.16v-1.813h19.16v1.813zm4.957-2.685h-8.937V24.906h8.936v11.829h.001zm5.359 1.6l-4.277-1.41 5.038-8.729 3.552 10.14h-4.313v0z" stroke="#777" stroke-width="1.036" mask="url(#a)"/></symbol><symbol id="icon-robot2"><path d="M1.985 37.263a1.175 1.175 0 0 0-.116-.24.43.43 0 0 0-.142-.145.159.159 0 0 0-.14-.017.254.254 0 0 0-.114.11.726.726 0 0 0-.078.215 1.426 1.426 0 0 0-.027.3 1.977 1.977 0 0 0 .105.634c.033.092.072.174.115.24a.45.45 0 0 0 .14.147c.05.03.098.035.141.018a.242.242 0 0 0 .116-.108.699.699 0 0 0 .077-.214 1.49 1.49 0 0 0 .029-.301 2.045 2.045 0 0 0-.106-.64zM1.474 27.673c.033.093.071.174.115.24.043.067.09.117.14.147.05.029.098.035.14.019a.238.238 0 0 0 .117-.109.691.691 0 0 0 .076-.214c.019-.086.03-.188.03-.3a2.055 2.055 0 0 0-.106-.64 1.2 1.2 0 0 0-.116-.24.435.435 0 0 0-.142-.146.158.158 0 0 0-.14-.015.247.247 0 0 0-.114.11.718.718 0 0 0-.078.214 1.398 1.398 0 0 0-.028.3 1.989 1.989 0 0 0 .106.634zM3.319 32.832a3.564 3.564 0 0 0-.387-.783c-.145-.21-.304-.368-.47-.453a.524.524 0 0 0-.467-.028c-.143.062-.27.193-.377.38a2.44 2.44 0 0 0-.252.712 4.96 4.96 0 0 0-.09.983c0 .365.032.73.091 1.08.06.349.145.682.25.98.107.3.234.566.376.781.141.215.297.38.463.473a.544.544 0 0 0 .467.057c.145-.054.276-.176.386-.358.11-.182.2-.422.264-.712a4.82 4.82 0 0 0 .1-1.002c0-.374-.033-.75-.095-1.108a5.739 5.739 0 0 0-.26-1.002z" fill="#555"/><path d="M34.47 38.303L30.062 24.15V12.593C30.062 5.753 24.675 0 17.835 0h-.942c-6.84 0-12.3 5.753-12.3 12.593v7.918l-3.625.006c-.283-.018-.849.405-.853 1.06L0 37.964c-.007 1.034.369 2.104.847 2.392l4.58 2.572a.402.402 0 0 0 .297.058c-.023.005-.046.014-.07.014l8.471-.556c.362 0 .626-.568.635-1.45a4.594 4.594 0 0 0-.109-1.028l-.44-1.472c.864.19 1.761.264 2.682.264h.941c1.03 0 2.032-.098 2.99-.336.08.102.162.204.25.258l4.256 2.579c.107.064.206.08.3.06-.024.006-.046.016-.07.016l8.472-.555c.362 0 .582-.566.591-1.45.004-.326-.077-.675-.153-1.027zm-6.555-11.446c-.859.527-2.597 1.12-5.46 1.487-.215.028-.144.05-.698.075v-1.48c.554-.03.611-.057.89-.093 1.053-.135 2.556-.481 2.556-.481.297-.064.43-.366.43-.671v-1.198c0-.305-.106-.492-.402-.415 0 0-1.42.373-2.934.568-.179.024.013.045-.54.062v-1.097c.553-.029.61-.057.89-.093 1.052-.136 2.556-.482 2.556-.482.297-.063.428-.365.428-.67V21.17c0-.304-.106-.49-.401-.414 0 0-1.42.373-2.935.569-.177.022.015.043-.539.061v-3.101c.554-.028.476-.053.73-.086 1.333-.171 3.7-.58 5.36-1.402v9.617c0 .132.075.26.07.39l-.001.053zm-10.52-.278c-1.383 0-3.746-.18-3.746-.18-.152-.012-.198-.146-.198-.298v-.281c0-.152.046-.271.198-.265 0 0 5.87.258 8.663-.102.998-.13 2.454-.432 2.454-.432.15-.032.313.067.313.22v.297c0 .152-.184.302-.332.333 0 0-1.388.283-2.337.405-1.564.202-3.3.303-5.015.303zm0-3.325c-1.383 0-3.746-.181-3.746-.181-.152-.012-.198-.146-.198-.298v-.28c0-.153.046-.273.198-.266 0 0 5.868.258 8.663-.101.997-.13 2.454-.432 2.454-.432.15-.032.313.067.313.22v.297c0 .152-.184.302-.332.333 0 0-1.388.282-2.337.404-1.566.203-3.3.304-5.015.304zm10.453-10.66v1.056c-.554.547-2.447 1.183-5.456 1.572-.21.027-.38.048-.591.071-.004-.56.011-1.117-.002-1.663a4.15 4.15 0 0 0 1.663-3.309 4.145 4.145 0 0 0-2.347-3.737c-.345-1.582-.843-3.035-1.555-4.097 4.752.86 8.288 5.108 8.288 10.106zm-8.276-4.86a2.428 2.428 0 1 1 0 4.856 2.428 2.428 0 0 1 0-4.856zm-12.765 4.86c0-5.369 4.125-9.86 9.397-10.244.4.77.84 2.106 1.181 4.252a4.186 4.186 0 0 0-2.218 3.697 4.166 4.166 0 0 0 2.785 3.928c.007.416.011.851.014 1.295-4.465.055-8.782-.576-10.849-1.702-.135-.074-.31-.145-.31-.22v-1.007zm0 2.284c2.215 1.108 6.325 1.755 10.701 1.755 1.727 0 3.378-.1 5.024-.313 1.333-.172 3.655-.58 5.316-1.403v.611c-.554.548-2.447 1.184-5.456 1.573-5.73.74-12.547.111-15.318-1.4-.136-.072-.267-.147-.267-.221v-.602zM5.432 41.864l-4.258-2.573c-.204-.125-.369-.586-.366-1.028L.912 21.88c.001-.18.07-.285.154-.232.054.031.104.125.132.25l3.84 15.97c-.01-.007-.02-.017-.03-.023a.27.27 0 0 0-.23-.026.39.39 0 0 0-.187.17 1.063 1.063 0 0 0-.127.337c-.03.138-.047.297-.047.474a3.044 3.044 0 0 0 .168 1c.053.146.116.276.186.382.07.105.147.187.228.234a.27.27 0 0 0 .23.032.385.385 0 0 0 .19-.166c.05-.081.092-.19.123-.318l.205.852c.03.143.046.293.046.437-.005.47-.16.735-.361.612zm3.06-21.305c-.06-.036-.068-.054-.124-.054 0 0-.454.002-1.561.003v-3.75c2.214 1.107 6.326 1.755 10.702 1.755.155 0 .372-.005.372-.007v3.016c-2.215-.006-4.52-.127-4.52-.127-.305-.018-.464.218-.464.522v1.126c0 .304.203.573.506.599 0 0 2.41.204 4.003.204.18 0 .475-.006.475-.008v1.009c-2.215-.006-4.52-.127-4.52-.127-.305-.017-.464.219-.464.523v1.126c0 .304.203.573.506.599 0 0 2.41.204 4.003.204.18 0 .475-.006.475-.008v1.487c-2.198.03-4.807-.148-6.835-.498l-.003-.012-2.001-6.558c-.114-.496-.324-.887-.55-1.024zm4.945 15.414l-2.034-6.657c1.851.286 3.964.441 6.101.441.137 0 .28-.005.418-.006-.117 1.369-.506 4.95-1.459 6.801a10.087 10.087 0 0 1-3.026-.58zm3.028.58c.142.005.284-.01.428-.01-.145 0-.285.015-.428.01zm3.684-.26c1.058-1.861 1.622-5.092 1.691-6.761.268-.028.539-.055.803-.089 1.272-.163 3.548-.546 5.178-1.297a10.144 10.144 0 0 1-7.672 8.147zM25.34 40.2l-3.43-2.073a12.363 12.363 0 0 0 3.11-1.611l.634 2.635c.03.143.047.294.046.437-.004.471-.159.734-.36.612z" fill="#555"/></symbol><symbol id="icon-robot3"><path d="M24.773.593l-.192.916c.295.061.59.136.874.215l.257-.902a14.493 14.493 0 0 0-.939-.229zM26.315 2c.285.103.57.215.836.332l.379-.855c-.29-.127-.589-.248-.897-.356L26.315 2zM27.96 2.729c.266.14.523.294.77.453l.51-.785a12.26 12.26 0 0 0-.836-.49l-.444.822zM31.656 9.677c-.033 1.107-.388 2.145-1.005 3.065h2.505V6.163h-2.598c.752 1.075 1.135 2.276 1.098 3.514zM13.316 1.584C13.316.71 12.61 0 11.736 0c-.873 0-1.579.71-1.579 1.584 0 .645.411 1.748 1.112 2.098v2.481h-.822v6.58h2.677c-.808-1.104-1.22-2.347-1.182-3.627.033-1.06.365-2.06.949-2.953h-.687V3.682c.7-.35 1.112-1.453 1.112-2.098zm-1.58 1.285c-.196 0-.644-.748-.644-1.285 0-.36.29-.65.645-.65.355 0 .644.29.644.65 0 .537-.448 1.285-.644 1.285zM21.689 13.26c.098 0 .196.005.294.005 3.29 0 6.224-1.724 6.28-3.686.033-1.145-.906-2.042-1.472-2.472-1.233-.948-3.013-1.519-4.882-1.575-.098 0-.197-.004-.29-.004-3.294 0-6.229 1.724-6.285 3.686-.056 2.019 2.972 3.949 6.355 4.047zm2.99-5.218c.556 0 1.005.453 1.005 1.009a1.007 1.007 0 1 1-2.014 0c0-.556.453-1.01 1.01-1.01zm-5.756 0c.556 0 1.005.453 1.005 1.009a1.007 1.007 0 1 1-2.014 0c0-.556.453-1.01 1.009-1.01z" fill="#555"/><path d="M12.877 9.144c-.047 1.66.817 3.252 2.434 4.49 1.444 1.113 3.331 1.818 5.392 2.024v2.687c-1.617.303-3.145 1.242-4.523 2.649l-3.35 5.7h17.938l-3.35-5.7c-1.379-1.407-2.907-2.346-4.523-2.65v-2.663c4.369-.313 7.733-2.845 7.826-6.032.047-1.659-.817-3.252-2.43-4.495-1.663-1.271-3.901-2.01-6.312-2.08-.122-.004-.243-.004-.365-.004-4.798 0-8.64 2.668-8.737 6.074zM23.408 22.98a1.607 1.607 0 1 1-3.215 0 1.607 1.607 0 0 1 3.216 0zM21.938 4.598c2.06.06 4.037.705 5.424 1.766.706.542 1.879 1.682 1.837 3.243-.075 2.532-3.308 4.593-7.215 4.593-.107 0-.215-.005-.322-.005-4.01-.116-7.331-2.41-7.257-5.009.07-2.602 3.482-4.696 7.533-4.588zM31.319 27.627h-19.04l-.928 1.58c-.261.709-.502 1.435-.72 2.176h22.337a35 35 0 0 0-.721-2.178l-.928-1.578z" fill="#555"/><path d="M33.511 27.186c.292-1.09.022-2.509-.722-3.795-.902-1.563-2.335-2.613-3.568-2.613-.247 0-.474.05-.684.135 1.709 1.928 3.18 4.491 4.316 7.365.305-.253.532-.623.658-1.092zM10.088 27.186c.125.468.352.837.658 1.092 1.136-2.874 2.606-5.437 4.315-7.365a1.785 1.785 0 0 0-.683-.135c-1.233 0-2.667 1.05-3.568 2.612-.744 1.287-1.014 2.706-.722 3.796zM9.166 40.39h25.265a33.663 33.663 0 0 0-.274-3.377H9.44a33.661 33.661 0 0 0-.275 3.377zM34.023 36.078a36.92 36.92 0 0 0-.794-3.76H10.37a36.933 36.933 0 0 0-.794 3.76h24.448zM27.47 42.172c0 .966.787 1.752 1.753 1.752.967 0 1.753-.786 1.753-1.752v-.848h-3.505v.848zM14.375 43.924c.966 0 1.753-.786 1.753-1.752v-.848h-3.506v.848c0 .966.787 1.752 1.753 1.752zM6.17 17.505v-1.19h1.19v-.935H6.17v-1.19h-.935v1.19h-1.19v.935h1.19v1.19h.934zM2.125 37.214v-1.19h1.19v-.934h-1.19V33.9H1.19v1.19H0v.934h1.19v1.19h.935zM35.341 14.915v1.19h-1.19v.935h1.19v1.19h.935v-1.19h1.19v-.934h-1.19v-1.19h-.935zM42.814 33.75h-1.19v-1.19h-.934v1.19H39.5v.934h1.19v1.19h.934v-1.19h1.19v-.934zM5.106 23.256h-.934v.934h.934v-.934zM1.368 23.256H.434v.934h.934v-.934zM3.237 23.256h-.935v.934h.935v-.934zM37.618 23.723h-.935v.934h.935v-.934zM41.356 23.723h-.935v.934h.935v-.934zM39.487 23.723h-.935v.934h.935v-.934zM39.917 3.626h-.935v.934h.935v-.934zM41.786 3.626h-.935v.934h.935v-.934zM38.048 3.626h-.935v.934h.935v-.934zM7.494 5.551h-.935v.935h.935V5.55zM5.625 5.551H4.69v.935h.935V5.55zM3.756 5.551H2.82v.935h.935V5.55z" fill="#555"/></symbol><symbol id="icon-rocket"><path d="M18.2 9.1c0-5-4.1-9.1-9.1-9.1S0 4 0 9s4.1 9.1 9.1 9.1c4.9.1 9.1-3.9 9.1-9zm-16.1 0c0-3.9 3.1-7 7-7s7 3.2 7 7.1c0 3.9-3.1 7-7 7-4-.1-7-3.3-7-7.1zM8.6 22.7c0-.3-.3-.5-.5-.5s-.5.3-.5.5c0 .9-.7 1.6-1.6 1.6-.3 0-.5.3-.5.5s.3.5.5.5c.9 0 1.6.7 1.6 1.6 0 .3.3.5.5.5s.5-.3.5-.5c0-.9.7-1.6 1.6-1.6.3 0 .5-.3.5-.5s-.3-.5-.5-.5c-.9-.1-1.6-.8-1.6-1.6zm-.5 2.5c-.1-.2-.3-.3-.5-.5.2-.1.3-.3.5-.5.1.2.3.3.5.5-.3.2-.4.3-.5.5zM23.7 7c1.4 0 2.6 1.2 2.6 2.6 0 .5.4.9.9.9s.9-.4.9-.9c0-1.4 1.2-2.6 2.6-2.6.5 0 .9-.4.9-.9s-.4-.9-.9-.9c-1.4 0-2.6-1.2-2.6-2.6 0-.5-.4-.9-.9-.9s-.9.4-.9.9c0 1.4-1.2 2.6-2.6 2.6-.5 0-.9.4-.9.9s.4.9.9.9zm3.4-1.7c.3.3.5.6.8.8-.3.2-.5.5-.8.8-.2-.3-.5-.5-.8-.8.3-.2.6-.4.8-.8zM57.4 53.2c-1.4 0-2.6-1.2-2.6-2.6 0-.5-.4-.9-.9-.9s-.9.4-.9.9c0 1.4-1.2 2.6-2.6 2.6-.5 0-.9.4-.9.9s.4.9.9.9c1.4 0 2.6 1.2 2.6 2.6 0 .5.4.9.9.9s.9-.4.9-.9c0-1.4 1.2-2.6 2.6-2.6.5 0 .9-.4.9-.9s-.4-.9-.9-.9zm-3.5 1.7c-.2-.3-.5-.5-.8-.8.3-.2.5-.5.8-.8.3.3.5.6.8.8-.2.2-.5.4-.8.8zM61.3 5.6H41.8c-.3 0-.5.1-.7.3l-28 28c-.2.2-.3.4-.3.7 0 .3.1.5.3.7l5.8 5.8-13.2 2.7c-.9.2-1.7.9-2 1.8-.3.9 0 1.9.6 2.6l16.4 16.4c.6.6 1.4.9 2.2.9.3 0 .6 0 .9-.1 1.1-.3 1.9-1.2 2.1-2.3l2.5-12.3 5.9 5.9c.2.2.5.3.7.3.2 0 .5-.1.7-.3l28-28c.2-.2.3-.4.3-.7V8.4c0-1.5-1.2-2.8-2.7-2.8zm.2 22.4L41.7 8.2l.5-.5L62 27.5l-.5.5zM41.6 47.9l-6-6 19.2-19.2 6 6-19.2 19.2zm-4.2 4.2l-6-6 3.5-3.5 6 6-3.5 3.5zm-9.2-4.3c-.1 0-.1-.1-.2-.1h-.5L21.8 42v-.5l1.8-1.8 6.3 6.3-1.7 1.8zM14.7 49l8.4-4.2 1.8 1.8-4.1 8.5-6.1-6.1zm6.3-6.1c.1 0 .1 0 .1-.1l1.2 1.2-8.4 4.2-3.3-3.3 10.4-2zm3.4-3.9l10.5-10.5 6.3 6.3-10.5 10.5-6.3-6.3zm3.7-17.3l6.1 6.1-10.5 10.5-6.1-6.1 10.5-10.5zM41 8.9L54.1 22 42 34.1 28.9 21 41 8.9zm2.5-1.3h10.3l8.2 8.2v10.3L43.5 7.6zm18.5.8v6l-6.7-6.7h6c.4-.1.7.3.7.7zM16.9 33l6.1 6.1-1.7 1.7-6.1-6.1 1.7-1.7zm6.3 30.5c-.4.1-.8 0-1.1-.3L5.7 46.8c-.2-.2-.2-.5-.1-.6 0-.1.1-.3.5-.4l3.4-.7 15 15-.5 2.5c-.1.5-.4.8-.8.9zm1.5-4.5l-3.2-3.2 4.1-8.5 1.2 1.2v.1L24.7 59zM35 54.5l-6-6 1.7-1.7 6 6-1.7 1.7z" fill="#fff"/><path d="M37.8 24.8c1 1 2.2 1.4 3.5 1.4 1.3 0 2.5-.5 3.5-1.4 1.9-1.9 1.9-5 0-6.9-1.9-1.9-5-1.9-6.9 0-.9.9-1.4 2.2-1.4 3.5-.1 1.3.4 2.5 1.3 3.4zm.7-6.2c.8-.8 1.8-1.1 2.8-1.1 1 0 2 .4 2.8 1.1 1.5 1.5 1.5 4 0 5.5s-4 1.5-5.5 0c-.7-.7-1.1-1.7-1.1-2.8-.1-1 .3-2 1-2.7z" fill="#fff"/><path d="M36.4 26.2c1.3 1.3 3 2 4.9 2 1.9 0 3.6-.7 4.9-2 2.7-2.7 2.7-7 0-9.7-1.3-1.3-3-2-4.9-2-1.9 0-3.6.7-4.9 2-2.7 2.7-2.7 7 0 9.7zm.7-9c1.1-1.1 2.6-1.7 4.2-1.7s3 .6 4.2 1.7c2.3 2.3 2.3 6 0 8.3-1.1 1.1-2.6 1.7-4.2 1.7s-3-.6-4.2-1.7c-2.3-2.3-2.3-6 0-8.3zM41.7 46.4a.5.5 0 1 0 0-1 .5.5 0 0 0 0 1zM45.1 43a.5.5 0 1 0 0-1 .5.5 0 0 0 0 1zM48.5 39.6a.5.5 0 1 0 0-1 .5.5 0 0 0 0 1zM52 36.1a.5.5 0 1 0 0-1 .5.5 0 0 0 0 1zM55.4 32.7a.5.5 0 1 0 0-1 .5.5 0 0 0 0 1zM58.8 29.3a.5.5 0 1 0 0-1 .5.5 0 0 0 0 1z" fill="#fff"/></symbol><symbol id="icon-rocket2"><path d="M29.742 11.63c-.083.62-.657 1.037-1.472 1.148-1.561.214-2.963.214-8.812.214H5.986a.302.302 0 0 1-.139-.033s0 0 0 0l-2.259-1.16a.303.303 0 0 1-.165-.27v-.202l-1.813.36h0a.31.31 0 0 1-.252-.063h0a.304.304 0 0 1-.11-.234V8.852a.303.303 0 0 1 .362-.298h0l.362.072V6.828a.303.303 0 0 1 .363-.298h0l1.056.21c.027-.052.055-.1.085-.142l-.614-.315h0l26.78 5.333m.1.013l-.1-.013m.1.013s0 0 0 0l-.1-.013m.1.013c.068-.509-.237-1.005-.73-1.214h0c-.688-.291-2.765-1.36-3.195-1.582m3.826 2.783c.061-.46-.214-.916-.67-1.11-.706-.298-2.86-1.407-3.226-1.597m.07-.076l.015.024-.085.052m.07-.076l-.024-.013-.046.09m.07-.077c-.176-.275-.794-1.04-2.18-1.04-1.378 0-13.613-.4-15.076-.449M25.747 8.91c-.143-.232-.727-1.017-2.11-1.017-1.397 0-13.903-.41-15.126-.45m0 0l.079-.061-.03-.037m-.049.099c-.461-.587-3.32-4.212-4.308-5.2m4.308 5.2l.003-.1.047.001m0 0c-.538-.684-3.312-4.198-4.287-5.173m-.07.071l.07-.07m-.07.07l.07-.07s0 0 0 0m-.07.07L2.811 6.088l-.093.037s0 0 0 0A692.856 692.856 0 0 1 .994 1.798h0a1.43 1.43 0 0 1-.09-.325.482.482 0 0 1 .075-.34M4.274 2.17c-.536-.535-.897-.853-1.198-1.037A1.48 1.48 0 0 0 2.23.9h-.001v0l-.145.002h0v0l-.17.002h-.01c-.233 0-.421 0-.566.025-.153.025-.274.08-.36.203m0 0l.083.057-.082-.057s0 0 0 0zM3.93 9.096l.002.028v2.101h.1V9.124a.303.303 0 0 0-.045-.16l-.057.132zm4.084-1.465c-.668-.847-3.268-4.13-4.169-5.03-.537-.537-.856-.81-1.084-.95a.936.936 0 0 0-.28-.121 1.065 1.065 0 0 0-.25-.022s0 0 0 0l-.135.002s0 0 0 0a15.684 15.684 0 0 1-.384.002l-.171.005.024.068c.162.43 1.428 3.588 1.678 4.208l.956.493c.125.064.18.2.154.328a.31.31 0 0 1-.275.245l3.936.772zm21.126 3.918c.03-.228-.113-.468-.364-.574-.216-.091-.551-.25-.925-.433-.1.368-.214 1.012-.06 1.684.133-.015.264-.032.397-.05.591-.08.913-.334.952-.627zm-24.154.285l1.074.55h13.378c4.59 0 6.428 0 7.741-.1a3.572 3.572 0 0 1-.061-.45H4.985zm-1.563-2.3l-1.567-.312v1.797l1.567-.312V9.535zM3.23 7.328l-.65-.13v1.55l.622.124.115-.023c-.057-.25-.106-.626-.106-1.174 0-.127.007-.242.019-.347z" fill="#fff" stroke="#999" stroke-width=".2"/></symbol><symbol id="icon-satellite"><mask id="a" maskUnits="userSpaceOnUse" x="0" y="0" width="94" height="94" fill="#000"><path fill="#fff" d="M0 0h94v94H0z"/><path d="M73.242 60.113l-.426-.424c-3.521-3.521-9.188-3.605-12.828-.27l-1.439-1.437 5.424-5.423-9.731-9.732 2.457-2.456 2.85 2.849 33.15-33.15L83.629 1l-33.15 33.15 2.85 2.849-2.457 2.457-8.095-8.095-3.276 3.277-5.81-5.811-.566.565 5.81 5.811-3.125 3.125-3.139-3.138-.566.565 3.14 3.138-3.879 3.879 8.095 8.095-2.458 2.457-2.849-2.849L1 83.628l9.07 9.07 33.15-33.151-2.85-2.849 2.457-2.459 9.731 9.731 5.424-5.423 1.438 1.438c-3.336 3.639-3.252 9.307.271 12.829l.425.425 2.402-2.404 7.021-.448 2.523 2.522.848-.849-2.523-2.524.449-7.021 2.406-2.402zM62.8 23.525l10.201-10.202 7.078 7.076.295.295-10.201 10.203-6.731-6.73-.642-.642zm18.141-3.396l-7.373-7.372 10.061-10.06 7.373 7.373-10.061 10.059zM62.236 24.09l.295.295 7.076 7.077-10.06 10.06-7.373-7.372 10.062-10.06zm-8.344 13.475l2.241 2.241-2.458 2.456-2.24-2.24 2.457-2.457zM23.526 62.8l7.372 7.373-10.201 10.201-3.688-3.687L13.323 73l10.203-10.2zM12.757 73.568l3.687 3.687 3.687 3.687-10.06 10.061-7.373-7.373 10.059-10.062zm18.707-3.961l-7.373-7.373 10.06-10.06 7.373 7.373-10.06 10.06zm8.342-13.475l-2.24-2.241 2.457-2.457 2.24 2.24-2.457 2.458zm-1.932-8.544l7.185-7.185-.848-.849-7.186 7.185-3.966-3.966 9.715-9.716 4.107 4.107-.952.952.566.565.952-.951 14.829 14.829-9.716 9.715-14.686-14.686zm22.664 12.949a8.056 8.056 0 0 1 5.715-2.362 8.05 8.05 0 0 1 5.273 1.954L60.13 71.526c-2.735-3.171-2.597-7.98.408-10.989zm2.836 9.441l2.879-2.878 2.533 2.533-5.412.345zm6.259-1.193l-2.532-2.533 2.879-2.877-.347 5.41z"/></mask><path d="M73.242 60.113l-.426-.424c-3.521-3.521-9.188-3.605-12.828-.27l-1.439-1.437 5.424-5.423-9.731-9.732 2.457-2.456 2.85 2.849 33.15-33.15L83.629 1l-33.15 33.15 2.85 2.849-2.457 2.457-8.095-8.095-3.276 3.277-5.81-5.811-.566.565 5.81 5.811-3.125 3.125-3.139-3.138-.566.565 3.14 3.138-3.879 3.879 8.095 8.095-2.458 2.457-2.849-2.849L1 83.628l9.07 9.07 33.15-33.151-2.85-2.849 2.457-2.459 9.731 9.731 5.424-5.423 1.438 1.438c-3.336 3.639-3.252 9.307.271 12.829l.425.425 2.402-2.404 7.021-.448 2.523 2.522.848-.849-2.523-2.524.449-7.021 2.406-2.402zM62.8 23.525l10.201-10.202 7.078 7.076.295.295-10.201 10.203-6.731-6.73-.642-.642zm18.141-3.396l-7.373-7.372 10.061-10.06 7.373 7.373-10.061 10.059zM62.236 24.09l.295.295 7.076 7.077-10.06 10.06-7.373-7.372 10.062-10.06zm-8.344 13.475l2.241 2.241-2.458 2.456-2.24-2.24 2.457-2.457zM23.526 62.8l7.372 7.373-10.201 10.201-3.688-3.687L13.323 73l10.203-10.2zM12.757 73.568l3.687 3.687 3.687 3.687-10.06 10.061-7.373-7.373 10.059-10.062zm18.707-3.961l-7.373-7.373 10.06-10.06 7.373 7.373-10.06 10.06zm8.342-13.475l-2.24-2.241 2.457-2.457 2.24 2.24-2.457 2.458zm-1.932-8.544l7.185-7.185-.848-.849-7.186 7.185-3.966-3.966 9.715-9.716 4.107 4.107-.952.952.566.565.952-.951 14.829 14.829-9.716 9.715-14.686-14.686zm22.664 12.949a8.056 8.056 0 0 1 5.715-2.362 8.05 8.05 0 0 1 5.273 1.954L60.13 71.526c-2.735-3.171-2.597-7.98.408-10.989zm2.836 9.441l2.879-2.878 2.533 2.533-5.412.345zm6.259-1.193l-2.532-2.533 2.879-2.877-.347 5.41z" fill="#333"/><path d="M73.242 60.113l-.426-.424c-3.521-3.521-9.188-3.605-12.828-.27l-1.439-1.437 5.424-5.423-9.731-9.732 2.457-2.456 2.85 2.849 33.15-33.15L83.629 1l-33.15 33.15 2.85 2.849-2.457 2.457-8.095-8.095-3.276 3.277-5.81-5.811-.566.565 5.81 5.811-3.125 3.125-3.139-3.138-.566.565 3.14 3.138-3.879 3.879 8.095 8.095-2.458 2.457-2.849-2.849L1 83.628l9.07 9.07 33.15-33.151-2.85-2.849 2.457-2.459 9.731 9.731 5.424-5.423 1.438 1.438c-3.336 3.639-3.252 9.307.271 12.829l.425.425 2.402-2.404 7.021-.448 2.523 2.522.848-.849-2.523-2.524.449-7.021 2.406-2.402zM62.8 23.525l10.201-10.202 7.078 7.076.295.295-10.201 10.203-6.731-6.73-.642-.642zm18.141-3.396l-7.373-7.372 10.061-10.06 7.373 7.373-10.061 10.059zM62.236 24.09l.295.295 7.076 7.077-10.06 10.06-7.373-7.372 10.062-10.06zm-8.344 13.475l2.241 2.241-2.458 2.456-2.24-2.24 2.457-2.457zM23.526 62.8l7.372 7.373-10.201 10.201-3.688-3.687L13.323 73l10.203-10.2zM12.757 73.568l3.687 3.687 3.687 3.687-10.06 10.061-7.373-7.373 10.059-10.062zm18.707-3.961l-7.373-7.373 10.06-10.06 7.373 7.373-10.06 10.06zm8.342-13.475l-2.24-2.241 2.457-2.457 2.24 2.24-2.457 2.458zm-1.932-8.544l7.185-7.185-.848-.849-7.186 7.185-3.966-3.966 9.715-9.716 4.107 4.107-.952.952.566.565.952-.951 14.829 14.829-9.716 9.715-14.686-14.686zm22.664 12.949a8.056 8.056 0 0 1 5.715-2.362 8.05 8.05 0 0 1 5.273 1.954L60.13 71.526c-2.735-3.171-2.597-7.98.408-10.989zm2.836 9.441l2.879-2.878 2.533 2.533-5.412.345zm6.259-1.193l-2.532-2.533 2.879-2.877-.347 5.41z" stroke="#333" stroke-width=".6" mask="url(#a)"/></symbol><symbol id="icon-stars"><path d="M56.461 28.659v-.001a1.964 1.964 0 0 0-1.959-1.962c-.09 0-.176.007-.26.02l-6.911-13.204c.353-.37.575-.871.575-1.427a2.08 2.08 0 0 0-2.08-2.08c-.109 0-.214.01-.316.028L42.745 4.75c.353-.37.574-.871.574-1.427a2.08 2.08 0 1 0-2.079 2.079c.11 0 .215-.01.317-.027l2.764 5.282a2.061 2.061 0 0 0-.357 2.341L28.07 28.891a1.93 1.93 0 0 0-.825-.185c-1.08 0-1.96.88-1.96 1.96 0 .297.069.576.186.825l-9.592 9.592a2.041 2.041 0 0 0-.913-.216c-.914 0-1.683.591-1.961 1.408H5.038a1.955 1.955 0 0 0-1.835-1.288c-1.081 0-1.96.88-1.96 1.96s.88 1.96 1.96 1.96c.846 0 1.562-.54 1.835-1.288h7.967a2.074 2.074 0 1 0 3.824-1.584l9.591-9.592a1.94 1.94 0 0 0 2.14-.328l13.034 6.825a1.903 1.903 0 0 0-.027.317 2.08 2.08 0 0 0 2.08 2.08 2.08 2.08 0 0 0 2.078-2.08c0-.322-.075-.624-.205-.892l8.136-7.944c.254.124.54.198.847.198 1.08 0 1.958-.88 1.958-1.96zM40.742 3.323c0-.275.224-.498.498-.498a.5.5 0 0 1 0 .996.499.499 0 0 1-.498-.498zM3.203 43.563a.618.618 0 1 1 .002-1.236.618.618 0 0 1-.002 1.236zm43.121-31.478a.498.498 0 1 1-.993-.002.498.498 0 0 1 .993.002zM14.966 43.442a.498.498 0 1 1 0-.996.498.498 0 0 1 0 .996zm12.28-12.159a.618.618 0 0 1 0-1.234.618.618 0 0 1 0 1.235zm14.973 6.466l-13.034-6.824a1.924 1.924 0 0 0-.166-1.084l15.894-15.894a2.04 2.04 0 0 0 1.23.19l6.913 13.204a1.94 1.94 0 0 0-.339 2.12l-8.135 7.942a2.039 2.039 0 0 0-.935-.228c-.556 0-1.057.221-1.428.574zm1.428 2.002a.498.498 0 1 1 0-.996.498.498 0 0 1 0 .996zm10.855-10.478a.618.618 0 1 1 .617-.617.62.62 0 0 1-.617.617z" fill="#777" stroke="#777" stroke-width=".863"/></symbol><symbol id="icon-sun"><path d="M8.683 14.372L8.899 14l-.374-.216-6.083-3.514-.374-.216-.216.374-.345.597-.216.374.374.216 6.083 3.514.374.216.216-.374.345-.598zM43.967 34.742l.216-.374-.374-.215-6.083-3.51-.373-.215-.216.374-.345.597-.216.374.374.216 6.083 3.509.374.216.216-.374.344-.598zM35.35 2.592l.216-.374-.373-.216-.598-.345-.373-.216-.216.374-3.513 6.08-.216.374.374.216.597.345.374.216.216-.374 3.513-6.08zM14.98 37.87l.215-.374-.373-.216-.598-.345-.374-.215-.216.373-3.51 6.086-.215.374.374.215.597.345.374.216.216-.374 3.51-6.086z" fill="#777" stroke="#777" stroke-width=".863"/></symbol><symbol id="icon-tablet"><path d="M35.901 15.371h-.833v11.774h.833V15.37zM35.901 12.242h-.833v1.885h.833v-1.885zM35.901 9.427h-.833v1.722h.833V9.427zM37.95 23.325h-.833v1.859h.834v-1.859zM37.95 20.234h-.833v2.111h.834v-2.11zM37.95 11.388h-.833v7.716h.834v-7.716zM40 17.784h-.833v5.873H40v-5.873zM40 15.246h-.833v1.693H40v-1.693zM40 12.915h-.833v1.552H40v-1.552zM4.932 15.371H4.1v11.774h.833V15.37zM4.932 12.242H4.1v1.885h.833v-1.885zM4.932 9.427H4.1v1.722h.833V9.427zM2.883 23.325H2.05v1.859h.833v-1.859zM2.883 20.234H2.05v2.111h.833v-2.11zM2.883 11.388H2.05v7.716h.833v-7.716zM.833 17.784H0v5.873h.833v-5.873zM.833 15.246H0v1.693h.833v-1.693zM.833 12.915H0v1.552h.833v-1.552zM20 36.774a.87.87 0 1 0 0-1.738.87.87 0 0 0 0 1.738z" fill="#555"/><path d="M9.407 39.183h21.187a2.99 2.99 0 0 0 2.988-2.987V2.987A2.993 2.993 0 0 0 30.594 0H9.407a2.993 2.993 0 0 0-2.988 2.987v33.209a2.99 2.99 0 0 0 2.988 2.987zm10.592-1.575a1.702 1.702 0 1 1 1.704-1.704c0 .938-.763 1.704-1.704 1.704zM17.953 2.421h4.091v.833h-4.091v-.833zm-7.784 3.25h19.663v26.958H10.169V5.671z" fill="#555"/><path d="M25.838 15.136l.822-.138a18.079 18.079 0 0 0-1.52-4.811l-.752.36a17.248 17.248 0 0 1 1.45 4.589zM24.726 9.377a18.07 18.07 0 0 0-.548-.943l-.707.44c.183.294.358.597.522.9l.733-.397zM22.349 9.354c-1.213-1.933-2.33-2.862-2.525-3.083-.055.062-1.467 1.4-2.521 3.079a4.389 4.389 0 0 0 2.52.792c.909 0 1.788-.275 2.526-.788z" fill="#555"/><path d="M22.778 10.07a5.275 5.275 0 0 1-5.904 0 16.145 16.145 0 0 0-1.863 10.718 16.078 16.078 0 0 0 2.125 5.662l.121.2h5.133l.125-.2a16.177 16.177 0 0 0 2.12-5.667 16.16 16.16 0 0 0-1.857-10.712zm-2.954 2.338a.776.776 0 1 1-.003 1.553.776.776 0 0 1 .003-1.553zm0 10.5a.777.777 0 0 1 0-1.554.777.777 0 0 1 0 1.554zm0-3.941a1.307 1.307 0 1 1 1.308-1.309 1.31 1.31 0 0 1-1.308 1.309zM24.524 24.267c-.08.204-.167.408-.255.612a7.285 7.285 0 0 1 2.671 4.104l.404 1.688.409-1.688a8.18 8.18 0 0 0 .229-1.904 8.142 8.142 0 0 0-2.567-5.933 17.086 17.086 0 0 1-.891 3.12zM14.232 21.15a8.122 8.122 0 0 0-2.563 5.93c0 .637.075 1.278.225 1.903l.409 1.688.404-1.688a7.278 7.278 0 0 1 2.675-4.104c-.092-.2-.18-.408-.258-.612a16.86 16.86 0 0 1-.892-3.117zM17.403 27.483l-.546 2.305 1.83-1.13 1.137 3.559 1.137-3.559 1.83 1.13-.546-2.305h-4.842z" fill="#555"/></symbol><symbol id="icon-telescope"><mask id="a" maskUnits="userSpaceOnUse" x=".071" y="0" width="21" height="27" fill="#000"><path fill="#fff" d="M.071 0h21v27h-21z"/><path d="M1.096 12.787l.498.862a.178.178 0 0 0 .244.065l.53-.306.227.393a.178.178 0 0 0 .243.065l7.799-4.503.45.782-1.17.676a.179.179 0 0 0-.066.244l.54.933v1.189L3.122 25.822l.31.178 3.322-5.777h4.197v5.687h.358v-5.686h4.228L18.886 26l.31-.18-7.324-12.634V11.95a.179.179 0 0 0-.178-.178h-.458l1.739-1.005a.179.179 0 0 0 .066-.244l-.943-1.632 5.476-3.162.069.12a.178.178 0 0 0 .244.065l2.634-1.521a.178.178 0 0 0 .065-.244l-1.767-3.06a.178.178 0 0 0-.244-.065l-2.634 1.52a.178.178 0 0 0-.065.245l.07.12-6.26 3.613a.179.179 0 0 0-.066.244l.071.122L1.53 11.6a.178.178 0 0 0-.065.244l.226.393-.53.306a.18.18 0 0 0-.065.244zM19.75 4.425l-1.587-2.75.436-.252 1.588 2.75-.437.252zm-3.407-1.54v-.001l-.069-.119 1.579-.911 1.587 2.75-1.578.911-.069-.118v-.001l-1.45-2.512zM11.31 13.412h.28l3.74 6.453h-4.02v-6.453zm-.562-.358v-.926h.767v.926h-.767zm-.076.358h.28v6.453H6.962l3.711-6.453zm-.018-4.733l.208-.12v-.001l.473-.273 1.306 2.261-2.007 1.16-.384-.666 1.17-.676a.179.179 0 0 0 .067-.244l-.63-1.09-.203-.351zm-.024-.88l-.54-.936-.002-.001-.07-.121 6.105-3.525 1.272 2.203-5.476 3.161-.364-.628a.179.179 0 0 0-.243-.065l-.474.273-.208-.361zm-8.425 4.613l-.115-.2-.227-.393L9.87 7.198l.659 1.141-.209.12c-.013.008-.023.02-.034.03-.006.006-.013.01-.018.017a.174.174 0 0 0-.03.062v.005a.177.177 0 0 0-.005.064c.001.01.007.021.01.032.005.011.006.023.012.034l.203.352-7.644 4.413-.609-1.055zm-.711.35l.376-.217.318.553-.375.217-.319-.553z"/></mask><path d="M1.096 12.787l.498.862a.178.178 0 0 0 .244.065l.53-.306.227.393a.178.178 0 0 0 .243.065l7.799-4.503.45.782-1.17.676a.179.179 0 0 0-.066.244l.54.933v1.189L3.122 25.822l.31.178 3.322-5.777h4.197v5.687h.358v-5.686h4.228L18.886 26l.31-.18-7.324-12.634V11.95a.179.179 0 0 0-.178-.178h-.458l1.739-1.005a.179.179 0 0 0 .066-.244l-.943-1.632 5.476-3.162.069.12a.178.178 0 0 0 .244.065l2.634-1.521a.178.178 0 0 0 .065-.244l-1.767-3.06a.178.178 0 0 0-.244-.065l-2.634 1.52a.178.178 0 0 0-.065.245l.07.12-6.26 3.613a.179.179 0 0 0-.066.244l.071.122L1.53 11.6a.178.178 0 0 0-.065.244l.226.393-.53.306a.18.18 0 0 0-.065.244zM19.75 4.425l-1.587-2.75.436-.252 1.588 2.75-.437.252zm-3.407-1.54v-.001l-.069-.119 1.579-.911 1.587 2.75-1.578.911-.069-.118v-.001l-1.45-2.512zM11.31 13.412h.28l3.74 6.453h-4.02v-6.453zm-.562-.358v-.926h.767v.926h-.767zm-.076.358h.28v6.453H6.962l3.711-6.453zm-.018-4.733l.208-.12v-.001l.473-.273 1.306 2.261-2.007 1.16-.384-.666 1.17-.676a.179.179 0 0 0 .067-.244l-.63-1.09-.203-.351zm-.024-.88l-.54-.936-.002-.001-.07-.121 6.105-3.525 1.272 2.203-5.476 3.161-.364-.628a.179.179 0 0 0-.243-.065l-.474.273-.208-.361zm-8.425 4.613l-.115-.2-.227-.393L9.87 7.198l.659 1.141-.209.12c-.013.008-.023.02-.034.03-.006.006-.013.01-.018.017a.174.174 0 0 0-.03.062v.005a.177.177 0 0 0-.005.064c.001.01.007.021.01.032.005.011.006.023.012.034l.203.352-7.644 4.413-.609-1.055zm-.711.35l.376-.217.318.553-.375.217-.319-.553z" fill="#fff"/><path d="M1.096 12.787l.498.862a.178.178 0 0 0 .244.065l.53-.306.227.393a.178.178 0 0 0 .243.065l7.799-4.503.45.782-1.17.676a.179.179 0 0 0-.066.244l.54.933v1.189L3.122 25.822l.31.178 3.322-5.777h4.197v5.687h.358v-5.686h4.228L18.886 26l.31-.18-7.324-12.634V11.95a.179.179 0 0 0-.178-.178h-.458l1.739-1.005a.179.179 0 0 0 .066-.244l-.943-1.632 5.476-3.162.069.12a.178.178 0 0 0 .244.065l2.634-1.521a.178.178 0 0 0 .065-.244l-1.767-3.06a.178.178 0 0 0-.244-.065l-2.634 1.52a.178.178 0 0 0-.065.245l.07.12-6.26 3.613a.179.179 0 0 0-.066.244l.071.122L1.53 11.6a.178.178 0 0 0-.065.244l.226.393-.53.306a.18.18 0 0 0-.065.244zM19.75 4.425l-1.587-2.75.436-.252 1.588 2.75-.437.252zm-3.407-1.54v-.001l-.069-.119 1.579-.911 1.587 2.75-1.578.911-.069-.118v-.001l-1.45-2.512zM11.31 13.412h.28l3.74 6.453h-4.02v-6.453zm-.562-.358v-.926h.767v.926h-.767zm-.076.358h.28v6.453H6.962l3.711-6.453zm-.018-4.733l.208-.12v-.001l.473-.273 1.306 2.261-2.007 1.16-.384-.666 1.17-.676a.179.179 0 0 0 .067-.244l-.63-1.09-.203-.351zm-.024-.88l-.54-.936-.002-.001-.07-.121 6.105-3.525 1.272 2.203-5.476 3.161-.364-.628a.179.179 0 0 0-.243-.065l-.474.273-.208-.361zm-8.425 4.613l-.115-.2s0 0 0 0l-.227-.393L9.87 7.198l.659 1.141-.209.12c-.013.008-.023.02-.034.03-.006.006-.013.01-.018.017a.174.174 0 0 0-.03.062v.005a.177.177 0 0 0-.005.064c.001.01.007.021.01.032.005.011.006.023.012.034l.203.352-7.644 4.413-.609-1.055zm-.711.35l.376-.217.318.553-.375.217-.319-.553z" stroke="#fff" stroke-width=".4" mask="url(#a)"/></symbol><symbol id="icon-tw"><path d="M22.003 2.598c-.8.351-1.654.584-2.543.697A4.389 4.389 0 0 0 21.4.855a8.82 8.82 0 0 1-2.799 1.069 4.413 4.413 0 0 0-7.636 3.018c0 .35.03.687.103 1.007C7.4 5.77 4.152 4.011 1.971 1.332a4.444 4.444 0 0 0-.604 2.231 4.42 4.42 0 0 0 1.96 3.668 4.36 4.36 0 0 1-1.994-.543v.048a4.434 4.434 0 0 0 3.536 4.337c-.359.099-.75.146-1.157.146-.282 0-.568-.016-.836-.076.572 1.748 2.195 3.034 4.125 3.075a8.87 8.87 0 0 1-5.473 1.883 8.27 8.27 0 0 1-1.056-.06 12.427 12.427 0 0 0 6.771 1.98c8.123 0 12.564-6.728 12.564-12.56 0-.196-.007-.384-.016-.571a8.806 8.806 0 0 0 2.212-2.292z" fill="#fff"/></symbol><symbol id="icon-vk"><path d="M27.142 13.968c-.071-.12-.513-1.08-2.637-3.051-2.224-2.065-1.926-1.73.753-5.3 1.632-2.174 2.284-3.502 2.08-4.07-.194-.541-1.394-.398-1.394-.398l-3.99.023s-.296-.04-.517.091c-.214.13-.351.429-.351.429s-.633 1.683-1.476 3.113c-1.778 3.02-2.49 3.179-2.78 2.991-.676-.436-.506-1.756-.506-2.692 0-2.926.443-4.146-.865-4.462-.435-.104-.754-.174-1.864-.185-1.424-.015-2.631.005-3.313.338-.455.223-.805.719-.591.747.264.035.861.161 1.178.593.41.556.395 1.807.395 1.807s.236 3.444-.549 3.873c-.54.293-1.278-.306-2.863-3.046-.812-1.403-1.426-2.955-1.426-2.955s-.118-.288-.329-.443c-.255-.187-.614-.247-.614-.247l-3.794.023s-.57.017-.779.264c-.185.22-.015.676-.015.676S3.867 9.037 7.23 12.54c3.086 3.212 6.588 3.001 6.588 3.001h1.587s.48-.053.724-.317c.225-.242.217-.697.217-.697s-.031-2.13.958-2.443c.974-.31 2.226 2.058 3.552 2.97 1.002.688 1.764.537 1.764.537l3.547-.05s1.856-.114.976-1.573z" fill="#fff"/></symbol></svg>