<svg width="32" height="24" viewBox="0 0 32 24" fill="none" xmlns="http://www.w3.org/2000/svg"><path d="M27.484 1H4.516A3.52 3.52 0 0 0 1 4.516v15a3.52 3.52 0 0 0 3.516 3.515h22.968A3.52 3.52 0 0 0 31 19.516v-15A3.52 3.52 0 0 0 27.484 1zm1.172 18.516c0 .646-.525 1.172-1.172 1.172H4.516a1.173 1.173 0 0 1-1.172-1.172v-15c0-.647.525-1.172 1.172-1.172h22.968c.646 0 1.172.525 1.172 1.172v15z" fill="#BBB" stroke="#fff" stroke-width="2"/><path d="M29.356 3.016l-13.5 10-13.5-10L2 3.709l13.856 10.307L29.712 3.709l-.356-.693z" fill="#BBB"/></svg>