<svg width="27" height="27" viewBox="0 0 27 27" fill="none" xmlns="http://www.w3.org/2000/svg"><path d="M19.75 8.422a1.563 1.563 0 1 0 0-3.125 1.563 1.563 0 0 0 0 3.125z" fill="#BBB" stroke="#fff"/><path d="M18.383 1c-4.2 0-7.617 3.417-7.617 7.617 0 .589.067 1.171.2 1.74L1 20.321V26h6.25v-2.734h2.734V20.53h2.735v-2.734h2.162l1.763-1.763c.568.133 1.15.2 1.739.2 4.2 0 7.617-3.417 7.617-7.617S22.583 1 18.383 1zm0 13.281c-.59 0-1.172-.09-1.73-.269l-.567-.182-2.014 2.014h-3.306v2.734H8.03v2.735H5.297v2.734H2.953V21.13L13.17 10.915l-.182-.568a5.67 5.67 0 0 1 5.395-7.394 5.67 5.67 0 0 1 5.664 5.664 5.67 5.67 0 0 1-5.664 5.664z" fill="#BBB" stroke="#fff"/></svg>