<svg width="27" height="27" viewBox="0 0 27 27" fill="none" xmlns="http://www.w3.org/2000/svg"><path d="M13.476 1C9.499 1 6.263 4.242 6.263 8.227a7.228 7.228 0 0 0 3.132 5.955 12.423 12.423 0 0 0-4.74 2.98A12.43 12.43 0 0 0 1 26h1.95c0-5.816 4.721-10.547 10.526-10.547 3.977 0 7.212-3.242 7.212-7.226C20.688 4.242 17.453 1 13.476 1zm0 12.5c-2.903 0-5.263-2.366-5.263-5.273 0-2.908 2.36-5.274 5.263-5.274 2.902 0 5.263 2.366 5.263 5.274 0 2.907-2.361 5.273-5.263 5.273zm8.431 6.445v-4.102h-1.95v4.102h-4.094v1.953h4.094v4.101h1.95v-4.101H26v-1.953h-4.093z" fill="#BBB" stroke="#fff"/></svg>