<?xml version="1.0" encoding="utf-8"?>
<!-- Generator: Adobe Illustrator 23.0.5, SVG Export Plug-In . SVG Version: 6.00 Build 0)  -->
<svg version="1.1" id="Capa_1" xmlns="http://www.w3.org/2000/svg" xmlns:xlink="http://www.w3.org/1999/xlink" x="0px" y="0px"
	 viewBox="0 0 512 512" style="enable-background:new 0 0 512 512;" xml:space="preserve">
<style type="text/css">
	.st0{fill:url(#SVGID_1_);}
	.st1{fill:url(#SVGID_2_);}
	.st2{fill:url(#SVGID_3_);}
	.st3{opacity:0.8;fill:#FFFFFF;enable-background:new    ;}
	.st4{fill:#6ABB9F;}
</style>
<linearGradient id="SVGID_1_" gradientUnits="userSpaceOnUse" x1="256" y1="480.3172" x2="256" y2="-38.5591" gradientTransform="matrix(1 0 0 -1 0 514)">
	<stop  offset="0" style="stop-color:#FFFFFF;stop-opacity:0.8"/>
	<stop  offset="0.9104" style="stop-color:#FFFFFF;stop-opacity:7.170165e-02"/>
	<stop  offset="1" style="stop-color:#FFFFFF;stop-opacity:0"/>
</linearGradient>
<path class="st0" d="M78.7,33.7c-4.8,0-8.9,4-8.9,8.9V95c0,4.8,4,8.9,8.9,8.9c4.8,0,8.9-4,8.9-8.9V51.4h336.8v443.2H87.6V133.3
	c0-4.8-4-8.9-8.9-8.9c-4.8,0-8.9,4-8.9,8.9v370.3c0,4.8,4,8.9,8.9,8.9h354.6c4.8,0,8.9-4,8.9-8.9V42.7c0-4.8-4-8.9-8.9-8.9"/>
<linearGradient id="SVGID_2_" gradientUnits="userSpaceOnUse" x1="256" y1="37.101" x2="256" y2="531.2697" gradientTransform="matrix(1 0 0 -1 0 514)">
	<stop  offset="0" style="stop-color:#FFFFFF;stop-opacity:0.8"/>
	<stop  offset="1" style="stop-color:#FFFFFF;stop-opacity:0"/>
</linearGradient>
<path class="st1" d="M397.8,407.5c4.8,0,8.9-4,8.9-8.9V78c0-4.8-4-8.9-8.9-8.9H114.2c-4.8,0-8.9,4-8.9,8.9v390c0,4.8,4,8.9,8.9,8.9
	h283.7c4.8,0,8.9-4,8.9-8.9v-31.6c0-4.8-4-8.9-8.9-8.9c-4.8,0-8.9,4-8.9,8.9v22.7H123V86.9H389v311.8
	C389,403.6,393,407.5,397.8,407.5z"/>
<linearGradient id="SVGID_3_" gradientUnits="userSpaceOnUse" x1="256" y1="94.3055" x2="256" y2="250.9085" gradientTransform="matrix(1 0 0 -1 0 514)">
	<stop  offset="0" style="stop-color:#FFFFFF;stop-opacity:0.8"/>
	<stop  offset="1" style="stop-color:#FFFFFF;stop-opacity:0"/>
</linearGradient>
<path class="st2" d="M154.9,272v138.9c0,4.8,4,8.9,8.9,8.9h184.4c4.8,0,8.9-4,8.9-8.9V272c0-4.8-4-8.9-8.9-8.9H163.8
	C159,263.1,154.9,267.1,154.9,272z M172.7,280.8h166.6V402H172.7V280.8z"/>
<path class="st3" d="M309.2-0.5H202.8c-4.8,0-8.9,4-8.9,8.9s4,8.9,8.9,8.9h106.4c4.8,0,8.9-4,8.9-8.9S314-0.5,309.2-0.5z"/>
<g>
	<path class="st3" d="M309.2,317.2H202.8c-4.8,0-8.9,4-8.9,8.9c0,4.8,4,8.9,8.9,8.9h106.4c4.8,0,8.9-4,8.9-8.9
		C318.1,321.2,314,317.2,309.2,317.2z"/>
	<path class="st3" d="M309.2,348H202.8c-4.8,0-8.9,4-8.9,8.9s4,8.9,8.9,8.9h106.4c4.8,0,8.9-4,8.9-8.9S314,348,309.2,348z"/>
</g>
<path class="st4" d="M342.6,180.1c-2.6-8.2-9.6-13.9-18.1-15.2L291,160l-15-30.5c-3.8-7.7-11.5-12.5-20.1-12.5s-16.3,4.8-20.1,12.5
	L220.9,160l-33.6,4.8c-8.5,1.2-15.4,7.1-18.1,15.2c-2.7,8.2-0.5,17,5.7,22.9l24.3,23.6l-5.8,33.6c-1.4,8.5,2,16.9,9,22
	c3.9,2.8,8.5,4.3,13.1,4.3c3.5,0,7.1-0.8,10.4-2.6l30-15.8l30,15.8c7.6,4,16.5,3.3,23.5-1.7c7-5.1,10.4-13.5,9-22l-5.8-33.4
	l24.3-23.8C343.1,197.1,345.4,188.3,342.6,180.1z M297,210.7c-5.3,5.2-7.7,12.5-6.4,19.9l5.7,33.3l-29.8-15.7
	c-3.3-1.8-6.9-2.6-10.4-2.6c-3.5,0-7.2,0.8-10.4,2.6l-29.8,15.7l5.7-33.3c1.3-7.2-1.2-14.7-6.4-19.9L191,187.1l33.4-4.8
	c7.3-1.1,13.6-5.7,16.9-12.3l14.9-30.3l14.9,30.3c3.3,6.6,9.6,11.2,16.9,12.3l33.4,4.8L297,210.7z"/>
</svg>
