<?xml version="1.0" encoding="utf-8"?>
<!-- Generator: Adobe Illustrator 23.0.5, SVG Export Plug-In . SVG Version: 6.00 Build 0)  -->
<svg version="1.1" id="Capa_1" xmlns="http://www.w3.org/2000/svg" xmlns:xlink="http://www.w3.org/1999/xlink" x="0px" y="0px"
	 viewBox="0 0 512 512" style="enable-background:new 0 0 512 512;" xml:space="preserve">
<style type="text/css">
	.st0{fill:url(#SVGID_1_);}
	.st1{fill:url(#SVGID_2_);}
	.st2{fill:url(#SVGID_3_);}
	.st3{opacity:0.8;fill:#3B38BF;enable-background:new    ;}
	.st4{fill:#0E0C0A;}
</style>
<linearGradient id="SVGID_1_" gradientUnits="userSpaceOnUse" x1="256" y1="479.788" x2="256" y2="-38.1284" gradientTransform="matrix(1 0 0 -1 0 514)">
	<stop  offset="0" style="stop-color:#3B38BF;stop-opacity:0.8"/>
	<stop  offset="0.9104" style="stop-color:#3B38BF;stop-opacity:7.170165e-02"/>
	<stop  offset="1" style="stop-color:#3B38BF;stop-opacity:0"/>
</linearGradient>
<path class="st0" d="M79,34.2c-4.8,0-8.8,4-8.8,8.8v52.4c0,4.8,4,8.8,8.8,8.8c4.8,0,8.8-4,8.8-8.8V51.9h336.2v442.4H87.9V133.5
	c0-4.8-4-8.8-8.8-8.8c-4.8,0-8.8,4-8.8,8.8v369.6c0,4.8,4,8.8,8.8,8.8H433c4.8,0,8.8-4,8.8-8.8V43.1c0-4.8-4-8.8-8.8-8.8"/>
<linearGradient id="SVGID_2_" gradientUnits="userSpaceOnUse" x1="256" y1="37.3917" x2="256" y2="530.6463" gradientTransform="matrix(1 0 0 -1 0 514)">
	<stop  offset="0" style="stop-color:#3B38BF;stop-opacity:0.8"/>
	<stop  offset="1" style="stop-color:#3B38BF;stop-opacity:0"/>
</linearGradient>
<path class="st1" d="M397.6,407.4c4.8,0,8.8-4,8.8-8.8V78.5c0-4.8-4-8.8-8.8-8.8H114.4c-4.8,0-8.8,4-8.8,8.8v389.3
	c0,4.8,4,8.8,8.8,8.8h283.1c4.8,0,8.8-4,8.8-8.8v-31.5c0-4.8-4-8.8-8.8-8.8c-4.8,0-8.8,4-8.8,8.8v22.7H123.3V87.3h265.4v311.2
	C388.7,403.3,392.7,407.4,397.6,407.4z"/>
<linearGradient id="SVGID_3_" gradientUnits="userSpaceOnUse" x1="256" y1="94.4903" x2="256" y2="250.8037" gradientTransform="matrix(1 0 0 -1 0 514)">
	<stop  offset="3.603492e-03" style="stop-color:#3B38BF;stop-opacity:0.8"/>
	<stop  offset="1" style="stop-color:#3B38BF;stop-opacity:0"/>
</linearGradient>
<path class="st2" d="M155.1,272v138.6c0,4.8,4,8.8,8.8,8.8h184c4.8,0,8.8-4,8.8-8.8V272c0-4.8-4-8.8-8.8-8.8H164
	C159.1,263.2,155.1,267.1,155.1,272z M172.8,280.9h166.3v120.9H172.8V280.9z"/>
<path class="st3" d="M309.1,0H202.9c-4.8,0-8.8,4-8.8,8.8s4,8.8,8.8,8.8h106.2c4.8,0,8.8-4,8.8-8.8S313.9,0,309.1,0z"/>
<g>
	<path class="st3" d="M309.1,317.1H202.9c-4.8,0-8.8,4-8.8,8.8c0,4.8,4,8.8,8.8,8.8h106.2c4.8,0,8.8-4,8.8-8.8
		C317.9,321.1,313.9,317.1,309.1,317.1z"/>
	<path class="st3" d="M309.1,347.8H202.9c-4.8,0-8.8,4-8.8,8.8s4,8.8,8.8,8.8h106.2c4.8,0,8.8-4,8.8-8.8S313.9,347.8,309.1,347.8z"
		/>
</g>
<path class="st4" d="M342.5,180.4c-2.6-8.1-9.6-13.9-18-15.2l-33.5-4.8l-14.9-30.4c-3.8-7.7-11.4-12.5-20.1-12.5
	c-8.6,0-16.3,4.8-20.1,12.5l-14.9,30.4l-33.5,4.8c-8.5,1.2-15.3,7.1-18,15.2s-0.5,17,5.7,22.9l24.3,23.6l-5.8,33.5
	c-1.4,8.5,2,16.9,9,21.9c3.9,2.8,8.5,4.2,13.1,4.2c3.5,0,7.1-0.8,10.4-2.6l30-15.8l30,15.8c7.6,4,16.5,3.3,23.5-1.7
	c7-5.1,10.4-13.4,9-21.9l-5.8-33.4l24.3-23.7C342.9,197.2,345.2,188.5,342.5,180.4z M296.9,210.9c-5.3,5.2-7.7,12.5-6.4,19.8
	l5.7,33.3l-29.7-15.7c-3.3-1.8-6.8-2.6-10.4-2.6c-3.5,0-7.2,0.8-10.4,2.6L215.9,264l5.7-33.3c1.3-7.2-1.2-14.6-6.4-19.8L191,187.3
	l33.4-4.8c7.3-1.1,13.6-5.7,16.9-12.3l14.9-30.2l14.9,30.2c3.3,6.6,9.6,11.2,16.9,12.3l33.4,4.8L296.9,210.9z"/>
</svg>
