<svg xmlns="http://www.w3.org/2000/svg" xmlns:xlink="http://www.w3.org/1999/xlink"><symbol id="icon-advantages1" viewBox="0 0 711 724"><path d="M3620 5883c-1059-107-1860-991-1860-2053 0-82 7-202 15-267 15-114 60-318 75-343 5-9 23-7 71 8 76 24 74 15 36 182-28 125-47 256-47 332v48h119c117 0 120 1 140 26 19 24 21 40 21 162v136l105 106c63 64 105 115 105 127 0 18-195 357-226 394-8 8-14 20-14 26 0 19 135 217 200 294 178 209 381 366 633 490l87 44 205-103c113-56 214-102 224-102s70 33 132 74c109 70 120 75 249 106 154 37 180 54 180 119v38l73-13c374-65 723-242 1007-512l85-81-115-1h-115l-140-140-140-140h-212c-208 0-212 0-227-22-14-19-16-65-16-299 0-255 1-277 18-292 16-15 45-17 194-17h176l24 28c12 15 46 63 73 105l50 77 164-2 164-3 127-223c70-122 135-231 145-242 17-18 31-20 173-20h155l-6-177c-6-208-32-348-98-538-229-664-787-1142-1484-1271-79-15-147-19-330-18-210 0-241 2-356 27-337 71-622 209-882 427-104 87-231 225-305 330-25 36-49 69-53 74-12 14-130-66-124-84 16-41 133-188 235-293 168-175 318-290 502-387l88-46-108-37c-165-56-267-77-392-84-130-6-207 5-286 41-292 134-297 551-15 1141 150 312 363 639 627 962l83 101-53 46c-30 25-58 46-63 46-10-1-119-134-248-304-355-468-592-934-676-1326-30-139-32-363-5-460 57-205 202-340 416-386 97-21 318-13 440 15 116 26 266 76 377 123l93 40 62-21c335-110 719-131 1073-60 861 174 1517 893 1626 1782 17 143 7 462-20 604-104 554-421 1037-885 1347-342 229-746 349-1159 344-84 0-168-3-187-5zm183-177c-104-27-133-40-207-89-47-31-90-57-96-57-12 0-210 98-210 104 0 7 179 47 274 61 50 7 152 13 226 13h135l-122-32zm1615-828c143-222 243-474 286-725l13-73h-216l-130 229c-72 126-137 234-145 240-9 8-88 11-262 9l-249-3-65-97-65-97-82-1h-83v330h175c133 0 183 3 203 14 15 8 83 71 152 140l125 126h283l60-92zm-3269-387c39-66 71-123 71-128s-40-49-90-98l-90-90v-235h-65c-50 0-65 3-65 15 0 47 36 255 60 349 22 87 98 306 106 306 1 0 34-54 73-119z"/><path d="M3875 5390c-127-26-194-68-340-210l-120-117-325 98c-179 54-338 99-354 99-23 0-47-18-117-87-79-77-89-91-89-122 0-20 4-42 9-49 4-7 129-67 277-133s271-122 273-125c3-2-17-26-43-53l-48-48-111 28c-170 43-166 44-269-58-79-79-88-91-88-125 0-45 7-51 213-173l148-88 96-161c116-195 126-206 172-206 31 0 46 11 123 88 103 103 101 95 58 262l-29 115 49 50c27 27 51 47 53 45 2-3 53-119 113-259s117-265 127-278c13-16 29-23 53-23 28 0 48 13 116 72 100 88 107 96 107 128 0 14-44 171-98 350l-98 325 102 105c161 166 218 272 231 435 6 62 4 73-16 98-19 24-28 27-78 26-31-1-75-5-97-9zm31-177c-24-100-49-129-400-478-189-187-346-350-350-361-4-13 7-75 25-149l32-127-20-20-20-20-84 139-84 138-142 86c-141 85-142 86-123 104 20 18 24 18 151-13 90-21 137-28 152-22 12 5 164 151 337 325 328 330 380 375 458 406 66 26 75 25 68-8zm-876-193c135-40 248-76 252-79 5-4-9-24-31-45l-38-37-229 101c-126 56-233 104-237 107-11 7 14 35 27 30 6-2 121-37 256-77zm649-630c33-113 67-226 75-252 12-42 12-48-3-62s-25 5-120 225l-104 240 39 40c26 27 40 35 45 27 4-7 34-105 68-218zM4156 3919l-26-20v-314c0-385-14-355 162-355h118v-799l26-20c25-20 40-21 216-21 144 0 195 3 216 14 15 8 91 79 170 158l142 145v288l140 210c150 224 161 254 120 295-18 18-33 20-153 20h-132l-100 199c-71 144-105 203-122 210-16 7-150 11-387 11-352 0-364-1-390-21zm794-329c56-112 108-204 119-210 11-5 54-10 95-10 42 0 76-2 76-5s-46-74-102-158l-103-152-3-140-3-140-117-117-117-118h-234l-3 401-3 401-24 19c-20 16-40 19-137 19h-114v410h570l100-200zM2759 3571l-24-19v-564l24-19c20-17 40-19 172-19h149v-350c0-239 4-357 11-374 7-14 25-30 42-35 40-15 63-2 232 127l140 107 3 107 3 107 165 131c90 73 169 140 174 150 6 11 10 108 10 218 0 263 21 242-250 242h-203l-108 105-108 105h-204c-187 0-207-2-228-19zm471-236l107-105h373v-236l-160-128c-88-70-167-137-175-149-11-15-15-49-15-117l-1-95-64-48-65-47v325c0 312-1 326-20 345-18 18-33 20-175 20h-155v340h244l106-105z"/></symbol><symbol id="icon-atom"><path d="M21.932 12.851h-1.316v2.244h1.316V12.85zM19.749 15.327l-1.122-1.943-1.14.658 1.123 1.943 1.139-.658zM17.975 16.62L16.032 15.5l-.658 1.14 1.943 1.121.658-1.14zM17.083 18.628h-2.244v1.316h2.244v-1.316zM17.315 20.814l-1.943 1.121.658 1.14 1.943-1.121-.658-1.14zM17.488 24.529l1.14.658 1.121-1.943-1.14-.658-1.121 1.943zM21.932 23.477h-1.316v2.244h1.316v-2.244zM22.8 23.244l1.121 1.942 1.14-.658-1.122-1.942-1.14.658zM24.576 21.952l1.943 1.122.658-1.14-1.943-1.121-.658 1.139zM27.709 18.628h-2.244v1.316h2.244v-1.316zM25.233 17.76l1.943-1.12-.658-1.14-1.942 1.122.657 1.139zM25.061 14.044l-1.14-.658-1.121 1.942 1.14.658 1.121-1.942z" fill="#555"/><path d="M.073 22.989c0 1.088.886 1.974 1.974 1.974.294 0 .566-.066.811-.18.549.482 1.154.943 1.83 1.368-.772 3.452-.281 6.356 1.543 8.176 1.272 1.272 3.07 1.903 5.22 1.903 2.811 0 6.22-1.083 9.825-3.193 4.6 2.694 11.393 4.936 15.04 1.29 1.815-1.816 2.31-4.702 1.552-8.14 2.938-1.87 4.68-4.26 4.68-6.9 0-2.64-1.742-5.03-4.68-6.9.759-3.442.263-6.328-1.553-8.144-1.741-1.741-4.43-2.298-7.798-1.623a1.964 1.964 0 0 0-1.671-.938 1.977 1.977 0 0 0-1.974 1.973c0 .027.009.053.009.084a28.15 28.15 0 0 0-3.605 1.798C16.727 2.872 9.899.575 6.23 4.243 4.416 6.06 3.92 8.95 4.68 12.388 1.2 14.603-1.098 17.965.539 21.735a1.955 1.955 0 0 0-.466 1.254zm7.088 10.408c-1.408-1.408-1.816-3.732-1.276-6.54 2.943 1.575 6.759 2.658 10.97 3.11a37.085 37.085 0 0 0 3.144 2.28c-5.496 3.05-10.465 3.519-12.838 1.15zM32.657 15.77c1.082-1.646-.654-3.666-2.42-2.895a48.958 48.958 0 0 0-1.246-1.303 43.89 43.89 0 0 0-1.47-1.399c3.456.553 6.492 1.54 8.825 2.833-.439 1.575-1.14 3.26-2.11 5.005a36.495 36.495 0 0 0-1.579-2.241zm3.693 9.798c-2.337 1.294-5.373 2.285-8.829 2.833 2.716-2.475 4.953-5.114 6.715-7.837.97 1.745 1.671 3.43 2.114 5.004zm-8.29-13.066c.417.417.82.838 1.207 1.263-.85 1.49.696 3.388 2.346 2.798.685.9 1.307 1.812 1.873 2.724-2.043 3.294-4.862 6.554-8.32 9.413a40.751 40.751 0 0 1-7.785-.005c-3.171-2.607-6.126-5.869-8.316-9.408 2.177-3.515 5.109-6.77 8.32-9.412a41.188 41.188 0 0 1 7.78 0 41.286 41.286 0 0 1 2.896 2.627zM8.31 18.006c-.965-1.74-1.67-3.425-2.11-4.995 2.334-1.294 5.374-2.285 8.825-2.838-2.526 2.303-4.855 4.962-6.715 7.833zm6.711 10.387c-3.404-.544-6.443-1.527-8.812-2.856.439-1.566 1.14-3.241 2.101-4.973 1.767 2.721 4.011 5.37 6.711 7.829zm4.237 1.754c1.354.062 2.479.076 4.026.004-.662.478-1.333.926-2.008 1.347-.68-.421-1.351-.873-2.018-1.351zm16.127 3.25c-3.016 3.017-9.036.96-12.833-1.145a37.882 37.882 0 0 0 3.131-2.28c4.303-.448 8.088-1.544 10.983-3.084.53 2.794.123 5.105-1.28 6.509zm5.847-14.11c0 2.07-1.377 3.992-3.706 5.562-.531-1.755-1.373-3.632-2.505-5.562 1.132-1.93 1.97-3.807 2.5-5.561 2.334 1.57 3.71 3.49 3.71 5.561zm-15.86-14.33a1.97 1.97 0 0 0 1.474.672 1.966 1.966 0 0 0 1.947-1.724c2.136-.425 4.847-.478 6.592 1.268 1.404 1.403 1.812 3.72 1.281 6.513-2.895-1.54-6.68-2.636-10.978-3.083a36.685 36.685 0 0 0-3.136-2.281c.947-.526 1.89-.982 2.82-1.364zm-2.088 3.466a41.983 41.983 0 0 0-4.022 0c.667-.483 1.338-.93 2.014-1.347.675.417 1.346.869 2.008 1.347zM7.161 5.173C10.18 2.155 16.197 4.213 20 6.326a37.005 37.005 0 0 0-3.131 2.277c-4.303.447-8.093 1.544-10.983 3.088-.535-2.799-.127-5.115 1.276-6.518zm-2.136 8.553c.53 1.758 1.373 3.631 2.505 5.561-1.128 1.917-1.965 3.78-2.496 5.527-.443-.303-.85-.619-1.228-.948.136-.267.215-.561.215-.877a1.974 1.974 0 0 0-1.974-1.974c-.127 0-.254.013-.377.04-1.176-2.95.733-5.562 3.355-7.33z" fill="#555"/><path d="M21.275 16.147a3.143 3.143 0 0 0-3.14 3.14 3.143 3.143 0 0 0 3.14 3.14 3.143 3.143 0 0 0 3.14-3.14 3.143 3.143 0 0 0-3.14-3.14zM39.118 17.405a5.75 5.75 0 0 0-.564-.764l-.662.575c.186.215.346.432.477.646l.749-.457zM38.82 19.287h.877c0-.328-.056-.663-.164-.998l-.834.272c.08.246.12.49.12.726zM8.795 31.615l-.653.586a3.11 3.11 0 0 0 .8.63l.425-.767a2.247 2.247 0 0 1-.572-.45zM9.858 33.191c.289.076.604.129.938.158l.075-.874a4.743 4.743 0 0 1-.79-.132l-.223.848zM11.695 32.494l.03.877c.295-.01.602-.035.914-.074l-.11-.87a9.189 9.189 0 0 1-.834.067zM8.16 30.251l-.859.176c.069.336.168.648.295.927l.799-.361c-.1-.22-.179-.47-.234-.742zM8.414 7.537l-.794-.374c-.131.28-.234.59-.307.926l.858.185c.058-.27.14-.518.243-.737zM14.467 5.645a14.244 14.244 0 0 0-.88-.212l-.178.859c.27.056.546.122.826.199l.232-.846zM8.867 6.879c.152-.152.333-.285.538-.394l-.412-.774c-.282.15-.533.334-.745.546l-.064.067.638.601.045-.046zM10.918 6.092l-.068-.875c-.334.026-.65.076-.938.148l.213.851c.24-.06.508-.102.793-.124zM12.691 5.28c-.313-.04-.62-.067-.914-.078l-.034.876c.267.01.548.035.834.072l.114-.87zM23.262 36.208h-.877v.877h.877v-.877zM19.754 36.208h-.878v.877h.878v-.877zM21.508 36.208h-.877v.877h.877v-.877zM10.733 37.959h-.877v.877h.877v-.877zM8.98 37.959h-.878v.877h.877v-.877zM7.225 37.959h-.877v.877h.877v-.877zM27.486 36.398v.862h-.863v.877h.863V39h.877v-.863h.863v-.877h-.863v-.862h-.877zM21.176 2.603V1.74h.863V.863h-.863V0H20.3v.863h-.863v.877h.863v.863h.877zM40.342 9.483V8.62h.863v-.877h-.863V6.88h-.877v.863h-.863v.877h.863v.863h.877zM2.742 33.547v.863h-.863v.877h.863v.863h.877v-.863h.862v-.877H3.62v-.863h-.877zM4.795.584h-.877v.877h.877V.584zM6.55.584h-.878v.877h.878V.584zM3.04.584h-.876v.877h.877V.584zM31.804.584h-.877v.877h.877V.584zM33.558.584h-.877v.877h.877V.584zM30.05.584h-.877v.877h.877V.584zM40.938 35.794h-.878v.877h.878v-.877zM37.429 35.794h-.877v.877h.877v-.877zM39.183 35.794h-.877v.877h.877v-.877z" fill="#555"/></symbol><symbol id="icon-fb" viewBox="0 0 13 23"><path d="M7.919 7.895V5.024c0-.792.643-1.435 1.435-1.435h1.436V0H7.919a4.306 4.306 0 0 0-4.306 4.306v3.589H.742v3.588h2.87v11.484H7.92V11.483h2.87l1.436-3.588H7.919z"/></symbol><symbol id="icon-ig" viewBox="0 0 512 512"><path d="M363.273 0H148.728C66.719 0 0 66.719 0 148.728v214.544C0 445.281 66.719 512 148.728 512h214.544C445.281 512 512 445.281 512 363.273V148.728C512 66.719 445.281 0 363.273 0zM472 363.272C472 423.225 423.225 472 363.273 472H148.728C88.775 472 40 423.225 40 363.273V148.728C40 88.775 88.775 40 148.728 40h214.544C423.225 40 472 88.775 472 148.728v214.544z"/><path d="M256 118c-76.094 0-138 61.906-138 138s61.906 138 138 138 138-61.906 138-138-61.906-138-138-138zm0 236c-54.037 0-98-43.963-98-98s43.963-98 98-98 98 43.963 98 98-43.963 98-98 98z"/><circle cx="396" cy="116" r="20"/></symbol><symbol id="icon-logo" viewBox="0 0 1435 485"><path d="M1195.5 25c-12.1 2.2-22.1 3.9-22.2 3.9-.2.1-.3 86.9-.3 193.1v193h48l.2-63.1.3-63.2 15 11.3c32.6 24.5 60.3 50.1 85.4 78.9 8.1 9.3 21.1 26.5 24.4 32.4l2.1 3.7h28.3c15.9 0 28.3-.4 28.3-.9s-2.8-5.1-6.1-10.2c-25.3-38.5-77.5-93.2-125.3-131.4l-3.8-3 17.9-15.5c52.2-45.3 79.7-71.1 98.7-92.5l8.9-10-28.3-.3-28.3-.2-5.5 6.2c-16.9 19.2-41.5 41.8-108.3 99.6l-3.9 3.4V140.6c0-113.3-.1-119.6-1.7-119.5-1 .1-11.7 1.8-23.8 3.9zM399.5 72.5c-10.4 1.9-20.5 3.7-22.2 4l-3.3.6V151h-56v40h55.9l.4 75.2c.4 83 .6 86.6 6.8 105.3 8.7 26.3 25.2 40.2 55.1 46.7 14 3 50.4 3.3 64.1.5 8.7-1.8 36.1-10.7 37.8-12.4.8-.8-5.3-38.8-6.4-40-.3-.3-3.9.8-7.9 2.5-11.3 4.6-19.5 6.9-30.2 8.2-12.1 1.6-33.7.8-42.1-1.5-13.4-3.6-22.3-13.1-26.4-28.5-3.3-12.1-4.1-29.8-4.1-96.3V191h112v-40H421v-41c0-32.2-.3-41-1.2-40.9-.7 0-9.8 1.6-20.3 3.4zM38 109.5V121h209V98H38v11.5zM131.9 145.1c-32 2-54.9 10.6-70.4 26.4-13.3 13.6-18.5 25.7-19.2 45-.8 20.6 3.4 32.2 16.6 45.8 14.3 14.8 31.2 24 65.3 35.6 27.6 9.4 37.8 13.4 47.7 18.7 19.3 10.3 26.1 18.6 26.1 32.1 0 22-23.2 32.4-69.3 31-25.3-.7-44.3-4.9-70.7-15.6-8-3.3-12.3-4.5-12.5-3.8-.2.7-2.3 10.4-4.6 21.6-4 19.2-4.2 20.4-2.5 21.6 3.2 2.4 29 10.4 41.6 12.9 6.9 1.4 18.8 3 26.5 3.7 16.9 1.4 48.8.6 63-1.6 40.5-6.3 63.9-22 73.1-49 2.2-6.6 2.8-10.3 3.2-20.5.7-20.9-3.3-32.2-16.2-45.8-9.6-10.1-17.9-16.1-33.6-24.1-14.2-7.2-15-7.5-48.5-19.7-45.4-16.4-58.5-25.9-58.5-42 0-14.1 9.7-24 28.3-28.8 27.2-7.1 79.1-2.3 105.8 9.8 1.3.6 2.2-2.4 5.8-20.3 2.4-11.6 4-21.5 3.7-22-.9-1.4-20.4-5.8-36.4-8.1-11.9-1.7-45.1-4.3-50.2-3.8-.8 0-7.2.5-14.1.9zM701.5 145.1c-36.6 3.3-69.9 23-89.1 52.5-15.4 23.5-22.1 46.2-23.1 78.6-2.3 70.4 27.3 118.2 85.1 137.3 17 5.6 27 6.9 53.1 6.9 17 .1 25.9-.4 34-1.7C779 416 807 408.1 807 405.9c0-1.7-6.1-39.4-6.5-39.7-.1-.2-4.1 1-8.7 2.6-16.8 6-37.7 9.2-59.2 9.2-42.5 0-71.3-14.6-85.6-43.6-4.1-8.2-8.2-22.4-9.5-32.7l-.6-5.7h188.4l-.6-22.8c-.9-39.2-7.7-66.1-22-87.2-8-11.7-21.8-23.6-35.4-30.4-17.1-8.5-42.7-12.6-65.8-10.5zm32.1 43.3c15 4.8 28 16.3 35 31.1 4.2 8.9 6.3 17.2 7.2 28.5l.8 9H637.9l.7-3.8c2.2-12.3 8.5-27.3 16-37.8 17.7-25 50.2-36.1 79-27zM1013.5 144.7c-65.8 3.2-111.5 34.4-129 87.9-4.7 14.3-6.7 28.9-6.7 49.4-.1 10.2.5 22.3 1.1 26.9 8.8 60.9 45.9 98.1 109.6 109.7 12.5 2.3 54.5 2.6 69.5.5 21.1-2.9 48-10.1 48-12.9 0-1.3-6.1-38.3-6.4-38.9-.1 0-5.3 1.4-11.7 3.2-15.6 4.5-29 6.4-49.9 7.2-20 .7-32.9-.5-47.2-4.3-32.1-8.5-53-29.3-60.9-60.6-2.7-10.7-3.7-36.8-1.9-48.9 3.3-22.7 14.1-43.3 29.2-55.8 7.8-6.5 23.7-14.4 34.3-17 28.1-7 65.3-5 93.9 4.9 3.3 1.1 6 1.9 6.1 1.8.5-.7 10.5-39.1 10.5-40.3 0-2-18.4-7-37.1-10-8.3-1.3-41.6-3.8-44.4-3.3-.5.1-3.7.3-7 .5zM38 453.5V465h209v-23H38v11.5z"/></symbol><symbol id="icon-tw" viewBox="0 0 23 19"><path d="M22.003 2.598c-.8.351-1.654.584-2.543.697A4.389 4.389 0 0 0 21.4.855a8.82 8.82 0 0 1-2.799 1.069 4.413 4.413 0 0 0-7.636 3.018c0 .35.03.687.103 1.007C7.4 5.77 4.152 4.011 1.971 1.332a4.444 4.444 0 0 0-.604 2.231 4.42 4.42 0 0 0 1.96 3.668 4.36 4.36 0 0 1-1.994-.543v.048a4.434 4.434 0 0 0 3.536 4.337c-.359.099-.75.146-1.157.146-.282 0-.568-.016-.836-.076.572 1.748 2.195 3.034 4.125 3.075a8.87 8.87 0 0 1-5.473 1.883 8.27 8.27 0 0 1-1.056-.06 12.427 12.427 0 0 0 6.771 1.98c8.123 0 12.564-6.728 12.564-12.56 0-.196-.007-.384-.016-.571a8.806 8.806 0 0 0 2.212-2.292z"/></symbol></svg>