<svg xmlns="http://www.w3.org/2000/svg" xmlns:xlink="http://www.w3.org/1999/xlink"><symbol id="icon-advantages1" viewBox="0 0 122 110"><path d="M109.2 31.1H12.3C5.6 31.1.2 36.5.2 43.2v54.5c0 6.7 5.4 12.1 12.1 12.1h96.9c6.7 0 12.1-5.4 12.1-12.1V43.2c.1-6.7-5.4-12.1-12.1-12.1zm6.1 66.6c0 3.3-2.7 6.1-6.1 6.1H12.3c-3.3 0-6.1-2.7-6.1-6.1V43.2c0-3.3 2.7-6.1 6.1-6.1h96.9c3.3 0 6.1 2.7 6.1 6.1v54.5zM93 7.8C90.2 1.7 83-.9 76.9 1.9L27.4 25h14.3L79.4 7.4c3-1.4 6.6-.1 8 2.9L94.2 25h6.7L93 7.8z" fill="#020203"/><path d="M36.6 43.2H18.4c-3.3 0-6.1 2.7-6.1 6.1v12.1c0 3.3 2.7 6.1 6.1 6.1h18.2c3.3 0 6.1-2.7 6.1-6.1V49.3c-.1-3.4-2.8-6.1-6.1-6.1zm0 18.2H18.4V49.3h18.2v12.1z" fill="#020203"/><path d="M73 85.6H12.4v6.1H73v-6.1zM100.2 79.5c-2.3 0-4.4.9-6.1 2.4-1.6-1.4-3.7-2.4-6.1-2.4-5 0-9.1 4.1-9.1 9.1s4.1 9.1 9.1 9.1c2.3 0 4.4-.9 6.1-2.4 1.6 1.4 3.7 2.4 6.1 2.4 5 0 9.1-4.1 9.1-9.1s-4.1-9.1-9.1-9.1zM88.1 91.6c-1.7 0-3-1.4-3-3 0-1.7 1.4-3 3-3s3 1.4 3 3-1.4 3-3 3zm12.1 0c-1.7 0-3-1.4-3-3 0-1.7 1.4-3 3-3s3 1.4 3 3-1.4 3-3 3z" fill="#EA5357"/></symbol><symbol id="icon-advantages2" viewBox="0 0 87 87"><path d="M22.2 43.9c11.9 0 21.5-9.7 21.5-21.5S34 .9 22.2.9.7 10.6.7 22.4s9.6 21.5 21.5 21.5zm0-39.5c9.9 0 17.9 8.1 17.9 17.9 0 9.8-8 17.9-17.9 17.9-9.9 0-17.9-8.1-17.9-17.9 0-9.8 8-17.9 17.9-17.9zM65.2 43.9c-11.9 0-21.5 9.7-21.5 21.5S53.4 87 65.2 87c11.9 0 21.5-9.7 21.5-21.5s-9.6-21.6-21.5-21.6zm0 39.5c-9.9 0-17.9-8-17.9-17.9 0-9.9 8-17.9 17.9-17.9 9.9 0 17.9 8 17.9 17.9.1 9.9-8 17.9-17.9 17.9z" fill="#020203"/><path d="M53.2 11.1c.4.4.8.5 1.3.5s.9-.2 1.3-.5c.7-.7.7-1.8 0-2.5l-.5-.5c13.2.4 23.9 11.1 24.3 24.3l-.5-.5c-.7-.7-1.8-.7-2.5 0s-.7 1.8 0 2.5l3.6 3.6c.4.4.8.5 1.3.5s.9-.2 1.3-.5l3.6-3.6c.7-.7.7-1.8 0-2.5s-1.8-.7-2.5 0l-.6.6c-.4-15.3-12.7-27.6-28-28l.6-.6c.7-.7.7-1.8 0-2.5s-1.8-.7-2.5 0L49.8 5c-.7.7-.7 1.8 0 2.5l3.4 3.6zM34.2 76.8c-.7-.7-1.8-.7-2.5 0s-.7 1.8 0 2.5l.5.5C19 79.4 8.3 68.7 7.9 55.5l.5.5c.7.7 1.8.7 2.5 0s.7-1.8 0-2.5l-3.6-3.6c-.7-.7-1.9-.7-2.5 0l-3.6 3.6c-.7.7-.7 1.8 0 2.5.4.4.8.5 1.3.5s.9-.2 1.3-.5l.6-.6c.4 15.3 12.7 27.6 28 28l-.6.6c-.7.7-.7 1.8 0 2.5.4.4.8.5 1.3.5s.9-.2 1.3-.5l3.6-3.6c.7-.7.7-1.8 0-2.5l-3.8-3.6z" fill="#EA5357"/><path d="M18.1 31.2c1.6 1.2 3.4 1.8 5.5 1.8 3 0 5.4-1.1 7.3-3.4L28.8 27c-.9.9-1.7 1.5-2.4 1.9-.8.4-1.7.6-2.7.6-2.2 0-3.8-1-4.8-3.1h6.8v-2.6h-7.6c-.1-.4-.1-.9-.1-1.4v-1.1h7.7v-2.6h-7.1c.5-1.1 1.1-2 2.1-2.6.9-.6 2-.9 3.1-.9s2.1.2 2.9.6c.8.4 1.6 1 2.5 2l2.1-2.7c-1.8-2.3-4.3-3.4-7.5-3.4-2.1 0-4 .6-5.7 1.9-1.7 1.3-2.8 3-3.5 5.1h-3.1v2.6h2.6v1c0 .5 0 1 .1 1.4h-2.7v2.6h3.2c.6 2.1 1.8 3.7 3.4 4.9zM66.8 63.2h-.1v-6.3c1.7.2 3.3.9 4.8 1.9l2.2-3.1c-2.2-1.5-4.5-2.3-7-2.5v-1.7h-2.1v1.7c-2.2.1-3.9.8-5.3 2s-2 2.8-2 4.7c0 1.9.6 3.4 1.8 4.4 1.2 1 3 1.8 5.5 2.4v6.5c-2-.3-3.9-1.3-5.8-2.9l-2.4 2.9c2.4 2.1 5.2 3.3 8.2 3.7v2.4h2.1v-2.4c2.3-.1 4.1-.8 5.5-2 1.4-1.2 2.1-2.8 2.1-4.8s-.6-3.4-1.8-4.5c-1.3-.9-3.2-1.8-5.7-2.4zm-2.3-.6c-1.3-.4-2.1-.8-2.5-1.3-.4-.4-.7-1-.7-1.8 0-.7.3-1.4.9-1.9.6-.5 1.4-.8 2.4-.9v5.9h-.1zm4.7 9.8c-.6.5-1.5.8-2.5.9v-6c1.3.4 2.3.8 2.7 1.3.5.5.7 1.1.7 1.9 0 .7-.3 1.4-.9 1.9z" fill="#020203"/></symbol><symbol id="icon-advantages3" viewBox="0 0 99 101"><path d="M96.6 35C88.5 9 60.7-5.5 34.7 2.6 8.7 10.7-5.8 38.5 2.3 64.5l3.2-1c-7.6-24.2 6-50.1 30.2-57.7 11.7-3.7 24.2-2.6 35.1 3.1 10.9 5.7 18.9 15.3 22.6 27C97.1 47.6 96 60.1 90.3 71c-5.7 10.9-15.3 18.9-27 22.6-19.6 6.1-41.2-1.6-52.4-18.9l-2.8 1.8C17.4 90.8 33.2 99 49.6 99c4.9 0 9.8-.7 14.7-2.2 12.6-3.9 22.9-12.5 29-24.2 6-11.7 7.2-25.1 3.3-37.6z" fill="#020203"/><path d="M39.7 23.7l1-3.2-16.7-5c-.6-.2-1.2 0-1.7.4L19 19.2c-.4.4-.6.9-.5 1.5.1.5.5 1 1 1.2l15.1 6.7 1.4-3.1-12.8-5.7.9-.9 15.6 4.8z" fill="#EA5357"/><path d="M55.3 13.8c0-.9-.7-1.7-1.7-1.7-3.7 0-7.1 1.4-9.7 4L29.7 30.3l-5.8-1.4c-.6-.1-1.2 0-1.6.4L19 32.6c-.4.4-.5.9-.5 1.4.1.5.4 1 .8 1.2l8 4.8 4.8 8c.3.4.7.7 1.2.8h.2c.4 0 .9-.2 1.2-.5L38 45c.4-.4.6-1 .4-1.6L37 37.6l14.4-14.3c2.5-2.4 3.9-5.8 3.9-9.5zM34 36c-.4.4-.6 1-.4 1.6l1.4 5.8-1.2 1.2-3.9-6.5c-.1-.2-.3-.4-.6-.6l-6.5-3.9 1.2-1.2 5.8 1.4c.6.1 1.2 0 1.6-.4l14.9-14.9c1.5-1.5 3.5-2.5 5.6-2.9-.3 2.1-1.3 4-2.7 5.5L34 36z" fill="#EA5357"/><path d="M51.9 43.6l-5-16.9-3.2 1 4.7 15.9-1 .9-5.6-12.9-3.1 1.3L45.2 48c.2.5.6.9 1.2 1h.4c.4 0 .8-.1 1.1-.4l3.5-3.1c.4-.6.6-1.2.5-1.9z" fill="#EA5357"/><path d="M31.9 92.6C20 98.2 10.6 99 6.3 94.6-1.3 87 7 65 25.5 43.3L23 41.1C2.7 64.8-5.1 87.8 4 96.9c2.5 2.5 6.1 3.8 10.6 3.8 5.2 0 11.6-1.7 18.8-5.2l-1.5-2.9zM88.5 58.2c-.3-.5-.9-.9-1.5-.9h-5.7l-4.6-9.1c-.3-.6-.9-.9-1.5-.9H58.5c-.9 0-1.7.7-1.7 1.7v13.4c0 .9.7 1.7 1.7 1.7h5v18.4c0 .9.7 1.7 1.7 1.7h8.4c.4 0 .9-.2 1.2-.5l6.7-6.7c.3-.3.5-.7.5-1.2v-6.2l6.4-9.6c.4-.6.4-1.3.1-1.8zM79 68.1c-.2.3-.3.6-.3.9v6L73 80.7h-6V62.3c0-.9-.7-1.7-1.7-1.7h-5v-10h14l4.6 9.1c.3.6.9.9 1.5.9H84l-5 7.5zM89.7 43.9L83.5 33c-.3-.5-.9-.8-1.5-.8H72c-.6 0-1.1.3-1.4.7l-2.8 4.3h-4.1v-8.4h8.4c.4 0 .9-.2 1.2-.5l6.2-6.2h7.7v-3.3h-8.4c-.4 0-.9.2-1.2.5l-6.2 6.2h-9.3c-.9 0-1.7.7-1.7 1.7v11.7c0 .9.7 1.7 1.7 1.7h6.7c.6 0 1.1-.3 1.4-.7l2.8-4.3h8.2l6.2 10.9c.3.5.9.8 1.5.8h6.7V44l-5.9-.1z" fill="#020203"/><path d="M48.6 60.6h-9.3l-4.5-4.5c-.3-.3-.7-.5-1.2-.5h-8.4c-.9 0-1.7.7-1.7 1.7V69c0 .9.7 1.7 1.7 1.7h6.7v16.7c0 .6.4 1.2.9 1.5.2.1.5.2.7.2.4 0 .7-.1 1-.3l6.7-5c.4-.3.7-.8.7-1.3v-4.2l7.7-6.2c.4-.3.6-.8.6-1.3v-8.4c.1-1-.7-1.8-1.6-1.8zm-1.7 9.2L39.2 76c-.4.3-.6.8-.6 1.3v4.2L35.3 84V69c0-.9-.7-1.7-1.7-1.7h-6.7v-8.4h6l4.5 4.5c.3.3.7.5 1.2.5H47v5.9h-.1zM14.9 36.3l-5-8.4c-.3-.5-.8-.8-1.4-.8H6.8v3.3h.7l3.9 6.4-4.1 4.1c-.3.3-.5.7-.5 1.2v5h-5v3.3h6.7c.9 0 1.7-.7 1.7-1.7v-6l4.5-4.5c.5-.4.6-1.2.2-1.9zM51.9 2.1v2l-5.4 1.4c-.2 0-.4.1-.5.2l-4.2 2.8-9.2-4.6-1.5 3 10 5c.2.1.5.2.7.2.3 0 .6-.1.9-.3l4.8-3.2L53.9 7c.7-.2 1.3-.9 1.3-1.6V2.1h-3.3z" fill="#020203"/></symbol><symbol id="icon-advantages4" viewBox="0 0 129 141"><path d="M46.4 3.5c-2.9 2.9-11.1 6.1-11.1 6.1l-7.3 5-4.3 5-8 2.5L10 33.5 8.2 47.4l-2.7 5.3-1.4 6v6l1.4 8.6 3.8 6 5.1 5 .6 9.1 1.2 8.2 4.7 4.5 4.3 3.4v7.6l2.7 5.8 6.2 3.4 4.7 3.9 6.1 5.7 7.3 2.7 5.7-2.7 4.1-5.1 2.4-5.5V6.8l-4.2-2.3-5.3-2.8-4.1.6-4.4 1.2z" fill="#EA5357"/><path d="M128.4 62c-.7-5.9-3.2-10.5-4.2-12.3.7-12.2-1.7-21.4-7.2-27.3-4.3-4.6-9.3-5.9-11.9-6.3-3.9-8.2-10.5-9.8-14.5-9.4-7.5-7-14.5-7.2-19.1-6-3 .8-5.4 2.2-6.9 3.2-1.5-1.1-3.8-2.5-6.9-3.2-4.6-1.1-11.6-1-19.1 6-4-.4-10.6 1.2-14.5 9.4-2.6.4-7.6 1.7-11.9 6.3C6.7 28.3 4.3 37.5 5 49.7 4 51.4 1.5 56.1.8 62c-.8 6.6.4 16 10.8 23.6-1.2 7.1-.1 19.3 11.3 25.4-.5 2.6-.8 7.1 1.5 10.9 1.8 3 4.8 5 8.9 5.9 2.1 3.2 9.2 13.1 18.1 13.1h.2c4.8-.1 9.1-2.9 12.9-8.4 3.8 5.5 8.1 8.3 12.9 8.4 9 .1 16.2-9.9 18.3-13.1 4.1-.9 7.1-2.9 8.9-5.9 2.3-3.8 2-8.3 1.5-10.9 11.3-6 12.5-18.2 11.3-25.4 10.6-7.6 11.8-17 11-23.6zm-14.9 20.5c-.9.6-1.3 1.6-1 2.6.2.7 3.9 16.3-10 22.2-1.2.5-1.8 1.8-1.4 3 0 .1 1.7 5.3-.6 9-1.2 2-3.4 3.3-6.6 3.8-.7.1-1.3.6-1.7 1.2-1.9 3.3-8.2 11.7-14.5 11.7h-.1c-3.8-.1-7.4-3.2-10.8-9.3-.4-.8-1.3-1.3-2.2-1.3-.9 0-1.7.5-2.1 1.3-3.3 6.1-7 9.3-10.8 9.3-6.3.1-12.7-8.4-14.6-11.7-.4-.6-1-1.1-1.7-1.2-3.2-.5-5.4-1.8-6.6-3.8-2.2-3.7-.6-8.9-.6-9 .4-1.2-.2-2.5-1.4-3-13.8-5.9-10.2-21.6-10-22.2.3-1-.2-2-1-2.6-18.2-12.1-6.7-30.1-6.2-30.8.3-.5.4-1 .4-1.5-.8-11.1 1.1-19.3 5.8-24.3 4.4-4.8 9.8-5 10-5 1 0 1.9-.6 2.3-1.5 2.7-6.8 7.1-7.8 9.4-7.8.7 0 1.3.1 1.4.1.8.2 1.7 0 2.3-.6 5-5 10.1-6.9 15.2-5.7 3.9.9 6.4 3.4 6.5 3.4.5.5 1.1.7 1.7.7h.1c.6 0 1.3-.3 1.7-.7 0 0 2.5-2.4 6.3-3.3 5.2-1.3 10.3.6 15.4 5.6.6.6 1.5.8 2.3.6.7-.2 7.2-1.4 10.8 7.7.4.9 1.3 1.5 2.2 1.5.2 0 5.6.1 10.1 5 4.6 5 6.6 13.2 5.8 24.3 0 .5.1 1.1.4 1.5 0 0 3.1 4.7 3.9 10.9 1 8.1-2.4 14.8-10.1 19.9z" fill="#020203"/><path d="M105.7 17.6c-.4-1.3-1.8-2-3.1-1.5-15.2 5.1-15.3 17.7-15.3 18.3 0 1.3 1.1 2.4 2.4 2.4 1.3 0 2.4-1.1 2.4-2.4 0-.4.3-9.7 12-13.7 1.3-.4 2-1.8 1.6-3.1zM116.7 83.1c-.8-1.1-2.3-1.3-3.4-.5-4 3-7.6 4.1-10.7 3.2-5.5-1.6-8.3-8.9-8.4-9-.5-1.3-1.9-1.9-3.1-1.4-1.3.5-1.9 1.9-1.4 3.1.1.4 3.6 9.6 11.5 11.9 1.2.3 2.4.5 3.6.5 3.6 0 7.5-1.5 11.4-4.5 1.1-.7 1.3-2.3.5-3.3zM75.5 85.1c-1-1-2.5-1-3.4 0-1 1-1 2.5 0 3.4 7.9 7.9 6.3 15.6 6.2 15.9-.3 1.3.5 2.6 1.8 2.9.2 0 .4.1.6.1 1.1 0 2.1-.7 2.4-1.8-.1-.4 2.3-10.5-7.6-20.5zM113.3 62.2c-.5-1.3-1.9-1.9-3.1-1.5-.5.2-12.1 4.2-18.3-4-3.2-4.3-4.6-7.9-5.7-10.9-1.4-3.6-2.6-7-6.9-7.4-1.3-.1-2.5.9-2.6 2.2-.1 1.3.9 2.5 2.2 2.6 1 .1 1.4.7 2.7 4.2 1.2 3.1 2.7 7.2 6.4 12.1 4.3 5.7 10.2 7.1 15.1 7.1 4.7 0 8.5-1.3 8.8-1.4 1.2-.3 1.9-1.7 1.4-3zM64.6 4.6c-1.3 0-2.4 1.1-2.4 2.4v120.8c0 1.3 1.1 2.4 2.4 2.4 1.3 0 2.4-1.1 2.4-2.4V7c.1-1.3-1-2.4-2.4-2.4z" fill="#020203"/><path d="M82.5 25.6c0-1.3-1.1-2.4-2.5-2.4-1.3 0-2.4 1.1-2.4 2.5 0 .2.1 15.4-7.5 25-.8 1.1-.7 2.6.4 3.4.4.4 1 .5 1.5.5.7 0 1.4-.3 1.9-.9 8.7-11 8.6-27.4 8.6-28.1zM87.4 100.3c-10.8 0-15.8 14.7-16 15.3-.4 1.3.3 2.7 1.5 3.1.3.1.5.1.8.1 1 0 2-.6 2.3-1.7 1.1-3.3 5.4-12 11.4-12 1.3 0 2.4-1.1 2.4-2.4.1-1.3-1-2.4-2.4-2.4zM90.2 6.3c-1.1-.8-2.6-.6-3.4.5l-5.9 7.9c-.8 1.1-.6 2.6.5 3.4.4.3.9.5 1.5.5.7 0 1.5-.3 2-1l5.9-7.9c.7-1.1.4-2.6-.6-3.4zM40.2 22.1c-5.4 0-9.8 4.4-9.8 9.8s4.4 9.8 9.8 9.8 9.8-4.4 9.8-9.8-4.4-9.8-9.8-9.8zm0 14.6c-2.7 0-4.9-2.2-4.9-4.9s2.2-4.9 4.9-4.9 4.9 2.2 4.9 4.9-2.2 4.9-4.9 4.9zM23.1 53.8c-5.4 0-9.8 4.4-9.8 9.8s4.4 9.8 9.8 9.8 9.8-4.4 9.8-9.8-4.4-9.8-9.8-9.8zm0 14.6c-2.7 0-4.9-2.2-4.9-4.9s2.2-4.9 4.9-4.9 4.9 2.2 4.9 4.9-2.2 4.9-4.9 4.9zM47.5 75.8c-5.4 0-9.8 4.4-9.8 9.8s4.4 9.8 9.8 9.8 9.8-4.4 9.8-9.8c0-5.5-4.4-9.8-9.8-9.8zm0 14.6c-2.7 0-4.9-2.2-4.9-4.9s2.2-4.9 4.9-4.9 4.9 2.2 4.9 4.9-2.2 4.9-4.9 4.9zM47.5 102.6c-5.4 0-9.8 4.4-9.8 9.8s4.4 9.8 9.8 9.8 9.8-4.4 9.8-9.8-4.4-9.8-9.8-9.8zm0 14.6c-2.7 0-4.9-2.2-4.9-4.9s2.2-4.9 4.9-4.9 4.9 2.2 4.9 4.9-2.2 4.9-4.9 4.9z" fill="#020203"/><path d="M40.2 36.7c-1.3 0-2.4 1.1-2.4 2.4v24.4c0 1.3 1.1 2.4 2.4 2.4 1.3 0 2.4-1.1 2.4-2.4V39.1c.1-1.3-1-2.4-2.4-2.4z" fill="#020203"/><path d="M47.5 61.1H30.4c-1.3 0-2.4 1.1-2.4 2.4 0 1.3 1.1 2.4 2.4 2.4h17.1c1.3 0 2.4-1.1 2.4-2.4.1-1.3-1-2.4-2.4-2.4z" fill="#020203"/><path d="M47.5 61.1c-1.3 0-2.4 1.1-2.4 2.4v14.6c0 1.3 1.1 2.4 2.4 2.4 1.3 0 2.4-1.1 2.4-2.4V63.5c.1-1.3-1-2.4-2.4-2.4zM47.5 90.4c-1.3 0-2.4 1.1-2.4 2.4V105c0 1.3 1.1 2.4 2.4 2.4 1.3 0 2.4-1.1 2.4-2.4V92.8c.1-1.3-1-2.4-2.4-2.4z" fill="#020203"/></symbol><symbol id="icon-advantages5" viewBox="0 0 100 100"><path d="M89.7 33.2c-.9 0-1.7.7-1.7 1.7V93c0 1.8-1.5 3.3-3.3 3.3h-78c-1.8 0-3.3-1.5-3.3-3.3V15c0-1.8 1.5-3.3 3.3-3.3h58.1c.9 0 1.7-.7 1.7-1.7 0-.9-.7-1.7-1.7-1.7H6.7C3 8.3.1 11.3.1 14.9v78c0 3.7 3 6.6 6.6 6.6h78c3.7 0 6.6-3 6.6-6.6V34.8c.1-.9-.7-1.6-1.6-1.6z" fill="#020203"/><path d="M86.4 0c-7.3 0-13.3 5.9-13.3 13.3S79 26.6 86.4 26.6c7.3 0 13.3-5.9 13.3-13.3S93.7 0 86.4 0z" fill="#EA5357"/></symbol><symbol id="icon-advantages6" viewBox="0 0 92 93"><path d="M40.3 55.4c.4.4.8.5 1.3.5s.9-.2 1.3-.5l15.3-15.3c.7-.7.7-1.9 0-2.6-.7-.7-1.9-.7-2.6 0l-14 14-5.9-5.9c-.7-.7-1.9-.7-2.6 0-.7.7-.7 1.9 0 2.6l7.2 7.2z" fill="#EA5357"/><path d="M2.8 84.6c-1.4.7-2.2 2.2-1.9 3.7.2 1.5 1.4 2.7 3 3 1.1.2 2.4.3 3.6.3 3.4 0 9.8-.7 16.2-5.2 6.7 3.7 14.3 5.7 22 5.7 12.2 0 23.6-4.7 32.3-13.4C95.8 60.9 95.8 32 78 14.2 69.4 5.6 57.9.9 45.7.9 33.5.9 22.1 5.6 13.4 14.3-3.3 31-4.4 57.9 10.7 75.9c-2.1 4.2-4.8 7.2-7.9 8.7zM16 16.8C23.9 8.9 34.4 4.5 45.7 4.5c11.2 0 21.7 4.4 29.7 12.3 16.3 16.3 16.3 43 0 59.3C67.5 84 57 88.4 45.7 88.4c-7.5 0-14.8-2-21.2-5.8-.3-.2-.6-.3-.9-.3-.4 0-.8.1-1.1.4-5.8 4.5-11.8 5.2-14.9 5.2-.9 0-1.8-.1-2.6-.2 4-2.1 7.3-6 9.7-11.6.3-.7.2-1.4-.3-2C-.4 57.6.4 32.4 16 16.8z" fill="#2D3034"/></symbol><symbol id="icon-email" viewBox="0 0 511.626 511.626"><path d="M49.106 178.729c6.472 4.567 25.981 18.131 58.528 40.685 32.548 22.554 57.482 39.92 74.803 52.099 1.903 1.335 5.946 4.237 12.131 8.71 6.186 4.476 11.326 8.093 15.416 10.852 4.093 2.758 9.041 5.852 14.849 9.277 5.806 3.422 11.279 5.996 16.418 7.7 5.14 1.718 9.898 2.569 14.275 2.569h.575c4.377 0 9.137-.852 14.277-2.569 5.137-1.704 10.615-4.281 16.416-7.7 5.804-3.429 10.752-6.52 14.845-9.277 4.093-2.759 9.229-6.376 15.417-10.852 6.184-4.477 10.232-7.375 12.135-8.71 17.508-12.179 62.051-43.11 133.615-92.79 13.894-9.703 25.502-21.411 34.827-35.116 9.332-13.699 13.993-28.07 13.993-43.105 0-12.564-4.523-23.319-13.565-32.264-9.041-8.947-19.749-13.418-32.117-13.418H45.679c-14.655 0-25.933 4.948-33.832 14.844C3.949 79.562 0 91.934 0 106.779c0 11.991 5.236 24.985 15.703 38.974 10.466 13.99 21.604 24.983 33.403 32.976z"/><path d="M483.072 209.275c-62.424 42.251-109.824 75.087-142.177 98.501-10.849 7.991-19.65 14.229-26.409 18.699-6.759 4.473-15.748 9.041-26.98 13.702-11.228 4.668-21.692 6.995-31.401 6.995h-.578c-9.707 0-20.177-2.327-31.405-6.995-11.228-4.661-20.223-9.229-26.98-13.702-6.755-4.47-15.559-10.708-26.407-18.699-25.697-18.842-72.995-51.68-141.896-98.501C17.987 202.047 8.375 193.762 0 184.437v226.685c0 12.57 4.471 23.319 13.418 32.265 8.945 8.949 19.701 13.422 32.264 13.422h420.266c12.56 0 23.315-4.473 32.261-13.422 8.949-8.949 13.418-19.694 13.418-32.265V184.437c-8.186 9.132-17.7 17.417-28.555 24.838z"/></symbol><symbol id="icon-fb" viewBox="0 0 13 23"><path d="M7.919 7.895V5.024c0-.792.643-1.435 1.435-1.435h1.436V0H7.919a4.306 4.306 0 0 0-4.306 4.306v3.589H.742v3.588h2.87v11.484H7.92V11.483h2.87l1.436-3.588H7.919z"/></symbol><symbol id="icon-ig" viewBox="0 0 512 512"><path d="M363.273 0H148.728C66.719 0 0 66.719 0 148.728v214.544C0 445.281 66.719 512 148.728 512h214.544C445.281 512 512 445.281 512 363.273V148.728C512 66.719 445.281 0 363.273 0zM472 363.272C472 423.225 423.225 472 363.273 472H148.728C88.775 472 40 423.225 40 363.273V148.728C40 88.775 88.775 40 148.728 40h214.544C423.225 40 472 88.775 472 148.728v214.544z"/><path d="M256 118c-76.094 0-138 61.906-138 138s61.906 138 138 138 138-61.906 138-138-61.906-138-138-138zm0 236c-54.037 0-98-43.963-98-98s43.963-98 98-98 98 43.963 98 98-43.963 98-98 98z"/><circle cx="396" cy="116" r="20"/></symbol><symbol id="icon-in" viewBox="0 0 438.536 438.535"><path d="M5.424 145.895H99.64v282.932H5.424zM408.842 171.739c-19.791-21.604-45.967-32.408-78.512-32.408-11.991 0-22.891 1.475-32.695 4.427-9.801 2.95-18.079 7.089-24.838 12.419-6.755 5.33-12.135 10.278-16.129 14.844-3.798 4.337-7.512 9.389-11.136 15.104v-40.232h-93.935l.288 13.706c.193 9.139.288 37.307.288 84.508 0 47.205-.19 108.777-.572 184.722h93.931V270.942c0-9.705 1.041-17.412 3.139-23.127 4-9.712 10.037-17.843 18.131-24.407 8.093-6.572 18.13-9.855 30.125-9.855 16.364 0 28.407 5.662 36.117 16.987 7.707 11.324 11.561 26.98 11.561 46.966V428.82h93.931V266.664c-.007-41.688-9.897-73.328-29.694-94.925zM53.103 9.708c-15.796 0-28.595 4.619-38.4 13.848C4.899 32.787 0 44.441 0 58.529 0 72.42 4.758 84.034 14.275 93.358c9.514 9.325 22.078 13.99 37.685 13.99h.571c15.99 0 28.887-4.661 38.688-13.99 9.801-9.324 14.606-20.934 14.417-34.829-.19-14.087-5.047-25.742-14.561-34.973C81.562 14.323 68.9 9.708 53.103 9.708z"/></symbol><symbol id="icon-logo" viewBox="0 0 1435 485"><path d="M1195.5 25c-12.1 2.2-22.1 3.9-22.2 3.9-.2.1-.3 86.9-.3 193.1v193h48l.2-63.1.3-63.2 15 11.3c32.6 24.5 60.3 50.1 85.4 78.9 8.1 9.3 21.1 26.5 24.4 32.4l2.1 3.7h28.3c15.9 0 28.3-.4 28.3-.9s-2.8-5.1-6.1-10.2c-25.3-38.5-77.5-93.2-125.3-131.4l-3.8-3 17.9-15.5c52.2-45.3 79.7-71.1 98.7-92.5l8.9-10-28.3-.3-28.3-.2-5.5 6.2c-16.9 19.2-41.5 41.8-108.3 99.6l-3.9 3.4V140.6c0-113.3-.1-119.6-1.7-119.5-1 .1-11.7 1.8-23.8 3.9zM399.5 72.5c-10.4 1.9-20.5 3.7-22.2 4l-3.3.6V151h-56v40h55.9l.4 75.2c.4 83 .6 86.6 6.8 105.3 8.7 26.3 25.2 40.2 55.1 46.7 14 3 50.4 3.3 64.1.5 8.7-1.8 36.1-10.7 37.8-12.4.8-.8-5.3-38.8-6.4-40-.3-.3-3.9.8-7.9 2.5-11.3 4.6-19.5 6.9-30.2 8.2-12.1 1.6-33.7.8-42.1-1.5-13.4-3.6-22.3-13.1-26.4-28.5-3.3-12.1-4.1-29.8-4.1-96.3V191h112v-40H421v-41c0-32.2-.3-41-1.2-40.9-.7 0-9.8 1.6-20.3 3.4zM38 109.5V121h209V98H38v11.5zM131.9 145.1c-32 2-54.9 10.6-70.4 26.4-13.3 13.6-18.5 25.7-19.2 45-.8 20.6 3.4 32.2 16.6 45.8 14.3 14.8 31.2 24 65.3 35.6 27.6 9.4 37.8 13.4 47.7 18.7 19.3 10.3 26.1 18.6 26.1 32.1 0 22-23.2 32.4-69.3 31-25.3-.7-44.3-4.9-70.7-15.6-8-3.3-12.3-4.5-12.5-3.8-.2.7-2.3 10.4-4.6 21.6-4 19.2-4.2 20.4-2.5 21.6 3.2 2.4 29 10.4 41.6 12.9 6.9 1.4 18.8 3 26.5 3.7 16.9 1.4 48.8.6 63-1.6 40.5-6.3 63.9-22 73.1-49 2.2-6.6 2.8-10.3 3.2-20.5.7-20.9-3.3-32.2-16.2-45.8-9.6-10.1-17.9-16.1-33.6-24.1-14.2-7.2-15-7.5-48.5-19.7-45.4-16.4-58.5-25.9-58.5-42 0-14.1 9.7-24 28.3-28.8 27.2-7.1 79.1-2.3 105.8 9.8 1.3.6 2.2-2.4 5.8-20.3 2.4-11.6 4-21.5 3.7-22-.9-1.4-20.4-5.8-36.4-8.1-11.9-1.7-45.1-4.3-50.2-3.8-.8 0-7.2.5-14.1.9zM701.5 145.1c-36.6 3.3-69.9 23-89.1 52.5-15.4 23.5-22.1 46.2-23.1 78.6-2.3 70.4 27.3 118.2 85.1 137.3 17 5.6 27 6.9 53.1 6.9 17 .1 25.9-.4 34-1.7C779 416 807 408.1 807 405.9c0-1.7-6.1-39.4-6.5-39.7-.1-.2-4.1 1-8.7 2.6-16.8 6-37.7 9.2-59.2 9.2-42.5 0-71.3-14.6-85.6-43.6-4.1-8.2-8.2-22.4-9.5-32.7l-.6-5.7h188.4l-.6-22.8c-.9-39.2-7.7-66.1-22-87.2-8-11.7-21.8-23.6-35.4-30.4-17.1-8.5-42.7-12.6-65.8-10.5zm32.1 43.3c15 4.8 28 16.3 35 31.1 4.2 8.9 6.3 17.2 7.2 28.5l.8 9H637.9l.7-3.8c2.2-12.3 8.5-27.3 16-37.8 17.7-25 50.2-36.1 79-27zM1013.5 144.7c-65.8 3.2-111.5 34.4-129 87.9-4.7 14.3-6.7 28.9-6.7 49.4-.1 10.2.5 22.3 1.1 26.9 8.8 60.9 45.9 98.1 109.6 109.7 12.5 2.3 54.5 2.6 69.5.5 21.1-2.9 48-10.1 48-12.9 0-1.3-6.1-38.3-6.4-38.9-.1 0-5.3 1.4-11.7 3.2-15.6 4.5-29 6.4-49.9 7.2-20 .7-32.9-.5-47.2-4.3-32.1-8.5-53-29.3-60.9-60.6-2.7-10.7-3.7-36.8-1.9-48.9 3.3-22.7 14.1-43.3 29.2-55.8 7.8-6.5 23.7-14.4 34.3-17 28.1-7 65.3-5 93.9 4.9 3.3 1.1 6 1.9 6.1 1.8.5-.7 10.5-39.1 10.5-40.3 0-2-18.4-7-37.1-10-8.3-1.3-41.6-3.8-44.4-3.3-.5.1-3.7.3-7 .5zM38 453.5V465h209v-23H38v11.5z"/></symbol><symbol id="icon-tw" viewBox="0 0 23 19"><path d="M22.003 2.598c-.8.351-1.654.584-2.543.697A4.389 4.389 0 0 0 21.4.855a8.82 8.82 0 0 1-2.799 1.069 4.413 4.413 0 0 0-7.636 3.018c0 .35.03.687.103 1.007C7.4 5.77 4.152 4.011 1.971 1.332a4.444 4.444 0 0 0-.604 2.231 4.42 4.42 0 0 0 1.96 3.668 4.36 4.36 0 0 1-1.994-.543v.048a4.434 4.434 0 0 0 3.536 4.337c-.359.099-.75.146-1.157.146-.282 0-.568-.016-.836-.076.572 1.748 2.195 3.034 4.125 3.075a8.87 8.87 0 0 1-5.473 1.883 8.27 8.27 0 0 1-1.056-.06 12.427 12.427 0 0 0 6.771 1.98c8.123 0 12.564-6.728 12.564-12.56 0-.196-.007-.384-.016-.571a8.806 8.806 0 0 0 2.212-2.292z"/></symbol><symbol id="icon-viber" viewBox="0 0 52.511 52.511"><path d="M31.256 0H21.254C10.778 0 2.255 8.521 2.255 18.995v9.01c0 7.8 4.793 14.81 12 17.665v5.841a.999.999 0 0 0 1.671.741L21.725 47h9.531c10.476 0 18.999-8.521 18.999-18.995v-9.01C50.255 8.521 41.732 0 31.256 0zm16.999 28.005C48.255 37.376 40.63 45 31.256 45h-9.917a.998.998 0 0 0-.671.259l-4.413 3.997v-4.279a.997.997 0 0 0-.667-.942 17.03 17.03 0 0 1-11.333-16.03v-9.01C4.255 9.624 11.881 2 21.254 2h10.002c9.374 0 16.999 7.624 16.999 16.995v9.01z"/><path d="M39.471 30.493l-6.146-3.992a2.994 2.994 0 0 0-4.15.88l-.289.444c-2.66-.879-5.593-2.002-7.349-7.085l.727-.632a3.005 3.005 0 0 0 .294-4.233l-4.808-5.531a1.001 1.001 0 0 0-1.411-.099l-3.019 2.624c-2.648 2.302-1.411 5.707-1.004 6.826.018.05.04.098.066.145.105.188 2.612 4.662 6.661 8.786 4.065 4.141 11.404 7.965 11.629 8.076a5.006 5.006 0 0 0 6.916-1.47l2.178-3.354c.3-.465.168-1.084-.295-1.385zm-3.561 3.649c-.901 1.388-2.763 1.782-4.233.834-.073-.038-7.364-3.835-11.207-7.75-3.592-3.659-5.977-7.724-6.302-8.291-.792-2.221-.652-3.586.464-4.556l2.265-1.968 4.152 4.776a.99.99 0 0 1-.096 1.411l-1.227 1.066a.999.999 0 0 0-.3 1.049c2.092 6.798 6.16 8.133 9.13 9.108l.433.143a.996.996 0 0 0 1.155-.403l.709-1.092a.988.988 0 0 1 .63-.434.99.99 0 0 1 .753.143l5.308 3.447-1.634 2.517zM28.538 16.247a1 1 0 1 0-.548 1.923 4.524 4.524 0 0 1 3.097 3.104 1 1 0 0 0 1.925-.542 6.538 6.538 0 0 0-4.474-4.485z"/><path d="M36.148 22.219a1 1 0 0 0 .963-1.271c-1.18-4.183-4.509-7.519-8.689-8.709a1 1 0 1 0-.547 1.924c3.517 1 6.318 3.809 7.311 7.328a1 1 0 0 0 .962.728z"/><path d="M27.991 7.582a1 1 0 1 0-.548 1.924c5.959 1.695 10.706 6.453 12.388 12.416a1 1 0 0 0 1.925-.542c-1.869-6.627-7.143-11.913-13.765-13.798z"/></symbol></svg>