<svg xmlns="http://www.w3.org/2000/svg" xmlns:xlink="http://www.w3.org/1999/xlink"><symbol id="icon-advantages1" viewBox="0 0 122 121"><path d="M56.1-1h8.8c2.2.3 4.5.2 6.7.6 8.9 1.6 17.1 5 24.6 10.3 7.3 5.2 13.3 11.6 17.7 19.4 4 6.9 6.7 14.3 7.6 22.3.1 1.2.1 2.5.3 3.8v9c-.3 1.9-.2 3.9-.6 5.9-2 11-6.5 20.8-13.8 29.3-7.7 9.1-17.3 15.3-28.7 18.9-4.3 1.3-8.7 2.3-13.3 2.2-.2 0-.4 0-.6.1h-8.6c-2.7-.3-5.5-.4-8.2-1-9.9-2.2-18.9-6.5-26.6-13.1C11.7 98.4 5.1 88 1.7 75.6c-1-3.5-1.6-7-1.6-10.7 0-.2 0-.4-.1-.6V55c.3-1.9.2-3.8.6-5.7 2-11 6.5-20.7 13.8-29.2 6.4-7.5 14.2-13.2 23.3-17 4.7-1.9 9.5-3.3 14.5-3.9 1.3 0 2.6.1 3.9-.2z" fill="#F1F2FA"/><path d="M99.5 47.4c-.5.8-1.2 1.1-2.2 1.1H84.8c-.5 0-.8.1-1.2.6-1.9 2.5-4.3 4.3-7.5 4.9-.6.1-1.2.2-1.7.1-.7-.1-1.2.2-1.8.7L58.5 68.9c-1.2 1.2-1.9 1.2-3 0L28 41.4l-.3-.3c-1.1-1.1-1.1-1.7 0-2.8 2.2-2.2 4.4-4.4 6.5-6.6 3.2-3.2 6.4-6.3 9.5-9.5.3-.3.6-.6.9-.8h.9c.3.3.6.5.9.8 1.5 1.4 2.9 2.9 4.4 4.4.3.3.6.4 1 .3 1.9-.7 3.8-1.3 5.7-2.1 2.9-1.2 5.9-1.4 8.8-.3 2.5 1 4.9 2.2 7.3 3.4 1.7.8 3.3 1.8 5 2.7.9.5 2 .7 3 .6.3-1.6.6-1.9 2.1-1.9.9 0 1.8-.1 2.6 0s1-.2 1-1c0-1.3.5-1.8 1.8-1.8h8c.9 0 1.7.2 2.1 1.1.3 6.5.3 13.2.3 19.8zm-46-18.1c1.3 1.2 2.6 2.3 3.7 3.6 1.3 1.5 2.9 2.4 4.9 3 2.6.7 5.1 1.6 7.7 2.4 1 .3 1.5 1.1 1.2 2-.3.8-1.1 1.2-2.1.9-1.3-.4-2.5-.8-3.8-1.2-3.1-1-6.2-2-9.3-2.9-1.4-.4-2.8.1-3.5 1.3-.7 1.2-.6 2.7.5 3.6.6.5 1.3.9 2 1.2l11.4 3.9c.4.1.8.4 1 .7 2 2.6 4.8 3.7 7.9 3.4 3-.3 5-2.2 6.6-4.6.1-.1.1-.3.1-.5V34.9c0-.4-.1-.6-.6-.6-1.8-.1-3.6-.7-5.2-1.6-3.2-1.7-6.4-3.4-9.6-5-2.1-1.1-4.5-1.2-6.7-.5-2 .5-4 1.3-6.2 2.1zM36.1 45.2l15.3 15.3c3.6-2.3 7.2-2.4 10.8-.1.1.1.4.1.5 0 1.1-1.1 2.2-2.1 3.3-3.2-1.5-2.3-2.1-4.6-1.7-7.2 0-.2-.2-.5-.4-.6l-3.3-1.2c-.4-.1-.8-.3-1.2-.4-.1.3-.2.5-.3.8-1.4 3.8-5.2 6-9.1 5.5-3.9-.5-7-3.6-7.4-7.4-.4-4 1.7-7.7 5.5-9.1.9-.3 1.7-.8 2.3-1.6.7-1 1.8-1.6 3-2 .2-.1.4-.1.8-.3-1.1-1-2-1.9-2.9-2.8-.3-.3-.6-.3-1-.1-.6.4-1.3.7-2 1-2.9.9-5.6.6-8.2-1-.2-.1-.6-.2-.7-.1-1.1 1-2.2 2.1-3.3 3.1 2.3 4 2.3 7.7 0 11.4zm54.4-15.7v15.9h5.9V29.5h-5.9zm-41.6 11c-2.4.8-3.9 3.7-3.4 6.3.6 2.7 3.2 4.6 5.9 4.4 2.5-.2 4.9-2.3 4.9-4.5-3.3-1-6.6-2-7.4-6.2zm35.9-8.3v13.2h2.7v-1V33c0-.3.1-.8-.5-.8h-2.2zM60.3 62.8c-1.7-1.4-5.3-1.3-6.6-.1 1.1 1.1 2.2 2.2 3.3 3.4l3.1-3.1.2-.2zM41.8 28.4c1.7 1.3 5 1.3 6.6 0-1.1-1.1-2.2-2.3-3.3-3.3l-3.3 3.3zm-7.9 7.9c-1.1 1.1-2.3 2.2-3.3 3.2 1.1 1.1 2.2 2.3 3.3 3.4 1.3-1.9 1.3-5.1 0-6.6zm35.9 17c-.9-.5-1.7-.9-2.5-1.4-.1 0-.1.1-.2.1.3 1 .6 1.9 1 3 .6-.7 1.2-1.2 1.7-1.7z" fill="#7633FF"/><path d="M22.3 74.8c.4-.9 1.1-1.1 2.1-1.1h12.4c.7 0 1.2-.2 1.6-.8 1.9-2.5 4.3-4.3 7.5-4.7 3.9-.5 7.3.6 10.1 3.4.6.6 1.1 1 1.9 1.2 3.4 1.1 6.7 2.2 10 3.4 2 .7 3.6 1.9 4.5 3.9.2.4.4.4.7.3 3.5-1 7-1.9 10.5-2.9 1.5-.4 3-.6 4.4 0 4 1.4 5.3 6.2 2.5 9.5-.9 1-2 1.8-3.3 2.3-7.5 2.7-15 5.4-22.5 8-1.3.5-2.7.8-4 1.2h-2.6c-.2-.1-.3-.1-.5-.2-1.3-.4-2.7-.6-3.9-1.2-3.3-1.6-6.5-3.3-9.7-5-1.3-.7-2.6-1.1-4-1.1-.3 1.7-.6 1.9-2.3 1.9h-2.6c-.7 0-.9.1-.9.9 0 1.5-.4 1.9-1.9 1.9h-8c-.9 0-1.6-.3-2-1.1V74.8zM40 87.9c2.6.1 4.8 1.1 7 2.3 2.4 1.4 4.9 2.6 7.4 3.9 3 1.6 6 1.7 9.2.5 7.5-2.8 15.1-5.4 22.7-8.2.8-.3 1.5-.9 2.1-1.5.7-.6.9-1.5.7-2.4-.4-1.9-2-2.8-4.1-2.2-3.9 1-7.8 2.1-11.6 3.2-.2.1-.5.3-.6.6-1.3 3.4-4.4 4.9-7.8 3.9-2.7-.8-5.4-1.7-8.1-2.6-1.7-.5-3.4-1.1-5.1-1.7-.7-.2-1-.9-.9-1.6.1-.7.6-1.1 1.2-1.2.4 0 .7.1 1.1.2 4.2 1.3 8.5 2.7 12.7 4 1.5.5 2.9-.1 3.7-1.3.7-1.3.4-2.8-.8-3.8-.4-.4-1-.7-1.5-.8-3.2-1.1-6.4-2.2-9.7-3.3-1.5-.5-2.8-1.1-3.9-2.3-2.1-2.2-4.9-2.9-7.9-2.3-2.4.5-4.1 2-5.4 3.9-.3.4-.4.9-.4 1.4v11.3zm-14.7 4.8h3.8c2.2 0 2.2 0 2.2-2.2V77.4c0-.6-.2-.8-.8-.8h-5.2v16.1zM37 89.9V89 78.6c0-2 0-1.9-2-2-.7 0-.8.2-.8.8V89c0 .3 0 .5.1.8.9.1 1.8.1 2.7.1zM69.8 53.3c-.6.6-1.1 1.1-1.8 1.7-.3-1-.7-2-1-3 .1 0 .1-.1.2-.1.9.4 1.7.9 2.6 1.4zM76.4 41.4c0 .8-.6 1.5-1.4 1.5-.8 0-1.5-.7-1.5-1.5s.6-1.4 1.4-1.5c.8.1 1.5.7 1.5 1.5z" fill="#7633FF"/><path d="M46.8 79.2c.8 0 1.5.7 1.5 1.5s-.7 1.5-1.5 1.5-1.5-.7-1.5-1.5c.1-.8.7-1.5 1.5-1.5z" fill="#7633FF"/></symbol><symbol id="icon-advantages2" viewBox="0 0 122 122"><path d="M56.1 0h8.8c2.2.3 4.5.2 6.7.6 8.9 1.6 17.1 5 24.6 10.3 7.3 5.2 13.3 11.6 17.7 19.4 4 6.9 6.7 14.3 7.6 22.3.1 1.2.1 2.5.3 3.8v9c-.3 1.9-.2 3.9-.6 5.9-2 11-6.5 20.8-13.8 29.3-7.7 9.1-17.3 15.3-28.7 18.9-4.3 1.3-8.7 2.3-13.3 2.2-.2 0-.4 0-.6.1h-8.6c-2.7-.3-5.5-.4-8.2-1-9.9-2.2-18.9-6.5-26.6-13.1C11.7 99.4 5.1 89 1.7 76.6c-1-3.5-1.6-7-1.6-10.7 0-.2 0-.4-.1-.6V56c.3-1.9.2-3.8.6-5.7 2-11 6.5-20.7 13.8-29.2 6.4-7.5 14.2-13.2 23.3-17C42.4 2.2 47.2.8 52.2.2c1.3 0 2.6.1 3.9-.2z" fill="#F1F2FA"/><path d="M73.3 100.4H35.5c-.4-.4-.8-.7-1.2-1.1-2-2-3.9-4-6-5.9-1.2-1.1-1.7-2.4-1.7-4V41.8c0-1.3-.4-2.6-.6-3.9-.2-1.4-.6-2.7-.6-4.1-.1-3.5 0-7.1 0-10.7 0-.8.2-1.5 1-1.8h37.7c.3.5.7.9.9 1.4 2.4 6.4 4.8 12.9 7.2 19.4 1 2.8 2.4 5.5 2 8.6-.1.7.2 1 .9 1H91c3.6 0 5.6 2.8 5.6 5.6-.1 10.8 0 21.5 0 32.3 0 .5 0 1-.1 1.5-.6 2.5-2.7 4.1-5.5 4.1H74.1v3.3c0 .7-.2 1.4-.8 1.9zM71.4 49H37.9c-.7 0-.8.3-.8.9v47.9h34.2v-2.6H69c-3.3 0-5.6-2.2-5.6-5.6V57.2c0-.6.1-1.2.2-1.7.7-2.3 2.7-3.7 5.1-3.8h2.5c.2-1 .2-1.8.2-2.7zm9.2 5.3H69.1c-2 0-3.1 1-3.1 3.1v32.1c0 2 1 3.1 3.1 3.1h11.5V54.3zm-46 41.6v-1.5-45.6c0-.6-.1-1.2-.3-1.8l-4.8-13.2c-.4-1.1-.8-2.2-1.3-3.5 0 1.8-.1 3.5 0 5.1.1 1.3.8 2.6.9 4 .2 1.9.2 3.7.2 5.6v44.5c0 .5 0 1.1.3 1.4 1.5 1.7 3.2 3.3 5 5zm36.2-49.5c-.1-.3-.1-.5-.2-.7-2.6-7-5.2-14.1-7.8-21.1-.2-.6-.5-.7-1.1-.7H28.4c.1.5.2.8.4 1.2 2.5 6.8 5.1 13.7 7.5 20.5.2.6.5.8 1.1.8H70.8zm12.5 7.9v38.3h3.1c.7 0 .9-.2.9-.9V56.4v-1.6c0-.2-.2-.5-.4-.5h-3.6zm6.7.1v38.1c2.5.3 3.9-.7 3.9-2.8V57.4c0-2.3-1.7-3.5-3.9-3z" fill="#7633FF"/><path d="M42.4 77.3v16.6c-.1.7-.6 1.2-1.3 1.2-.7 0-1.2-.5-1.3-1.2v-1-31.6c0-1.2.4-1.8 1.4-1.7.6 0 1 .4 1.2 1 .1.3 0 .6 0 .9v15.8zM54.2 62.2h-3.8c-1.7 0-2.7-1-2.7-2.7v-2.2c0-1.9 1-2.9 3-2.9H58.5c1.3.1 2.3 1.2 2.4 2.5v2.7c0 1.5-1.1 2.6-2.6 2.6h-4.1zm-3.8-2.7h7.8v-2.6h-7.8v2.6zM42.4 54.3v1.5c-.1.7-.6 1.1-1.2 1.1-.7 0-1.2-.4-1.2-1.1v-2.9c0-.7.6-1.1 1.2-1.2.6 0 1.2.5 1.3 1.2v.8c-.1.2-.1.4-.1.6zM76.7 82c1.8 2.7 1.7 5.2-.4 6.9-1.8 1.5-4.4 1.4-6.1-.3-1.5-1.4-2.2-4.2 0-6.6-1.1-1.2-1.6-2.6-1.2-4.3.2-1.1.9-2 1.8-2.7 1.7-1.3 4.3-1.1 5.9.4 1.7 1.8 1.8 4.1 0 6.6zm-1.3 3.4c0-1.1-.8-2-2-2.1-1.1 0-2 .9-2.1 2 0 1.1.9 2 2 2s2.1-.9 2.1-1.9zm0-6.7c0-1-.9-2-2-2s-2 .9-2 2 .9 2 2 2 2-.9 2-2zM52.4 43.7H40.1c-1.3 0-1.6-.2-2-1.4-1.7-4.5-3.3-9-5-13.5-.5-1.5 0-2.2 1.6-2.2h24.6c1.2 0 1.5.2 1.9 1.4l5.1 13.8c.4 1.1-.1 2-1.4 2-4.1-.1-8.3-.1-12.5-.1zM36.1 29.2c.1.3.1.6.2.8 1.3 3.4 2.6 6.9 3.8 10.3.2.6.4.8 1.1.8h22.1c-.1-.3-.1-.4-.2-.6-1.3-3.5-2.6-7-3.8-10.5-.2-.6-.5-.8-1.1-.8H36.1z" fill="#7633FF"/><path d="M51.8 31.8c-.2.4-.4.8-.6 1-2.1 2.2-4.3 4.3-6.4 6.4-.6.6-1.4.6-1.9.1s-.5-1.3.1-1.9l6.4-6.4c.5-.5 1-.6 1.5-.3.4.3.6.7.9 1.1zM45.2 31.8c-.2.4-.4.8-.6 1-.8.9-1.7 1.8-2.6 2.6-.6.6-1.3.5-1.9 0-.5-.5-.5-1.3 0-1.8.9-.9 1.7-1.8 2.7-2.6.3-.3 1-.4 1.4-.2.5.1.7.6 1 1z" fill="#7633FF"/></symbol><symbol id="icon-advantages3" viewBox="0 0 122 122"><path d="M56.1 0h8.8c2.2.3 4.5.2 6.7.6 8.9 1.6 17.1 5 24.6 10.3 7.3 5.2 13.3 11.6 17.7 19.4 4 6.9 6.7 14.3 7.6 22.3.1 1.2.1 2.5.3 3.8v9c-.3 1.9-.2 3.9-.6 5.9-2 11-6.5 20.8-13.8 29.3-7.7 9.1-17.3 15.3-28.7 18.9-4.3 1.3-8.7 2.3-13.3 2.2-.2 0-.4 0-.6.1h-8.6c-2.7-.3-5.5-.4-8.2-1-9.9-2.2-18.9-6.5-26.6-13.1C11.7 99.4 5.1 89 1.7 76.6c-1-3.5-1.6-7-1.6-10.7 0-.2 0-.4-.1-.6V56c.3-1.9.2-3.8.6-5.7 2-11 6.5-20.7 13.8-29.2 6.4-7.5 14.2-13.2 23.3-17C42.4 2.2 47.2.8 52.2.2c1.3 0 2.6.1 3.9-.2z" fill="#F1F2FA"/><path d="M53.3 77.2V67c0-.9-.2-1.2-1.2-.9-3 .8-6.1 1.5-9.1 2.3-2.3.6-4.3-.5-4.9-2.7-.5-2.1.8-4.1 3.1-4.7 3.7-.9 7.4-1.9 11.2-2.8.7-.2.9-.5.9-1.2v-5.4c0-.8-.2-1.1-1-.8-3.1.8-6.1 1.5-9.2 2.3-2.3.6-4.3-.5-4.9-2.7-.6-2.1.8-4.1 3.1-4.7 3.7-.9 7.4-1.9 11.2-2.8.7-.2.9-.5.9-1.2v-7.3c0-2.4 1.6-4.1 4-4 1.9 0 3.6 1.7 3.6 3.8v5.5c0 .9.2 1.1 1.1.8 3.1-.8 6.1-1.5 9.2-2.3 1.8-.4 3.4.1 4.2 1.5 1 1.6.9 3.3-.3 4.7-.6.8-1.5 1-2.4 1.2-3.7.9-7.3 1.9-11 2.8-.7.2-.9.4-.9 1.1v5.4c0 .8.1 1.1 1.1.9 3-.8 6.1-1.5 9.2-2.3 1.8-.4 3.5.2 4.4 1.5.9 1.4.7 3.3-.4 4.6-.6.8-1.5 1-2.4 1.2-3.6.9-7.3 1.8-10.9 2.7-.7.2-1 .4-1 1.2v17.8c0 .8.2 1.1 1.1 1.1 4.8-.3 9.3-1.7 13.3-4.3 3.7-2.4 6.7-5.6 9.1-9.3 1.2-1.8 3.5-2.2 5.3-.9 1.8 1.2 2.1 3.4.8 5.3-3.5 5.5-8.1 9.8-13.9 12.9-4.6 2.4-9.4 3.8-14.6 4-1.7.1-3.3 0-5-.1-2.4 0-3.8-1.8-3.8-3.9.1-3.3.1-6.7.1-10.1z" fill="#7633FF"/></symbol><symbol id="icon-advantages4" viewBox="0 0 47 47"><circle cx="23.5" cy="23.5" r="23.5" fill="#7633FF"/><path d="M35.543 30.598a.63.63 0 0 0-.63-.63H13.461l3.77-3.771a.625.625 0 0 0 0-.887.625.625 0 0 0-.886 0l-4.842 4.842a.625.625 0 0 0 0 .887l4.842 4.841a.624.624 0 0 0 .446.185.624.624 0 0 0 .446-.184.625.625 0 0 0 0-.887l-3.771-3.77h21.457c.339 0 .62-.278.62-.626zM35.358 16.021l-4.841-4.837a.625.625 0 0 0-.887 0 .625.625 0 0 0 0 .887l3.771 3.77H11.943a.63.63 0 1 0 0 1.261h21.458l-3.77 3.761a.625.625 0 0 0 0 .886.624.624 0 0 0 .445.185.624.624 0 0 0 .446-.185l4.842-4.841a.63.63 0 0 0-.006-.887z" fill="#fff"/></symbol><symbol id="icon-advantages5" viewBox="0 0 47 47"><circle cx="23.5" cy="23.5" r="23.5" fill="#7633FF"/><path d="M12.5 23.537H8.096l5.588 5.585 5.589-5.585H14.5c.013-4.62 4.34-9.479 8.962-9.493 1.361.026 3.325.838 4.538 1.456l1.469-1.456a12.489 12.489 0 0 0-6.007-1.676c-6.164.017-10.945 5.007-10.962 11.17zm20-.037c-.013 4.62-4.377 9.486-9 9.5-1.36-.026-3.287-.882-4.5-1.5l-1.544 1.53a12.49 12.49 0 0 0 6.006 1.676c6.165-.018 11.158-5.008 11.177-11.169h4.19l-5.588-5.585-5.589 5.585L32.5 23.5z" fill="#fff"/></symbol><symbol id="icon-advantages6" viewBox="0 0 47 47"><circle cx="23.5" cy="23.5" r="23.5" fill="#7633FF"/><path d="M12.415 18.232a.915.915 0 0 0-.014.135v.928a.92.92 0 0 0 .597.86v1.365a.859.859 0 0 0 .818.855v7.89a.859.859 0 0 0-.818.854v1.362a.93.93 0 0 0-.597.867v.908c0 .169.137.306.307.306H33.39c.17 0 .307-.137.307-.306v-.908a.93.93 0 0 0-.597-.867v-1.37a.859.859 0 0 0-.818-.855v-7.881a.859.859 0 0 0 .818-.855v-1.366a.92.92 0 0 0 .597-.858v-.922a.888.888 0 0 0-.014-.136.305.305 0 1 0 .247-.558l-10.74-5.644a.307.307 0 0 0-.286 0l-10.74 5.638a.307.307 0 0 0 .251.558zm1.196 2.454v-.473h3.537v.469l-3.537.004zm7.876 1.69v7.889a.859.859 0 0 0-.818.854v1.305h-2.912v-1.305a.859.859 0 0 0-.817-.854v-7.89a.859.859 0 0 0 .817-.855v-1.306h2.908v1.304c0 .458.36.835.818.857l.004.002zm-.205-1.69v-.473h3.538v.469l-3.538.004zm7.876 1.69v7.889a.859.859 0 0 0-.818.854v1.305H25.43v-1.305a.859.859 0 0 0-.818-.854v-7.89a.859.859 0 0 0 .818-.855v-1.306h2.907v1.304c0 .458.36.835.818.857l.004.002zm-.204-1.69v-.473h3.537v.469l-3.537.004zm3.537 11.27v.468H28.95v-.468h3.54zm-7.671 0v.468h-3.542v-.468h3.542zm-3.03-10.189h-.266a.245.245 0 0 1-.246-.245V21.3h3.537v.223c0 .136-.11.245-.245.245h-2.78zm2.21.614v7.88h-1.904v-7.88H24zm-2.21 8.493h2.78c.136 0 .245.11.245.245v.223h-3.537v-.223c0-.135.11-.245.246-.245h.265zm-4.646 1.082v.468h-3.537v-.468h3.537zm-3.537-10.428V21.3h3.537v.223c0 .136-.11.245-.245.245h-3.053a.245.245 0 0 1-.239-.247v.008zm2.72.859v7.873h-1.902v-7.88l1.901.007zm-2.72 8.738c0-.135.11-.245.245-.245H16.9c.136 0 .245.11.245.245v.223h-3.537v-.223zm19.477 2.235v.601H13.01v-.6c0-.176.142-.318.317-.318h19.44c.172 0 .313.138.316.31v.007zm-.597-2.235v.223h-3.538v-.223c0-.135.11-.245.246-.245h3.052c.131.003.236.108.24.24v.005zm-2.72-.858V22.38h1.904v7.88l-1.904.006zm2.72-8.739c0 .136-.11.246-.246.246h-3.044a.245.245 0 0 1-.245-.246V21.3h3.537l-.002.23zm-9.44-8.88l9.133 4.801H13.914l9.133-4.8zM13.01 18.375c0-.17.138-.307.307-.307h19.46c.17 0 .306.137.306.306v.929c0 .169-.137.306-.306.306h-19.46a.307.307 0 0 1-.307-.306v-.928z" fill="#fff"/></symbol><symbol id="icon-fb" viewBox="0 0 13 23"><path d="M7.919 7.895V5.024c0-.792.643-1.435 1.435-1.435h1.436V0H7.919a4.306 4.306 0 0 0-4.306 4.306v3.589H.742v3.588h2.87v11.484H7.92V11.483h2.87l1.436-3.588H7.919z"/></symbol><symbol id="icon-ig" viewBox="0 0 512 512"><path d="M363.273 0H148.728C66.719 0 0 66.719 0 148.728v214.544C0 445.281 66.719 512 148.728 512h214.544C445.281 512 512 445.281 512 363.273V148.728C512 66.719 445.281 0 363.273 0zM472 363.272C472 423.225 423.225 472 363.273 472H148.728C88.775 472 40 423.225 40 363.273V148.728C40 88.775 88.775 40 148.728 40h214.544C423.225 40 472 88.775 472 148.728v214.544z"/><path d="M256 118c-76.094 0-138 61.906-138 138s61.906 138 138 138 138-61.906 138-138-61.906-138-138-138zm0 236c-54.037 0-98-43.963-98-98s43.963-98 98-98 98 43.963 98 98-43.963 98-98 98z"/><circle cx="396" cy="116" r="20"/></symbol><symbol id="icon-logo" viewBox="0 0 1435 485"><path d="M1195.5 25c-12.1 2.2-22.1 3.9-22.2 3.9-.2.1-.3 86.9-.3 193.1v193h48l.2-63.1.3-63.2 15 11.3c32.6 24.5 60.3 50.1 85.4 78.9 8.1 9.3 21.1 26.5 24.4 32.4l2.1 3.7h28.3c15.9 0 28.3-.4 28.3-.9s-2.8-5.1-6.1-10.2c-25.3-38.5-77.5-93.2-125.3-131.4l-3.8-3 17.9-15.5c52.2-45.3 79.7-71.1 98.7-92.5l8.9-10-28.3-.3-28.3-.2-5.5 6.2c-16.9 19.2-41.5 41.8-108.3 99.6l-3.9 3.4V140.6c0-113.3-.1-119.6-1.7-119.5-1 .1-11.7 1.8-23.8 3.9zM399.5 72.5c-10.4 1.9-20.5 3.7-22.2 4l-3.3.6V151h-56v40h55.9l.4 75.2c.4 83 .6 86.6 6.8 105.3 8.7 26.3 25.2 40.2 55.1 46.7 14 3 50.4 3.3 64.1.5 8.7-1.8 36.1-10.7 37.8-12.4.8-.8-5.3-38.8-6.4-40-.3-.3-3.9.8-7.9 2.5-11.3 4.6-19.5 6.9-30.2 8.2-12.1 1.6-33.7.8-42.1-1.5-13.4-3.6-22.3-13.1-26.4-28.5-3.3-12.1-4.1-29.8-4.1-96.3V191h112v-40H421v-41c0-32.2-.3-41-1.2-40.9-.7 0-9.8 1.6-20.3 3.4zM38 109.5V121h209V98H38v11.5zM131.9 145.1c-32 2-54.9 10.6-70.4 26.4-13.3 13.6-18.5 25.7-19.2 45-.8 20.6 3.4 32.2 16.6 45.8 14.3 14.8 31.2 24 65.3 35.6 27.6 9.4 37.8 13.4 47.7 18.7 19.3 10.3 26.1 18.6 26.1 32.1 0 22-23.2 32.4-69.3 31-25.3-.7-44.3-4.9-70.7-15.6-8-3.3-12.3-4.5-12.5-3.8-.2.7-2.3 10.4-4.6 21.6-4 19.2-4.2 20.4-2.5 21.6 3.2 2.4 29 10.4 41.6 12.9 6.9 1.4 18.8 3 26.5 3.7 16.9 1.4 48.8.6 63-1.6 40.5-6.3 63.9-22 73.1-49 2.2-6.6 2.8-10.3 3.2-20.5.7-20.9-3.3-32.2-16.2-45.8-9.6-10.1-17.9-16.1-33.6-24.1-14.2-7.2-15-7.5-48.5-19.7-45.4-16.4-58.5-25.9-58.5-42 0-14.1 9.7-24 28.3-28.8 27.2-7.1 79.1-2.3 105.8 9.8 1.3.6 2.2-2.4 5.8-20.3 2.4-11.6 4-21.5 3.7-22-.9-1.4-20.4-5.8-36.4-8.1-11.9-1.7-45.1-4.3-50.2-3.8-.8 0-7.2.5-14.1.9zM701.5 145.1c-36.6 3.3-69.9 23-89.1 52.5-15.4 23.5-22.1 46.2-23.1 78.6-2.3 70.4 27.3 118.2 85.1 137.3 17 5.6 27 6.9 53.1 6.9 17 .1 25.9-.4 34-1.7C779 416 807 408.1 807 405.9c0-1.7-6.1-39.4-6.5-39.7-.1-.2-4.1 1-8.7 2.6-16.8 6-37.7 9.2-59.2 9.2-42.5 0-71.3-14.6-85.6-43.6-4.1-8.2-8.2-22.4-9.5-32.7l-.6-5.7h188.4l-.6-22.8c-.9-39.2-7.7-66.1-22-87.2-8-11.7-21.8-23.6-35.4-30.4-17.1-8.5-42.7-12.6-65.8-10.5zm32.1 43.3c15 4.8 28 16.3 35 31.1 4.2 8.9 6.3 17.2 7.2 28.5l.8 9H637.9l.7-3.8c2.2-12.3 8.5-27.3 16-37.8 17.7-25 50.2-36.1 79-27zM1013.5 144.7c-65.8 3.2-111.5 34.4-129 87.9-4.7 14.3-6.7 28.9-6.7 49.4-.1 10.2.5 22.3 1.1 26.9 8.8 60.9 45.9 98.1 109.6 109.7 12.5 2.3 54.5 2.6 69.5.5 21.1-2.9 48-10.1 48-12.9 0-1.3-6.1-38.3-6.4-38.9-.1 0-5.3 1.4-11.7 3.2-15.6 4.5-29 6.4-49.9 7.2-20 .7-32.9-.5-47.2-4.3-32.1-8.5-53-29.3-60.9-60.6-2.7-10.7-3.7-36.8-1.9-48.9 3.3-22.7 14.1-43.3 29.2-55.8 7.8-6.5 23.7-14.4 34.3-17 28.1-7 65.3-5 93.9 4.9 3.3 1.1 6 1.9 6.1 1.8.5-.7 10.5-39.1 10.5-40.3 0-2-18.4-7-37.1-10-8.3-1.3-41.6-3.8-44.4-3.3-.5.1-3.7.3-7 .5zM38 453.5V465h209v-23H38v11.5z"/></symbol><symbol id="icon-tw" viewBox="0 0 23 19"><path d="M22.003 2.598c-.8.351-1.654.584-2.543.697A4.389 4.389 0 0 0 21.4.855a8.82 8.82 0 0 1-2.799 1.069 4.413 4.413 0 0 0-7.636 3.018c0 .35.03.687.103 1.007C7.4 5.77 4.152 4.011 1.971 1.332a4.444 4.444 0 0 0-.604 2.231 4.42 4.42 0 0 0 1.96 3.668 4.36 4.36 0 0 1-1.994-.543v.048a4.434 4.434 0 0 0 3.536 4.337c-.359.099-.75.146-1.157.146-.282 0-.568-.016-.836-.076.572 1.748 2.195 3.034 4.125 3.075a8.87 8.87 0 0 1-5.473 1.883 8.27 8.27 0 0 1-1.056-.06 12.427 12.427 0 0 0 6.771 1.98c8.123 0 12.564-6.728 12.564-12.56 0-.196-.007-.384-.016-.571a8.806 8.806 0 0 0 2.212-2.292z"/></symbol></svg>