<svg version="1.0" xmlns="http://www.w3.org/2000/svg" width="1913" height="647" viewBox="0 0 1435 485"><path d="M1195.5 25c-12.1 2.2-22.1 3.9-22.2 3.9-.2.1-.3 86.9-.3 193.1v193h48l.2-63.1.3-63.2 15 11.3c32.6 24.5 60.3 50.1 85.4 78.9 8.1 9.3 21.1 26.5 24.4 32.4l2.1 3.7h28.3c15.9 0 28.3-.4 28.3-.9s-2.8-5.1-6.1-10.2c-25.3-38.5-77.5-93.2-125.3-131.4l-3.8-3 17.9-15.5c52.2-45.3 79.7-71.1 98.7-92.5l8.9-10-28.3-.3-28.3-.2-5.5 6.2c-16.9 19.2-41.5 41.8-108.3 99.6l-3.9 3.4V140.6c0-113.3-.1-119.6-1.7-119.5-1 .1-11.7 1.8-23.8 3.9zm-796 47.5c-10.4 1.9-20.5 3.7-22.2 4l-3.3.6V151h-56v40h55.9l.4 75.2c.4 83 .6 86.6 6.8 105.3 8.7 26.3 25.2 40.2 55.1 46.7 14 3 50.4 3.3 64.1.5 8.7-1.8 36.1-10.7 37.8-12.4.8-.8-5.3-38.8-6.4-40-.3-.3-3.9.8-7.9 2.5-11.3 4.6-19.5 6.9-30.2 8.2-12.1 1.6-33.7.8-42.1-1.5-13.4-3.6-22.3-13.1-26.4-28.5-3.3-12.1-4.1-29.8-4.1-96.3V191h112v-40H421v-41c0-32.2-.3-41-1.2-40.9-.7 0-9.8 1.6-20.3 3.4zM38 109.5V121h209V98H38v11.5zm93.9 35.6c-32 2-54.9 10.6-70.4 26.4-13.3 13.6-18.5 25.7-19.2 45-.8 20.6 3.4 32.2 16.6 45.8 14.3 14.8 31.2 24 65.3 35.6 27.6 9.4 37.8 13.4 47.7 18.7 19.3 10.3 26.1 18.6 26.1 32.1 0 22-23.2 32.4-69.3 31-25.3-.7-44.3-4.9-70.7-15.6-8-3.3-12.3-4.5-12.5-3.8-.2.7-2.3 10.4-4.6 21.6-4 19.2-4.2 20.4-2.5 21.6 3.2 2.4 29 10.4 41.6 12.9 6.9 1.4 18.8 3 26.5 3.7 16.9 1.4 48.8.6 63-1.6 40.5-6.3 63.9-22 73.1-49 2.2-6.6 2.8-10.3 3.2-20.5.7-20.9-3.3-32.2-16.2-45.8-9.6-10.1-17.9-16.1-33.6-24.1-14.2-7.2-15-7.5-48.5-19.7-45.4-16.4-58.5-25.9-58.5-42 0-14.1 9.7-24 28.3-28.8 27.2-7.1 79.1-2.3 105.8 9.8 1.3.6 2.2-2.4 5.8-20.3 2.4-11.6 4-21.5 3.7-22-.9-1.4-20.4-5.8-36.4-8.1-11.9-1.7-45.1-4.3-50.2-3.8-.8 0-7.2.5-14.1.9zm569.6 0c-36.6 3.3-69.9 23-89.1 52.5-15.4 23.5-22.1 46.2-23.1 78.6-2.3 70.4 27.3 118.2 85.1 137.3 17 5.6 27 6.9 53.1 6.9 17 .1 25.9-.4 34-1.7C779 416 807 408.1 807 405.9c0-1.7-6.1-39.4-6.5-39.7-.1-.2-4.1 1-8.7 2.6-16.8 6-37.7 9.2-59.2 9.2-42.5 0-71.3-14.6-85.6-43.6-4.1-8.2-8.2-22.4-9.5-32.7l-.6-5.7h188.4l-.6-22.8c-.9-39.2-7.7-66.1-22-87.2-8-11.7-21.8-23.6-35.4-30.4-17.1-8.5-42.7-12.6-65.8-10.5zm32.1 43.3c15 4.8 28 16.3 35 31.1 4.2 8.9 6.3 17.2 7.2 28.5l.8 9H637.9l.7-3.8c2.2-12.3 8.5-27.3 16-37.8 17.7-25 50.2-36.1 79-27zm279.9-43.7c-65.8 3.2-111.5 34.4-129 87.9-4.7 14.3-6.7 28.9-6.7 49.4-.1 10.2.5 22.3 1.1 26.9 8.8 60.9 45.9 98.1 109.6 109.7 12.5 2.3 54.5 2.6 69.5.5 21.1-2.9 48-10.1 48-12.9 0-1.3-6.1-38.3-6.4-38.9-.1 0-5.3 1.4-11.7 3.2-15.6 4.5-29 6.4-49.9 7.2-20 .7-32.9-.5-47.2-4.3-32.1-8.5-53-29.3-60.9-60.6-2.7-10.7-3.7-36.8-1.9-48.9 3.3-22.7 14.1-43.3 29.2-55.8 7.8-6.5 23.7-14.4 34.3-17 28.1-7 65.3-5 93.9 4.9 3.3 1.1 6 1.9 6.1 1.8.5-.7 10.5-39.1 10.5-40.3 0-2-18.4-7-37.1-10-8.3-1.3-41.6-3.8-44.4-3.3-.5.1-3.7.3-7 .5zM38 453.5V465h209v-23H38v11.5z"/></svg>