<svg data-name="Layer 1" xmlns="http://www.w3.org/2000/svg" viewBox="0 0 178 30"><path d="M102.11 2.65c6.85-4.34 14.06-3 18.33 2A12.49 12.49 0 0 1 131.18.08c6.9.27 11.28 4.85 11.28 11.73v14.77c0 2.32-.1 2.42-2.35 2.44h-.93c-2.42 0-2.5-.09-2.5-2.48V12.7c0-2.82-.9-5.29-3.72-6.43a7.69 7.69 0 0 0-8.3 1.24 7.09 7.09 0 0 0-2.36 5.78c0 4.61-.06 9.23 0 13.84 0 1.48-.54 1.9-1.93 1.92-3.89 0-3.89.09-3.89-3.7V12.98c0-4.76-2.45-7.34-6.83-7.35s-7.42 3-7.43 7.58-.05 9.11 0 13.66c0 1.57-.5 2.19-2.12 2.18-3.76 0-3.76.06-3.76-3.63V3.61c0-3.08 0-3.07 3.18-3.07 1.42 0 2.94-.21 2.59 2.11zm-67.37 14.4c.81 5.48 5.93 8.41 11.54 6.69a15.15 15.15 0 0 0 4.06-2.08c1.07-.74 1.74-.84 2.62.25 2.25 2.8 2.25 3-.79 5-7.8 5.09-18.5 2.64-22.11-5.18-3.49-7.54-1.11-18.52 8.61-21.16 10.08-2.72 17.82 4.72 17.35 15-.06 1.4-.9 1.51-2 1.51H36.85zm15-5.17a7 7 0 0 0-7-6.51 7.42 7.42 0 0 0-7.78 6.54zm113.51 17.6a14.39 14.39 0 0 1-14.81-14.8 14.93 14.93 0 0 1 29.85 0c.08 8.38-6.45 14.82-15.04 14.8zm-8.9-14.7a8.8 8.8 0 0 0 9 9.16 9 9 0 0 0 9-9.22 9 9 0 0 0-9.09-9.18 8.83 8.83 0 0 0-8.91 9.24zM68.11 2.84A13.58 13.58 0 0 1 80.38.61a10.38 10.38 0 0 1 7.85 10c.14 5.6 0 11.2.07 16.79 0 1.08-.36 1.6-1.47 1.6-5.11 0-4.29.28-4.32-4s.06-8.49 0-12.73c-.1-3.94-2.12-6.13-5.82-6.63a7.25 7.25 0 0 0-8.11 4.91 9 9 0 0 0-.3 2.54c0 4.55-.07 9.1 0 13.65 0 1.68-.54 2.28-2.23 2.26-3.65 0-3.65 0-3.65-3.55V3.91c0-3.37 0-3.33 3.47-3.35 1.38-.04 2.47.15 2.24 2.28zM16.2 5.96c-4.87 0-9.3-.05-13.73 0-1.57 0-2.13-.56-2-2a4.5 4.5 0 0 0 0-1.1C.27 1.07 1.03.48 2.8.51c6 .08 12.07 0 18.1.06 1.07 0 2.83.16 3.07.75a4.19 4.19 0 0 1-.68 4.59c-3.23 3.63-6.36 7.35-9.52 11-1.79 2.08-3.58 4.18-5.64 6.59h13.22c3 0 4.09 1.5 3 4.48a1.75 1.75 0 0 1-1.35.89q-10.8.09-21.6 0a1.94 1.94 0 0 1-1.36-1.29 5 5 0 0 1 1.21-4.4c4.66-5.06 9.11-10.27 13.62-15.53.39-.45.73-.93 1.33-1.69z"/></svg>