<svg xmlns="http://www.w3.org/2000/svg" xmlns:xlink="http://www.w3.org/1999/xlink"><symbol id="icon-cart"><path d="M19.594 2.886c-.406-.498-1.015-.796-1.625-.796H4.773l-.203-.697C4.264.597 3.452 0 2.639 0H0v1.99h2.64l2.436 8.06-.609 2.487c-.203.597 0 1.194.406 1.692.406.497 1.015.796 1.624.796H18.274v-1.99H6.396l.508-1.99h9.644c.914 0 1.726-.597 1.93-1.493l1.42-4.975a1.711 1.711 0 0 0-.304-1.691zm-3.147 6.169H6.802L5.279 4.08h12.589l-1.421 4.975zM6.091 20c1.122 0 2.03-.89 2.03-1.99 0-1.099-.908-1.99-2.03-1.99-1.121 0-2.03.891-2.03 1.99 0 1.1.909 1.99 2.03 1.99zM16.244 20c1.121 0 2.03-.89 2.03-1.99 0-1.099-.909-1.99-2.03-1.99-1.122 0-2.03.891-2.03 1.99 0 1.1.908 1.99 2.03 1.99z"/></symbol><symbol id="icon-search" viewBox="0 0 15 15"><path d="M15 13.906l-3.828-3.828A6.157 6.157 0 0 0 12.5 6.25C12.5 2.812 9.687 0 6.25 0 2.812 0 0 2.813 0 6.25c0 3.438 2.813 6.25 6.25 6.25a6.157 6.157 0 0 0 3.828-1.328L13.906 15 15 13.906zm-8.75-2.969A4.701 4.701 0 0 1 1.562 6.25 4.701 4.701 0 0 1 6.25 1.562a4.701 4.701 0 0 1 4.688 4.688 4.701 4.701 0 0 1-4.688 4.688z" fill="#AFAFAF"/></symbol></svg>