<svg width="40" height="31" viewBox="0 0 40 31" fill="none" xmlns="http://www.w3.org/2000/svg"><mask id="a" maskUnits="userSpaceOnUse" x="0" y="0" width="40" height="31" fill="#000"><path fill="#fff" d="M0 0h40v31H0z"/><path d="M1 12.445c.134.163 3.337 3.987 7.34 4.016h.047c2.007 0 3.848-.968 5.474-2.878 1.677-1.971 3.6-3.056 5.716-3.224 3.08-.245 5.706 1.539 6.448 2.099l-.688.688c-.704.704-.892 1.171-.633 1.667-1.113.253-2.894.856-4.085 2.255-.234.198-2.448 2.093-3.378 3.74-.58.02-2.596.183-3.128 1.49l-.091.224 4.093 1.854.116-.19c.568-.93.816-1.216.888-1.29 1.778-.607 3.861-2.94 4.142-3.262.547-.306 1.2-.361 1.834-.414.27-.023.533-.044.782-.085-.581.666-1.217 1.474-1.738 2.335-.294.261-2.451 2.217-3.105 3.972-.207.088-.642.323-1.462.942l-.17.129 2.084 3.953.223-.117c1.219-.642 1.36-2.401 1.375-2.943 1.654-.915 3.568-3.107 3.77-3.339 1.465-1.217 2.684-2.802 3.306-3.68.254.236.478.395.757.425a.712.712 0 0 0 .085.004c.355 0 .726-.223 1.251-.75l.188-.187c.042.5.128 1.015.285 1.503l-.382 1.306c-.1.137-.362.547-.222.906.093.243.436.64.909.757.079.02.17.033.271.033.237 0 .526-.077.824-.337.758-.662.753-2.025.739-2.375.95-1.506 1.02-3.376 1.023-3.77.346-.615.482-1.303.503-1.972l1.287-1.286c1.044-1.044.863-1.515.258-2.157.042-.037.083-.073.125-.114 1.532-1.518 1.656-3.885.278-5.277-.672-.678-1.588-1.032-2.595-.98-.992.045-1.946.474-2.684 1.205-.051.05-.093.101-.139.152-.645-.61-1.114-.795-2.163.253l-.341.34c-.598-.286-1.017-.392-1.183-.426-.058-.546-.306-2.357-1.147-3.8l.096-1.359c.07-.156.24-.61.026-.933-.143-.218-.563-.532-1.049-.547-.271-.012-.668.077-1.005.529-.6.808-.307 2.14-.219 2.48-.669 1.838-.206 3.881-.184 3.969.17 1.42.836 2.528 1.464 3.286l-.832.833c-.727-.563-3.491-2.498-6.845-2.241-2.255.178-4.297 1.322-6.065 3.4-1.525 1.793-3.238 2.702-5.09 2.702h-.043c-3.77-.029-6.924-3.795-6.955-3.834l-.386.32zM27.71 2.301l-.026.096-.09 1.262-1.2.09c-.09-.41-.242-1.37.167-1.92.168-.225.356-.343.584-.325.31.01.586.233.642.32.059.088-.005.337-.076.477zm4.896 5.566a2.59 2.59 0 0 0-.095.155c-.268.377-.37.758-.35 1.136-.465-.36-.895-.637-1.274-.85l.228-.227c.777-.778.952-.74 1.49-.214zm4.472 4.621c-.996.537-1.921-.048-3.02-1.157-1.1-1.113-1.675-2.047-1.121-3.04.065-.09.139-.179.228-.267.37-.366.769-.548 1.208-.548.147 0 .298.02.454.06.569.147 1.186.556 1.838 1.213 1.39 1.405 1.622 2.585.692 3.508-.092.09-.185.165-.279.231zm1.335-1.452c-.003-.81-.465-1.71-1.388-2.641-.717-.724-1.413-1.177-2.072-1.346a2.328 2.328 0 0 0-.547-.075 3.456 3.456 0 0 1 1.511-.36c.798 0 1.525.293 2.06.835.921.927 1.048 2.37.436 3.587zm-1.093 3.25l-.945.945a8.68 8.68 0 0 0-.416-2.015c.123.025.245.04.368.04.341 0 .685-.103 1.027-.341.061-.035.123-.073.184-.115.522.534.557.71-.218 1.486zm-4.55 8.675l.045-.088.355-1.213 1.191.166c.002.419-.052 1.39-.568 1.839-.212.185-.42.25-.641.195-.302-.075-.523-.351-.56-.447-.037-.098.078-.329.177-.452zm-2.318-2.995l.12-.182c.527-.305 1.261-1.056 1.884-1.76-.03.331-.051.734-.046 1.17l-.513.514c-.43.43-.73.615-.928.6-.15-.015-.314-.146-.517-.342zm-5.725-4.633c.308.776.963 1.306 1.696 1.34l.076.002c.64 0 1.171-.384 1.429-1.041.415-1.06 1.335-1.257 1.726-1.296l2.27 2.293 2.875-2.847-3.185-3.216-2.876 2.846.625.632c-.526.11-1.349.446-1.75 1.465-.212.542-.657.85-1.175.826-.494-.023-1.08-.368-1.38-1.077.42-.086.694-.113.704-.114l.134-.012.065-.12c.52-.965 3.135-2.962 3.162-2.982l-.306-.402c-.021.016-.13.099-.294.229-.56-.466-2.02-1.863-2.274-3.968-.01-.046-.443-1.955.134-3.634l1.309-.097c.887 1.577 1.053 3.655 1.055 3.677l.01.148.328.14c.014.002 1.409.232 3.302 1.871.28.59.777 1.165 1.306 1.698.517.523 1.075 1.015 1.65 1.303.2.516 1.078 3.013.074 4.71l-.036.062.001.072c0 .02.02 1.977-.9 3.495l-1.3-.182c-.457-1.507-.205-3.356-.13-3.82.357-.426.606-.745.635-.782l-.398-.31c-.02.027-2.044 2.621-3.013 3.132l-.06.031-.036.058c-.016.025-1.623 2.544-3.666 4.232l-.03.03c-.021.024-2.117 2.46-3.766 3.306l-.14.074.003.157c0 .02.03 1.78-.893 2.505l-1.64-3.107c.925-.682 1.23-.771 1.244-.775l.13-.035.051-.13c.585-1.744 3.005-3.875 3.029-3.896l.05-.061c.746-1.24 1.747-2.381 2.457-3.12l-.182-.174-.173-.184c-.348.328-.929.376-1.602.432-.67.056-1.428.119-2.082.502l-.064.053c-.022.026-2.249 2.596-3.994 3.162l-.058.027c-.076.047-.313.268-.937 1.271l-3.221-1.46c.549-.798 2.085-.96 2.692-.963l.154.002.072-.136c.864-1.642 3.32-3.714 3.344-3.735l.03-.03c1.059-1.252 2.684-1.825 3.739-2.076zm4.725-1.917l2.159-2.136 2.475 2.5-2.16 2.136-2.474-2.5zm-3.76.087l1.86-1.86c.217.226.413.405.568.537-.803.653-2.07 1.742-2.534 2.476-.085.01-.212.027-.364.054-.207-.257-.248-.489.47-1.207z"/></mask><path d="M1 12.445c.134.163 3.337 3.987 7.34 4.016h.047c2.007 0 3.848-.968 5.474-2.878 1.677-1.971 3.6-3.056 5.716-3.224 3.08-.245 5.706 1.539 6.448 2.099l-.688.688c-.704.704-.892 1.171-.633 1.667-1.113.253-2.894.856-4.085 2.255-.234.198-2.448 2.093-3.378 3.74-.58.02-2.596.183-3.128 1.49l-.091.224 4.093 1.854.116-.19c.568-.93.816-1.216.888-1.29 1.778-.607 3.861-2.94 4.142-3.262.547-.306 1.2-.361 1.834-.414.27-.023.533-.044.782-.085-.581.666-1.217 1.474-1.738 2.335-.294.261-2.451 2.217-3.105 3.972-.207.088-.642.323-1.462.942l-.17.129 2.084 3.953.223-.117c1.219-.642 1.36-2.401 1.375-2.943 1.654-.915 3.568-3.107 3.77-3.339 1.465-1.217 2.684-2.802 3.306-3.68.254.236.478.395.757.425a.712.712 0 0 0 .085.004c.355 0 .726-.223 1.251-.75l.188-.187c.042.5.128 1.015.285 1.503l-.382 1.306c-.1.137-.362.547-.222.906.093.243.436.64.909.757.079.02.17.033.271.033.237 0 .526-.077.824-.337.758-.662.753-2.025.739-2.375.95-1.506 1.02-3.376 1.023-3.77.346-.615.482-1.303.503-1.972l1.287-1.286c1.044-1.044.863-1.515.258-2.157.042-.037.083-.073.125-.114 1.532-1.518 1.656-3.885.278-5.277-.672-.678-1.588-1.032-2.595-.98-.992.045-1.946.474-2.684 1.205-.051.05-.093.101-.139.152-.645-.61-1.114-.795-2.163.253l-.341.34c-.598-.286-1.017-.392-1.183-.426-.058-.546-.306-2.357-1.147-3.8l.096-1.359c.07-.156.24-.61.026-.933-.143-.218-.563-.532-1.049-.547-.271-.012-.668.077-1.005.529-.6.808-.307 2.14-.219 2.48-.669 1.838-.206 3.881-.184 3.969.17 1.42.836 2.528 1.464 3.286l-.832.833c-.727-.563-3.491-2.498-6.845-2.241-2.255.178-4.297 1.322-6.065 3.4-1.525 1.793-3.238 2.702-5.09 2.702h-.043c-3.77-.029-6.924-3.795-6.955-3.834l-.386.32zM27.71 2.301l-.026.096-.09 1.262-1.2.09c-.09-.41-.242-1.37.167-1.92.168-.225.356-.343.584-.325.31.01.586.233.642.32.059.088-.005.337-.076.477zm4.896 5.566a2.59 2.59 0 0 0-.095.155c-.268.377-.37.758-.35 1.136-.465-.36-.895-.637-1.274-.85l.228-.227c.777-.778.952-.74 1.49-.214zm4.472 4.621c-.996.537-1.921-.048-3.02-1.157-1.1-1.113-1.675-2.047-1.121-3.04.065-.09.139-.179.228-.267.37-.366.769-.548 1.208-.548.147 0 .298.02.454.06.569.147 1.186.556 1.838 1.213 1.39 1.405 1.622 2.585.692 3.508-.092.09-.185.165-.279.231zm1.335-1.452c-.003-.81-.465-1.71-1.388-2.641-.717-.724-1.413-1.177-2.072-1.346a2.328 2.328 0 0 0-.547-.075 3.456 3.456 0 0 1 1.511-.36c.798 0 1.525.293 2.06.835.921.927 1.048 2.37.436 3.587zm-1.093 3.25l-.945.945a8.68 8.68 0 0 0-.416-2.015c.123.025.245.04.368.04.341 0 .685-.103 1.027-.341.061-.035.123-.073.184-.115.522.534.557.71-.218 1.486zm-4.55 8.675l.045-.088.355-1.213 1.191.166c.002.419-.052 1.39-.568 1.839-.212.185-.42.25-.641.195-.302-.075-.523-.351-.56-.447-.037-.098.078-.329.177-.452zm-2.318-2.995l.12-.182c.527-.305 1.261-1.056 1.884-1.76-.03.331-.051.734-.046 1.17l-.513.514c-.43.43-.73.615-.928.6-.15-.015-.314-.146-.517-.342zm-5.725-4.633c.308.776.963 1.306 1.696 1.34l.076.002c.64 0 1.171-.384 1.429-1.041.415-1.06 1.335-1.257 1.726-1.296l2.27 2.293 2.875-2.847-3.185-3.216-2.876 2.846.625.632c-.526.11-1.349.446-1.75 1.465-.212.542-.657.85-1.175.826-.494-.023-1.08-.368-1.38-1.077.42-.086.694-.113.704-.114l.134-.012.065-.12c.52-.965 3.135-2.962 3.162-2.982l-.306-.402c-.021.016-.13.099-.294.229-.56-.466-2.02-1.863-2.274-3.968-.01-.046-.443-1.955.134-3.634l1.309-.097c.887 1.577 1.053 3.655 1.055 3.677l.01.148.328.14c.014.002 1.409.232 3.302 1.871.28.59.777 1.165 1.306 1.698.517.523 1.075 1.015 1.65 1.303.2.516 1.078 3.013.074 4.71l-.036.062.001.072c0 .02.02 1.977-.9 3.495l-1.3-.182c-.457-1.507-.205-3.356-.13-3.82.357-.426.606-.745.635-.782l-.398-.31c-.02.027-2.044 2.621-3.013 3.132l-.06.031-.036.058c-.016.025-1.623 2.544-3.666 4.232l-.03.03c-.021.024-2.117 2.46-3.766 3.306l-.14.074.003.157c0 .02.03 1.78-.893 2.505l-1.64-3.107c.925-.682 1.23-.771 1.244-.775l.13-.035.051-.13c.585-1.744 3.005-3.875 3.029-3.896l.05-.061c.746-1.24 1.747-2.381 2.457-3.12l-.182-.174-.173-.184c-.348.328-.929.376-1.602.432-.67.056-1.428.119-2.082.502l-.064.053c-.022.026-2.249 2.596-3.994 3.162l-.058.027c-.076.047-.313.268-.937 1.271l-3.221-1.46c.549-.798 2.085-.96 2.692-.963l.154.002.072-.136c.864-1.642 3.32-3.714 3.344-3.735l.03-.03c1.059-1.252 2.684-1.825 3.739-2.076zm4.725-1.917l2.159-2.136 2.475 2.5-2.16 2.136-2.474-2.5zm-3.76.087l1.86-1.86c.217.226.413.405.568.537-.803.653-2.07 1.742-2.534 2.476-.085.01-.212.027-.364.054-.207-.257-.248-.489.47-1.207z" fill="#fff"/><path d="M1 12.445c.134.163 3.337 3.987 7.34 4.016h.047c2.007 0 3.848-.968 5.474-2.878 1.677-1.971 3.6-3.056 5.716-3.224 3.08-.245 5.706 1.539 6.448 2.099l-.688.688c-.704.704-.892 1.171-.633 1.667-1.113.253-2.894.856-4.085 2.255-.234.198-2.448 2.093-3.378 3.74-.58.02-2.596.183-3.128 1.49l-.091.224 4.093 1.854.116-.19c.568-.93.816-1.216.888-1.29 1.778-.607 3.861-2.94 4.142-3.262.547-.306 1.2-.361 1.834-.414.27-.023.533-.044.782-.085-.581.666-1.217 1.474-1.738 2.335-.294.261-2.451 2.217-3.105 3.972-.207.088-.642.323-1.462.942l-.17.129 2.084 3.953.223-.117c1.219-.642 1.36-2.401 1.375-2.943 1.654-.915 3.568-3.107 3.77-3.339 1.465-1.217 2.684-2.802 3.306-3.68.254.236.478.395.757.425a.712.712 0 0 0 .085.004c.355 0 .726-.223 1.251-.75l.188-.187c.042.5.128 1.015.285 1.503l-.382 1.306c-.1.137-.362.547-.222.906.093.243.436.64.909.757.079.02.17.033.271.033.237 0 .526-.077.824-.337.758-.662.753-2.025.739-2.375.95-1.506 1.02-3.376 1.023-3.77.346-.615.482-1.303.503-1.972l1.287-1.286c1.044-1.044.863-1.515.258-2.157.042-.037.083-.073.125-.114 1.532-1.518 1.656-3.885.278-5.277-.672-.678-1.588-1.032-2.595-.98-.992.045-1.946.474-2.684 1.205-.051.05-.093.101-.139.152-.645-.61-1.114-.795-2.163.253l-.341.34c-.598-.286-1.017-.392-1.183-.426-.058-.546-.306-2.357-1.147-3.8l.096-1.359c.07-.156.24-.61.026-.933-.143-.218-.563-.532-1.049-.547-.271-.012-.668.077-1.005.529-.6.808-.307 2.14-.219 2.48-.669 1.838-.206 3.881-.184 3.969.17 1.42.836 2.528 1.464 3.286l-.832.833c-.727-.563-3.491-2.498-6.845-2.241-2.255.178-4.297 1.322-6.065 3.4-1.525 1.793-3.238 2.702-5.09 2.702h-.043c-3.77-.029-6.924-3.795-6.955-3.834l-.386.32zM27.71 2.301l-.026.096-.09 1.262-1.2.09c-.09-.41-.242-1.37.167-1.92.168-.225.356-.343.584-.325.31.01.586.233.642.32.059.088-.005.337-.076.477zm4.896 5.566a2.59 2.59 0 0 0-.095.155c-.268.377-.37.758-.35 1.136-.465-.36-.895-.637-1.274-.85l.228-.227c.777-.778.952-.74 1.49-.214zm4.472 4.621c-.996.537-1.921-.048-3.02-1.157-1.1-1.113-1.675-2.047-1.121-3.04.065-.09.139-.179.228-.267.37-.366.769-.548 1.208-.548.147 0 .298.02.454.06.569.147 1.186.556 1.838 1.213 1.39 1.405 1.622 2.585.692 3.508-.092.09-.185.165-.279.231zm1.335-1.452c-.003-.81-.465-1.71-1.388-2.641-.717-.724-1.413-1.177-2.072-1.346a2.328 2.328 0 0 0-.547-.075 3.456 3.456 0 0 1 1.511-.36c.798 0 1.525.293 2.06.835.921.927 1.048 2.37.436 3.587zm-1.093 3.25l-.945.945a8.68 8.68 0 0 0-.416-2.015c.123.025.245.04.368.04.341 0 .685-.103 1.027-.341.061-.035.123-.073.184-.115.522.534.557.71-.218 1.486zm-4.55 8.675l.045-.088.355-1.213 1.191.166c.002.419-.052 1.39-.568 1.839-.212.185-.42.25-.641.195-.302-.075-.523-.351-.56-.447-.037-.098.078-.329.177-.452zm-2.318-2.995l.12-.182c.527-.305 1.261-1.056 1.884-1.76-.03.331-.051.734-.046 1.17l-.513.514c-.43.43-.73.615-.928.6-.15-.015-.314-.146-.517-.342zm-5.725-4.633c.308.776.963 1.306 1.696 1.34l.076.002c.64 0 1.171-.384 1.429-1.041.415-1.06 1.335-1.257 1.726-1.296l2.27 2.293 2.875-2.847-3.185-3.216-2.876 2.846.625.632c-.526.11-1.349.446-1.75 1.465-.212.542-.657.85-1.175.826-.494-.023-1.08-.368-1.38-1.077.42-.086.694-.113.704-.114l.134-.012.065-.12c.52-.965 3.135-2.962 3.162-2.982l-.306-.402c-.021.016-.13.099-.294.229-.56-.466-2.02-1.863-2.274-3.968-.01-.046-.443-1.955.134-3.634l1.309-.097c.887 1.577 1.053 3.655 1.055 3.677l.01.148.328.14c.014.002 1.409.232 3.302 1.871.28.59.777 1.165 1.306 1.698.517.523 1.075 1.015 1.65 1.303.2.516 1.078 3.013.074 4.71l-.036.062.001.072c0 .02.02 1.977-.9 3.495l-1.3-.182c-.457-1.507-.205-3.356-.13-3.82.357-.426.606-.745.635-.782l-.398-.31c-.02.027-2.044 2.621-3.013 3.132l-.06.031-.036.058c-.016.025-1.623 2.544-3.666 4.232l-.03.03c-.021.024-2.117 2.46-3.766 3.306l-.14.074.003.157c0 .02.03 1.78-.893 2.505l-1.64-3.107c.925-.682 1.23-.771 1.244-.775l.13-.035.051-.13c.585-1.744 3.005-3.875 3.029-3.896l.05-.061c.746-1.24 1.747-2.381 2.457-3.12l-.182-.174-.173-.184c-.348.328-.929.376-1.602.432-.67.056-1.428.119-2.082.502l-.064.053c-.022.026-2.249 2.596-3.994 3.162l-.058.027c-.076.047-.313.268-.937 1.271l-3.221-1.46c.549-.798 2.085-.96 2.692-.963l.154.002.072-.136c.864-1.642 3.32-3.714 3.344-3.735l.03-.03c1.059-1.252 2.684-1.825 3.739-2.076zm4.725-1.917l2.159-2.136 2.475 2.5-2.16 2.136-2.474-2.5zm-3.76.087l1.86-1.86c.217.226.413.405.568.537-.803.653-2.07 1.742-2.534 2.476-.085.01-.212.027-.364.054-.207-.257-.248-.489.47-1.207z" mask="url(#a)"/></svg>