<svg width="30" height="28" viewBox="0 0 30 28" fill="none" xmlns="http://www.w3.org/2000/svg"><path d="M28.35 1.672C27.25.56 25.925-.018 24.513 0c-1.32.018-2.617.579-3.65 1.581l-.01.01L7.448 15.219c-1.34 1.356-1.341 3.323 0 4.68.65.656 1.48 1.018 2.335 1.018.867 0 1.702-.362 2.355-1.023l9.266-9.465-1.675-1.64-9.261 9.462c-.206.208-.45.323-.685.323-.231 0-.457-.11-.669-.324-.617-.624-.205-1.174.003-1.385l13.387-13.61c1.28-1.235 2.92-1.21 4.18.065 1.496 1.513 1.078 3.288 0 4.377L11.447 23.435c-1.047 1.058-2.372 1.64-3.731 1.64-1.36 0-2.648-.577-3.728-1.669-2.528-2.555-1.822-5.557 0-7.398L15.535 4.46l-1.657-1.657-11.55 11.549-.005.004C.874 15.821.05 17.667.003 19.554c-.052 2.013.75 3.915 2.318 5.5 1.508 1.525 3.423 2.365 5.394 2.365 1.992 0 3.91-.832 5.402-2.34L28.356 9.34c2.194-2.222 2.192-5.446-.006-7.668z" fill="#fff"/></svg>