<svg width="132" height="38" viewBox="0 0 132 38" fill="none" xmlns="http://www.w3.org/2000/svg"><path d="M20.13 8.218c-.095-.096-.273-.226-.534-.391a5.25 5.25 0 0 0-.926-.473 6.922 6.922 0 0 0-1.173-.412 5.166 5.166 0 0 0-1.296-.164c-.782 0-1.365.144-1.75.432-.383.288-.575.692-.575 1.214 0 .301.068.555.205.761.151.192.364.364.638.514a5.28 5.28 0 0 0 1.029.412c.425.123.912.254 1.461.39a20.23 20.23 0 0 1 1.934.618c.59.22 1.084.494 1.482.823.411.33.727.727.946 1.194.22.452.33 1.015.33 1.687 0 .782-.151 1.454-.453 2.017a3.618 3.618 0 0 1-1.194 1.337 5.217 5.217 0 0 1-1.728.761 8.914 8.914 0 0 1-2.037.227c-1.098 0-2.181-.165-3.251-.494-1.07-.33-2.03-.796-2.881-1.4l1.255-2.448c.124.123.343.288.659.494.329.192.713.39 1.152.597.439.192.926.356 1.46.493a6.605 6.605 0 0 0 1.647.206c1.564 0 2.346-.5 2.346-1.502 0-.316-.09-.583-.268-.802-.178-.22-.432-.412-.761-.577a7.29 7.29 0 0 0-1.194-.452c-.466-.137-.987-.288-1.563-.453-.7-.192-1.31-.398-1.832-.617a5.21 5.21 0 0 1-1.275-.803 3.26 3.26 0 0 1-.782-1.07c-.165-.411-.247-.898-.247-1.46 0-.741.137-1.4.411-1.976a4.041 4.041 0 0 1 1.132-1.44 5.143 5.143 0 0 1 1.708-.865 6.798 6.798 0 0 1 2.078-.308c1.029 0 1.975.164 2.84.494.864.315 1.618.692 2.263 1.131l-1.255 2.305zm14.04 9.506V19h-9.815V4.39h9.63v1.276h-8.19v5.268h7.14v1.214h-7.14v5.576h8.375zm4.164-10.658V19h-1.44V4.39h1.11l9.672 12.161V4.411h1.44V19h-1.255L38.334 7.066zm20.38 10.74c.92 0 1.68-.17 2.284-.514a4.155 4.155 0 0 0 1.461-1.379 5.44 5.44 0 0 0 .761-1.954 10.8 10.8 0 0 0 .227-2.202V4.391h1.44v7.366c0 .988-.11 1.927-.33 2.82a6.575 6.575 0 0 1-1.07 2.324 5.15 5.15 0 0 1-1.892 1.605c-.782.398-1.735.597-2.86.597-1.153 0-2.127-.206-2.922-.617a5.44 5.44 0 0 1-1.893-1.667 6.72 6.72 0 0 1-1.029-2.346 11.862 11.862 0 0 1-.309-2.716V4.391h1.42v7.366c0 .768.076 1.516.226 2.243.151.727.405 1.372.762 1.934.37.563.857 1.015 1.46 1.358.604.343 1.359.515 2.264.515zM68.321 19V4.39h6.173c.63 0 1.207.138 1.728.412.535.26.995.61 1.379 1.05.384.425.679.912.885 1.46.22.55.329 1.105.329 1.667 0 .535-.082 1.05-.247 1.544-.15.48-.37.919-.658 1.316-.275.384-.61.714-1.009.988-.397.26-.843.439-1.337.535L79.144 19H77.52l-3.437-5.391h-4.32V19H68.32zm1.44-6.667h4.774c.425 0 .81-.089 1.152-.267a2.85 2.85 0 0 0 .906-.762c.247-.315.439-.672.576-1.07.137-.397.206-.816.206-1.255a3.25 3.25 0 0 0-.247-1.255 3.217 3.217 0 0 0-.638-1.07 2.893 2.893 0 0 0-.947-.72 2.497 2.497 0 0 0-1.131-.268h-4.65v6.667zM86.07 4.391h1.214L93.354 19H91.83l-1.893-4.568h-6.564L81.502 19h-1.543l6.11-14.61zm3.539 8.91l-2.942-7.223-2.984 7.222h5.926zm16.827 1.934c0 .548-.11 1.056-.329 1.522-.22.453-.515.85-.885 1.194-.37.329-.802.59-1.296.782a4.632 4.632 0 0 1-1.585.267h-6.893V4.39h7.037c.508 0 .967.11 1.379.33.411.22.761.507 1.049.864.288.343.508.74.659 1.194.164.439.247.884.247 1.337 0 .74-.185 1.42-.556 2.037a3.457 3.457 0 0 1-1.543 1.358c.837.247 1.495.707 1.975 1.379.494.672.741 1.454.741 2.346zm-1.44-.247c0-.357-.062-.7-.186-1.03a2.489 2.489 0 0 0-.535-.884 2.373 2.373 0 0 0-.802-.617 2.03 2.03 0 0 0-.988-.247h-5.597v5.535h5.453a2.35 2.35 0 0 0 1.029-.227c.329-.15.611-.35.844-.596.247-.26.439-.556.576-.885.137-.343.206-.693.206-1.05zm-8.108-9.342v5.39h5.021c.357 0 .686-.075.988-.225.315-.151.583-.35.802-.597.22-.247.391-.528.515-.844.123-.329.185-.672.185-1.029 0-.37-.062-.72-.185-1.049a2.26 2.26 0 0 0-.494-.844 2.17 2.17 0 0 0-.741-.576 2.006 2.006 0 0 0-.946-.226h-5.145zM109.152 19V4.39h1.441v13.334h8.436V19h-9.877zm21.812-1.276V19h-9.815V4.39h9.629v1.276h-8.189v5.268h7.14v1.214h-7.14v5.576h8.375zM13.323 28.98h.633l.96 2.42.97-2.42h.644l-1.19 2.91 1.305 3.082 2.468-6.04h.73l-2.89 6.817h-.596l-1.43-3.37-1.441 3.37H12.9l-2.88-6.817h.72l2.477 6.04 1.296-3.083-1.19-2.91zm8.886 6.865c-.365 0-.7-.067-1.008-.201-.3-.141-.563-.33-.787-.567a2.763 2.763 0 0 1-.529-.835 2.765 2.765 0 0 1-.182-1.008c0-.352.06-.682.182-.99a2.62 2.62 0 0 1 .519-.816c.224-.236.49-.422.797-.557.307-.14.64-.21.999-.21.364 0 .697.07.998.21.308.135.57.32.788.557a2.621 2.621 0 0 1 .691 1.796v.154a.386.386 0 0 1-.01.105h-4.282c.019.27.08.519.182.75.109.223.247.419.413.585.166.166.355.298.567.394a1.798 1.798 0 0 0 1.171.067 1.94 1.94 0 0 0 .442-.183 1.72 1.72 0 0 0 .365-.278c.109-.115.192-.24.25-.374l.566.153a1.723 1.723 0 0 1-.327.509 2.46 2.46 0 0 1-.49.394c-.185.109-.39.192-.614.25a2.54 2.54 0 0 1-.7.095zm1.844-2.861a1.924 1.924 0 0 0-.192-.73 1.866 1.866 0 0 0-.97-.95 1.728 1.728 0 0 0-.682-.135 1.825 1.825 0 0 0-1.267.509c-.16.16-.292.352-.394.576a2.26 2.26 0 0 0-.173.73h3.678zm4.08 2.861c-.397 0-.762-.099-1.095-.297a2.206 2.206 0 0 1-.768-.768v.97h-.586v-7.01h.653v3.053c.224-.34.493-.611.807-.816a1.914 1.914 0 0 1 1.095-.317c.352 0 .665.074.94.221.282.147.52.346.711.595.199.244.35.522.452.836a2.828 2.828 0 0 1-.02 1.949 2.687 2.687 0 0 1-.499.826c-.211.23-.464.416-.759.557a2.176 2.176 0 0 1-.931.201zm-.154-.576c.276 0 .525-.054.75-.163a1.87 1.87 0 0 0 .585-.451 2.12 2.12 0 0 0 .384-.644c.096-.243.144-.493.144-.749 0-.262-.045-.515-.134-.758a1.931 1.931 0 0 0-.365-.644 1.626 1.626 0 0 0-.567-.45 1.516 1.516 0 0 0-.72-.174c-.198 0-.384.035-.557.106a1.772 1.772 0 0 0-.48.269c-.147.115-.278.25-.393.403a2.372 2.372 0 0 0-.289.47v1.556c.026.173.093.336.202.49a1.933 1.933 0 0 0 .913.644c.185.063.361.095.527.095zm10.199-5.06a2.075 2.075 0 0 0-.768-.528 2.806 2.806 0 0 0-1.095-.202c-.602 0-1.04.115-1.316.346-.275.224-.413.531-.413.922 0 .204.036.374.106.509.077.128.192.24.346.336.153.096.349.179.586.25.243.07.528.14.854.21.365.077.691.164.98.26.294.096.544.217.749.365.204.14.361.313.47.518.109.205.163.461.163.768 0 .314-.06.586-.182.817-.122.23-.291.422-.509.576a2.339 2.339 0 0 1-.778.345c-.3.07-.63.106-.989.106-1.056 0-1.968-.33-2.736-.989l.335-.547c.122.128.266.25.433.364.172.116.361.218.566.308.211.083.436.15.672.201.237.045.487.068.75.068.544 0 .966-.096 1.267-.288.307-.199.46-.496.46-.893a.965.965 0 0 0-.134-.529 1.03 1.03 0 0 0-.384-.374 2.624 2.624 0 0 0-.643-.279 13.597 13.597 0 0 0-.893-.23c-.359-.083-.672-.17-.941-.26a2.512 2.512 0 0 1-.682-.335 1.367 1.367 0 0 1-.422-.48 1.649 1.649 0 0 1-.135-.701c0-.314.058-.593.173-.836.122-.25.291-.454.509-.614.218-.167.474-.292.768-.375.295-.09.621-.134.98-.134.454 0 .857.07 1.21.211.358.134.681.326.97.576l-.327.538zm3.874 5.636a2.5 2.5 0 0 1-1.009-.201c-.3-.141-.563-.33-.787-.567a2.762 2.762 0 0 1-.528-.835 2.765 2.765 0 0 1-.183-1.008c0-.352.061-.682.183-.99.128-.313.3-.585.518-.816a2.42 2.42 0 0 1 .797-.557c.308-.14.64-.21.999-.21.365 0 .698.07.999.21.307.135.57.32.787.557a2.636 2.636 0 0 1 .691 1.796v.154a.386.386 0 0 1-.01.105h-4.282c.02.27.08.519.183.75.108.223.246.419.413.585.166.166.355.298.566.394a1.798 1.798 0 0 0 1.171.067c.16-.045.308-.106.442-.183a1.71 1.71 0 0 0 .365-.278c.109-.115.192-.24.25-.374l.566.153a1.723 1.723 0 0 1-.326.509 2.49 2.49 0 0 1-.49.394c-.185.109-.39.192-.614.25a2.54 2.54 0 0 1-.701.095zm1.843-2.861a1.922 1.922 0 0 0-.192-.73 1.866 1.866 0 0 0-.97-.95 1.727 1.727 0 0 0-.681-.135 1.825 1.825 0 0 0-1.267.509 1.95 1.95 0 0 0-.395.576 2.255 2.255 0 0 0-.172.73h3.677zm4.128-1.661a2.054 2.054 0 0 0-1.152.365 1.84 1.84 0 0 0-.691.95v3.111h-.653v-5.002h.614v1.2c.186-.384.436-.685.75-.903.313-.217.65-.326 1.008-.326.05 0 .092.003.124.01v.595zm2.368 4.426l-2.035-5.002h.672l1.718 4.397 1.729-4.397h.634l-2.036 5.002h-.682zm3.622 0v-5.002h.653v5.002h-.653zm0-6.05v-.96h.653v.96h-.653zm1.746 3.535c0-.352.06-.685.182-1a2.418 2.418 0 0 1 1.306-1.373 2.513 2.513 0 0 1 1.018-.2c.474 0 .887.108 1.239.326.352.21.617.499.797.864l-.634.202a1.48 1.48 0 0 0-.596-.596 1.614 1.614 0 0 0-.835-.22c-.256 0-.496.05-.72.153-.218.102-.41.243-.576.422-.16.173-.288.381-.384.625a2.28 2.28 0 0 0-.135.797c0 .281.048.547.144.797.096.25.228.467.394.653.166.179.358.323.576.432a1.688 1.688 0 0 0 1.181.086c.16-.045.307-.106.442-.182a1.71 1.71 0 0 0 .346-.279.888.888 0 0 0 .201-.326l.644.192a1.7 1.7 0 0 1-.308.499 2.255 2.255 0 0 1-.48.394c-.179.109-.38.192-.605.25a2.404 2.404 0 0 1-.681.095 2.5 2.5 0 0 1-1.009-.201 2.544 2.544 0 0 1-.797-.567 2.76 2.76 0 0 1-.528-.835 2.763 2.763 0 0 1-.182-1.008zm7.73 2.611c-.366 0-.702-.067-1.01-.201a2.57 2.57 0 0 1-.786-.567 2.763 2.763 0 0 1-.529-.835 2.765 2.765 0 0 1-.182-1.008c0-.352.06-.682.182-.99a2.62 2.62 0 0 1 .519-.816c.224-.236.49-.422.797-.557.307-.14.64-.21.998-.21.365 0 .698.07 1 .21.306.135.569.32.787.557a2.621 2.621 0 0 1 .69 1.796v.154a.386.386 0 0 1-.009.105h-4.282c.019.27.08.519.182.75.109.223.247.419.413.585.166.166.355.298.566.394a1.798 1.798 0 0 0 1.172.067 1.94 1.94 0 0 0 .442-.183 1.72 1.72 0 0 0 .365-.278c.108-.115.192-.24.25-.374l.566.153a1.723 1.723 0 0 1-.327.509 2.46 2.46 0 0 1-.49.394c-.185.109-.39.192-.614.25a2.54 2.54 0 0 1-.7.095zm1.843-2.861a1.924 1.924 0 0 0-.192-.73 1.866 1.866 0 0 0-.97-.95 1.728 1.728 0 0 0-.682-.135 1.825 1.825 0 0 0-1.268.509c-.16.16-.29.352-.393.576a2.26 2.26 0 0 0-.173.73h3.678zm3.293 2.861a3.48 3.48 0 0 1-1.143-.192 2.747 2.747 0 0 1-.96-.557l.297-.441c.282.23.567.403.855.518.294.115.608.173.94.173.404 0 .724-.08.961-.24a.801.801 0 0 0 .365-.7.58.58 0 0 0-.096-.347.799.799 0 0 0-.288-.25 1.953 1.953 0 0 0-.47-.182 9.244 9.244 0 0 0-.653-.173 9.64 9.64 0 0 1-.75-.21 2.403 2.403 0 0 1-.528-.24.93.93 0 0 1-.307-.327 1.157 1.157 0 0 1-.096-.5c0-.25.048-.47.144-.662.103-.192.237-.35.403-.47.173-.129.372-.225.596-.289.23-.064.474-.096.73-.096.384 0 .733.064 1.046.192.314.122.567.285.759.49l-.317.384a1.751 1.751 0 0 0-.682-.432 2.385 2.385 0 0 0-.826-.144 1.9 1.9 0 0 0-.48.058 1.138 1.138 0 0 0-.394.163.834.834 0 0 0-.259.297.837.837 0 0 0-.096.413.7.7 0 0 0 .067.327.607.607 0 0 0 .221.22c.103.058.23.113.384.164.16.045.352.093.576.144.32.077.602.154.846.23.243.077.445.167.605.27.166.102.29.227.374.374.083.147.125.326.125.537 0 .461-.176.826-.528 1.095-.352.269-.826.403-1.422.403zm5.705-.096v-4.484h-.691v-.518h.691v-.135c0-.614.131-1.095.394-1.44.262-.352.62-.528 1.075-.528.199 0 .39.028.576.086.186.058.346.134.48.23l-.201.471a.968.968 0 0 0-.336-.163 1.363 1.363 0 0 0-.394-.058c-.307 0-.54.119-.7.355-.16.237-.24.58-.24 1.028v.154h1.382v.518h-1.383v4.484h-.653zm4.808.096a2.43 2.43 0 0 1-.999-.201c-.3-.141-.563-.33-.787-.567a2.592 2.592 0 0 1-.509-.826 2.712 2.712 0 0 1-.182-.989c0-.352.06-.685.182-.998.128-.314.301-.59.519-.826.224-.237.486-.426.787-.567.301-.14.63-.21.99-.21.358 0 .687.07.988.21.308.141.57.33.788.567.224.237.396.512.518.826.128.313.192.646.192.998 0 .346-.06.676-.182.99a2.507 2.507 0 0 1-.519.825c-.218.237-.48.426-.787.567a2.43 2.43 0 0 1-.999.201zm-1.815-2.573a2.126 2.126 0 0 0 .528 1.421c.167.18.359.32.577.423.224.102.46.153.71.153.25 0 .483-.05.701-.153a1.96 1.96 0 0 0 .586-.432 2.123 2.123 0 0 0 .538-1.431 2.1 2.1 0 0 0-.144-.778 1.978 1.978 0 0 0-.394-.643 1.765 1.765 0 0 0-.586-.433 1.546 1.546 0 0 0-.7-.163c-.25 0-.484.055-.702.163-.218.103-.41.247-.576.433a2.095 2.095 0 0 0-.394.653 2.125 2.125 0 0 0-.144.787zm7.89-1.95a2.054 2.054 0 0 0-1.151.366 1.84 1.84 0 0 0-.692.95v3.111h-.653v-5.002h.615v1.2c.185-.384.435-.685.749-.903.313-.217.65-.326 1.008-.326.051 0 .093.003.125.01v.595zm8.346 2.67c0 .256-.051.493-.154.71-.102.212-.24.398-.413.558a1.985 1.985 0 0 1-.605.365c-.23.083-.477.124-.74.124h-3.216v-6.817h3.284c.237 0 .451.05.644.153.192.103.355.237.49.404.134.16.236.345.306.557a1.814 1.814 0 0 1-.144 1.575 1.614 1.614 0 0 1-.72.633c.39.115.698.33.922.644a1.8 1.8 0 0 1 .346 1.094zm-.672-.115c0-.166-.03-.327-.087-.48a1.17 1.17 0 0 0-.25-.413 1.11 1.11 0 0 0-.374-.288.948.948 0 0 0-.46-.115h-2.613v2.583h2.545a1.247 1.247 0 0 0 .874-.384 1.308 1.308 0 0 0 .365-.903zm-3.784-4.36v2.516h2.343c.167 0 .32-.035.461-.105a1.17 1.17 0 0 0 .375-.279 1.3 1.3 0 0 0 .326-.874c0-.172-.029-.336-.086-.49a1.05 1.05 0 0 0-.23-.393 1.01 1.01 0 0 0-.346-.269.938.938 0 0 0-.442-.106h-2.4zm7.154 6.328c-.544 0-.95-.179-1.22-.537-.262-.365-.393-.906-.393-1.623v-2.938h.653v2.823c0 1.133.387 1.7 1.162 1.7a1.724 1.724 0 0 0 1.075-.375c.16-.122.301-.266.423-.432.128-.167.23-.356.307-.567v-3.15h.653v4.158c0 .18.077.27.23.27v.575a1.18 1.18 0 0 1-.192.02h-.096a.521.521 0 0 1-.374-.164.58.58 0 0 1-.144-.412v-.577a2.369 2.369 0 0 1-2.084 1.23zm5.798 0a3.48 3.48 0 0 1-1.143-.192 2.754 2.754 0 0 1-.96-.557l.297-.441c.282.23.567.403.855.518.294.115.608.173.941.173.403 0 .723-.08.96-.24a.8.8 0 0 0 .365-.7.58.58 0 0 0-.096-.347.799.799 0 0 0-.288-.25 1.954 1.954 0 0 0-.47-.182 9.392 9.392 0 0 0-.653-.173 9.615 9.615 0 0 1-.749-.21 2.398 2.398 0 0 1-.529-.24.94.94 0 0 1-.307-.327 1.157 1.157 0 0 1-.096-.5c0-.25.048-.47.144-.662.103-.192.237-.35.404-.47a1.81 1.81 0 0 1 .595-.289c.23-.064.474-.096.73-.096.384 0 .733.064 1.046.192.314.122.567.285.759.49l-.317.384a1.754 1.754 0 0 0-.682-.432 2.38 2.38 0 0 0-.826-.144c-.172 0-.332.02-.48.058a1.135 1.135 0 0 0-.393.163.838.838 0 0 0-.356.71c0 .135.023.244.068.327a.6.6 0 0 0 .22.22c.103.058.231.113.384.164.161.045.353.093.577.144.32.077.601.154.845.23.243.077.445.167.605.27.166.102.291.227.374.374.083.147.125.326.125.537 0 .461-.176.826-.528 1.095-.352.269-.826.403-1.421.403zm3.018-.096v-5.002h.653v5.002h-.653zm0-6.05v-.96h.653v.96h-.653zm6.297 6.05h-.653v-2.794c0-.595-.09-1.027-.269-1.296-.173-.27-.442-.403-.807-.403-.192 0-.384.035-.576.105-.192.07-.371.17-.538.298a2.29 2.29 0 0 0-.432.46 1.72 1.72 0 0 0-.278.567v3.063h-.653v-5.002h.595v1.133a2.434 2.434 0 0 1 2.122-1.22c.276 0 .509.051.701.154.192.102.346.246.461.432.115.186.199.413.25.682.051.268.077.566.077.893v2.928zm3.553.096a2.5 2.5 0 0 1-1.009-.201c-.3-.141-.563-.33-.787-.567a2.762 2.762 0 0 1-.528-.835 2.757 2.757 0 0 1-.183-1.008c0-.352.061-.682.183-.99.128-.313.301-.585.518-.816.224-.236.49-.422.797-.557.308-.14.641-.21.999-.21.365 0 .698.07.999.21.307.135.569.32.787.557a2.621 2.621 0 0 1 .691 1.796v.154a.411.411 0 0 1-.009.105h-4.283a2.2 2.2 0 0 0 .183.75c.108.223.246.419.413.585.166.166.355.298.566.394a1.799 1.799 0 0 0 1.172.067 1.93 1.93 0 0 0 .441-.183 1.71 1.71 0 0 0 .365-.278c.109-.115.192-.24.25-.374l.566.153a1.703 1.703 0 0 1-.326.509 2.484 2.484 0 0 1-.49.394c-.185.109-.39.192-.614.25a2.541 2.541 0 0 1-.701.095zm1.843-2.861a1.914 1.914 0 0 0-.192-.73 1.865 1.865 0 0 0-.403-.576 1.712 1.712 0 0 0-.567-.375 1.724 1.724 0 0 0-.681-.134 1.8 1.8 0 0 0-.692.134c-.217.09-.409.215-.576.375-.16.16-.291.352-.394.576a2.252 2.252 0 0 0-.172.73h3.677zm3.293 2.861a3.49 3.49 0 0 1-1.143-.192 2.75 2.75 0 0 1-.96-.557l.298-.441c.281.23.566.403.854.518.295.115.609.173.941.173.404 0 .724-.08.961-.24a.802.802 0 0 0 .365-.7.58.58 0 0 0-.096-.347.794.794 0 0 0-.289-.25 1.937 1.937 0 0 0-.47-.182 9.244 9.244 0 0 0-.653-.173 9.615 9.615 0 0 1-.749-.21 2.41 2.41 0 0 1-.528-.24.921.921 0 0 1-.307-.327 1.157 1.157 0 0 1-.096-.5c0-.25.048-.47.144-.662.102-.192.236-.35.403-.47a1.82 1.82 0 0 1 .595-.289 2.72 2.72 0 0 1 .73-.096c.384 0 .733.064 1.047.192.313.122.566.285.758.49l-.317.384a1.743 1.743 0 0 0-.681-.432 2.389 2.389 0 0 0-.826-.144c-.173 0-.333.02-.48.058a1.14 1.14 0 0 0-.394.163.838.838 0 0 0-.355.71c0 .135.022.244.067.327a.604.604 0 0 0 .221.22c.102.058.23.113.384.164.16.045.352.093.576.144.32.077.602.154.845.23.243.077.445.167.605.27.166.102.291.227.375.374.083.147.124.326.124.537 0 .461-.176.826-.528 1.095-.352.269-.826.403-1.421.403zm4.679 0a3.48 3.48 0 0 1-1.142-.192 2.745 2.745 0 0 1-.961-.557l.298-.441c.282.23.567.403.855.518.294.115.608.173.941.173.403 0 .723-.08.96-.24a.802.802 0 0 0 .365-.7.58.58 0 0 0-.096-.347.799.799 0 0 0-.288-.25 1.963 1.963 0 0 0-.471-.182 9.1 9.1 0 0 0-.653-.173 9.742 9.742 0 0 1-.749-.21 2.41 2.41 0 0 1-.528-.24.93.93 0 0 1-.307-.327 1.157 1.157 0 0 1-.096-.5c0-.25.048-.47.144-.662.102-.192.237-.35.403-.47.173-.129.372-.225.596-.289.23-.064.473-.096.729-.096.384 0 .733.064 1.047.192.314.122.567.285.759.49l-.317.384a1.754 1.754 0 0 0-.682-.432 2.389 2.389 0 0 0-.826-.144c-.173 0-.333.02-.48.058a1.148 1.148 0 0 0-.394.163.838.838 0 0 0-.355.71c0 .135.022.244.067.327a.612.612 0 0 0 .221.22c.103.058.231.113.384.164.16.045.352.093.576.144.32.077.602.154.845.23.244.077.445.167.605.27.167.102.292.227.375.374.083.147.125.326.125.537 0 .461-.176.826-.529 1.095-.352.269-.825.403-1.421.403z" fill="#fff"/><path d="M3.388 10.974a2.4 2.4 0 1 0 0-4.801 2.4 2.4 0 0 0 0 4.801z" fill="#333"/><path d="M3.388 10.631a2.058 2.058 0 1 0 0-4.115 2.058 2.058 0 0 0 0 4.115z" stroke="#fff"/><path d="M3.388 19.89a2.4 2.4 0 1 0 0-4.8 2.4 2.4 0 0 0 0 4.8z" fill="#333"/><path d="M3.388 19.548a2.058 2.058 0 1 0 0-4.116 2.058 2.058 0 0 0 0 4.116z" stroke="#fff"/></svg>