<svg width="164" height="43" viewBox="0 0 164 43" fill="none" xmlns="http://www.w3.org/2000/svg"><path d="M22.34 10.43c-.122-.12-.346-.284-.674-.492a6.652 6.652 0 0 0-1.166-.595 8.714 8.714 0 0 0-1.476-.518 6.503 6.503 0 0 0-1.631-.207c-.984 0-1.718.181-2.201.544-.484.362-.725.871-.725 1.527 0 .38.086.7.259.959.19.241.457.457.802.647.346.19.777.363 1.295.518.535.155 1.148.32 1.839.492.898.242 1.709.5 2.434.777.742.276 1.364.621 1.865 1.036.518.414.915.915 1.19 1.502.277.57.415 1.277.415 2.123 0 .984-.19 1.83-.57 2.538a4.552 4.552 0 0 1-1.502 1.683c-.621.432-1.346.751-2.175.958a11.22 11.22 0 0 1-2.563.285c-1.382 0-2.745-.207-4.092-.621a12.631 12.631 0 0 1-3.625-1.761l1.58-3.082c.155.155.43.363.828.622.414.241.898.492 1.45.75.552.242 1.165.45 1.839.622a8.31 8.31 0 0 0 2.071.26c1.968 0 2.952-.631 2.952-1.891 0-.397-.112-.734-.336-1.01-.225-.276-.544-.518-.958-.725a9.173 9.173 0 0 0-1.502-.57c-.587-.173-1.243-.363-1.969-.57-.88-.242-1.648-.5-2.304-.777-.639-.293-1.174-.63-1.606-1.01a4.102 4.102 0 0 1-.984-1.346c-.207-.518-.31-1.131-.31-1.839 0-.932.172-1.76.517-2.486.346-.725.82-1.33 1.425-1.813a6.473 6.473 0 0 1 2.149-1.087 8.556 8.556 0 0 1 2.616-.389c1.294 0 2.486.208 3.573.622 1.088.397 2.037.872 2.849 1.424l-1.58 2.9zm17.693 10.437V24H27.267V5.614H39.8v3.133h-8.96v4.428h7.743v2.9H30.84v4.792h9.193zm6.36-8.65V24h-3.574V5.614h2.771l9.582 12.067V5.64h3.573V24h-2.9l-9.452-11.783zm23.946 8.753c.846 0 1.554-.172 2.123-.518a4.023 4.023 0 0 0 1.399-1.346 5.232 5.232 0 0 0 .75-1.89 10.57 10.57 0 0 0 .234-2.228V5.614h3.548v9.374c0 1.26-.156 2.443-.466 3.548-.294 1.105-.769 2.072-1.425 2.9-.639.829-1.467 1.485-2.486 1.968-1.018.484-2.236.726-3.651.726-1.468 0-2.72-.25-3.755-.752-1.019-.517-1.847-1.19-2.486-2.02-.639-.845-1.105-1.82-1.398-2.926a14.15 14.15 0 0 1-.415-3.444V5.614h3.574v9.374c0 .777.069 1.528.207 2.253.155.708.406 1.338.751 1.89a4.342 4.342 0 0 0 1.398 1.347c.57.328 1.27.492 2.098.492zM81.992 24V5.614h8.132a5.03 5.03 0 0 1 2.33.544 5.761 5.761 0 0 1 1.865 1.398 6.39 6.39 0 0 1 1.217 1.968c.293.725.44 1.459.44 2.201a6.115 6.115 0 0 1-.906 3.263 5.077 5.077 0 0 1-2.409 2.098L96.856 24h-4.013l-3.755-6.163h-3.522V24h-3.574zm3.574-9.297h4.48c.328 0 .63-.077.906-.233a2.36 2.36 0 0 0 .751-.621 3.35 3.35 0 0 0 .492-.958c.121-.363.181-.751.181-1.166 0-.431-.069-.828-.207-1.19a2.819 2.819 0 0 0-.57-.933 2.15 2.15 0 0 0-.802-.622 1.915 1.915 0 0 0-.907-.233h-4.324v5.956zm18.601-9.09h3.159L114.318 24h-3.677l-1.709-4.584h-6.423L100.826 24h-3.677l7.018-18.386zm4.117 11.291l-2.538-7.224-2.641 7.224h5.179zm22.863 2.357c0 .777-.155 1.459-.466 2.046a4.242 4.242 0 0 1-1.295 1.476 5.82 5.82 0 0 1-1.89.906 8.08 8.08 0 0 1-2.279.311h-8.882V5.614h9.84a3.63 3.63 0 0 1 1.735.414 4.25 4.25 0 0 1 1.321 1.088c.362.431.639.932.829 1.502.207.552.31 1.113.31 1.683 0 .898-.224 1.744-.673 2.538-.449.777-1.105 1.355-1.968 1.735 1.053.31 1.882.872 2.486 1.683.622.794.932 1.795.932 3.004zm-3.599-.673c0-.328-.061-.639-.182-.933a2.391 2.391 0 0 0-.44-.802 1.959 1.959 0 0 0-.673-.518 1.789 1.789 0 0 0-.855-.207h-5.49v4.842h5.309c.328 0 .63-.06.906-.181.294-.121.544-.285.751-.492.208-.225.372-.483.492-.777a2.42 2.42 0 0 0 .182-.932zm-7.64-9.918v4.635h4.765c.604 0 1.114-.207 1.528-.622.432-.414.648-.984.648-1.709 0-.707-.199-1.269-.596-1.683a1.853 1.853 0 0 0-1.424-.621h-4.921zM133.936 24V5.614h3.574v15.253h9.374V24h-12.948zm27.89-3.133V24h-12.767V5.614h12.533v3.133h-8.96v4.428h7.743v2.9h-7.743v4.792h9.194zM13.632 32.39h.772l1.17 2.947 1.18-2.948h.784l-1.45 3.544 1.59 3.754 3.006-7.356h.89l-3.521 8.303h-.725l-1.743-4.105-1.754 4.105h-.713l-3.509-8.303h.877l3.018 7.356 1.578-3.754-1.45-3.544zm10.823 8.361a3.03 3.03 0 0 1-1.228-.245 3.137 3.137 0 0 1-.959-.69 3.366 3.366 0 0 1-.643-1.018 3.368 3.368 0 0 1-.222-1.228c0-.429.074-.83.222-1.204.156-.382.366-.714.632-.995.272-.288.596-.514.97-.678.375-.171.78-.257 1.216-.257.445 0 .85.086 1.217.257.374.164.694.39.959.678a3.21 3.21 0 0 1 .842 2.187v.188a.47.47 0 0 1-.012.128h-5.216c.024.328.098.632.222.912.133.273.3.511.503.714.203.203.433.362.69.48a2.19 2.19 0 0 0 1.427.081c.195-.054.374-.128.538-.222.164-.093.312-.207.444-.34.133-.14.234-.291.305-.455l.69.187a2.103 2.103 0 0 1-.398.62c-.172.179-.37.339-.597.48a2.899 2.899 0 0 1-.748.303 3.095 3.095 0 0 1-.854.117zm2.246-3.485a2.341 2.341 0 0 0-.234-.889 2.273 2.273 0 0 0-.491-.701 2.09 2.09 0 0 0-.69-.457 2.105 2.105 0 0 0-.83-.163 2.225 2.225 0 0 0-1.544.62 2.38 2.38 0 0 0-.48.701c-.117.273-.187.57-.21.89H26.7zm4.969 3.485c-.483 0-.928-.12-1.333-.362a2.688 2.688 0 0 1-.936-.936v1.181h-.713v-8.537h.795v3.719c.273-.413.6-.745.982-.994a2.33 2.33 0 0 1 1.334-.386c.428 0 .81.09 1.146.269.343.18.631.42.865.725.242.296.425.635.55 1.017.132.375.199.76.199 1.158a3.336 3.336 0 0 1-.83 2.222 3 3 0 0 1-.925.679c-.35.163-.729.245-1.134.245zm-.187-.701c.335 0 .64-.067.912-.2.28-.14.519-.323.713-.549.203-.234.36-.495.468-.784.117-.296.176-.6.176-.912 0-.32-.055-.627-.164-.924a2.354 2.354 0 0 0-.444-.783 1.98 1.98 0 0 0-.69-.55 1.846 1.846 0 0 0-.878-.21 1.78 1.78 0 0 0-.678.128c-.21.078-.405.187-.585.328-.179.14-.339.304-.48.49a2.9 2.9 0 0 0-.35.574v1.895c.031.21.113.409.246.596.14.18.304.335.49.468.196.132.402.238.62.316.227.078.441.117.644.117zm12.42-6.164a2.527 2.527 0 0 0-.935-.643 3.415 3.415 0 0 0-1.333-.245c-.733 0-1.267.14-1.602.42-.336.273-.503.648-.503 1.123 0 .25.043.456.128.62.094.156.234.292.422.41.187.116.424.218.713.303.296.086.643.172 1.04.258.445.093.843.199 1.194.316.358.116.662.265.912.444.25.171.44.382.573.631.133.25.199.562.199.936a2.1 2.1 0 0 1-.222.994 1.98 1.98 0 0 1-.62.702 2.85 2.85 0 0 1-.948.42 5.283 5.283 0 0 1-1.204.13c-1.287 0-2.398-.402-3.333-1.205l.41-.667c.147.156.323.304.525.445.21.14.44.265.69.374.258.101.53.183.819.245a4.9 4.9 0 0 0 .912.082c.663 0 1.177-.117 1.544-.35.374-.242.561-.605.561-1.088 0-.257-.054-.472-.163-.643a1.254 1.254 0 0 0-.468-.457 3.198 3.198 0 0 0-.784-.339 16.546 16.546 0 0 0-1.087-.28 12.851 12.851 0 0 1-1.147-.316 3.055 3.055 0 0 1-.83-.41 1.663 1.663 0 0 1-.514-.584c-.11-.234-.164-.519-.164-.854 0-.382.07-.721.21-1.017.148-.304.355-.554.62-.749.265-.203.577-.355.936-.456.358-.11.756-.164 1.193-.164.553 0 1.044.086 1.473.258.437.163.83.397 1.181.701l-.397.655zm4.719 6.865a3.03 3.03 0 0 1-1.228-.245 3.138 3.138 0 0 1-.96-.69 3.364 3.364 0 0 1-.642-1.018 3.368 3.368 0 0 1-.223-1.228c0-.429.075-.83.223-1.204.155-.382.366-.714.631-.995.273-.288.597-.514.97-.678.375-.171.78-.257 1.217-.257.444 0 .85.086 1.216.257.375.164.694.39.96.678a3.212 3.212 0 0 1 .842 2.187v.188a.47.47 0 0 1-.012.128H46.4c.023.328.097.632.222.912.133.273.3.511.503.714.203.203.432.362.69.48a2.191 2.191 0 0 0 1.427.081c.195-.054.374-.128.538-.222a2.07 2.07 0 0 0 .444-.34 1.53 1.53 0 0 0 .304-.455l.69.187a2.1 2.1 0 0 1-.398.62c-.171.179-.37.339-.596.48a2.898 2.898 0 0 1-.748.303 3.095 3.095 0 0 1-.854.117zm2.245-3.485a2.34 2.34 0 0 0-.234-.889 2.271 2.271 0 0 0-.49-.701 2.09 2.09 0 0 0-.69-.457 2.104 2.104 0 0 0-.831-.163 2.225 2.225 0 0 0-1.544.62 2.377 2.377 0 0 0-.48.701 2.77 2.77 0 0 0-.21.89h4.48zm5.028-2.023c-.538.015-1.006.164-1.403.444a2.237 2.237 0 0 0-.842 1.158v3.79h-.796V34.54h.749v1.462c.226-.468.53-.834.912-1.1a2.115 2.115 0 0 1 1.228-.397c.062 0 .113.004.152.012v.725zm2.884 5.391l-2.48-6.093h.82l2.093 5.357 2.105-5.357h.772l-2.48 6.093h-.83zm4.411 0v-6.093h.796v6.093h-.796zm0-7.368v-1.17h.796v1.17h-.796zm2.126 4.304c0-.429.074-.834.222-1.216a3.02 3.02 0 0 1 .62-.994c.273-.289.597-.515.97-.678a3.06 3.06 0 0 1 1.24-.246c.577 0 1.08.133 1.51.398.428.257.751.608.97 1.052l-.772.246a1.803 1.803 0 0 0-.725-.725 1.966 1.966 0 0 0-1.018-.27c-.311 0-.604.063-.877.188a2.267 2.267 0 0 0-.701.514 2.4 2.4 0 0 0-.468.76c-.11.297-.164.62-.164.971 0 .343.058.667.175.97.117.305.277.57.48.796.203.218.437.394.702.526a2.056 2.056 0 0 0 1.438.106c.195-.055.374-.129.538-.223.164-.1.304-.214.421-.339.117-.124.199-.257.246-.397l.783.234a2.07 2.07 0 0 1-.374.608 2.79 2.79 0 0 1-.585.48 2.71 2.71 0 0 1-.737.303 2.93 2.93 0 0 1-.83.117c-.444 0-.854-.082-1.228-.245a3.098 3.098 0 0 1-.97-.69 3.364 3.364 0 0 1-.644-1.018 3.368 3.368 0 0 1-.222-1.228zm9.414 3.181a3.03 3.03 0 0 1-1.228-.245 3.138 3.138 0 0 1-.96-.69 3.367 3.367 0 0 1-.642-1.018 3.368 3.368 0 0 1-.223-1.228c0-.429.075-.83.223-1.204.156-.382.366-.714.631-.995.273-.288.597-.514.97-.678.375-.171.78-.257 1.217-.257.445 0 .85.086 1.216.257.375.164.694.39.96.678a3.212 3.212 0 0 1 .842 2.187v.188a.47.47 0 0 1-.012.128h-5.216c.023.328.097.632.222.912.133.273.3.511.503.714.203.203.433.362.69.48a2.19 2.19 0 0 0 1.427.081c.195-.054.374-.128.538-.222a2.07 2.07 0 0 0 .444-.34 1.53 1.53 0 0 0 .304-.455l.69.187a2.103 2.103 0 0 1-.397.62c-.172.179-.37.339-.597.48a2.898 2.898 0 0 1-.748.303 3.094 3.094 0 0 1-.854.117zm2.245-3.485a2.337 2.337 0 0 0-.234-.889 2.27 2.27 0 0 0-.49-.701 2.092 2.092 0 0 0-.69-.457 2.105 2.105 0 0 0-.831-.163 2.225 2.225 0 0 0-1.544.62 2.38 2.38 0 0 0-.48.701c-.116.273-.186.57-.21.89h4.48zm4.01 3.485c-.475 0-.939-.078-1.391-.234a3.344 3.344 0 0 1-1.17-.678l.363-.538c.343.28.69.491 1.04.632.36.14.742.21 1.147.21.491 0 .881-.097 1.17-.292a.976.976 0 0 0 .444-.854.708.708 0 0 0-.117-.421.973.973 0 0 0-.35-.304 2.375 2.375 0 0 0-.574-.222 11.2 11.2 0 0 0-.795-.21 12.101 12.101 0 0 1-.912-.258 2.924 2.924 0 0 1-.644-.293 1.135 1.135 0 0 1-.374-.397 1.411 1.411 0 0 1-.117-.608c0-.304.059-.573.176-.807.124-.234.288-.425.49-.573a2.24 2.24 0 0 1 .726-.351c.28-.078.577-.117.889-.117.468 0 .892.078 1.274.234.382.148.69.347.924.596l-.386.468a2.134 2.134 0 0 0-.83-.526 2.905 2.905 0 0 0-1.006-.176c-.21 0-.405.024-.584.07-.18.04-.34.106-.48.2a1.015 1.015 0 0 0-.316.362 1.02 1.02 0 0 0-.117.503c0 .163.028.296.082.397a.74.74 0 0 0 .27.27c.124.07.28.136.467.198.195.055.429.113.702.176.39.093.733.187 1.029.28.296.094.542.203.737.328.202.124.354.277.456.456.101.18.152.398.152.655 0 .561-.215 1.006-.643 1.333-.43.328-1.006.491-1.731.491zm6.95-.117v-5.461h-.842v-.632h.842v-.163c0-.749.16-1.334.48-1.755.319-.429.755-.643 1.31-.643.24 0 .475.035.7.105.227.07.422.164.585.28l-.245.574a1.177 1.177 0 0 0-.41-.199 1.66 1.66 0 0 0-.479-.07c-.374 0-.659.144-.854.433-.195.288-.292.705-.292 1.251v.187h1.684v.632H88.73v5.461h-.795zm5.855.117c-.444 0-.85-.082-1.216-.245a3.137 3.137 0 0 1-.959-.69 3.158 3.158 0 0 1-.62-1.006 3.304 3.304 0 0 1-.222-1.205c0-.428.074-.834.222-1.216.156-.382.367-.717.632-1.006a3.14 3.14 0 0 1 .959-.69 2.807 2.807 0 0 1 1.204-.257c.437 0 .839.086 1.205.257.374.172.694.402.96.69.272.289.483.624.63 1.006.157.382.235.787.235 1.216 0 .421-.074.823-.223 1.205a3.053 3.053 0 0 1-.631 1.006 2.961 2.961 0 0 1-.96.69 2.947 2.947 0 0 1-1.216.245zm-2.21-3.134a2.588 2.588 0 0 0 .643 1.73c.203.22.437.39.702.515a2.056 2.056 0 0 0 1.719 0 2.39 2.39 0 0 0 .714-.526 2.582 2.582 0 0 0 .655-1.742 2.56 2.56 0 0 0-.176-.948 2.405 2.405 0 0 0-.48-.783 2.15 2.15 0 0 0-.713-.526 1.882 1.882 0 0 0-.854-.2c-.303 0-.588.067-.853.2-.265.124-.5.3-.702.526a2.548 2.548 0 0 0-.48.795 2.587 2.587 0 0 0-.175.959zm9.61-2.374c-.538.015-1.006.164-1.403.444a2.24 2.24 0 0 0-.842 1.158v3.79h-.795V34.54h.748v1.462c.226-.468.53-.834.912-1.1a2.115 2.115 0 0 1 1.228-.397c.063 0 .113.004.152.012v.725zm10.164 3.251c0 .312-.063.6-.187.865a2.274 2.274 0 0 1-.503.679 2.415 2.415 0 0 1-.737.444 2.631 2.631 0 0 1-.9.152h-3.918v-8.303h3.999c.289 0 .55.062.784.187.234.125.433.288.596.491.164.195.289.421.375.678.093.25.14.503.14.76a2.2 2.2 0 0 1-.316 1.158c-.21.344-.503.6-.877.772.476.14.85.402 1.123.784.28.382.421.826.421 1.333zm-.819-.14c0-.203-.035-.398-.105-.585a1.431 1.431 0 0 0-.304-.503 1.355 1.355 0 0 0-.456-.35 1.156 1.156 0 0 0-.562-.141h-3.181v3.146h3.1c.21 0 .405-.043.584-.129.187-.086.347-.199.48-.339a1.592 1.592 0 0 0 .444-1.1zm-4.608-5.31v3.064h2.854c.203 0 .39-.043.561-.128.18-.086.332-.2.456-.34a1.576 1.576 0 0 0 .398-1.064c0-.21-.035-.409-.105-.596a1.285 1.285 0 0 0-.281-.48 1.228 1.228 0 0 0-.421-.327 1.142 1.142 0 0 0-.538-.129h-2.924zm8.713 7.707c-.662 0-1.158-.218-1.485-.655-.32-.444-.479-1.103-.479-1.976v-3.58h.795v3.439c0 1.38.471 2.07 1.415 2.07a2.104 2.104 0 0 0 1.31-.457c.195-.148.366-.323.514-.526.156-.203.281-.433.375-.69V34.54h.795v5.064c0 .218.093.328.28.328v.701a1.458 1.458 0 0 1-.233.024h-.117a.634.634 0 0 1-.456-.2c-.117-.124-.176-.291-.176-.502v-.702a2.883 2.883 0 0 1-2.538 1.497zm7.061 0c-.475 0-.939-.078-1.392-.234a3.34 3.34 0 0 1-1.169-.678l.362-.538c.344.28.69.491 1.041.632.359.14.741.21 1.146.21.492 0 .881-.097 1.17-.292a.976.976 0 0 0 .444-.854.707.707 0 0 0-.117-.421.978.978 0 0 0-.35-.304 2.397 2.397 0 0 0-.574-.222c-.226-.07-.491-.14-.795-.21a11.672 11.672 0 0 1-.912-.258 2.918 2.918 0 0 1-.643-.293 1.124 1.124 0 0 1-.374-.397 1.41 1.41 0 0 1-.117-.608c0-.304.058-.573.175-.807a1.68 1.68 0 0 1 .491-.573c.211-.156.452-.273.725-.351.281-.078.577-.117.889-.117.468 0 .893.078 1.275.234.382.148.69.347.924.596l-.386.468a2.135 2.135 0 0 0-.83-.526 2.907 2.907 0 0 0-1.006-.176c-.211 0-.406.024-.585.07a1.394 1.394 0 0 0-.48.2 1.018 1.018 0 0 0-.315.362 1.02 1.02 0 0 0-.117.503.83.83 0 0 0 .082.397.732.732 0 0 0 .269.27c.124.07.28.136.467.198.195.055.429.113.702.176.39.093.733.187 1.029.28.297.094.542.203.737.328.203.124.355.277.456.456.102.18.152.398.152.655 0 .561-.214 1.006-.643 1.333-.429.328-1.006.491-1.731.491zm3.676-.117v-6.093h.795v6.093h-.795zm0-7.368v-1.17h.795v1.17h-.795zm7.669 7.368h-.795v-3.403c0-.725-.109-1.251-.328-1.579-.21-.327-.538-.491-.982-.491-.234 0-.468.043-.702.129a2.458 2.458 0 0 0-.655.362c-.194.156-.37.343-.526.562-.156.21-.269.44-.339.69v3.73h-.795v-6.093h.725v1.38a2.966 2.966 0 0 1 2.584-1.485c.336 0 .62.062.854.187.234.125.421.3.562.526.14.226.241.503.304.83.062.328.093.69.093 1.088v3.567zm4.327.117c-.444 0-.853-.082-1.228-.245a3.144 3.144 0 0 1-.959-.69 3.382 3.382 0 0 1-.643-1.018 3.37 3.37 0 0 1-.222-1.228c0-.429.074-.83.222-1.204.156-.382.367-.714.632-.995.273-.288.596-.514.97-.678.375-.171.78-.257 1.217-.257.444 0 .85.086 1.216.257.374.164.694.39.959.678a3.214 3.214 0 0 1 .842 2.187v.188a.46.46 0 0 1-.012.128h-5.216c.024.328.098.632.223.912.132.273.3.511.502.714.203.203.433.362.69.48a2.195 2.195 0 0 0 1.427.081c.195-.054.374-.128.538-.222.164-.093.312-.207.445-.34a1.55 1.55 0 0 0 .304-.455l.69.187a2.102 2.102 0 0 1-.398.62c-.171.179-.37.339-.596.48a2.898 2.898 0 0 1-.749.303 3.094 3.094 0 0 1-.854.117zm2.246-3.485a2.361 2.361 0 0 0-.234-.889 2.287 2.287 0 0 0-.491-.701 2.092 2.092 0 0 0-.69-.457 2.108 2.108 0 0 0-.831-.163 2.215 2.215 0 0 0-1.543.62 2.384 2.384 0 0 0-.48.701c-.117.273-.187.57-.21.89h4.479zm4.01 3.485c-.475 0-.939-.078-1.391-.234a3.335 3.335 0 0 1-1.17-.678l.363-.538c.343.28.69.491 1.04.632.359.14.741.21 1.147.21.491 0 .881-.097 1.169-.292a.976.976 0 0 0 .444-.854.707.707 0 0 0-.117-.421.961.961 0 0 0-.35-.304 2.405 2.405 0 0 0-.573-.222c-.227-.07-.492-.14-.796-.21a11.672 11.672 0 0 1-.912-.258 2.918 2.918 0 0 1-.643-.293 1.124 1.124 0 0 1-.374-.397 1.41 1.41 0 0 1-.117-.608c0-.304.058-.573.175-.807a1.68 1.68 0 0 1 .491-.573c.211-.156.453-.273.725-.351.281-.078.577-.117.889-.117.468 0 .893.078 1.275.234.382.148.69.347.924.596l-.386.468a2.135 2.135 0 0 0-.83-.526 2.907 2.907 0 0 0-1.006-.176c-.211 0-.406.024-.585.07a1.381 1.381 0 0 0-.479.2 1.011 1.011 0 0 0-.316.362 1.02 1.02 0 0 0-.117.503.83.83 0 0 0 .082.397.732.732 0 0 0 .269.27c.124.07.28.136.468.198.194.055.428.113.701.176.39.093.733.187 1.029.28.297.094.542.203.737.328.203.124.355.277.456.456.102.18.152.398.152.655 0 .561-.214 1.006-.643 1.333-.429.328-1.006.491-1.731.491zm5.699 0c-.475 0-.939-.078-1.391-.234a3.335 3.335 0 0 1-1.17-.678l.363-.538c.343.28.69.491 1.04.632.359.14.741.21 1.147.21.491 0 .881-.097 1.169-.292a.976.976 0 0 0 .444-.854.707.707 0 0 0-.117-.421.961.961 0 0 0-.35-.304 2.388 2.388 0 0 0-.573-.222c-.227-.07-.492-.14-.796-.21a11.672 11.672 0 0 1-.912-.258 2.918 2.918 0 0 1-.643-.293 1.124 1.124 0 0 1-.374-.397 1.41 1.41 0 0 1-.117-.608c0-.304.058-.573.175-.807a1.68 1.68 0 0 1 .491-.573c.211-.156.453-.273.725-.351.281-.078.577-.117.889-.117.468 0 .893.078 1.275.234.382.148.69.347.924.596l-.386.468a2.135 2.135 0 0 0-.83-.526 2.907 2.907 0 0 0-1.006-.176c-.211 0-.406.024-.585.07a1.381 1.381 0 0 0-.479.2 1.011 1.011 0 0 0-.316.362 1.02 1.02 0 0 0-.117.503.83.83 0 0 0 .082.397.732.732 0 0 0 .269.27c.124.07.28.136.468.198.194.055.428.113.701.176.39.093.733.187 1.029.28.297.094.542.203.737.328.203.124.355.277.456.456.102.18.152.398.152.655 0 .561-.214 1.006-.643 1.333-.429.328-1.006.491-1.731.491zM3.314 14.923a3.314 3.314 0 1 0 0-6.628 3.314 3.314 0 0 0 0 6.628zm0 10.766a3.314 3.314 0 1 0 0-6.628 3.314 3.314 0 0 0 0 6.628z" fill="#444"/></svg>