<svg width="20" height="21" viewBox="0 0 20 21" fill="none" xmlns="http://www.w3.org/2000/svg"><path d="M10 .542c-5.514 0-10 4.486-10 10 0 5.515 4.485 10 10 10a.616.616 0 1 0 0-1.232c-4.834 0-8.766-3.933-8.766-8.767S5.166 1.776 10 1.776s8.766 3.933 8.766 8.767c0 2.02-1.075 4.023-2.614 4.87a3.78 3.78 0 0 1-1.812.467c.389-.232.725-.543.974-.938.05-.074.114-.138.146-.22.2-.483.219-1.03.34-1.54.149-.653-2.852-1.924-3.113-1.111-.094.302-.239 1.254-.428 1.505-.168.223-.583.118-.843-.103-.684-.583-1.447-1.44-2.117-2.117H9.3a2.235 2.235 0 0 0-.056-.056c-.02-.018-.038-.038-.057-.056-.677-.67-1.534-1.432-2.117-2.118-.22-.26-.327-.673-.103-.842.252-.19 1.204-.332 1.505-.427.812-.26-.459-3.263-1.111-3.113-.51.12-1.058.138-1.54.338-.083.034-.147.098-.22.147-1.714 1.087-1.935 3.724-.263 5.689.638.752 1.303 1.48 1.987 2.19l-.004.002.059.055.053.058.004-.004c.71.685 1.552 1.693 2.92 2.606 2.88 1.923 5.089 1.386 6.39.672 2.248-1.238 3.253-3.88 3.253-5.95C20 5.027 15.514.541 10 .541z" fill="#fff"/></svg>