<svg width="30" height="14" viewBox="0 0 30 14" fill="none" xmlns="http://www.w3.org/2000/svg"><path d="M29.742 11.63c-.083.62-.657 1.037-1.472 1.148-1.561.214-2.963.214-8.812.214H5.986a.302.302 0 0 1-.139-.033l-2.259-1.16a.303.303 0 0 1-.165-.27v-.202l-1.813.36a.31.31 0 0 1-.252-.063.304.304 0 0 1-.11-.234V8.852a.303.303 0 0 1 .362-.298l.362.072V6.828a.303.303 0 0 1 .363-.298l1.056.21c.027-.052.055-.1.085-.142l-.614-.315 26.78 5.333m.1.013l-.1-.013m.1.013l-.1-.013m.1.013c.068-.509-.237-1.005-.73-1.214-.688-.291-2.765-1.36-3.195-1.582m3.826 2.783c.061-.46-.214-.916-.67-1.11-.706-.298-2.86-1.407-3.226-1.597m.07-.076l.015.024-.085.052m.07-.076l-.024-.013-.046.09m.07-.077c-.176-.275-.794-1.04-2.18-1.04-1.378 0-13.613-.4-15.076-.449M25.747 8.91c-.143-.232-.727-1.017-2.11-1.017-1.397 0-13.903-.41-15.126-.45m0 0l.079-.061-.03-.037m-.049.099c-.461-.587-3.32-4.212-4.308-5.2m4.308 5.2l.003-.1.047.001m0 0c-.538-.684-3.312-4.198-4.287-5.173m-.07.071l.07-.07m-.07.07l.07-.07m-.07.07L2.811 6.088l-.093.037A692.856 692.856 0 0 1 .994 1.798a1.43 1.43 0 0 1-.09-.325.482.482 0 0 1 .075-.34M4.274 2.17c-.536-.535-.897-.853-1.198-1.037A1.48 1.48 0 0 0 2.23.9h-.001l-.145.002-.17.002h-.01c-.233 0-.421 0-.566.025-.153.025-.274.08-.36.203m0 0l.083.057-.082-.057zM3.93 9.096l.002.028v2.101h.1V9.124a.303.303 0 0 0-.045-.16l-.057.132zm4.084-1.465c-.668-.847-3.268-4.13-4.169-5.03-.537-.537-.856-.81-1.084-.95a.936.936 0 0 0-.28-.121 1.065 1.065 0 0 0-.25-.022l-.135.002a15.684 15.684 0 0 1-.384.002l-.171.005.024.068c.162.43 1.428 3.588 1.678 4.208l.956.493c.125.064.18.2.154.328a.31.31 0 0 1-.275.245l3.936.772zm21.126 3.918c.03-.228-.113-.468-.364-.574-.216-.091-.551-.25-.925-.433-.1.368-.214 1.012-.06 1.684.133-.015.264-.032.397-.05.591-.08.913-.334.952-.627zm-24.154.285l1.074.55h13.378c4.59 0 6.428 0 7.741-.1a3.572 3.572 0 0 1-.061-.45H4.985zm-1.563-2.3l-1.567-.312v1.797l1.567-.312V9.535zM3.23 7.328l-.65-.13v1.55l.622.124.115-.023c-.057-.25-.106-.626-.106-1.174 0-.127.007-.242.019-.347z" fill="#fff"/></svg>