<svg width="21" height="27" viewBox="0 0 21 27" fill="none" xmlns="http://www.w3.org/2000/svg"><mask id="a" maskUnits="userSpaceOnUse" x="0" y="0" width="21" height="27" fill="#000"><path fill="#fff" d="M0 0h21v27H0z"/><path d="M1.096 12.787l.498.862a.178.178 0 0 0 .244.065l.53-.306.227.393a.178.178 0 0 0 .243.065l7.799-4.503.45.782-1.17.676a.179.179 0 0 0-.066.244l.54.933v1.189L3.122 25.822l.31.178 3.322-5.777h4.197v5.687h.358v-5.686h4.228L18.886 26l.31-.18-7.324-12.634V11.95a.179.179 0 0 0-.178-.178h-.458l1.739-1.005a.179.179 0 0 0 .066-.244l-.943-1.632 5.476-3.162.069.12a.178.178 0 0 0 .244.065l2.634-1.521a.178.178 0 0 0 .065-.244l-1.767-3.06a.178.178 0 0 0-.244-.065l-2.634 1.52a.178.178 0 0 0-.065.245l.07.12-6.26 3.613a.179.179 0 0 0-.066.244l.071.122L1.53 11.6a.178.178 0 0 0-.065.244l.226.393-.53.306a.18.18 0 0 0-.065.244zM19.75 4.425l-1.587-2.75.436-.252 1.588 2.75-.437.252zm-3.407-1.54v-.001l-.069-.119 1.579-.911 1.587 2.75-1.578.911-.069-.118v-.001l-1.45-2.512zM11.31 13.412h.28l3.74 6.453h-4.02v-6.453zm-.562-.358v-.926h.767v.926h-.767zm-.076.358h.28v6.453h-3.99l3.711-6.453zm-.018-4.733l.208-.12v-.001l.473-.273 1.306 2.261-2.007 1.16-.384-.666 1.17-.676a.179.179 0 0 0 .067-.244l-.63-1.09-.203-.351zm-.024-.88l-.54-.936-.002-.001-.07-.121 6.105-3.525 1.272 2.203-5.476 3.161-.364-.628a.179.179 0 0 0-.243-.065l-.474.273-.208-.361zm-8.425 4.613l-.115-.2-.227-.393L9.87 7.198l.659 1.141-.209.12c-.013.008-.023.02-.034.03-.006.006-.013.01-.018.017a.174.174 0 0 0-.03.062v.005a.177.177 0 0 0-.005.064c.001.01.007.021.01.032.005.011.006.023.012.034l.203.352-7.644 4.413-.609-1.055zm-.711.35l.376-.217.318.553-.375.217-.319-.553z"/></mask><path d="M1.096 12.787l.498.862a.178.178 0 0 0 .244.065l.53-.306.227.393a.178.178 0 0 0 .243.065l7.799-4.503.45.782-1.17.676a.179.179 0 0 0-.066.244l.54.933v1.189L3.122 25.822l.31.178 3.322-5.777h4.197v5.687h.358v-5.686h4.228L18.886 26l.31-.18-7.324-12.634V11.95a.179.179 0 0 0-.178-.178h-.458l1.739-1.005a.179.179 0 0 0 .066-.244l-.943-1.632 5.476-3.162.069.12a.178.178 0 0 0 .244.065l2.634-1.521a.178.178 0 0 0 .065-.244l-1.767-3.06a.178.178 0 0 0-.244-.065l-2.634 1.52a.178.178 0 0 0-.065.245l.07.12-6.26 3.613a.179.179 0 0 0-.066.244l.071.122L1.53 11.6a.178.178 0 0 0-.065.244l.226.393-.53.306a.18.18 0 0 0-.065.244zM19.75 4.425l-1.587-2.75.436-.252 1.588 2.75-.437.252zm-3.407-1.54v-.001l-.069-.119 1.579-.911 1.587 2.75-1.578.911-.069-.118v-.001l-1.45-2.512zM11.31 13.412h.28l3.74 6.453h-4.02v-6.453zm-.562-.358v-.926h.767v.926h-.767zm-.076.358h.28v6.453h-3.99l3.711-6.453zm-.018-4.733l.208-.12v-.001l.473-.273 1.306 2.261-2.007 1.16-.384-.666 1.17-.676a.179.179 0 0 0 .067-.244l-.63-1.09-.203-.351zm-.024-.88l-.54-.936-.002-.001-.07-.121 6.105-3.525 1.272 2.203-5.476 3.161-.364-.628a.179.179 0 0 0-.243-.065l-.474.273-.208-.361zm-8.425 4.613l-.115-.2-.227-.393L9.87 7.198l.659 1.141-.209.12c-.013.008-.023.02-.034.03-.006.006-.013.01-.018.017a.174.174 0 0 0-.03.062v.005a.177.177 0 0 0-.005.064c.001.01.007.021.01.032.005.011.006.023.012.034l.203.352-7.644 4.413-.609-1.055zm-.711.35l.376-.217.318.553-.375.217-.319-.553z" fill="#fff"/><path d="M1.096 12.787l.498.862a.178.178 0 0 0 .244.065l.53-.306.227.393a.178.178 0 0 0 .243.065l7.799-4.503.45.782-1.17.676a.179.179 0 0 0-.066.244l.54.933v1.189L3.122 25.822l.31.178 3.322-5.777h4.197v5.687h.358v-5.686h4.228L18.886 26l.31-.18-7.324-12.634V11.95a.179.179 0 0 0-.178-.178h-.458l1.739-1.005a.179.179 0 0 0 .066-.244l-.943-1.632 5.476-3.162.069.12a.178.178 0 0 0 .244.065l2.634-1.521a.178.178 0 0 0 .065-.244l-1.767-3.06a.178.178 0 0 0-.244-.065l-2.634 1.52a.178.178 0 0 0-.065.245l.07.12-6.26 3.613a.179.179 0 0 0-.066.244l.071.122L1.53 11.6a.178.178 0 0 0-.065.244l.226.393-.53.306a.18.18 0 0 0-.065.244zM19.75 4.425l-1.587-2.75.436-.252 1.588 2.75-.437.252zm-3.407-1.54v-.001l-.069-.119 1.579-.911 1.587 2.75-1.578.911-.069-.118v-.001l-1.45-2.512zM11.31 13.412h.28l3.74 6.453h-4.02v-6.453zm-.562-.358v-.926h.767v.926h-.767zm-.076.358h.28v6.453h-3.99l3.711-6.453zm-.018-4.733l.208-.12v-.001l.473-.273 1.306 2.261-2.007 1.16-.384-.666 1.17-.676a.179.179 0 0 0 .067-.244l-.63-1.09-.203-.351zm-.024-.88l-.54-.936-.002-.001-.07-.121 6.105-3.525 1.272 2.203-5.476 3.161-.364-.628a.179.179 0 0 0-.243-.065l-.474.273-.208-.361zm-8.425 4.613l-.115-.2-.227-.393L9.87 7.198l.659 1.141-.209.12c-.013.008-.023.02-.034.03-.006.006-.013.01-.018.017a.174.174 0 0 0-.03.062v.005a.177.177 0 0 0-.005.064c.001.01.007.021.01.032.005.011.006.023.012.034l.203.352-7.644 4.413-.609-1.055zm-.711.35l.376-.217.318.553-.375.217-.319-.553z" mask="url(#a)"/></svg>