<svg xmlns="http://www.w3.org/2000/svg" width="60" height="60"><path fill="#ffe495" d="M43.3 7.37l16.374 1.423L50.26 57.43H9.413L0 8.793 16.375 7.37l13.531 3.303z"/><path fill="#ffd96a" d="M43.302 7.37L29.91 10.673l-.069-.017v46.773h20.424l9.413-48.636z"/><path fill="#eeede9" d="M43.294 7.37H16.37l13.462 41.792z"/><path fill="#e2e0da" d="M29.84 7.37v41.792L43.302 7.37z"/><path fill="#f9f9f8" d="M29.84 49.168l17.238-24.69-3.517-3.54 6.765-8.975L39.71 5.03z"/><path fill="#fff" d="M29.836 49.168L19.964 5.03 9.35 11.963l6.765 8.974-3.518 3.541z"/><path fill="#ffd96a" d="M27.39 11.358l-6.199 3.405a2.144 2.144 0 0 1-3.077-1.67c-.122-1.025-.214-2.356-.214-4.045 0-1.688.092-3.02.214-4.045a2.144 2.144 0 0 1 3.077-1.67l6.199 3.405 2.45 2.31zM32.29 11.358l6.198 3.405a2.144 2.144 0 0 0 3.078-1.67c.122-1.025.214-2.356.214-4.045 0-1.688-.092-3.02-.214-4.045a2.144 2.144 0 0 0-3.078-1.67L32.29 6.738l-2.45 2.31z"/><path fill="#ffc200" d="M31.222 11.861h-2.764c-.59 0-1.068-.478-1.068-1.068V7.308c0-.59.478-1.068 1.068-1.068h2.764c.59 0 1.068.478 1.068 1.068v3.486c0 .59-.478 1.067-1.068 1.067z"/><path fill="#ffc200" d="M31.222 11.862H29.84V6.24h1.382c.59 0 1.068.478 1.068 1.068v3.486c0 .59-.478 1.068-1.068 1.068zM-930.274-9858.144l-5.045-1.141.217-.962 5.046 1.141zM3525.583-6949.78l-.218-.96 5.046-1.142.217.962z"/><g><path fill="#ffc200" d="M3534.403-6952.28l-.218-.96 5.046-1.142.217.962zM-921.464-9855.645l-5.045-1.141.217-.962 5.046 1.14z"/></g></svg>