<svg xmlns="http://www.w3.org/2000/svg" width="17" height="24"><defs><clipPath id="a"><path fill="#fff" d="M8.5 0C3.813 0 0 3.9 0 8.692c0 5.948 7.607 14.68 7.93 15.048a.754.754 0 0 0 1.14 0c.323-.368 7.93-9.1 7.93-15.048C17 3.899 13.187 0 8.5 0z"/></clipPath></defs><path fill="none" stroke="#a59f8c" stroke-miterlimit="50" stroke-width="4" d="M8.5 0C3.813 0 0 3.9 0 8.692c0 5.948 7.607 14.68 7.93 15.048a.754.754 0 0 0 1.14 0c.323-.368 7.93-9.1 7.93-15.048C17 3.899 13.187 0 8.5 0z" clip-path="url(&quot;#a&quot;)"/><path fill="#8f8871" d="M8.472 4.993l3.535 3.535-3.535 3.536-3.536-3.536z"/></svg>