<svg xmlns="http://www.w3.org/2000/svg" width="25" height="448"><defs><mask id="b" width="2" height="2" x="-1" y="-1"><path fill="#fff" d="M6 20h13v13H6z"/><path d="M12.5 33a6.5 6.5 0 1 0 0-13 6.5 6.5 0 0 0 0 13z"/></mask><filter id="a" width="49" height="51" x="-12" y="2" filterUnits="userSpaceOnUse"><feOffset dy="2" in="SourceGraphic" result="FeOffset1745Out"/><feGaussianBlur in="FeOffset1745Out" result="FeGaussianBlur1746Out" stdDeviation="3.2 3.2"/></filter></defs><path fill="#d5d2c9" d="M12 0h1v448h-1z"/><g filter="url(#a)"><path fill="none" d="M12.5 33a6.5 6.5 0 1 0 0-13 6.5 6.5 0 0 0 0 13z" mask="url(&quot;#b&quot;)"/><path fill-opacity=".24" d="M12.5 33a6.5 6.5 0 1 0 0-13 6.5 6.5 0 0 0 0 13z"/></g><path fill="#fff" d="M12.5 33a6.5 6.5 0 1 0 0-13 6.5 6.5 0 0 0 0 13z"/></svg>