<?xml version="1.0" encoding="utf-8"?><svg width="120" height="1675" viewBox="0 0 120 1675" xmlns="http://www.w3.org/2000/svg" xmlns:xlink="http://www.w3.org/1999/xlink"><svg width="73" height="63" viewBox="0 0 73 63" id="icon-alpha" xmlns="http://www.w3.org/2000/svg"><path fill="#fefefe" d="M36.578 0c2.55 0 3.352 1.808 4.022 3.617.284.766 6.91 18.721 7.109 19.26.054.149.019.398-.217.485-.235.088-3.677 1.413-3.867 1.485a.377.377 0 0 1-.475-.221c-.071-.186-1.497-4.1-1.66-4.54h-9.815l-1.67 4.54a.37.37 0 0 1-.474.22c-.201-.079-3.66-1.406-3.868-1.484a.38.38 0 0 1-.215-.486c.243-.673 6.768-18.338 7.101-19.26C33.196 1.837 34.027 0 36.578 0zm11.654 32.126c.204 0 .369.169.369.377v4.186a.371.371 0 0 1-.369.376H24.924a.372.372 0 0 1-.37-.376v-4.186c0-.208.166-.377.37-.377zM36.557 5.863l-3.32 9.873h6.692L36.6 5.863zm12.544 50.789a5.805 5.805 0 0 0-1.13.083v2.685c.47.128.768.127 1.13.127.912 0 1.41-.583 1.41-1.47 0-.959-.483-1.39-1.41-1.425zm-.102 4.33a8.441 8.441 0 0 1-2.9-.511l.002-8.741c.623-.167 1.933-.375 2.778-.375.854 0 1.959.103 2.714.271l-.046 1.37a17.624 17.624 0 0 0-2.031-.112c-.633 0-1.213.04-1.55.088l.005 2.365c.544-.127.893-.175 1.393-.175 2.046 0 3.022 1.132 3.022 2.774 0 1.88-1.161 3.047-3.387 3.047zm-19.252-5.51c-.342 0-.57-.003-.993.198v3.663c.384.124.565.142.908.142.813 0 1.304-.787 1.304-2.009 0-1.333-.405-1.994-1.219-1.994zm-3.653 4.003c.342 0 .521-.018.904-.142V55.67c-.422-.201-.647-.198-.988-.198-.809 0-1.214.704-1.214 2.035 0 1.223.377 1.968 1.298 1.968zM26.998 63v-2.385c-.223.129-.667.322-1.421.322-1.603 0-2.592-1.183-2.592-3.43 0-2.415 1.092-3.49 2.89-3.49.456 0 .752.046 1.123.218v-2.847h1.756v2.847c.369-.172.667-.218 1.123-.218 1.797 0 2.889 1.031 2.889 3.45 0 2.245-1.1 3.47-2.592 3.47-.752 0-1.196-.193-1.42-.322V63zm-13.253-2.176V55.61c-.465-.068-.544-.084-.92-.084-.371 0-.464.016-.932.084v2.408c0 1.935-.532 2.547-1.948 2.94l-.482-1.021c.358-.232.488-.536.583-.789.099-.286.114-.554.114-1.444v-3.276c.97-.284 1.695-.406 2.666-.406.97 0 1.715.122 2.683.406v6.396zm23.326-2.474v-.476a1.88 1.88 0 0 0-.521-.066c-.873 0-1.326.226-1.326.891 0 .64.359.887.99.887.304 0 .56-.03.948-.165-.063-.219-.09-.555-.09-1.071zm1.177 2.608c-.144-.046-.497-.304-.669-.56-.294.192-.39.247-.618.344a3.658 3.658 0 0 1-1.298.232c-1.216 0-2.208-.72-2.208-2.04 0-1.405.93-2.256 2.696-2.256.339 0 .632.05.892.12v-.324c0-.864-.136-1.033-1.305-1.033-.373 0-.892.059-1.387.127l-.262-1.282a9.423 9.423 0 0 1 2.273-.264c1.103 0 1.697.212 2.056.71.26.353.374.709.374 1.675v1.788c0 .88.12 1.294.585 1.992zm18.387-2.608v-.476a1.837 1.837 0 0 0-.518-.066c-.871 0-1.326.226-1.326.891 0 .64.357.887.99.887.305 0 .558-.03.949-.165-.065-.219-.095-.555-.095-1.071zm1.205 2.608c-.143-.046-.493-.304-.669-.56-.292.192-.39.247-.615.344-.374.148-.84.232-1.294.232-1.212 0-2.205-.72-2.205-2.04 0-1.405.93-2.256 2.691-2.256.338 0 .629.05.887.12v-.324c0-.864-.134-1.033-1.297-1.033-.375 0-.896.059-1.385.127l-.263-1.282a9.352 9.352 0 0 1 2.265-.264c1.104 0 1.697.212 2.056.71.259.353.372.709.372 1.675v1.788c0 .88.119 1.294.588 1.992zm-38.438-3.447c-.272 0-.312.014-.771.103v1.914c.37.103.486.103.771.103.848 0 1.082-.45 1.082-1.105 0-.626-.273-1.015-1.082-1.015zm-.77-3.383V56.3c.462-.11.708-.166 1.13-.166 1.658 0 2.545.885 2.545 2.311 0 1.579-1.003 2.536-2.875 2.536a6.837 6.837 0 0 1-2.57-.505l.007-6.348zm45.018 6.686V58.11h-1.997v2.704h-1.76v-6.628h1.76v2.508h1.997v-2.508h1.762v6.628zm7.078.01s-.597-1.438-.91-2.065c-.268-.528-.355-.65-.857-.65l-.24.005v2.71h-1.768v-6.638h1.768v2.509h.298c.452 0 .534-.154.704-.504.169-.344.298-.612.465-.95.155-.312.281-.58.464-.76.23-.238.478-.369.956-.398a4.5 4.5 0 0 1 .82.018l-.087 1.207s-.236-.06-.412.097c-.175.154-.263.292-.568.941-.313.662-.6.881-.962.95v.03c.54.126.785.486 1.052 1.008.235.46 1.193 2.49 1.193 2.49zM6.4 59.004H3.035l-.579 1.82H.51l3.253-9.277c.366-.113.53-.176.996-.176.425 0 .829.068 1.15.176l3.068 9.277H6.946s-.245-.813-.546-1.82zm-.47-1.557l-.616-2.16a73.164 73.164 0 0 1-.516-1.937h-.056s-.34 1.19-.564 1.947c-.087.293-.649 2.15-.649 2.15zm37.637.056c0 .62-.505 1.114-1.124 1.114a1.119 1.119 0 0 1-1.127-1.114c0-.612.505-1.113 1.127-1.113.619 0 1.124.5 1.124 1.113z"/></svg><svg width="12" height="7" viewBox="0 0 12 7" id="icon-arrow-down" y="63" xmlns="http://www.w3.org/2000/svg"><path fill="none" stroke="#8f8871" stroke-linecap="round" stroke-linejoin="round" stroke-miterlimit="50" stroke-width="2" d="M1 1v0l5 5v0l5-5v0"/></svg><svg width="14" height="60" viewBox="0 0 14 60" id="icon-arrow-right" y="70" xmlns="http://www.w3.org/2000/svg"><path fill="none" stroke="#8f8871" stroke-miterlimit="50" d="M1 0v0l12 30v0L1 60v0"/></svg><svg width="21" height="17" viewBox="0 0 21 17" id="icon-burger" y="130" xmlns="http://www.w3.org/2000/svg"><defs><clipPath id="ada"><path fill="#fff" d="M0 0h21v2H0zm0 5h21v2H0zm0 5h21v2H0zm0 5h21v2H0z"/></clipPath></defs><path fill="none" stroke="#8f8871" stroke-miterlimit="50" stroke-width="2" d="M0 0h21v2H0zm0 5h21v2H0zm0 5h21v2H0zm0 5h21v2H0z" clip-path="url(#ada)"/></svg><svg width="10" height="10" viewBox="0 0 10 10" id="icon-clear" y="147" xmlns="http://www.w3.org/2000/svg"><path fill="#8f8871" d="M-1812.212-227.49l3.637 3.636 3.636-3.636 1.22 1.219-3.637 3.636 3.63 3.63-1.22 1.22-3.63-3.63-3.629 3.63-1.22-1.22 3.63-3.63-3.636-3.636z"/></svg><svg width="60" height="60" viewBox="0 0 60 60" id="icon-clock" y="157" xmlns="http://www.w3.org/2000/svg"><path fill="#ffe495" d="M30 60c16.569 0 30-13.431 30-30C60 13.431 46.569 0 30 0 13.431 0 0 13.431 0 30c0 16.569 13.431 30 30 30z"/><path fill="#ffc200" d="M29.999 0c-.365 0-.727.009-1.089.022C44.974.595 57.821 13.796 57.821 30S44.974 59.405 28.91 59.978c.362.013.724.022 1.089.022 16.568 0 30-13.431 30-30 0-16.569-13.432-30-30-30z"/><path fill="#f9f9f8" d="M30.002 54.854c13.725 0 24.852-11.127 24.852-24.852S43.727 5.15 30.002 5.15 5.15 16.277 5.15 30.002s11.127 24.852 24.852 24.852z"/><path fill="#d5d2c9" d="M29.999 5.15c-.365 0-.728.01-1.089.025 13.22.57 23.763 11.467 23.763 24.827 0 13.36-10.543 24.257-23.763 24.827.361.016.724.025 1.089.025 13.725 0 24.852-11.127 24.852-24.852 0-13.726-11.127-24.852-24.852-24.852z"/><path fill="#ffd96a" d="M30.002 5.15c-.565 0-1.126.02-1.682.058v3.12a1.682 1.682 0 0 0 3.364 0v-3.12a25.221 25.221 0 0 0-1.682-.058z"/><path fill="#e2e0da" d="M44.312 41.28a.902.902 0 0 1-.53-.173L31.664 32.33a.905.905 0 1 1 1.063-1.467l12.117 8.779a.905.905 0 0 1-.532 1.639z"/><path fill="#ffd96a" d="M30.003 32.726a2.723 2.723 0 1 0 0-5.446 2.723 2.723 0 0 0 0 5.446z"/><path fill="#ffc200" d="M29.999 27.28c-.388 0-.756.081-1.089.227a2.723 2.723 0 0 1 0 4.992 2.723 2.723 0 1 0 1.089-5.219z"/><path fill="#d5d2c9" d="M30.002 27.278c.635 0 1.22.218 1.682.583V15.152a1.682 1.682 0 1 0-3.364 0v12.709a2.71 2.71 0 0 1 1.682-.583zm-2.727 2.752L21.4 34.974a1.682 1.682 0 0 0 2.166 2.575l5.817-4.895a2.723 2.723 0 0 1-2.107-2.624z"/><path fill="#ffd96a" d="M49.99 30.002c0 .93.753 1.682 1.682 1.682h3.12a24.644 24.644 0 0 0 0-3.364h-3.12c-.929 0-1.682.753-1.682 1.682z"/><path fill="#ffc200" d="M54.797 28.32H52.62a24.644 24.644 0 0 1 0 3.364h2.177a24.644 24.644 0 0 0 0-3.364z"/><path fill="#ffd96a" d="M30.002 49.99c-.929 0-1.682.753-1.682 1.682v3.12a24.667 24.667 0 0 0 3.364 0v-3.12c0-.929-.753-1.682-1.682-1.682zM5.208 31.684h3.12a1.682 1.682 0 0 0 0-3.364h-3.12a25.222 25.222 0 0 0-.058 1.682c0 .566.02 1.126.058 1.682z"/></svg><svg width="20" height="20" viewBox="0 0 20 20" id="icon-close-big" y="217" xmlns="http://www.w3.org/2000/svg"><path fill="#8f8871" d="M-6.778 4.536L1 12.314l7.778-7.778a1 1 0 0 1 1.414 1.414l-7.778 7.778 7.778 7.778a1 1 0 0 1-1.414 1.414L1 15.142l-7.778 7.778a1 1 0 0 1-1.414-1.414l7.778-7.778-7.778-7.778a1 1 0 0 1 1.414-1.414z"/></svg><svg width="120" height="27" viewBox="0 0 120 27" id="icon-etalon" y="237" xmlns="http://www.w3.org/2000/svg"><path fill="#fff" d="M26.202 14.991c3.779-5.39 5.277-10.376 3.915-13.01C29.445.684 28.107 0 26.244 0 22.087 0 15.84 3.615 10.33 9.208l-.103.104h1.12c4.69-4.561 10.09-7.525 13.544-7.525 1.51 0 2.605.588 3.162 1.7 1.181 2.36-.168 6.737-3.436 11.157-3.152 4.263-6.733 7.77-10.359 10.141l-.17.114h2.621l.018-.012c3.558-2.74 6.923-6.255 9.476-9.896m-2.65-.38c2.964-4.23 4.097-7.991 3.026-10.06-.523-1.008-1.561-1.539-3.006-1.539-2.96 0-7.315 2.376-11.365 6.197l-.112.103h1.223c3.222-2.82 6.497-4.521 9.053-4.521 1.077 0 1.86.424 2.26 1.225.88 1.761-.154 5.122-2.573 8.363-4.683 6.276-10.45 9.661-13.5 9.661-.98 0-1.703-.32-2.147-.951-.652-.933-.636-2.491.044-4.39l.092-.259L0 24.9l12.076-.002.012-.006c4.034-2.01 8.426-5.95 11.463-10.281"/><path fill="#fff" d="M18.744 14.925L15.64 18.05h-4.977l.865-.89H15.3l2.829-2.852zm-5.93-1.631l-4.72 4.756H6.87l4.72-4.756zm1.928 2.52l2.444-2.455.613.615-2.696 2.71H12.01l.866-.87zm-1.331-2.454l.612.616-4.041 4.074H8.757zm1.274.616l-1.159-1.168H6.929l.866-.871h6.09l2.027 2.04-1.438 1.44-.611-.619.779-.778.044-.044zm-.598-2.505l-.017-.02H8.28l.864-.871h5.283l2.428 2.447-.612.616-2.157-2.172zm85.386 5.083h5.218v6.827h-1.644v-5.474h-2.093v2.638c0 .772 0 1.722-.524 2.265-.431.446-1.06.573-1.593.573h-.56v-1.37h.225c.38 0 .693-.1.814-.35.157-.321.157-.933.157-1.173zm12.617 3.292c.007.451-.035.902-.124 1.345a3.28 3.28 0 0 1-.369.971 2.62 2.62 0 0 1-1.13.973 3.72 3.72 0 0 1-1.565.325c-.543 0-1.026-.087-1.45-.263a2.305 2.305 0 0 1-1.03-.814c-.396-.56-.583-1.37-.564-2.427 0-.368.027-.716.079-1.049.053-.33.147-.624.283-.88a2.607 2.607 0 0 1 1.123-1.166c.497-.272 1.075-.408 1.732-.408.541 0 1.028.1 1.456.296.43.197.777.482 1.036.849.197.296.334.626.406.972.087.382.126.807.117 1.276zm-1.845-1.201a1.176 1.176 0 0 0-.49-.592 1.435 1.435 0 0 0-.74-.192 1.424 1.424 0 0 0-.76.205 1.36 1.36 0 0 0-.512.566 2.227 2.227 0 0 0-.182.608 6.18 6.18 0 0 0-.066.73c0 .268.014.51.044.732.028.22.088.413.174.578.109.24.27.425.484.56.213.132.462.199.746.199.31 0 .588-.08.831-.242.245-.16.419-.406.527-.738a1.93 1.93 0 0 0 .103-.481c.02-.193.029-.438.029-.732 0-.533-.063-.933-.188-1.201zM38.53 13.78v1.517h-4.273v8.083H32.5v-9.599h6.03zm5.994 6.209c0 .396-.036.797-.108 1.206a3.23 3.23 0 0 1-.412 1.117 2.44 2.44 0 0 1-.842.827c-.356.218-.826.326-1.405.326-.3 0-.594-.054-.884-.16a1.608 1.608 0 0 1-.709-.49h-.03v3.325H38.49v-9.587h1.644v.607l.043.013c.242-.257.516-.434.826-.536.299-.1.612-.151.928-.152.56 0 1.012.107 1.354.323.344.218.607.496.79.837.185.34.305.714.363 1.13.058.414.086.818.086 1.214zm-1.704-.006c0-.22-.01-.45-.03-.687a2.056 2.056 0 0 0-.158-.66 1.184 1.184 0 0 0-.399-.497c-.177-.127-.426-.193-.744-.193-.309 0-.553.066-.73.2a1.282 1.282 0 0 0-.407.502 2.28 2.28 0 0 0-.18.661c-.03.238-.043.464-.043.675 0 .21.01.434.034.673.027.24.084.457.175.654.092.196.226.36.406.488.178.13.416.193.716.193.299 0 .54-.062.723-.185.183-.124.32-.282.412-.475a2.06 2.06 0 0 0 .182-.647 6.04 6.04 0 0 0 .042-.701zm6.093-.891l.913-2.538h1.726l-3.16 8.206c-.206.525-.495.885-.873 1.084a2.607 2.607 0 0 1-1.219.296h-.61v-1.308h.45a.733.733 0 0 0 .536-.216c.147-.144.26-.316.335-.505l.363-1.075-2.642-6.482h1.771l.929 2.511.712 2.151h.057zm3.39-2.538h5.986v6.827h-1.637v-5.489H53.94v5.489h-1.637zm7.476 0h6.004v6.827h-1.644v-5.489h-2.718v5.489H59.78zm13.1 2.193v4.634h-1.64v-.606l-.027-.015c-.196.24-.463.415-.807.525a3.47 3.47 0 0 1-1.066.165c-.766 0-1.37-.176-1.815-.531-.445-.353-.668-.864-.668-1.523 0-.277.053-.54.159-.786.106-.249.265-.472.467-.656.2-.189.455-.338.76-.448a3.057 3.057 0 0 1 1.054-.166h1.944v-.496c0-.127-.022-.253-.066-.372a.723.723 0 0 0-.225-.312 1.259 1.259 0 0 0-.435-.213 2.486 2.486 0 0 0-.696-.083c-.399 0-.731.048-1 .145-.274.097-.51.236-.714.421l-.87-1.048a2.87 2.87 0 0 1 1.22-.696c.47-.135.96-.203 1.45-.201.407 0 .788.034 1.145.104.359.068.674.191.946.365.269.175.486.407.645.696.16.29.24.656.24 1.097zm-3.308 1.78c-.419 0-.716.073-.896.22a.674.674 0 0 0-.269.538.75.75 0 0 0 .066.303.67.67 0 0 0 .218.269c.102.078.232.143.393.193.159.051.36.075.603.075.184 0 .363-.016.539-.048.173-.03.331-.084.47-.158.139-.07.26-.17.357-.29a.824.824 0 0 0 .175-.454c.011-.069.016-.138.015-.208v-.44zm13.603-5.74c.284.343.491.74.608 1.166.127.44.19.9.19 1.376v2.457c0 .515-.078.996-.231 1.442-.156.446-.39.832-.705 1.158-.33.337-.731.601-1.175.773-.47.188-1.02.282-1.649.282-.88 0-1.624-.196-2.234-.593a3.183 3.183 0 0 1-1.29-1.64l1.653-.663c.122.376.354.71.668.96.309.243.71.364 1.203.364.358 0 .665-.058.924-.172a1.69 1.69 0 0 0 .623-.463c.16-.194.278-.416.347-.655.073-.243.11-.497.11-.766v-.648h-3.12v-1.461h3.12v-.442c0-.249-.028-.49-.086-.723a1.715 1.715 0 0 0-.306-.635 1.544 1.544 0 0 0-.588-.455c-.247-.115-.554-.173-.92-.173-.466 0-.872.117-1.22.352a1.75 1.75 0 0 0-.711.916l-1.654-.62a3.2 3.2 0 0 1 .528-.91c.23-.278.505-.517.814-.71a3.9 3.9 0 0 1 1.045-.455 4.621 4.621 0 0 1 1.24-.159c.667 0 1.232.099 1.698.296.464.199.837.465 1.118.8zm1.611 1.767h6.01v1.338h-2.193v5.489h-1.64v-5.489h-2.177zm12.4 2.193v4.634h-1.638v-.606l-.029-.015c-.194.24-.463.415-.807.525-.34.11-.7.165-1.067.165-.764 0-1.37-.176-1.813-.531-.447-.353-.669-.864-.669-1.523a1.926 1.926 0 0 1 .623-1.442c.205-.189.459-.338.765-.448a3.049 3.049 0 0 1 1.05-.166h1.947v-.496c0-.127-.022-.253-.065-.372a.73.73 0 0 0-.226-.312 1.273 1.273 0 0 0-.435-.213 2.486 2.486 0 0 0-.696-.083c-.398 0-.732.048-1.003.145a2.04 2.04 0 0 0-.71.421l-.874-1.048c.35-.332.756-.564 1.221-.696.47-.135.96-.203 1.45-.201a6 6 0 0 1 1.148.104c.358.068.673.191.943.365.27.175.487.407.647.696.16.29.239.656.239 1.097zm-3.307 1.78c-.42 0-.716.073-.895.22a.672.672 0 0 0-.27.538.75.75 0 0 0 .066.303.653.653 0 0 0 .217.269c.102.078.234.143.393.193.16.051.36.075.602.075.186 0 .365-.016.54-.048.165-.028.325-.08.472-.158a1.13 1.13 0 0 0 .356-.29.85.85 0 0 0 .175-.454c.01-.056.016-.125.016-.208v-.44z"/></svg><svg width="90" height="60" viewBox="0 0 90 60" id="icon-gear" y="264" xmlns="http://www.w3.org/2000/svg"><defs><clipPath id="aia"><path fill="#fff" d="M48 37.314V7.686h42v29.628zm35.93-17.21l-1.86-.9-8.26 14.6 1.78.88zm-8.78 4.37c-.307.3-.673.45-1.1.45-.427 0-.793-.15-1.1-.45-.307-.3-.46-.663-.46-1.09a1.5 1.5 0 0 1 .46-1.1 1.5 1.5 0 0 1 1.1-.46 1.5 1.5 0 0 1 1.1.46 1.5 1.5 0 0 1 .46 1.1c0 .427-.153.79-.46 1.09zm2.4-2.58c-.2-.46-.47-.86-.81-1.2a3.684 3.684 0 0 0-1.21-.8 3.829 3.829 0 0 0-1.48-.29c-.52 0-1.013.097-1.48.29-.467.193-.87.46-1.21.8-.34.34-.61.74-.81 1.2-.2.46-.3.957-.3 1.49 0 .52.1 1.01.3 1.47.2.46.47.86.81 1.2.34.34.743.61 1.21.81.467.2.96.3 1.48.3s1.013-.1 1.48-.3c.467-.2.87-.47 1.21-.81.34-.34.61-.74.81-1.2.2-.46.3-.95.3-1.47 0-.533-.1-1.03-.3-1.49zm7.53 9.17c-.087.187-.2.35-.34.49a1.544 1.544 0 0 1-1.09.45c-.427 0-.793-.15-1.1-.45-.307-.3-.46-.663-.46-1.09a1.5 1.5 0 0 1 .46-1.1 1.5 1.5 0 0 1 1.1-.46 1.544 1.544 0 0 1 1.09.45c.14.14.253.307.34.5a1.475 1.475 0 0 1 0 1.21zm2.07-2.07c-.2-.46-.47-.86-.81-1.2-.34-.34-.743-.61-1.21-.81-.467-.2-.96-.3-1.48-.3s-1.013.1-1.48.3c-.467.2-.87.47-1.21.81-.34.34-.61.74-.81 1.2-.2.46-.3.95-.3 1.47s.1 1.01.3 1.47c.2.46.47.86.81 1.2.34.34.743.61 1.21.81.467.2.96.3 1.48.3s1.013-.1 1.48-.3c.467-.2.87-.47 1.21-.81.34-.34.61-.74.81-1.2.2-.46.3-.95.3-1.47s-.1-1.01-.3-1.47zm-24.584-3.998a11.662 11.662 0 0 1-.48 2.4c-.235.736-.57 1.355-1.008 1.856-.437.501-1.008.752-1.712.752s-1.28-.25-1.728-.752c-.448-.501-.795-1.12-1.04-1.856a10.99 10.99 0 0 1-.496-2.4 24.395 24.395 0 0 1-.128-2.384c0-.704.043-1.483.128-2.336.085-.853.25-1.648.496-2.384.245-.736.592-1.355 1.04-1.856.448-.501 1.024-.752 1.728-.752s1.275.25 1.712.752c.437.501.773 1.12 1.008 1.856s.395 1.53.48 2.384c.085.853.128 1.632.128 2.336 0 .725-.043 1.52-.128 2.384zm5.152-6.944c-.32-1.44-.832-2.699-1.536-3.776a7.912 7.912 0 0 0-2.736-2.576c-1.12-.64-2.48-.96-4.08-.96s-2.965.32-4.096.96a8.01 8.01 0 0 0-2.768 2.576c-.715 1.077-1.232 2.336-1.552 3.776-.32 1.44-.48 2.96-.48 4.56 0 1.6.16 3.125.48 4.576.32 1.45.837 2.725 1.552 3.824a8.047 8.047 0 0 0 2.768 2.624c1.13.65 2.496.976 4.096.976s2.96-.325 4.08-.976a7.951 7.951 0 0 0 2.736-2.624c.704-1.099 1.216-2.373 1.536-3.824.32-1.45.48-2.976.48-4.576 0-1.6-.16-3.12-.48-4.56z"/></clipPath></defs><path fill="#eeede9" d="M30.582 35.78a5.198 5.198 0 1 1 0-10.396 5.198 5.198 0 0 1 0 10.395zm25.809-9.36c-5.358-1.03-7.814-7.29-4.588-11.688l2.266-3.09-4.896-4.895-3.043 2.061c-4.517 3.06-10.68.37-11.509-5.02L34.038 0h-6.923l-.896 4.663c-1.007 5.238-7.044 7.74-11.461 4.748l-3.931-2.664-4.896 4.895 2.266 3.09c3.226 4.399.768 10.658-4.588 11.689L0 27.115v6.923l3.788.583c5.392.83 8.08 6.994 5.02 11.51l-2.061 3.042 4.895 4.896 3.09-2.266c4.399-3.226 10.658-.77 11.689 4.588L27.115 60h6.923l.41-2.664c.848-5.511 7.24-8.16 11.736-4.861l2.174 1.594 4.895-4.896-2.061-3.042c-3.06-4.516-.37-10.68 5.02-11.51L60 34.038v-6.923z"/><path fill="#ffd96a" d="M30.582 35.774a5.193 5.193 0 1 1 0-10.386 5.193 5.193 0 0 1 0 10.386zm0-16.154c-6.055 0-10.962 4.907-10.962 10.962 0 6.054 4.907 10.961 10.962 10.961 6.054 0 10.961-4.907 10.961-10.961 0-6.055-4.907-10.962-10.961-10.962z"/><path fill="#ffc200" d="M83.93 20.104l-1.86-.9-8.26 14.6 1.78.88zm-8.78 4.37c-.307.3-.673.45-1.1.45-.427 0-.793-.15-1.1-.45-.307-.3-.46-.663-.46-1.09a1.5 1.5 0 0 1 .46-1.1 1.5 1.5 0 0 1 1.1-.46 1.5 1.5 0 0 1 1.1.46 1.5 1.5 0 0 1 .46 1.1c0 .427-.153.79-.46 1.09zm2.4-2.58c-.2-.46-.47-.86-.81-1.2a3.684 3.684 0 0 0-1.21-.8 3.829 3.829 0 0 0-1.48-.29c-.52 0-1.013.097-1.48.29-.467.193-.87.46-1.21.8-.34.34-.61.74-.81 1.2-.2.46-.3.957-.3 1.49 0 .52.1 1.01.3 1.47.2.46.47.86.81 1.2.34.34.743.61 1.21.81.467.2.96.3 1.48.3s1.013-.1 1.48-.3c.467-.2.87-.47 1.21-.81.34-.34.61-.74.81-1.2.2-.46.3-.95.3-1.47 0-.533-.1-1.03-.3-1.49zm7.53 9.17c-.087.187-.2.35-.34.49a1.544 1.544 0 0 1-1.09.45c-.427 0-.793-.15-1.1-.45-.307-.3-.46-.663-.46-1.09a1.5 1.5 0 0 1 .46-1.1 1.5 1.5 0 0 1 1.1-.46 1.544 1.544 0 0 1 1.09.45c.14.14.253.307.34.5a1.475 1.475 0 0 1 0 1.21zm2.07-2.07c-.2-.46-.47-.86-.81-1.2-.34-.34-.743-.61-1.21-.81-.467-.2-.96-.3-1.48-.3s-1.013.1-1.48.3c-.467.2-.87.47-1.21.81-.34.34-.61.74-.81 1.2-.2.46-.3.95-.3 1.47s.1 1.01.3 1.47c.2.46.47.86.81 1.2.34.34.743.61 1.21.81.467.2.96.3 1.48.3s1.013-.1 1.48-.3c.467-.2.87-.47 1.21-.81.34-.34.61-.74.81-1.2.2-.46.3-.95.3-1.47s-.1-1.01-.3-1.47zm-24.584-3.998a11.662 11.662 0 0 1-.48 2.4c-.235.736-.57 1.355-1.008 1.856-.437.501-1.008.752-1.712.752s-1.28-.25-1.728-.752c-.448-.501-.795-1.12-1.04-1.856a10.99 10.99 0 0 1-.496-2.4 24.395 24.395 0 0 1-.128-2.384c0-.704.043-1.483.128-2.336.085-.853.25-1.648.496-2.384.245-.736.592-1.355 1.04-1.856.448-.501 1.024-.752 1.728-.752s1.275.25 1.712.752c.437.501.773 1.12 1.008 1.856s.395 1.53.48 2.384c.085.853.128 1.632.128 2.336 0 .725-.043 1.52-.128 2.384zm5.152-6.944c-.32-1.44-.832-2.699-1.536-3.776a7.912 7.912 0 0 0-2.736-2.576c-1.12-.64-2.48-.96-4.08-.96s-2.965.32-4.096.96a8.01 8.01 0 0 0-2.768 2.576c-.715 1.077-1.232 2.336-1.552 3.776-.32 1.44-.48 2.96-.48 4.56 0 1.6.16 3.125.48 4.576.32 1.45.837 2.725 1.552 3.824a8.047 8.047 0 0 0 2.768 2.624c1.13.65 2.496.976 4.096.976s2.96-.325 4.08-.976a7.951 7.951 0 0 0 2.736-2.624c.704-1.099 1.216-2.373 1.536-3.824.32-1.45.48-2.976.48-4.576 0-1.6-.16-3.12-.48-4.56z"/><path fill="none" stroke="#fff" stroke-miterlimit="50" stroke-width="4" d="M83.93 20.104l-1.86-.9-8.26 14.6 1.78.88zm-8.78 4.37c-.307.3-.673.45-1.1.45-.427 0-.793-.15-1.1-.45-.307-.3-.46-.663-.46-1.09a1.5 1.5 0 0 1 .46-1.1 1.5 1.5 0 0 1 1.1-.46 1.5 1.5 0 0 1 1.1.46 1.5 1.5 0 0 1 .46 1.1c0 .427-.153.79-.46 1.09zm2.4-2.58c-.2-.46-.47-.86-.81-1.2a3.684 3.684 0 0 0-1.21-.8 3.829 3.829 0 0 0-1.48-.29c-.52 0-1.013.097-1.48.29-.467.193-.87.46-1.21.8-.34.34-.61.74-.81 1.2-.2.46-.3.957-.3 1.49 0 .52.1 1.01.3 1.47.2.46.47.86.81 1.2.34.34.743.61 1.21.81.467.2.96.3 1.48.3s1.013-.1 1.48-.3c.467-.2.87-.47 1.21-.81.34-.34.61-.74.81-1.2.2-.46.3-.95.3-1.47 0-.533-.1-1.03-.3-1.49zm7.53 9.17c-.087.187-.2.35-.34.49a1.544 1.544 0 0 1-1.09.45c-.427 0-.793-.15-1.1-.45-.307-.3-.46-.663-.46-1.09a1.5 1.5 0 0 1 .46-1.1 1.5 1.5 0 0 1 1.1-.46 1.544 1.544 0 0 1 1.09.45c.14.14.253.307.34.5a1.475 1.475 0 0 1 0 1.21zm2.07-2.07c-.2-.46-.47-.86-.81-1.2-.34-.34-.743-.61-1.21-.81-.467-.2-.96-.3-1.48-.3s-1.013.1-1.48.3c-.467.2-.87.47-1.21.81-.34.34-.61.74-.81 1.2-.2.46-.3.95-.3 1.47s.1 1.01.3 1.47c.2.46.47.86.81 1.2.34.34.743.61 1.21.81.467.2.96.3 1.48.3s1.013-.1 1.48-.3c.467-.2.87-.47 1.21-.81.34-.34.61-.74.81-1.2.2-.46.3-.95.3-1.47s-.1-1.01-.3-1.47zm-24.584-3.998a11.662 11.662 0 0 1-.48 2.4c-.235.736-.57 1.355-1.008 1.856-.437.501-1.008.752-1.712.752s-1.28-.25-1.728-.752c-.448-.501-.795-1.12-1.04-1.856a10.99 10.99 0 0 1-.496-2.4 24.395 24.395 0 0 1-.128-2.384c0-.704.043-1.483.128-2.336.085-.853.25-1.648.496-2.384.245-.736.592-1.355 1.04-1.856.448-.501 1.024-.752 1.728-.752s1.275.25 1.712.752c.437.501.773 1.12 1.008 1.856s.395 1.53.48 2.384c.085.853.128 1.632.128 2.336 0 .725-.043 1.52-.128 2.384zm5.152-6.944c-.32-1.44-.832-2.699-1.536-3.776a7.912 7.912 0 0 0-2.736-2.576c-1.12-.64-2.48-.96-4.08-.96s-2.965.32-4.096.96a8.01 8.01 0 0 0-2.768 2.576c-.715 1.077-1.232 2.336-1.552 3.776-.32 1.44-.48 2.96-.48 4.56 0 1.6.16 3.125.48 4.576.32 1.45.837 2.725 1.552 3.824a8.047 8.047 0 0 0 2.768 2.624c1.13.65 2.496.976 4.096.976s2.96-.325 4.08-.976a7.951 7.951 0 0 0 2.736-2.624c.704-1.099 1.216-2.373 1.536-3.824.32-1.45.48-2.976.48-4.576 0-1.6-.16-3.12-.48-4.56z" clip-path="url(#aia)"/></svg><svg width="61" height="56" viewBox="0 0 61 56" id="icon-grow" y="324" xmlns="http://www.w3.org/2000/svg"><path fill="#ffeebc" d="M3 40.5h10v14H3z"/><path fill="#ffe495" d="M18 31.5h10v23H18z"/><path fill="#ffd96a" d="M33 23.5h10v31H33z"/><path fill="#ffc200" d="M48 15.5h10v39H48z"/><path fill="#e2e0da" d="M59.983 55.5H1.017A1.008 1.008 0 0 1 0 54.5c0-.553.455-1 1.017-1h58.966c.562 0 1.017.447 1.017 1 0 .553-.455 1-1.017 1z"/><path fill="#d5d2c9" d="M8.031 25.83a1 1 0 0 1-.501-1.866l38.971-22.5a1 1 0 1 1 1 1.732L8.53 25.696a.995.995 0 0 1-.499.134z"/><path fill="#d5d2c9" d="M47.003 3.33a1.11 1.11 0 0 1-.098-.005l-8.562-.83a1 1 0 0 1-.898-1.092.995.995 0 0 1 1.092-.898l8.562.83a1 1 0 0 1-.096 1.995z"/><path fill="#d5d2c9" d="M43.44 11.161a1 1 0 0 1-.91-1.414l3.562-7.83a1 1 0 1 1 1.82.828l-3.562 7.83a.998.998 0 0 1-.91.586z"/></svg><svg width="97" height="31" viewBox="0 0 97 31" id="icon-isr" y="380" xmlns="http://www.w3.org/2000/svg"><path fill="#fff" d="M77.041 15.942h-1.937v3.973h1.958c1.445 0 2.38-.844 2.38-1.934 0-1.238-.876-2.04-2.4-2.04zm-60.803 9.77l-3.2.017.011-9.746-3.26.003s-.094 2.728-.291 4.163c-.359 2.609-.937 3.64-1.76 4.454-.598.595-1.408 1.017-2.343 1.22a5.687 5.687 0 0 1-1.09.125 3.078 3.078 0 0 0-.185-.006h-.015V23.07h.004a.897.897 0 0 0 .185-.02l.036-.008c.934-.264 1.735-1.317 1.976-2.185.35-1.251.501-3.637.504-5.418.001-.797-.01-1.968-.014-2.395h9.442zM7.876.35L0 9.619l.006.006H.002V30.39h22.46l7.578-9.267V.35z"/><path fill="#fff" d="M46.632 22.5c.259-.198.499-.42.716-.663l.018-.022.03-.043 2.227 2.206c-.584.66-1.212 1.16-1.92 1.527-.967.5-2.068.742-3.364.742-3.857 0-6.766-2.89-6.766-6.721v-.039c0-3.854 2.976-6.76 6.921-6.76 1.144 0 2.174.207 3.064.615a6.18 6.18 0 0 1 2.12 1.613l-2.307 2.286-.196-.24c-.8-.842-1.661-1.23-2.72-1.23-1.92 0-3.367 1.58-3.367 3.678v.038c0 2.121 1.448 3.72 3.368 3.72.845 0 1.537-.225 2.176-.707zM41.025.35L33.15 9.619l.004.006h-.004V30.39h22.46l7.577-9.269V.35zm41.702 17.402c0 2.854-2.057 5.074-5.52 5.074l-2.103-.009v3.157h-3.399V12.997h5.598c3.346 0 5.424 1.868 5.424 4.65v.105zM74.175.35L66.3 9.619l.004.006H66.3V30.39h22.46l7.578-9.267V.35z"/></svg><svg width="92" height="31" viewBox="0 0 92 31" id="icon-lider-new" y="411" xmlns="http://www.w3.org/2000/svg"><path fill="#fff" d="M70.723 18.24c-.812.882-1.993 1.47-3.285 1.47a4.45 4.45 0 1 1 0-8.898c.96 0 1.845.294 2.584.809l2.436-3.42a8.664 8.664 0 0 0-5.02-1.581c-4.762 0-8.638 3.86-8.638 8.604 0 4.743 3.876 8.604 8.638 8.604 2.215 0 4.208-.846 5.758-2.206zm-31.377-2.986c0-2.61 2.14-4.743 4.762-4.743v9.487c-2.621 0-4.762-2.133-4.762-4.744m11.702-8.126l-2.437 3.383c2.4.258 4.282 2.28 4.282 4.707 0 2.61-2.14 4.743-4.762 4.743V2.9h-4.023v3.75c-4.762 0-8.638 3.861-8.638 8.604 0 4.744 3.876 8.605 8.638 8.605v3.897h4.023V23.86c4.762 0 8.638-3.861 8.638-8.605.037-3.75-2.362-6.912-5.721-8.126m35.554-.139h4.581l-6.022 8.163 6.355 8.383H86.86l-6.208-8.273zm-6.54 16.546H75.67V6.99h4.393zM12.03 9.046h17.35A15.313 15.313 0 0 0 20.298.81z"/><path fill="#fff" d="M30.235 11.472H9.084c-.48 0-.923-.294-1.144-.735a1.247 1.247 0 0 1 .258-1.324L17.5.147A13.656 13.656 0 0 0 15.36 0C6.905 0 .04 6.84.04 15.26c0 1.14.11 2.242.37 3.272h21.372c.48 0 .923.294 1.144.735.185.441.074.993-.258 1.324l-9.745 9.744c.812.147 1.624.184 2.473.184 8.453 0 15.32-6.84 15.32-15.26-.038-1.287-.185-2.574-.48-3.787z"/><path fill="#fff" d="M18.825 20.96H1.18a15.321 15.321 0 0 0 9.007 8.64z"/></svg><svg width="17" height="24" viewBox="0 0 17 24" id="icon-map" y="442" xmlns="http://www.w3.org/2000/svg"><defs><clipPath id="ama"><path fill="#fff" d="M8.5 0C3.813 0 0 3.9 0 8.692c0 5.948 7.607 14.68 7.93 15.048a.754.754 0 0 0 1.14 0c.323-.368 7.93-9.1 7.93-15.048C17 3.899 13.187 0 8.5 0z"/></clipPath></defs><path fill="none" stroke="#a59f8c" stroke-miterlimit="50" stroke-width="4" d="M8.5 0C3.813 0 0 3.9 0 8.692c0 5.948 7.607 14.68 7.93 15.048a.754.754 0 0 0 1.14 0c.323-.368 7.93-9.1 7.93-15.048C17 3.899 13.187 0 8.5 0z" clip-path="url(#ama)"/><path fill="#8f8871" d="M8.472 4.993l3.535 3.535-3.535 3.536-3.536-3.536z"/></svg><svg width="34" height="48" viewBox="0 0 34 48" id="icon-marker-big" y="466" xmlns="http://www.w3.org/2000/svg"><path fill="#ffc200" d="M17 0C7.626 0 0 7.798 0 17.384c0 11.895 15.213 29.36 15.861 30.097a1.51 1.51 0 0 0 2.278 0C18.787 46.743 34 29.279 34 17.384 34 7.798 26.374 0 17 0z"/><path fill="#423f34" d="M-214.23 9.086l7.072 7.07-7.071 7.072-7.071-7.071z"/></svg><svg width="17" height="24" viewBox="0 0 17 24" id="icon-marker-small" y="514" xmlns="http://www.w3.org/2000/svg"><path fill="#ffc200" d="M8.5 0C3.813 0 0 3.9 0 8.692c0 5.948 7.607 14.68 7.93 15.048a.754.754 0 0 0 1.14 0c.323-.368 7.93-9.1 7.93-15.048C17 3.899 13.187 0 8.5 0z"/><path fill="#423f34" d="M-136.804 17.72l3.536 3.535-3.536 3.535-3.535-3.535z"/></svg><svg width="118" height="24" viewBox="0 0 118 24" id="icon-opening" y="538" xmlns="http://www.w3.org/2000/svg"><path fill="#fff" d="M86.34 6.93h8.584v1.913h-.622s-.103-.981-1.085-.981H91.72v8.84h-2.122v-8.84h-1.552c-.825 0-1.033.672-1.085.981h-.62zm17.94 0h1.551v9.772h-2.07V9.878l-5.116 6.824h-1.553V8.739c0-1.137-.982-1.29-.982-1.29V6.93h3.05v6.877zm-44.869 9.772h-2.688l-1.914-3.62s-.569-1.084-1.19-1.084h-.774v4.704h-2.121V8.739c0-1.137-1.034-1.238-1.034-1.238V6.93h3.155v4.083h.93s.62-.05 1.137-.877c1.656-2.69 1.448-3.206 2.172-3.206h2.068v.672c-1.448 0-1.861 2.948-3.258 3.878.674.257.932.878 2.43 3.62 0 0 .363.929 1.087.929zm57.741-2.116c-.983 1.344-2.43 2.276-4.343 2.276-2.586 0-5.069-2.017-5.069-4.655v-.567c0-2.845 2.276-4.86 5.069-4.86 2.792 0 4.964 2.274 4.964 5.015h-7.498v1.603c0 1.394 1.137 2.532 2.793 2.532 1.447 0 2.43-.619 3.206-1.448zm-6.874-3.774h5.051v-.518a2.534 2.534 0 0 0-2.525-2.533 2.534 2.534 0 0 0-2.526 2.533zm-41.61 2.533c0 1.24-.878 2.43-2.221 2.483h-.204c-1.188 0-2.223-.88-2.376-1.81V9.831c.102-.984 1.083-2.07 2.376-2.07h.41s1.964.105 2.015 2.483zM63.864 8.02V6.934H60.76v.569s.983.154.983 1.241v12.41h2.12v-5.482c.982 1.138 2.274 1.19 2.689 1.19 2.74-.052 4.6-2.171 4.6-4.81v-.621c0-2.842-1.758-4.651-4.445-4.651-1.19 0-2.328.515-2.843 1.24zM37.19 13.283c0 1.397-1.087 2.636-2.693 2.636s-2.642-1.24-2.642-2.636v-3.101c0-1.396 1.19-2.48 2.642-2.48 1.606 0 2.693 1.136 2.693 2.533zm-7.87-1.808v.827c0 2.172 2.121 4.55 5.172 4.55 2.844 0 5.222-2.119 5.222-4.602v-.674c0-2.479-1.965-4.806-5.222-4.806-3.672 0-5.172 2.844-5.172 4.705zM84.892 6.93H81.79v.57s1.033.153 1.033 1.29v7.912h2.07zm-9.102 8.79v-4.086h1.812c.983 0 1.76.776 1.76 1.914v.414c0 .931-.88 1.757-1.812 1.757zm.003-5.066V6.93H72.69v.57s.93.102.93 1.239v7.963h4.809c1.862 0 3.206-1.136 3.206-2.74v-.464c0-1.762-1.292-2.844-3.31-2.844zM40.07 6.93h8.584v1.913h-.621s-.104-.981-1.087-.981h-1.5v8.84h-2.12v-8.84h-1.55c-.828 0-1.036.672-1.085.981h-.621zm-20.957 5.456c0 2.773-1.441 5.26-3.763 6.492l-.532.25a1.34 1.34 0 0 1-.556.128c-.362 0-.65-.154-.821-.434a1.078 1.078 0 0 1-.123-.77.988.988 0 0 1 .483-.645c1.37-.623 2.25-2.023 2.25-3.569V9.794c0-1.548-.877-2.945-2.233-3.56-.002-.003-.407-.197-.5-.657a1.07 1.07 0 0 1 .123-.767c.17-.28.459-.435.821-.435.186 0 .38.042.554.125l.52.246c2.333 1.238 3.777 3.726 3.777 6.497zm-9.627 5.666c.053.287.015.538-.123.77-.171.28-.46.434-.823.434-.186 0-.379-.046-.555-.127l-.535-.25c-2.325-1.232-3.768-3.72-3.768-6.493v-1.143c0-2.771 1.446-5.26 3.78-6.497.022-.008.523-.246.523-.246.176-.083.37-.125.554-.125.362 0 .653.156.824.435.138.229.176.481.123.767-.092.46-.496.654-.501.657-1.357.615-2.234 2.012-2.234 3.56v4.044c0 1.546.878 2.946 2.25 3.569a.99.99 0 0 1 .485.645zM0 11.82c0 6.297 5.106 11.4 11.402 11.4 6.297 0 11.402-5.103 11.402-11.4 0-6.297-5.105-11.4-11.402-11.4C5.106.42 0 5.524 0 11.82z"/></svg><svg width="110" height="22" viewBox="0 0 110 22" id="icon-otpbank" y="562" xmlns="http://www.w3.org/2000/svg"><path fill="#fff" d="M5.99 10.968a4.808 4.808 0 1 1 9.615-.001 4.808 4.808 0 0 1-9.615.001m8.3-6.126a2.622 2.622 0 1 1 5.244 0 2.622 2.622 0 0 1-5.244 0M98.398 7.6l-.324 1.652c-.765 3.594-1.05 4.755-1.714 8.326l-.144.13-2.116.063-.101-.15.847-3.678.25-1.207c-.907-.02-1.814-.04-2.72-.04-.71 0-1.25.012-1.805.025-.308 1.448-.57 2.72-.965 4.857l-.146.13-2.115.063-.105-.15.852-3.678.332-1.607c.559-2.523.662-3.08.995-5.411l.144-.15a21.072 21.072 0 0 0 2.2-.385l.103.149-.225 1.062-.32 1.651-.338 1.565c.762.017 1.527.03 2.29.03.807 0 1.34-.015 2.24-.034.289-1.368.408-2.114.662-3.888l.145-.15a20.946 20.946 0 0 0 2.198-.385l.103.149zm-26.452 4.546c-.382 1.733-1.23 4.06-3.504 4.06-1.147 0-2.166-.742-2.166-2.433 0-.781.424-5.94 3.759-5.94.786 0 2.166.358 2.166 2.494 0 .592-.106 1.205-.255 1.819m2.224.66c.19-.74.32-1.501.32-2.242 0-2.728-1.661-4.273-4.449-4.273a6.77 6.77 0 0 0-2.026.308c.075-.15.174-.35.31-.567.14-.219.317-.457.547-.676.463-.444 1.134-.81 2.104-.82.78-.008 2.12-.117 2.962-.333l.308-1.903c-.84.196-2.072.259-2.682.265-4.563.046-6.641 4.567-7.41 9.334a4.97 4.97 0 0 0-.043.324 8.386 8.386 0 0 0-.091 1.22c0 2.876 1.552 4.335 4.383 4.335 4 0 5.298-3.152 5.767-4.972m8.562 1.856c-.233.186-.465.394-.699.54-.551.331-1.271.475-1.845.475-1.926 0-2.478-1.595-2.478-2.591 0-.104.042-2.777 2.269-4.27 1.25-.83 2.627-.87 3.326-.87.317 0 .635.02.953.02zm4.05-8.086l-.106-.166-2.926-.02c-1.95 0-4.684.125-6.654 2.384-.89 1.037-1.696 2.82-1.696 4.458 0 2.59 1.76 4.084 3.92 4.084 1.8 0 2.735-.768 3.094-1.058l-.147.83.105.144 1.993-.041.148-.145c.423-2.466.572-3.255 1.314-6.448zM34.38 11.702c-.395 1.83-.854 2.367-1.083 2.656-.355.431-.896.802-1.522.802-.688 0-1.25-.33-1.48-.989-.062-.143-.124-.41-.124-.905 0-.946.437-3.292 1.228-4.3.23-.268.731-.845 1.71-.845 1.23 0 1.48 1.07 1.48 1.832 0 .638-.104 1.235-.208 1.75m3.42.78a8.74 8.74 0 0 0 .27-2.057c0-1.234-.251-2.387-1.314-3.334-.98-.864-2.313-1.152-3.627-1.152-5.419 0-6.44 4.96-6.44 6.854 0 1.543.436 2.674 1.354 3.456 1 .866 2.46 1.071 3.543 1.071 1.584 0 2.94-.33 4.128-1.297 1.105-.884 1.752-2.18 2.085-3.54m8.94-3.886l-.243.002c-.197.829-.419 1.79-.767 3.32l-.34 1.55c-.382 1.78-.445 2.218-.678 3.662l-.15.104-3.669.085-.106-.145c.637-2.45.765-2.933 1.38-5.611l.233-1.027c.19-.847.309-1.398.407-1.916h-.117l-1.143.019-2.46.084-.107-.168.7-2.448.17-.105h7.19l3.65-.064.126.126-.678 2.47-.17.146-2.08-.084zm11.975-.008l-3.952.032s-.494 1.583-.922 3.344c-.427 1.762-.92 3.722-1.207 5.166l-.15.104-3.385.085-.099-.148c.725-2.448.869-2.93 1.582-5.608l.27-1.027c.23-.882.35-1.445.488-1.982l.591-2.448.164-.105h6.84l3.594-.063.128.126s-.693 3.404-1.124 5.716c-.433 2.312-.937 5.35-.937 5.35l-.141.104-3.526.076-.112-.147c.56-2.436.96-4.219 1.262-5.61.302-1.39.508-2.37.636-2.965m44.136 2.5a36.45 36.45 0 0 0 1.506-1.406c.745-.728 2.552-2.61 2.895-2.974l.233-.128h2.449l.062.193c-.212.192-.32.278-1.17 1.005-.34.278-.553.492-.958.855l-2.766 2.568 3.298 6.31-.127.171-2.362.065-.171-.129c-.554-1.326-.704-1.625-1.47-3.186l-1.488-3.039c-.47 2.107-.76 3.43-1.285 6.183l-.15.13-2.17.063-.107-.15.874-3.68.34-1.605c.575-2.523.68-3.08 1.022-5.411l.149-.15c1-.129 1.235-.172 2.256-.385l.106.149-.23 1.062-.33 1.651z"/><path fill="#fff" d="M10.776.48v3.79a6.697 6.697 0 0 0-6.686 6.7 6.698 6.698 0 1 0 13.398-.025l3.79.003c0 5.815-4.696 10.51-10.49 10.51C4.997 21.458.3 16.763.3 10.97.3 5.18 4.99.487 10.776.48z"/></svg><svg width="51" height="51" viewBox="0 0 51 51" id="icon-pik" y="584" xmlns="http://www.w3.org/2000/svg"><path fill="#fff" d="M35.318 20.01v16.34h4.335v-5.193l1.275-1.267 4.972 6.46H51l-7.14-9.373L51 20.011h-5.61l-5.737 6.079v-6.08zm-18.488 0v16.34h6.63l5.482-12.919V36.35h4.335V20.01h-6.502l-5.61 13.045V20.01zM4.335 23.938h6.12V36.35h4.335V20.01H0v16.338h4.335zM25.5 0L0 12.918v5.446L25.5 5.573 51 18.364v-5.446zm18.23 42.3l-1.02 2.786h1.912z"/><path fill="#fff" d="M9.69 41.03v1.52H5.993v5.445H4.335V41.03zm4.59 0c1.403 0 2.422.76 2.422 2.28 0 1.52-1.147 2.279-2.422 2.279h-1.912v2.406H10.71V41.03zm6.12 3.04l1.657-3.04h1.785l-3.952 6.965h-1.785l1.402-2.406-2.805-4.56h2.04zm4.335-3.04h6.375v6.965h-1.657V42.55h-3.06v5.446h-1.658zm7.778 0h6.375v6.965H37.23V42.55h-3.06v5.446h-1.657zm12.367 0l2.55 6.965h-1.785l-.51-1.393h-2.932l-.51 1.393h-1.785l2.677-6.965zM0 50.655h51V38.37H0z"/><path fill="#fff" d="M15.175 43.317c0-.634-.383-.887-1.02-.887H12.37v1.773h1.785c.51 0 1.02-.253 1.02-.886z"/></svg><svg width="48" height="48" viewBox="0 0 48 48" id="icon-play" y="635" xmlns="http://www.w3.org/2000/svg"><path fill="#ffc200" d="M0 24C0 10.745 10.745 0 24 0s24 10.745 24 24-10.745 24-24 24S0 37.255 0 24zm18-10v21l18-11z"/></svg><svg width="119" height="24" viewBox="0 0 119 24" id="icon-sber" y="683" xmlns="http://www.w3.org/2000/svg"><path fill="#fff" d="M31.318 14.74c.48.543 1.055.938 1.775 1.235.72.296 1.535.444 2.543.444.48 0 .96-.049 1.344-.098.432-.05.767-.149 1.103-.297.336-.099.624-.247.912-.346.24-.148.48-.247.672-.346l-.336-.74-.576.296c-.192.098-.384.148-.624.247-.24.05-.48.148-.767.148-.288.05-.624.05-1.008.05-.72 0-1.344-.149-1.776-.445-.48-.297-.815-.692-1.103-1.137a6.047 6.047 0 0 1-.528-1.73 15.476 15.476 0 0 1-.144-2.174c0-.593.048-1.235.096-1.877a4.536 4.536 0 0 1 .432-1.68c.24-.495.528-.89.96-1.236.431-.296 1.007-.494 1.727-.494a2.89 2.89 0 0 1 1.727.544c.48.346.768.938.912 1.68h.768V4.362c-.24-.098-.48-.197-.768-.296a4.97 4.97 0 0 0-.912-.198c-.335-.05-.623-.05-.96-.099-.287 0-.575-.049-.815-.049-1.056 0-1.92.148-2.687.445a4.938 4.938 0 0 0-1.823 1.285c-.48.543-.816 1.235-1.056 2.025-.24.791-.336 1.73-.336 2.718 0 .94.096 1.829.336 2.57.144.84.48 1.482.912 1.976zm45.139.068a.446.446 0 0 1-.145-.342c0-.147-.048-.342-.048-.586V8.8h1.015c.917 0 1.594.244 1.98.732.387.489.58 1.27.58 2.345 0 .733-.048 1.27-.193 1.71-.145.44-.29.732-.532.976a2.877 2.877 0 0 1-.724.44c-.29.049-.58.098-.87.098-.29-.05-.531-.05-.676-.098-.145-.049-.29-.098-.387-.195zm2.945.879a4.068 4.068 0 0 0 1.592-.489c.482-.293.868-.683 1.109-1.22.29-.538.434-1.27.434-2.199 0-.684-.097-1.22-.29-1.71-.192-.488-.482-.83-.916-1.172-.434-.293-.964-.488-1.64-.634-.675-.147-1.494-.196-2.459-.196h-1.013V5.185c0-.293.049-.488.193-.586.145-.097.386-.097.772-.097h1.447c.434 0 .82 0 1.109.048.29.05.53.098.675.245.193.146.337.341.434.586.096.244.241.586.337 1.025h.627V3.72H72.94v.39c.048 0 .096.05.241.05.145.048.241.097.29.146.048.049.096.147.144.293 0 .147.048.293.048.489v9.329c0 .195 0 .39-.048.488 0 .147-.048.245-.145.293-.048.05-.144.147-.289.147-.145.049-.193.049-.241.049v.39h4.485c.723 0 1.35 0 1.977-.097zM65.94 4.798c0-.098.048-.147.096-.195.047-.05.143-.098.286-.098.144 0 .287-.05.526-.05.287 0 .574.05.86.099.287.097.478.244.717.44.191.196.335.49.478.832.096.343.144.784.144 1.273 0 1.029-.144 1.812-.43 2.35-.287.539-.813.833-1.53.833h-1.195v-5.19c0-.098 0-.196.048-.294zm.38 10.594c-.142-.049-.237-.098-.285-.147-.048-.049-.095-.147-.143-.294 0-.147-.048-.294-.048-.49v-3.385h1.192c.619 0 1.19-.049 1.762-.147a4.43 4.43 0 0 0 1.477-.54c.43-.293.763-.637 1-1.176.24-.49.382-1.177.382-2.011 0-.785-.143-1.422-.334-1.864-.238-.441-.571-.833-.952-1.079-.382-.245-.858-.392-1.382-.44a16.937 16.937 0 0 0-1.62-.099H62.7v.392c.048 0 .095.05.238.05.143.048.238.097.286.147.048.049.095.147.143.294 0 .147.048.294.048.49v9.318c0 .196 0 .393-.048.49 0 .148-.048.246-.143.295-.048.05-.143.147-.286.147-.143.05-.19.05-.238.05v.392h3.86v-.344c-.049 0-.096-.049-.24-.049zm-5.543-2.354h-.805c-.1.49-.201.834-.302 1.128-.1.294-.201.49-.403.638-.15.147-.402.245-.704.245-.302.049-.705.049-1.258.049-.503 0-.906 0-1.157-.05-.302-.048-.504-.097-.655-.195-.15-.098-.251-.246-.251-.393-.05-.196-.05-.392-.05-.686V9.948h2.163c.201 0 .403.05.604.05.201 0 .403.049.604.098.201.049.352.098.503.196v-1.57a1.53 1.53 0 0 1-.503.197 2.59 2.59 0 0 1-.604.098c-.201.049-.403.049-.604.049h-2.163V5.044c0-.245.05-.441.1-.54.1-.097.252-.097.503-.097h1.359c.453 0 .855 0 1.157.049.302.049.554.098.705.245.201.147.352.343.453.588.1.246.251.589.352 1.03h.654V3.72H51.82v.392c.05 0 .1.05.252.05.15.048.251.097.302.147.05.049.1.147.15.294 0 .147.05.294.05.49v9.318c0 .196 0 .393-.05.49 0 .148-.05.246-.15.295-.05.049-.151.147-.302.147-.151.05-.202.05-.252.05v.392h8.957v-2.747zm-16.357 1.77a.446.446 0 0 1-.146-.342c0-.147-.048-.342-.048-.586V8.8h1.014c.918 0 1.595.244 1.981.732.387.489.58 1.27.58 2.345 0 .733-.049 1.27-.193 1.71-.145.44-.29.732-.532.976a2.877 2.877 0 0 1-.724.44c-.29.049-.58.098-.87.098-.29-.05-.483-.05-.676-.098-.145-.049-.29-.098-.387-.195zm2.944.879a4.068 4.068 0 0 0 1.591-.489 3.12 3.12 0 0 0 1.158-1.22c.29-.538.434-1.27.434-2.199 0-.684-.097-1.22-.29-1.71-.192-.488-.482-.83-.916-1.172-.434-.293-.964-.488-1.64-.634-.675-.147-1.494-.196-2.459-.196h-1.013V5.185c0-.293.049-.488.193-.586.145-.097.386-.097.772-.097h1.447c.434 0 .82 0 1.109.048.29.05.53.098.675.245.193.146.337.341.434.586.096.244.241.586.337 1.025h.627V3.72H40.95v.39c.048 0 .096.05.241.05.145.048.241.097.29.146.048.049.096.147.144.293 0 .147.048.293.048.489v9.28c0 .195 0 .342-.048.488 0 .147-.048.245-.145.294-.048.048-.144.146-.289.146-.145.049-.193.049-.241.049v.44h4.485c.723 0 1.302 0 1.929-.098zM29.43 18.96H119v1.27H29.43zm82.6-7.816c.238.342.427.635.664.928.19.293.427.586.616.88.19.293.38.586.617.879.236.342.426.635.616.977.19.293.331.635.474.928l3.98.049c-.426-.44-.805-.88-1.232-1.32-.379-.439-.71-.83-.948-1.074-.379-.44-.71-.83-.995-1.172-.332-.39-.616-.733-.9-1.075a15.86 15.86 0 0 1-.806-1.074 24.482 24.482 0 0 1-.758-1.173l.19-.244c.284-.39.615-.781.995-1.27.379-.488.758-.977 1.184-1.416.427-.489.806-.928 1.233-1.319.426-.39.758-.684 1.09-.928h-2.75a7.399 7.399 0 0 1-.426.88c-.19.341-.379.732-.663 1.123-.237.39-.521.83-.758 1.27-.285.44-.522.83-.806 1.22-.284.391-.521.782-.758 1.075-.237.342-.427.586-.569.83l.71 1.026zm-.711 4.297c-.048 0-.095-.049-.237-.049-.142-.049-.237-.098-.285-.147-.047-.049-.094-.147-.142-.294 0-.147-.047-.294-.047-.49v-9.32c0-.196 0-.392.047-.49 0-.147.048-.245.142-.294.048-.05.143-.099.285-.148.142-.049.19-.049.237-.049v-.44h-3.839v.392c.047 0 .095.05.237.05.142.048.237.097.284.147.048.049.095.147.142.294 0 .147.048.294.048.49v9.318c0 .196 0 .393-.048.49 0 .148-.047.246-.142.295-.047.05-.142.147-.284.147-.142.05-.19.05-.237.05v.392h3.839zM87.778 5.674l1.603 4.894h-3.304zm-2.77 8.596c.146-.683.437-1.66.826-2.881h3.839l.534 1.563c.243.683.438 1.27.535 1.758.146.488.243.83.243 1.075h3.061c-.146-.245-.291-.587-.486-.977a13.717 13.717 0 0 1-.68-1.71l-2.77-7.913c-.146-.342-.194-.635-.243-.879-.048-.244-.048-.44-.097-.586h-3.45v.39c.049 0 .097.05.243.05.146.048.243.097.292.146.048.049.097.147.145.293v.244c0 .293-.048.587-.145.782l-1.944 4.787c-.34.879-.68 1.66-.923 2.246-.243.587-.486 1.124-.632 1.515-.194.39-.34.732-.486.977-.146.244-.243.44-.34.635h2.187c.048-.342.145-.83.291-1.515zm14.22 1.124h-.096c-.048 0-.096-.05-.24-.05-.145-.048-.241-.097-.29-.146-.048-.048-.096-.146-.144-.293 0-.146-.048-.293-.048-.488v-4.64h4.62v4.591c0 .195 0 .39-.048.488 0 .147-.048.245-.144.294-.049.048-.145.146-.29.146-.144.049-.192.049-.24.049v.39h3.898v-.39c-.048 0-.096-.049-.24-.049a.8.8 0 0 1-.289-.146c-.048-.05-.096-.147-.144-.294 0-.146-.049-.293-.049-.488V5.039c0-.196 0-.391.049-.489 0-.146.048-.244.144-.293.048-.049.144-.097.289-.146.144-.05.192-.05.24-.05V3.72h-3.802v.39c.049 0 .097.05.241.05.144.048.24.097.289.146.048.049.096.147.144.293 0 .147.048.293.048.489v3.858h-4.62V5.088c0-.196 0-.391.048-.489 0-.146.049-.244.145-.293.048-.049.144-.098.289-.146.144-.05.192-.05.24-.05v-.39H95.33v.39c.048 0 .096.05.24.05.145.048.241.097.29.146a.822.822 0 0 1 .144.293c0 .147.048.293.048.489v9.329c0 .195 0 .342-.048.488 0 .147-.048.245-.145.293-.048.05-.144.147-.288.147-.145.049-.193.049-.241.049v.39h3.898v-.39zM21.753 4.778L21.02 3.72 7.482 11.733.933 7.853a6.317 6.317 0 0 0-.293 1.31l6.891 4.082z"/><path fill="#fff" d="M7.211 14.931L.05 10.82c-.05.247-.05.545-.05.792 0 6.491 5.272 11.793 11.836 11.793 6.515 0 11.836-5.252 11.836-11.793 0-1.932-.448-3.765-1.293-5.351z"/><path fill="#fff" d="M19.834 2.7c-.35-.346-.7-.593-1.05-.89L6.938 8.582 1.24 5.369c-.2.346-.4.741-.6 1.137l6.248 3.559z"/><path fill="#fff" d="M17.915 1.254c-.442-.255-.883-.51-1.374-.714L7.466 5.995 3.394 3.6c-.294.306-.54.663-.834 1.02l4.857 2.906z"/></svg><svg width="25" height="224" viewBox="0 0 25 224" id="icon-scroll" y="707" xmlns="http://www.w3.org/2000/svg"><defs><mask id="aub" width="2" height="2" x="-1" y="-1"><path fill="#fff" d="M6 20h13v13H6z"/><path d="M12.5 33a6.5 6.5 0 1 0 0-13 6.5 6.5 0 0 0 0 13z"/></mask><filter id="aua" width="49" height="51" x="-12" y="2" filterUnits="userSpaceOnUse"><feOffset dy="2" in="SourceGraphic" result="FeOffset1250Out"/><feGaussianBlur in="FeOffset1250Out" result="FeGaussianBlur1251Out" stdDeviation="3.2 3.2"/></filter></defs><path fill="#d5d2c9" d="M12 0h1v224h-1z"/><g filter="url(#aua)"><path fill="none" d="M12.5 33a6.5 6.5 0 1 0 0-13 6.5 6.5 0 0 0 0 13z" mask="url(#aub)"/><path fill-opacity=".24" d="M12.5 33a6.5 6.5 0 1 0 0-13 6.5 6.5 0 0 0 0 13z"/></g><path fill="#fff" d="M12.5 33a6.5 6.5 0 1 0 0-13 6.5 6.5 0 0 0 0 13z"/></svg><svg width="25" height="448" viewBox="0 0 25 448" id="icon-scroll-big" y="931" xmlns="http://www.w3.org/2000/svg"><defs><mask id="avb" width="2" height="2" x="-1" y="-1"><path fill="#fff" d="M6 20h13v13H6z"/><path d="M12.5 33a6.5 6.5 0 1 0 0-13 6.5 6.5 0 0 0 0 13z"/></mask><filter id="ava" width="49" height="51" x="-12" y="2" filterUnits="userSpaceOnUse"><feOffset dy="2" in="SourceGraphic" result="FeOffset1745Out"/><feGaussianBlur in="FeOffset1745Out" result="FeGaussianBlur1746Out" stdDeviation="3.2 3.2"/></filter></defs><path fill="#d5d2c9" d="M12 0h1v448h-1z"/><g filter="url(#ava)"><path fill="none" d="M12.5 33a6.5 6.5 0 1 0 0-13 6.5 6.5 0 0 0 0 13z" mask="url(#avb)"/><path fill-opacity=".24" d="M12.5 33a6.5 6.5 0 1 0 0-13 6.5 6.5 0 0 0 0 13z"/></g><path fill="#fff" d="M12.5 33a6.5 6.5 0 1 0 0-13 6.5 6.5 0 0 0 0 13z"/></svg><svg width="21" height="20" viewBox="0 0 21 20" id="icon-search" y="1379" xmlns="http://www.w3.org/2000/svg"><defs><clipPath id="awa"><path fill="#fff" d="M0 8.013C0 3.587 3.595 0 8.03 0c4.436 0 8.031 3.587 8.031 8.013 0 4.425-3.595 8.012-8.03 8.012C3.595 16.025 0 12.438 0 8.013zm13.612 7.742l2.129-2.121L20 17.879 17.871 20z"/></clipPath></defs><path fill="none" stroke="#8f8871" stroke-miterlimit="50" stroke-width="4" d="M0 8.013C0 3.587 3.595 0 8.03 0c4.436 0 8.031 3.587 8.031 8.013 0 4.425-3.595 8.012-8.03 8.012C3.595 16.025 0 12.438 0 8.013zm13.612 7.742l2.129-2.121L20 17.879 17.871 20z" clip-path="url(#awa)"/></svg><svg width="52" height="60" viewBox="0 0 52 60" id="icon-shield" y="1399" xmlns="http://www.w3.org/2000/svg"><path fill="#ffd96a" d="M48.456 40.068c-1.613 4.37-4.052 8.17-7.25 11.294-3.641 3.555-8.408 6.38-14.17 8.395A4.413 4.413 0 0 1 25.66 60h-.051a4.399 4.399 0 0 1-1.426-.242c-5.768-2.012-10.542-4.835-14.186-8.39-3.2-3.123-5.638-6.921-7.248-11.292C-.181 32.129-.014 23.375.12 16.34l.002-.108c.027-.581.045-1.191.054-1.865.05-3.308 2.68-6.045 5.988-6.23 6.899-.385 12.235-2.635 16.795-7.08l.04-.036a3.841 3.841 0 0 1 5.218 0l.039.037c4.56 4.444 9.897 6.694 16.796 7.08 3.308.184 5.939 2.92 5.988 6.229.01.678.027 1.288.054 1.865l.001.046c.134 7.048.3 15.82-2.64 23.79z"/><path fill="#ffc200" d="M48.456 40.067c-1.613 4.37-4.051 8.171-7.25 11.295-3.64 3.555-8.408 6.38-14.17 8.394A4.413 4.413 0 0 1 25.66 60V0a3.85 3.85 0 0 1 2.559 1.02l.038.037c4.561 4.445 9.898 6.695 16.796 7.08 3.309.184 5.94 2.921 5.988 6.23.01.678.027 1.287.054 1.864l.002.046c.133 7.048.299 15.82-2.64 23.79z"/><path fill="#fff" d="M40.557 30.003c0 8.228-6.68 14.925-14.9 14.954h-.053c-8.245 0-14.954-6.708-14.954-14.954 0-8.244 6.709-14.953 14.954-14.953h.052c8.22.03 14.901 6.726 14.901 14.953z"/><path fill="#eeede9" d="M40.56 30.003c0 8.228-6.68 14.925-14.9 14.954V15.05c8.22.03 14.9 6.726 14.9 14.953z"/><path fill="#ffd96a" d="M32.395 27.845l-6.735 6.736-1.455 1.455a1.756 1.756 0 0 1-1.245.516 1.76 1.76 0 0 1-1.246-.516l-3.128-3.13a1.76 1.76 0 1 1 2.489-2.49l1.885 1.886 6.946-6.946a1.76 1.76 0 1 1 2.489 2.49z"/><path fill="#ffc200" d="M32.395 27.845l-6.735 6.736V29.6l4.245-4.245a1.76 1.76 0 1 1 2.49 2.49z"/></svg><svg width="12" height="10" viewBox="0 0 12 10" id="icon-sort" y="1459" xmlns="http://www.w3.org/2000/svg"><path fill="#423f34" d="M0 0h6v2H0zm0 4h9v2H0zm0 4h12v2H0z"/></svg><svg width="118" height="15" viewBox="0 0 118 15" id="icon-sovbank" y="1469" xmlns="http://www.w3.org/2000/svg"><path fill="#fff" d="M8.815.48v3.845H7.39c-1.8 0-3.25 1.517-3.25 3.401 0 1.883 1.45 3.4 3.25 3.4h1.425v3.845c3.25-.654 5.676-3.636 5.676-7.246 0-3.583-2.425-6.565-5.676-7.245"/><path fill="#fff" d="M52.633 7.738l4.425 4.473h-1.956l-3.73-3.757h-1.491v3.757H48.44V3.215h1.44v3.782h1.518l3.73-3.782h1.981zm9.41-3.296a3.27 3.27 0 0 0-3.287 3.27 3.27 3.27 0 0 0 3.287 3.272c1.798 0 3.288-1.457 3.288-3.272a3.27 3.27 0 0 0-3.288-3.27zm.005 8.152c-2.727 0-4.913-2.198-4.913-4.882 0-2.683 2.212-4.881 4.913-4.881 2.727 0 4.914 2.198 4.914 4.881 0 2.71-2.213 4.882-4.914 4.882zM32.074 4.442a3.27 3.27 0 0 0-3.288 3.27 3.27 3.27 0 0 0 3.288 3.272 3.27 3.27 0 0 0 3.288-3.272 3.27 3.27 0 0 0-3.288-3.27zm.03 8.152c-2.726 0-4.913-2.198-4.913-4.882 0-2.683 2.212-4.881 4.913-4.881s4.914 2.198 4.914 4.881c0 2.71-2.213 4.882-4.914 4.882zm46.573-9.38v8.997h-1.442V5.719l-3.631 4.242-3.682-4.344v6.594h-1.469V3.215h1.469v.05l.025-.05 3.657 4.344 3.63-4.344zm-53.801 7.029l1.157 1.15a4.8 4.8 0 0 1-3.24 1.227 4.919 4.919 0 0 1-4.914-4.908c0-2.683 2.186-4.881 4.913-4.881a4.915 4.915 0 0 1 3.319 1.278l-1.158 1.15a3.232 3.232 0 0 0-2.16-.817 3.271 3.271 0 1 0 0 6.542 3.285 3.285 0 0 0 2.083-.741zM7.28 12.212h.283v2.76H7.28c-4.013 0-7.28-3.247-7.28-7.26C0 3.726 3.267.48 7.28.48h.282v2.735H7.28c-2.495 0-4.527 2.02-4.527 4.498 0 2.479 2.033 4.497 4.528 4.497zm89.671.684l-.863-2.011H91.46l-.864 2.01H89.02l3.94-9.315h1.627l3.942 9.315h-1.577zM113.6 8.264l4.342 4.632h-1.93l-3.656-3.89h-1.499v3.89h-1.422V3.58h1.422v3.917h1.499l3.708-3.917h1.928zm-73.763 3.128V8.99h4.02c.674 0 1.213.554 1.213 1.188-.027.66-.566 1.214-1.24 1.214zm0-6.307h3.985c.673 0 1.21.527 1.21 1.187s-.537 1.188-1.21 1.188h-3.985zm5.88 3.14c.512-.502.864-1.188.864-1.953a2.71 2.71 0 0 0-2.725-2.692H38.3v9.316h5.556c1.51-.026 2.725-1.24 2.725-2.718 0-.742-.313-1.45-.864-1.953zm41.37 1.953c0-.634-.508-1.188-1.142-1.188h-3.758v2.402h3.758c.634 0 1.142-.555 1.142-1.214zm-1.142 2.718H80.74V3.58h6.931v1.504h-5.484v2.402h3.758c1.421 0 2.59 1.214 2.59 2.692 0 1.478-1.169 2.692-2.59 2.718zm21.707-9.29v9.227h-1.447v-3.85H101v3.85h-1.447V3.607H101v3.875h5.205V3.607z"/></svg><svg width="60" height="60" viewBox="0 0 60 60" id="icon-suit" y="1484" xmlns="http://www.w3.org/2000/svg"><path fill="#ffe495" d="M43.3 7.37l16.374 1.423L50.26 57.43H9.413L0 8.793 16.375 7.37l13.531 3.303z"/><path fill="#ffd96a" d="M43.302 7.37L29.91 10.673l-.069-.017v46.773h20.424l9.413-48.636z"/><path fill="#eeede9" d="M43.294 7.37H16.37l13.462 41.792z"/><path fill="#e2e0da" d="M29.84 7.37v41.792L43.302 7.37z"/><path fill="#f9f9f8" d="M29.84 49.168l17.238-24.69-3.517-3.54 6.765-8.975L39.71 5.03z"/><path fill="#fff" d="M29.836 49.168L19.964 5.03 9.35 11.963l6.765 8.974-3.518 3.541z"/><path fill="#ffd96a" d="M27.39 11.358l-6.199 3.405a2.144 2.144 0 0 1-3.077-1.67c-.122-1.025-.214-2.356-.214-4.045 0-1.688.092-3.02.214-4.045a2.144 2.144 0 0 1 3.077-1.67l6.199 3.405 2.45 2.31zm4.9 0l6.198 3.405a2.144 2.144 0 0 0 3.078-1.67c.122-1.025.214-2.356.214-4.045 0-1.688-.092-3.02-.214-4.045a2.144 2.144 0 0 0-3.078-1.67L32.29 6.738l-2.45 2.31z"/><path fill="#ffc200" d="M31.222 11.861h-2.764c-.59 0-1.068-.478-1.068-1.068V7.308c0-.59.478-1.068 1.068-1.068h2.764c.59 0 1.068.478 1.068 1.068v3.486c0 .59-.478 1.067-1.068 1.067z"/><path fill="#ffc200" d="M31.222 11.862H29.84V6.24h1.382c.59 0 1.068.478 1.068 1.068v3.486c0 .59-.478 1.068-1.068 1.068zm-961.496-9870.006l-5.045-1.141.217-.962 5.046 1.141zM3525.583-6949.78l-.218-.96 5.046-1.142.217.962zM3534.403-6952.28l-.218-.96 5.046-1.142.217.962zM-921.464-9855.645l-5.045-1.141.217-.962 5.046 1.14z"/></svg><svg width="99" height="20" viewBox="0 0 99 20" id="icon-tinkoff" y="1544" xmlns="http://www.w3.org/2000/svg"><path d="M66.4 5.843a5.057 5.057 0 0 1 1.048 1.748c.25.683.377 1.448.377 2.292 0 .874-.13 1.659-.389 2.349a5.093 5.093 0 0 1-1.068 1.758c-.462.484-1.02.86-1.633 1.102a5.517 5.517 0 0 1-2.074.382 5.41 5.41 0 0 1-2.107-.392 4.555 4.555 0 0 1-1.6-1.114 5.001 5.001 0 0 1-1.026-1.748c-.242-.684-.364-1.447-.364-2.292 0-.876.125-1.658.374-2.348a4.91 4.91 0 0 1 1.058-1.748 4.706 4.706 0 0 1 1.635-1.092 5.5 5.5 0 0 1 2.074-.383 5.492 5.492 0 0 1 2.073.383c.612.24 1.166.616 1.622 1.103zM64.86 11.2c.104-.395.155-.816.155-1.267 0-.975-.199-1.766-.6-2.371-.401-.605-.993-.909-1.778-.909-.739 0-1.3.307-1.688.92-.383.61-.579 1.385-.579 2.315 0 1.051.2 1.864.601 2.438.401.573.98.863 1.734.863.372 0 .7-.084.988-.25.29-.17.539-.41.723-.7.192-.3.34-.643.444-1.04zm-7.816-6.6L52.93 9.517l4.136 5.726H53.75l-3.677-5.203v5.204h-2.79v-10.7h2.79v4.598L53.84 4.6zM0 0h10.96v2.489H7.009v12.755h-2.92V2.489H0zm97.894 12.107a5.206 5.206 0 0 1-1.167 1.724 5.405 5.405 0 0 1-1.749 1.14 6.723 6.723 0 0 1-2.18.48v3.52L90.146 20v-4.529a7.303 7.303 0 0 1-2.287-.467 5.189 5.189 0 0 1-1.768-1.139 4.976 4.976 0 0 1-1.137-1.748c-.268-.677-.399-1.446-.399-2.306a5.166 5.166 0 0 1 1.612-3.834 5.795 5.795 0 0 1 1.78-1.138 6.695 6.695 0 0 1 2.199-.492V1.355L92.778.327v4.02a7.084 7.084 0 0 1 2.212.471c.65.25 1.248.627 1.761 1.113a5.083 5.083 0 0 1 1.155 1.694c.278.655.417 1.384.417 2.184 0 .862-.142 1.627-.429 2.298zm-7.744 1.245V6.467c-.929.073-1.649.425-2.157 1.06-.508.634-.762 1.419-.762 2.35-.01.494.068.987.231 1.452.141.393.356.754.632 1.06.26.29.576.521.927.679.358.16.74.257 1.129.284zm5.275-2.017c.164-.422.241-.91.241-1.463 0-.93-.248-1.713-.746-2.347-.501-.633-1.214-.985-2.136-1.058v6.897a3.143 3.143 0 0 0 1.09-.283c.342-.16.65-.388.914-.678.263-.29.476-.646.637-1.068zm-13.944 2.496a5.383 5.383 0 0 1-1.75 1.138 6.708 6.708 0 0 1-2.18.48v3.521L74.891 20v-4.529a7.318 7.318 0 0 1-2.287-.467 5.19 5.19 0 0 1-1.768-1.14 4.956 4.956 0 0 1-1.138-1.747c-.266-.678-.4-1.446-.4-2.308a5.254 5.254 0 0 1 .41-2.097 5.08 5.08 0 0 1 1.203-1.736 5.841 5.841 0 0 1 1.782-1.137 6.738 6.738 0 0 1 2.198-.492V1.355L77.53.327v4.02a7.098 7.098 0 0 1 2.212.471 5.34 5.34 0 0 1 1.762 1.113 5.068 5.068 0 0 1 1.157 1.694c.28.655.419 1.384.419 2.184 0 .862-.146 1.627-.43 2.296a5.223 5.223 0 0 1-1.17 1.726zm-6.587-.488h-.002zm-.002 0V6.467c-.925.074-1.646.425-2.154 1.058-.508.634-.763 1.417-.763 2.347-.01.494.069.987.233 1.451.142.392.356.751.63 1.058.263.29.578.52.93.679.356.16.737.255 1.124.283zm3.723-.26v-.002a2.85 2.85 0 0 0 .911-.678 3.33 3.33 0 0 0 .635-1.068c.162-.422.243-.91.243-1.463 0-.93-.249-1.713-.747-2.347-.498-.633-1.206-.984-2.127-1.058v6.897a3.15 3.15 0 0 0 1.085-.282zm-33.266-1.281h-.001c0 1.193-.36 2.062-1.087 2.611-.723.544-1.69.819-2.902.819h-4.957V4.543h2.81v3.803h2.024c1.252 0 2.25.304 2.996.907.743.606 1.117 1.454 1.117 2.549zm-3.224.982h-.002c.277-.203.417-.539.417-1.005 0-.437-.14-.766-.417-.985-.278-.216-.651-.327-1.12-.327H39.21v2.623h1.814c.452 0 .82-.101 1.1-.306zm-15.363 2.448h-2.805V4.543h2.806V8.61h4.174V4.543h2.805v10.688h-2.806v-4.437h-4.174zm-9.496-4.59c-.514.757-1.022 1.527-1.53 2.306-.5.773-1.017 1.535-1.55 2.284H11.38V4.543h2.808v6.514h.112c.174-.29.351-.568.527-.832.175-.26.35-.53.528-.807l3.144-4.875h2.81v10.689h-2.81V8.936h-.11c-.19.279-.372.559-.55.843-.175.284-.367.572-.572.862z"/></svg><svg width="110" height="20" viewBox="0 0 110 20" id="icon-vostok" y="1564" xmlns="http://www.w3.org/2000/svg"><path fill="#fff" d="M67.834 9.278c-.18 0-.301.12-.301.301v4.217c-2.41.361-2.892-.482-2.892-1.265V9.519c0-.181-.12-.302-.301-.302h-2.53c-.121 0-.241.121-.302.241v2.049c0 1.084 0 2.289.12 2.77.242 1.387 1.507 1.929 2.772 2.05 1.084.12 2.108.06 3.133-.242v3.193c0 .18.12.301.3.301h2.531c.18 0 .301-.12.301-.3v-9.7c0-.06-.12-.301-.3-.301zm20.06 8.072v-1.867h1.21c.243 0 .545.06.787.12.303.12.484.422.424.723 0 .904-.726 1.024-1.21 1.024zm0-4.217V9.64c0-.18-.12-.301-.3-.301h-2.53c-.181 0-.302.12-.302.301v9.76c0 .18.12.3.301.3h4.338c2.65 0 4.096-1.144 4.096-3.313 0-2.168-1.445-3.253-4.156-3.253zm7.231-3.855c-.181 0-.302.12-.302.301v9.76c0 .18.12.3.302.3h2.538c.182 0 .302-.12.302-.3v-9.76c0-.06-.12-.301-.302-.301zM54.882 17.35c-1.085 0-2.109-.903-2.109-2.77 0-1.567.783-2.772 2.109-2.772 1.325 0 2.108 1.205 2.108 2.771 0 1.868-1.084 2.771-2.108 2.771zm0-8.253c-3.013 0-5.242 2.109-5.242 5.362 0 2.168 1.266 5.361 5.242 5.361s5.24-3.193 5.24-5.361c0-3.193-2.228-5.362-5.24-5.362zm51.681.18c-.12 0-.18.061-.24.181l-2.829 5.362V9.58c0-.18-.12-.301-.3-.301h-2.528c-.18 0-.3.12-.3.301v9.76c0 .18.12.3.3.3h2.648c.12 0 .18-.06.24-.18l2.829-5.362v5.241c0 .181.12.302.3.302h2.528c.18 0 .301-.12.301-.302V9.58c0-.06-.12-.301-.3-.301.06 0 .06 0 0 0zm-27.049 0c-.18 0-.3.121-.3.302v3.615h-3.01V9.579c0-.18-.12-.301-.3-.301h-2.528c-.18 0-.301.12-.301.301v9.76c0 .18.12.3.3.3h2.528c.18 0 .301-.12.301-.3v-3.796h3.01v3.795c0 .181.12.302.3.302h2.528c.18 0 .3-.12.3-.302V9.58c0-.06-.12-.301-.3-.301zM15.302 17.35c-1.085 0-2.109-.903-2.109-2.77 0-1.567.783-2.772 2.109-2.772 1.325 0 2.108 1.205 2.108 2.771.06 1.868-1.024 2.771-2.108 2.771zm0-8.253c-3.012 0-5.241 2.109-5.241 5.362 0 2.168 1.265 5.361 5.24 5.361 3.977 0 5.242-3.193 5.242-5.361 0-3.193-2.23-5.362-5.241-5.362zm13.795 3.738a.29.29 0 0 0 .422 0l1.446-1.809a.292.292 0 0 0 0-.422c-1.084-.904-2.47-1.447-3.856-1.386-3.012 0-5.24 2.11-5.24 5.366 0 2.17 1.264 5.367 5.24 5.367a5.31 5.31 0 0 0 3.856-1.447.292.292 0 0 0 0-.422l-1.446-1.81a.291.291 0 0 0-.422 0c-.542.604-1.265.965-2.048.965-1.084 0-2.108-.844-2.108-2.713 0-1.508.723-2.714 2.108-2.714.783 0 1.506.362 2.048 1.025zm79.03-5.847c.12-.12.06-.3-.06-.421l-1.504-.783c-.12-.06-.301 0-.361.12-.421.663-1.323.844-1.985.422-.18-.12-.3-.241-.421-.422-.06-.12-.24-.18-.361-.12l-1.504.783c-.12.12-.18.301-.06.421.662 1.025 1.805 1.627 3.068 1.507 1.263.06 2.466-.482 3.188-1.506zM4.337 17.35H3.134v-1.686h1.205c.903 0 1.325.361 1.325.843 0 .542-.422.843-1.325.843zm-1.204-5.663h1.084c.241 0 .482.06.723.12.24.12.422.42.361.659 0 .479-.3.778-1.144.778H3.133zm3.855 2.475c.783-.362 1.265-1.206 1.265-2.05 0-.422 0-2.714-3.193-2.714H.301c-.18-.12-.301.12-.301.181v9.77c0 .18.12.3.301.3h5.06c3.254 0 3.495-2.472 3.495-2.954 0-.784-.362-1.628-1.085-2.11a3.245 3.245 0 0 0-.783-.423zm26.628-4.884a.797.797 0 0 0-.783.783v7.771c0 .964.783 1.808 1.807 1.808.964 0 1.807-.784 1.807-1.808v-5.361h2.109v5.361c0 .964.783 1.808 1.807 1.808a1.775 1.775 0 0 0 1.807-1.808v-5.361h2.109v5.361c0 .964.783 1.808 1.807 1.808.964 0 1.807-.784 1.807-1.808v-7.71c-.12-.423-.482-.844-.903-.844zm-1.451-2.292c-.421-.783-.18-1.747.603-2.169L39.937.66a.894.894 0 0 1 .783 0l7.169 4.157c.783.422 1.024 1.386.602 2.169-.421.783-1.385 1.024-2.169.602l-5.964-3.373-6.024 3.373c-.723.422-1.687.12-2.169-.602z"/></svg><svg width="88" height="31" viewBox="0 0 88 31" id="icon-vtb" y="1584" xmlns="http://www.w3.org/2000/svg"><path fill="#fff" d="M20.774 16.468H0l1.498-4.12H22.3zm2.265-6.16H2.247l1.498-4.12h20.801zm2.256-6.179H4.503L6.001.01h20.792zm18.48 13.631v.085c.835.321 1.615.77 2.312 1.33a5.832 5.832 0 0 1 2.097 4.84c0 3.379-1.797 5.822-4.746 6.553a12.61 12.61 0 0 1-3.595.346H30.94V6.19h7.92a14.64 14.64 0 0 1 3.745.346c2.864.768 4.746 2.743 4.746 5.86a5.477 5.477 0 0 1-1.582 4.026 6 6 0 0 1-1.947 1.32zm-7.92 2.613v6.487h3.431a3.688 3.688 0 0 0 2.653-.73 3.227 3.227 0 0 0 1.031-2.546 3.517 3.517 0 0 0-.656-2.116c-.731-.936-1.631-1.114-3.169-1.114zm0-4.279h2.813a5.982 5.982 0 0 0 1.716-.13 2.706 2.706 0 0 0 1.875-2.81 2.5 2.5 0 0 0-1.875-2.742 6.836 6.836 0 0 0-1.876-.169h-2.653zm19.819 14.83V10.327H48.52V6.19h19.856l-1.413 4.147h-6.329v20.596zm14.248 0V6.19h16.093L84.6 10.337h-9.764v5.477h3.979c3.21 0 4.877.767 6.029 1.75a7.283 7.283 0 0 1 2.443 5.86 7.106 7.106 0 0 1-2.911 6.123c-1.545 1.067-3.165 1.367-6.46 1.367zm4.915-4.148h3.74a3.26 3.26 0 0 0 2.86-1.114 3.58 3.58 0 0 0 .73-2.35 3.26 3.26 0 0 0-1.281-2.808 3.736 3.736 0 0 0-2.347-.6h-3.702z"/></svg><svg width="87" height="60" viewBox="0 0 87 60" id="icon-zoom" y="1615" xmlns="http://www.w3.org/2000/svg"><defs><clipPath id="bea"><path fill="#fff" d="M25 37.314V7.686h62v29.628zm56.32-17.21l-1.86-.9-8.26 14.6 1.78.88zm-8.78 4.37c-.307.3-.673.45-1.1.45-.427 0-.793-.15-1.1-.45-.307-.3-.46-.663-.46-1.09a1.5 1.5 0 0 1 .46-1.1 1.5 1.5 0 0 1 1.1-.46 1.5 1.5 0 0 1 1.1.46 1.5 1.5 0 0 1 .46 1.1c0 .427-.153.79-.46 1.09zm2.4-2.58c-.2-.46-.47-.86-.81-1.2a3.684 3.684 0 0 0-1.21-.8 3.829 3.829 0 0 0-1.48-.29c-.52 0-1.013.097-1.48.29-.467.193-.87.46-1.21.8-.34.34-.61.74-.81 1.2-.2.46-.3.957-.3 1.49 0 .52.1 1.01.3 1.47.2.46.47.86.81 1.2.34.34.743.61 1.21.81.467.2.96.3 1.48.3s1.013-.1 1.48-.3c.467-.2.87-.47 1.21-.81.34-.34.61-.74.81-1.2.2-.46.3-.95.3-1.47 0-.533-.1-1.03-.3-1.49zm7.53 9.17c-.087.187-.2.35-.34.49a1.544 1.544 0 0 1-1.09.45c-.427 0-.793-.15-1.1-.45-.307-.3-.46-.663-.46-1.09a1.5 1.5 0 0 1 .46-1.1 1.5 1.5 0 0 1 1.1-.46 1.544 1.544 0 0 1 1.09.45c.14.14.253.307.34.5a1.475 1.475 0 0 1 0 1.21zm2.07-2.07c-.2-.46-.47-.86-.81-1.2-.34-.34-.743-.61-1.21-.81-.467-.2-.96-.3-1.48-.3s-1.013.1-1.48.3c-.467.2-.87.47-1.21.81-.34.34-.61.74-.81 1.2-.2.46-.3.95-.3 1.47s.1 1.01.3 1.47c.2.46.47.86.81 1.2.34.34.743.61 1.21.81.467.2.96.3 1.48.3s1.013-.1 1.48-.3c.467-.2.87-.47 1.21-.81.34-.34.61-.74.81-1.2.2-.46.3-.95.3-1.47s-.1-1.01-.3-1.47zm-26.654-3.748h-5.482l5.386-8.394h.096zm8.086 4.334v-4.35h-3.136V11.348h-6.432L47.188 25.07v4.51h10.656v4.414h5.024V29.58zm-27.64-.04c-.576.544-1.335.816-2.275.816s-1.704-.272-2.292-.816c-.587-.544-.881-1.275-.881-2.192 0-.896.294-1.632.881-2.208.588-.576 1.352-.864 2.292-.864.919 0 1.672.293 2.26.88.587.587.881 1.317.881 2.192 0 .917-.288 1.648-.865 2.192zm-.328-10.16c-.512.533-1.163.8-1.952.8-.832 0-1.488-.267-1.968-.8a2.73 2.73 0 0 1-.72-1.888c0-.747.245-1.365.736-1.856.49-.49 1.141-.736 1.952-.736.747 0 1.387.245 1.92.736.533.49.8 1.11.8 1.856 0 .725-.256 1.355-.768 1.888zm6.24 6.288a5.583 5.583 0 0 0-.864-1.568 5.637 5.637 0 0 0-1.28-1.184 5.787 5.787 0 0 0-1.6-.752v-.096a5.038 5.038 0 0 0 2.496-1.792c.64-.853.96-1.91.96-3.168 0-1.045-.219-1.968-.656-2.768a6.056 6.056 0 0 0-1.744-2 7.72 7.72 0 0 0-2.512-1.2c-.95-.267-1.947-.4-2.992-.4s-2.048.139-3.008.416c-.96.277-1.803.688-2.528 1.232a6 6 0 0 0-1.728 2.032c-.427.81-.64 1.739-.64 2.784 0 1.259.33 2.299.992 3.12a5.604 5.604 0 0 0 2.464 1.776v.064a5.895 5.895 0 0 0-1.568.752A5.93 5.93 0 0 0 28.74 24.1a5.367 5.367 0 0 0-.88 1.568 5.53 5.53 0 0 0-.32 1.904c0 1.195.235 2.235.704 3.12a6.432 6.432 0 0 0 1.872 2.192c.779.576 1.68 1.008 2.704 1.296 1.024.288 2.101.432 3.232.432 1.11 0 2.181-.144 3.216-.432 1.035-.288 1.941-.725 2.72-1.312a6.59 6.59 0 0 0 1.872-2.208c.47-.885.704-1.925.704-3.12 0-.661-.107-1.285-.32-1.872z"/></clipPath></defs><path fill="#ffe495" d="M24.261 41.13l-5.394-5.394a1.765 1.765 0 0 0-2.494 0L1.63 50.48a5.583 5.583 0 0 0 0 7.887A5.54 5.54 0 0 0 5.575 60c1.49 0 2.89-.58 3.944-1.634L24.26 43.625a1.765 1.765 0 0 0 0-2.495z"/><path fill="#ffd96a" d="M1.63 58.363a5.54 5.54 0 0 0 3.944 1.634c1.49 0 2.89-.58 3.944-1.634L24.26 43.62a1.764 1.764 0 0 0 0-2.494l-2.697-2.697L1.63 58.363z"/><path fill="#eeede9" d="M1.631 50.477a5.583 5.583 0 0 0 0 7.887 5.54 5.54 0 0 0 3.944 1.634c1.49 0 2.89-.58 3.944-1.634l8.916-8.916-7.888-7.888z"/><path fill="#e2e0da" d="M1.63 58.37a5.54 5.54 0 0 0 3.944 1.634c1.49 0 2.89-.58 3.944-1.634l8.917-8.916-3.945-3.944L1.63 58.37z"/><path fill="#eeede9" d="M36.025 42.66a18.558 18.558 0 0 1-13.207-5.478c-3.532-3.532-5.477-8.222-5.477-13.206 0-10.303 8.381-18.685 18.684-18.685 4.984 0 9.673 1.945 13.206 5.477 3.533 3.533 5.478 8.222 5.478 13.206v.002c0 10.302-8.382 18.683-18.684 18.683zM52.978 7.021A23.818 23.818 0 0 0 36.025 0a23.82 23.82 0 0 0-16.953 7.022 23.819 23.819 0 0 0-7.022 16.952 23.819 23.819 0 0 0 7.022 16.954 23.819 23.819 0 0 0 16.953 7.022 23.817 23.817 0 0 0 16.953-7.022 23.82 23.82 0 0 0 7.021-16.954 23.815 23.815 0 0 0-7.021-16.952z"/><path fill="#e2e0da" d="M59.998 23.972A23.815 23.815 0 0 0 52.977 7.02l-3.747 3.747c3.532 3.532 5.477 8.222 5.477 13.205v.002c0 10.303-8.381 18.684-18.683 18.684-4.984 0-9.675-1.946-13.207-5.478l-3.747 3.746a23.821 23.821 0 0 0 16.954 7.022 23.817 23.817 0 0 0 16.953-7.022 23.819 23.819 0 0 0 7.021-16.954z"/><path fill="#ffc200" d="M81.32 20.104l-1.86-.9-8.26 14.6 1.78.88zm-8.78 4.37c-.307.3-.673.45-1.1.45-.427 0-.793-.15-1.1-.45-.307-.3-.46-.663-.46-1.09a1.5 1.5 0 0 1 .46-1.1 1.5 1.5 0 0 1 1.1-.46 1.5 1.5 0 0 1 1.1.46 1.5 1.5 0 0 1 .46 1.1c0 .427-.153.79-.46 1.09zm2.4-2.58c-.2-.46-.47-.86-.81-1.2a3.684 3.684 0 0 0-1.21-.8 3.829 3.829 0 0 0-1.48-.29c-.52 0-1.013.097-1.48.29-.467.193-.87.46-1.21.8-.34.34-.61.74-.81 1.2-.2.46-.3.957-.3 1.49 0 .52.1 1.01.3 1.47.2.46.47.86.81 1.2.34.34.743.61 1.21.81.467.2.96.3 1.48.3s1.013-.1 1.48-.3c.467-.2.87-.47 1.21-.81.34-.34.61-.74.81-1.2.2-.46.3-.95.3-1.47 0-.533-.1-1.03-.3-1.49zm7.53 9.17c-.087.187-.2.35-.34.49a1.544 1.544 0 0 1-1.09.45c-.427 0-.793-.15-1.1-.45-.307-.3-.46-.663-.46-1.09a1.5 1.5 0 0 1 .46-1.1 1.5 1.5 0 0 1 1.1-.46 1.544 1.544 0 0 1 1.09.45c.14.14.253.307.34.5a1.475 1.475 0 0 1 0 1.21zm2.07-2.07c-.2-.46-.47-.86-.81-1.2-.34-.34-.743-.61-1.21-.81-.467-.2-.96-.3-1.48-.3s-1.013.1-1.48.3c-.467.2-.87.47-1.21.81-.34.34-.61.74-.81 1.2-.2.46-.3.95-.3 1.47s.1 1.01.3 1.47c.2.46.47.86.81 1.2.34.34.743.61 1.21.81.467.2.96.3 1.48.3s1.013-.1 1.48-.3c.467-.2.87-.47 1.21-.81.34-.34.61-.74.81-1.2.2-.46.3-.95.3-1.47s-.1-1.01-.3-1.47zm-26.654-3.748h-5.482l5.386-8.394h.096zm8.086 4.334v-4.35h-3.136V11.348h-6.432L47.188 25.07v4.51h10.656v4.414h5.024V29.58zm-27.64-.04c-.576.544-1.335.816-2.275.816s-1.704-.272-2.292-.816c-.587-.544-.881-1.275-.881-2.192 0-.896.294-1.632.881-2.208.588-.576 1.352-.864 2.292-.864.919 0 1.672.293 2.26.88.587.587.881 1.317.881 2.192 0 .917-.288 1.648-.865 2.192zm-.328-10.16c-.512.533-1.163.8-1.952.8-.832 0-1.488-.267-1.968-.8a2.73 2.73 0 0 1-.72-1.888c0-.747.245-1.365.736-1.856.49-.49 1.141-.736 1.952-.736.747 0 1.387.245 1.92.736.533.49.8 1.11.8 1.856 0 .725-.256 1.355-.768 1.888zm6.24 6.288a5.583 5.583 0 0 0-.864-1.568 5.637 5.637 0 0 0-1.28-1.184 5.787 5.787 0 0 0-1.6-.752v-.096a5.038 5.038 0 0 0 2.496-1.792c.64-.853.96-1.91.96-3.168 0-1.045-.219-1.968-.656-2.768a6.056 6.056 0 0 0-1.744-2 7.72 7.72 0 0 0-2.512-1.2c-.95-.267-1.947-.4-2.992-.4s-2.048.139-3.008.416c-.96.277-1.803.688-2.528 1.232a6 6 0 0 0-1.728 2.032c-.427.81-.64 1.739-.64 2.784 0 1.259.33 2.299.992 3.12a5.604 5.604 0 0 0 2.464 1.776v.064a5.895 5.895 0 0 0-1.568.752A5.93 5.93 0 0 0 28.74 24.1a5.367 5.367 0 0 0-.88 1.568 5.53 5.53 0 0 0-.32 1.904c0 1.195.235 2.235.704 3.12a6.432 6.432 0 0 0 1.872 2.192c.779.576 1.68 1.008 2.704 1.296 1.024.288 2.101.432 3.232.432 1.11 0 2.181-.144 3.216-.432 1.035-.288 1.941-.725 2.72-1.312a6.59 6.59 0 0 0 1.872-2.208c.47-.885.704-1.925.704-3.12 0-.661-.107-1.285-.32-1.872z"/><path fill="none" stroke="#fff" stroke-miterlimit="50" stroke-width="4" d="M81.32 20.104l-1.86-.9-8.26 14.6 1.78.88zm-8.78 4.37c-.307.3-.673.45-1.1.45-.427 0-.793-.15-1.1-.45-.307-.3-.46-.663-.46-1.09a1.5 1.5 0 0 1 .46-1.1 1.5 1.5 0 0 1 1.1-.46 1.5 1.5 0 0 1 1.1.46 1.5 1.5 0 0 1 .46 1.1c0 .427-.153.79-.46 1.09zm2.4-2.58c-.2-.46-.47-.86-.81-1.2a3.684 3.684 0 0 0-1.21-.8 3.829 3.829 0 0 0-1.48-.29c-.52 0-1.013.097-1.48.29-.467.193-.87.46-1.21.8-.34.34-.61.74-.81 1.2-.2.46-.3.957-.3 1.49 0 .52.1 1.01.3 1.47.2.46.47.86.81 1.2.34.34.743.61 1.21.81.467.2.96.3 1.48.3s1.013-.1 1.48-.3c.467-.2.87-.47 1.21-.81.34-.34.61-.74.81-1.2.2-.46.3-.95.3-1.47 0-.533-.1-1.03-.3-1.49zm7.53 9.17c-.087.187-.2.35-.34.49a1.544 1.544 0 0 1-1.09.45c-.427 0-.793-.15-1.1-.45-.307-.3-.46-.663-.46-1.09a1.5 1.5 0 0 1 .46-1.1 1.5 1.5 0 0 1 1.1-.46 1.544 1.544 0 0 1 1.09.45c.14.14.253.307.34.5a1.475 1.475 0 0 1 0 1.21zm2.07-2.07c-.2-.46-.47-.86-.81-1.2-.34-.34-.743-.61-1.21-.81-.467-.2-.96-.3-1.48-.3s-1.013.1-1.48.3c-.467.2-.87.47-1.21.81-.34.34-.61.74-.81 1.2-.2.46-.3.95-.3 1.47s.1 1.01.3 1.47c.2.46.47.86.81 1.2.34.34.743.61 1.21.81.467.2.96.3 1.48.3s1.013-.1 1.48-.3c.467-.2.87-.47 1.21-.81.34-.34.61-.74.81-1.2.2-.46.3-.95.3-1.47s-.1-1.01-.3-1.47zm-26.654-3.748h-5.482l5.386-8.394h.096zm8.086 4.334v-4.35h-3.136V11.348h-6.432L47.188 25.07v4.51h10.656v4.414h5.024V29.58zm-27.64-.04c-.576.544-1.335.816-2.275.816s-1.704-.272-2.292-.816c-.587-.544-.881-1.275-.881-2.192 0-.896.294-1.632.881-2.208.588-.576 1.352-.864 2.292-.864.919 0 1.672.293 2.26.88.587.587.881 1.317.881 2.192 0 .917-.288 1.648-.865 2.192zm-.328-10.16c-.512.533-1.163.8-1.952.8-.832 0-1.488-.267-1.968-.8a2.73 2.73 0 0 1-.72-1.888c0-.747.245-1.365.736-1.856.49-.49 1.141-.736 1.952-.736.747 0 1.387.245 1.92.736.533.49.8 1.11.8 1.856 0 .725-.256 1.355-.768 1.888zm6.24 6.288a5.583 5.583 0 0 0-.864-1.568 5.637 5.637 0 0 0-1.28-1.184 5.787 5.787 0 0 0-1.6-.752v-.096a5.038 5.038 0 0 0 2.496-1.792c.64-.853.96-1.91.96-3.168 0-1.045-.219-1.968-.656-2.768a6.056 6.056 0 0 0-1.744-2 7.72 7.72 0 0 0-2.512-1.2c-.95-.267-1.947-.4-2.992-.4s-2.048.139-3.008.416c-.96.277-1.803.688-2.528 1.232a6 6 0 0 0-1.728 2.032c-.427.81-.64 1.739-.64 2.784 0 1.259.33 2.299.992 3.12a5.604 5.604 0 0 0 2.464 1.776v.064a5.895 5.895 0 0 0-1.568.752A5.93 5.93 0 0 0 28.74 24.1a5.367 5.367 0 0 0-.88 1.568 5.53 5.53 0 0 0-.32 1.904c0 1.195.235 2.235.704 3.12a6.432 6.432 0 0 0 1.872 2.192c.779.576 1.68 1.008 2.704 1.296 1.024.288 2.101.432 3.232.432 1.11 0 2.181-.144 3.216-.432 1.035-.288 1.941-.725 2.72-1.312a6.59 6.59 0 0 0 1.872-2.208c.47-.885.704-1.925.704-3.12 0-.661-.107-1.285-.32-1.872z" clip-path="url(#bea)"/></svg></svg>